<svg width="314" height="127" viewBox="0 0 314 127" fill="none" xmlns="http://www.w3.org/2000/svg">
<path d="M2.53763 100.45C4.1254 96.3139 4.75315 91.9189 5.75012 87.6347C8.15024 77.552 10.4396 67.4323 12.7659 57.3496C14.6859 49.1136 21.4063 43.7583 29.9359 43.6475C35.7701 43.5736 41.6042 43.5736 47.4383 43.4997C47.623 43.6105 47.8076 43.7583 47.9183 43.9429C48.7676 46.4174 48.7307 49.0028 49.0261 51.5881C50.6877 65.9181 52.3863 80.285 54.0848 94.615C54.0848 94.7258 54.1217 94.8735 54.1217 94.9843C54.491 99.9334 54.7125 99.1208 58.8112 99.1947C60.4728 99.2316 62.1344 99.2316 63.796 99.1947C65.8638 99.1578 66.1592 98.9362 66.0115 96.7941C65.79 93.4701 65.4577 90.1831 65.1623 86.896C64.6084 80.1003 64.0545 73.3047 63.4268 66.509C62.836 60.0088 62.4298 53.5455 61.7283 47.0453C61.6544 46.1959 61.5436 45.3464 61.7652 44.4969C61.839 44.2753 61.9129 44.0907 62.0606 43.9429C63.1683 43.2412 64.4238 43.5736 65.6054 43.3889C66.0854 43.4628 66.6023 43.3889 67.0824 43.3889C69.4086 43.4997 71.7349 43.352 74.0612 43.4628C75.2428 43.4997 75.6859 43.0566 75.6859 41.8747C75.6859 38.5138 75.5012 35.1529 75.7966 31.792C75.9813 31.4227 76.0182 30.8317 76.7198 31.1641C76.8305 35.3745 76.7567 39.5479 76.7936 42.8349C76.6459 39.3263 77.0521 34.9682 76.609 30.5732C76.5352 29.9823 76.5721 29.4652 77.1629 29.1328C78.1229 29.6868 77.8275 30.6471 77.8275 31.4596C77.8644 35.079 77.9014 38.7354 77.8275 42.3548C77.7906 43.7213 78.2706 44.6816 79.3784 45.4572C81.52 46.9714 82.7016 49.0766 83.5139 51.5881C85.8771 58.9747 88.8311 66.1397 91.4159 73.4524C91.5267 73.8217 91.6744 74.1911 91.7851 74.5235C93.0037 77.7736 94.1483 81.0606 95.3668 84.3107C95.4776 84.6431 95.5884 84.9755 95.6992 85.3079C96.1792 86.6744 96.6961 88.0409 97.25 89.4813C99.0593 88.3364 99.9455 86.5267 101.386 85.1971C101.681 84.9016 101.976 84.6062 102.272 84.3107C105.078 80.9498 108.143 77.8474 110.986 74.4865C111.281 74.1911 111.577 73.8956 111.872 73.5632C113.386 71.6427 115.196 70.0176 116.709 68.0971C117.116 67.5801 117.559 67.063 118.297 66.9891C119.59 67.2477 120.402 68.2079 121.362 68.9835C125.571 72.3813 129.855 75.6684 134.027 79.1401C136.87 81.5038 136.87 81.7993 134.286 84.5692C132.55 86.4159 130.852 88.2625 129.264 90.1831C127.565 91.9189 125.978 93.7656 124.39 95.5753C117.559 103.147 110.912 110.902 103.896 118.289C101.718 120.579 98.9855 121.724 95.773 121.576C95.1822 121.539 94.5175 121.613 94.1114 120.985C93.9267 120.653 93.8898 120.283 93.8529 119.914C93.4098 115.261 91.0466 112.232 86.4679 111.161C83.0708 110.385 79.7107 109.351 76.2767 108.686C76.092 108.65 75.9074 108.613 75.7228 108.576C71.3657 107.763 71.1072 107.948 70.0733 112.121C69.1132 115.925 68.3009 119.803 67.3778 123.607C67.1562 124.568 67.0085 125.565 65.8638 125.971C65.31 126.119 64.7561 126.082 64.2022 126.082C47.0691 126.082 29.9359 126.082 12.8028 126.082C12.4335 126.082 12.0643 126.082 11.695 126.045C7.96561 124.752 5.23318 122.278 3.12847 119.028C2.79614 118.511 2.50071 117.994 2.16838 117.477C1.83606 116.664 1.57758 115.815 1.24526 115.039C0.100588 111.53 0.248323 108.059 1.28222 104.587C1.87302 103.257 1.57758 101.669 2.53763 100.45Z" fill="#6DB5DE"/>
<path d="M76.535 10.0357C76.7566 11.513 77.0151 12.9903 77.2366 14.4676C78.1228 15.2063 77.9012 16.1296 77.6797 17.0529C77.6428 17.0899 77.6428 17.1637 77.6059 17.2007C76.0181 18.6041 76.018 18.6041 77.8643 19.6752C78.4551 22.8884 78.7875 26.1015 77.2735 29.2039C76.9412 29.4994 76.9781 29.8687 76.9412 30.238C76.7196 30.4596 76.8673 30.8659 76.535 31.0136C76.4242 31.2352 76.3504 31.4937 76.2396 31.7153C74.9103 34.9654 72.1409 36.3689 69.0392 37.3661C68.2268 37.6246 67.3775 37.7723 66.5652 38.0309C66.3067 38.1047 66.0113 38.1417 65.7528 38.1786C62.2818 38.8434 62.1341 37.8462 62.4295 42.352C62.4665 42.8322 62.6142 43.3123 62.2449 43.7555C62.208 43.8293 62.1341 43.9032 62.0972 43.9771C61.5433 44.6049 60.7679 44.568 60.0294 44.568C56.5953 44.6049 53.1613 44.6049 49.7272 44.568C48.9887 44.568 48.2502 44.4941 47.6594 43.9771C47.5855 43.8293 47.5117 43.6816 47.4748 43.5339C47.4378 39.8775 47.4378 36.1842 47.4009 32.5279C47.4009 31.0505 47.0317 29.9795 45.2592 29.4994C43.413 28.9823 41.9729 27.5788 41.5667 25.5475C41.1236 23.3316 42.2314 21.7804 43.9299 20.5616C44.373 20.2292 44.89 20.0076 44.9269 19.3428C45.5546 18.678 46.4039 18.8257 47.1793 18.8257C52.9397 18.8627 57.8877 17.0899 61.7649 12.6579C64.0542 10.0357 66.7867 7.96743 70.2208 6.97024C73.1748 6.08385 75.4642 7.19184 76.535 10.0357Z" fill="#FD9993"/>
<path d="M76.5338 10.039C73.7275 6.64112 71.8813 6.27179 67.8934 8.3031C65.8256 9.33723 63.9424 10.6668 62.5023 12.4396C58.2559 17.6841 52.6433 19.4569 46.1815 19.3461C45.7384 19.3461 45.3322 19.3461 44.8891 19.3091C44.5568 16.5761 44.6675 13.8061 44.8152 11.0731C45.0737 6.23485 49.1355 2.31996 53.9726 1.87676C57.9236 1.54436 61.9115 1.43356 65.8256 0.76877C66.0841 0.76877 66.3426 0.76877 66.638 0.76877C71.2536 -1.15175 75.6846 1.1381 75.9431 5.64393C76.2754 7.08431 76.7554 8.5247 76.5338 10.039Z" fill="black"/>
<path d="M129.006 90.1878C130.741 87.6024 132.994 85.4603 135.098 83.2074C136.28 81.9517 136.28 81.1761 134.803 80.3266C134.397 80.105 134.065 79.6988 133.658 79.4033C134.323 77.1135 136.058 75.5992 137.72 74.1219C139.788 72.3122 142.225 70.9457 144.551 69.4683C145.216 69.0621 146.028 68.545 146.434 69.8377C146.767 73.9742 146.508 78.0737 146.582 82.2102C146.619 85.1279 146.656 85.1649 149.61 85.1649C164.121 85.1649 178.633 85.1649 193.144 85.1649C195.877 85.1649 195.951 85.091 195.951 82.3949C195.951 64.1869 195.951 45.979 195.951 27.771C195.951 25.038 195.914 25.038 193.144 25.038C178.522 25.038 163.863 25.038 149.241 25.038C146.619 25.038 146.582 25.0749 146.582 27.7341C146.545 33.828 146.693 39.922 146.508 46.0159C146.397 47.05 145.733 47.604 144.92 48.1211C141.597 50.1893 138.274 52.2945 134.951 54.3628C134.397 54.6952 133.806 55.323 133.141 54.7321C132.624 54.252 132.994 53.5872 133.141 52.9962C133.437 51.9252 133.843 50.8911 134.175 49.8569C134.508 48.7489 134.286 47.7887 133.363 47.05C132.403 46.3114 131.443 46.496 130.483 47.1239C130.003 47.4563 129.56 48.3057 128.821 47.4563C128.378 46.533 128.489 45.5358 128.489 44.5386C128.489 37.0781 128.489 29.6546 128.489 22.1941C128.489 16.8019 130.261 15.0291 135.689 14.9922C172.688 14.9922 209.724 14.9922 246.722 14.9922C252.52 14.9922 258.28 14.9922 264.077 14.9922C264.926 14.9922 265.813 14.9922 266.662 15.1399C269.283 15.6201 270.797 17.282 270.982 19.9043C271.019 20.5691 271.019 21.2708 271.019 21.9356C271.019 44.1323 271.019 66.366 271.019 88.5627C271.019 89.3752 271.056 90.1508 270.945 90.9634C270.687 93.2532 269.025 94.9152 266.736 95.1737C265.923 95.2476 265.148 95.2476 264.336 95.2476C221.429 95.2476 178.522 95.2476 135.615 95.2476C134.508 95.2476 133.4 95.3214 132.292 95.0629C129.744 94.3981 128.415 92.4037 129.006 90.1878Z" fill="black"/>
<path d="M202.441 28.2877C203.55 28.9974 203.73 29.7831 203.189 31.1011C202.209 33.509 203.369 36.221 205.612 37.5644C207.778 38.857 210.691 38.5529 212.522 36.804C214.301 35.1312 214.765 32.2924 213.63 30.1633C212.393 27.8821 209.737 26.5895 207.211 27.4006C205.819 27.8568 205.406 27.0204 204.762 26.2853C207.366 24.2576 212.006 24.9927 214.43 27.8061C217.163 30.9744 216.853 35.562 213.734 38.4008C210.794 41.0622 206.076 41.0115 203.24 38.2741C200.327 35.486 199.966 30.9744 202.441 28.2877Z" fill="#60A9FC"/>
<path d="M230.285 40.3745C226.16 40.3745 222.937 37.3836 222.551 33.2268C222.215 29.5262 225.026 26.0538 228.996 25.2681C232.734 24.533 236.576 26.8649 237.684 30.5401C237.787 30.9203 238.251 31.5793 237.633 31.6807C237.014 31.7821 236.06 32.1876 235.699 31.0724C235.132 29.3235 233.92 28.1068 232.167 27.4985C229.305 26.51 226.211 27.8787 225.026 30.6161C223.865 33.3282 225.077 36.5218 227.784 37.8145C230.491 39.1071 233.714 38.1186 235.261 35.508C235.467 35.1531 235.467 34.5195 236.137 34.5955C236.627 34.6462 237.298 34.4688 237.581 34.8743C237.839 35.2292 237.426 35.7361 237.22 36.1416C235.957 38.7523 233.276 40.3745 230.285 40.3745Z" fill="#60A9FC"/>
<path d="M256.518 26.6972C255.744 27.7871 254.919 27.9898 253.604 27.4576C251.207 26.4944 248.422 27.635 247.03 29.8401C245.715 31.9438 246.024 34.7826 247.803 36.6076C249.608 38.4578 252.47 38.8634 254.764 37.5707C257.007 36.3034 258.193 33.7181 257.343 31.3102C256.879 29.9668 257.858 29.6627 258.451 29.0037C260.514 31.4623 259.895 35.8472 257.162 38.3311C254.172 41.0938 249.402 41.0178 246.463 38.1537C243.575 35.3656 243.395 30.7779 246.05 27.711C248.654 24.7202 253.295 24.2639 256.518 26.6972Z" fill="#60A9FC"/>
<path d="M204.745 47.5977C208.484 45.646 212.763 46.6345 215.006 49.9295C217.198 53.1232 216.553 57.4827 213.563 59.992C210.572 62.5012 206.06 62.3745 203.25 59.6878C200.362 56.9251 199.976 52.7176 202.348 49.7521C203.74 50.766 203.74 50.766 203.198 52.2867C202.322 54.72 203.224 57.4066 205.416 58.8514C207.53 60.2454 210.366 60.068 212.325 58.3951C214.233 56.7983 214.8 53.9342 213.691 51.7038C212.557 49.448 209.876 48.0539 207.349 48.789C205.957 49.1692 205.416 48.6115 204.745 47.5977Z" fill="#60A9FC"/>
<path d="M230.205 46.6017C233.609 46.6017 236.548 48.7055 237.553 51.8991C237.682 52.2793 238.249 52.989 237.476 53.1157C236.883 53.2171 235.929 53.4959 235.568 52.406C234.794 50.2262 233.222 48.9336 230.876 48.6294C228.091 48.2746 225.41 50.0488 224.688 52.6848C223.941 55.4476 225.359 58.261 228.014 59.3256C230.669 60.4155 233.712 59.4016 235.155 56.943C235.387 56.5375 235.413 56.0052 236.161 55.9799C237.708 55.9292 237.862 56.1066 237.218 57.4499C235.594 60.7956 231.623 62.5445 228.04 61.4546C224.276 60.3141 222.033 56.7909 222.626 52.9129C223.141 49.2884 226.39 46.5764 230.205 46.6017Z" fill="#60A9FC"/>
<path d="M256.511 48.0979C255.738 49.1371 255.067 49.568 253.727 48.9596C251.484 47.9458 248.648 48.985 247.256 50.9873C245.735 53.1671 245.915 56.0819 247.72 57.9829C249.447 59.8332 252.257 60.3148 254.526 59.1488C256.846 57.9576 258.058 55.4229 257.439 52.9897C257.233 52.204 257.027 51.5957 257.852 50.9366C258.651 50.303 258.78 50.6578 259.038 51.2915C260.353 54.3331 259.45 57.9322 256.795 60.0866C254.165 62.2157 250.375 62.4185 247.565 60.5429C244.678 58.6166 243.414 55.0934 244.471 51.8745C245.528 48.6808 248.571 46.5518 251.999 46.6024C253.727 46.6278 254.99 47.0587 256.511 48.0979Z" fill="#60A9FC"/>
<path d="M213.207 69.551C212.433 70.5902 211.763 71.0211 210.422 70.4128C208.179 69.3989 205.343 70.4381 203.951 72.4405C202.43 74.6202 202.61 77.5351 204.415 79.436C206.143 81.2863 208.953 81.7679 211.221 80.602C213.542 79.4107 214.753 76.8761 214.135 74.4428C213.928 73.6571 213.722 73.0488 214.547 72.3898C215.346 71.7561 215.475 72.111 215.733 72.7446C217.048 75.7862 216.146 79.3853 213.49 81.5398C210.86 83.6689 207.071 83.8716 204.26 81.996C201.373 80.0697 200.11 76.5466 201.167 73.3276C202.224 70.134 205.266 68.0049 208.695 68.0556C210.422 68.0809 211.685 68.5118 213.207 69.551Z" fill="#60A9FC"/>
<path d="M234.964 69.551C234.191 70.5902 233.521 71.0211 232.18 70.4128C229.937 69.3989 227.101 70.4381 225.709 72.4405C224.188 74.6202 224.368 77.5351 226.173 79.436C227.9 81.2863 230.71 81.7679 232.979 80.602C235.3 79.4107 236.511 76.8761 235.892 74.4428C235.686 73.6571 235.48 73.0488 236.305 72.3898C237.104 71.7561 237.233 72.111 237.491 72.7446C238.806 75.7862 237.903 79.3853 235.248 81.5398C232.618 83.6689 228.828 83.8716 226.018 81.996C223.131 80.0697 221.867 76.5466 222.925 73.3276C223.982 70.134 227.024 68.0049 230.453 68.0556C232.18 68.0809 233.443 68.5118 234.964 69.551Z" fill="#60A9FC"/>
<path d="M129.006 90.1832C129.523 93.5441 130.815 94.6521 134.138 94.6521C177.858 94.6521 221.577 94.6521 265.296 94.6521C269.025 94.6521 270.392 93.2486 270.392 89.5184C270.392 66.62 270.392 43.7585 270.392 20.86C270.392 17.2037 268.878 15.6894 265.259 15.6894C221.651 15.6894 178.079 15.6894 134.471 15.6894C130.557 15.6894 129.08 17.1667 129.08 21.0078C129.08 29.2438 129.08 37.4799 129.08 45.7528C129.08 46.4176 129.191 47.0824 129.227 47.7472C129.744 48.2643 129.338 48.7814 129.154 49.2615C127.898 52.6224 126.606 56.0202 125.276 59.3442C124.981 60.1198 124.649 61.0062 123.578 61.0062C123.578 46.75 123.467 32.4939 123.541 18.2378C123.578 13.5473 127.27 10.0017 131.997 10.0017C149.684 9.96479 167.371 10.0017 185.058 10.0017C185.575 9.74319 186.129 9.5216 186.646 10.0017C213.786 10.0017 240.926 10.0017 268.028 10.0017C268.324 10.0017 268.656 10.0017 268.952 10.0017C271.278 9.63239 274.121 11.2205 275.561 13.695C275.967 14.3967 276.226 15.1354 276.521 15.8741C276.817 16.7605 277.075 17.6099 277.075 18.5702C277.075 24.1471 277.334 29.7609 277.001 35.3008C276.669 40.139 276.854 44.9773 276.743 49.8155C276.706 50.5541 276.669 51.2928 276.927 51.9945C277.038 52.3269 277.038 52.6593 277.075 53.0286C277.223 56.3895 277.112 59.7874 277.149 63.1483C277.186 65.512 277.223 65.5858 279.66 65.5858C282.54 65.5858 285.42 65.5858 288.3 65.5858C289.15 65.5858 290.036 65.512 290.811 65.9921C290.996 66.1768 291.07 66.3614 290.959 66.583C290.294 67.137 289.445 67.0262 288.67 67.0262C285.494 67.0632 282.318 67.0262 279.143 67.0632C278.478 67.0632 277.629 66.7677 277.26 67.728C276.927 70.8303 277.186 73.9696 277.112 77.072C277.112 78.3647 277.998 78.5124 278.995 78.5124C282.54 78.5124 286.085 78.5124 289.63 78.5124C290.553 78.5124 291.476 78.4016 292.288 78.9556C292.473 79.1403 292.473 79.3619 292.325 79.5465C287.303 79.5835 282.245 79.8789 277.223 79.3988C277.223 79.4357 277.223 79.5096 277.26 79.6573C282.208 79.6942 287.193 79.6204 292.177 79.6943C292.436 79.7681 292.51 79.9528 292.473 80.2113C291.771 80.913 290.885 80.7653 290.036 80.7653C286.454 80.8022 282.909 80.7653 279.328 80.7653C277.26 80.7653 277.112 80.913 277.075 82.9443C277.038 86.0098 277.149 89.1122 277.038 92.1776C276.89 97.1266 273.937 100.635 269.395 101.411C268.841 101.374 268.324 101.522 267.77 101.669C264.779 101.928 261.825 101.854 258.834 101.706C258.317 101.596 257.763 101.596 257.246 101.706C251.338 101.965 245.467 101.78 239.559 101.817C234.094 101.854 228.63 101.817 223.165 101.817C220.764 101.817 220.617 101.965 220.617 104.292C220.617 108.539 220.58 112.786 220.617 116.997C220.617 118.917 220.838 119.065 222.758 119.139C223.312 119.139 223.866 119.139 224.42 119.139C228.149 119.213 229.59 121.392 228.113 125.048C230.808 125.048 233.393 125.048 236.015 125.048C236.938 125.048 237.861 124.937 238.71 125.417C238.932 125.602 238.932 125.787 238.747 125.971C217.811 125.971 196.874 125.934 175.901 125.934C173.02 125.934 170.14 126.193 167.26 125.86C167.26 125.602 167.371 125.417 167.592 125.343C168.516 124.937 169.513 125.085 170.51 125.085C171.211 125.085 171.617 125.011 171.433 124.051C170.842 120.69 172.097 119.249 175.568 119.176C179.372 119.102 179.261 119.545 179.261 115.445C179.261 111.826 179.261 108.206 179.261 104.55C179.261 101.854 179.187 101.817 176.454 101.817C162.275 101.817 148.096 101.817 133.88 101.817C130.261 101.817 127.049 100.968 124.76 97.9391C124.206 97.2005 123.578 96.4618 124.021 95.4277C125.609 93.581 127.086 91.6605 129.006 90.1832Z" fill="#5494A2"/>
<path d="M123.618 61.0057C124.357 60.5625 124.689 59.8608 124.948 59.0852C126.388 55.2811 127.828 51.5139 129.268 47.7468C130.56 46.0109 131.853 45.5677 133.293 46.3064C134.696 47.0081 135.176 48.5223 134.548 50.4059C134.105 51.7724 133.625 53.139 132.96 55.0595C137.613 52.1048 141.859 49.4087 146.069 46.6757C146.438 45.937 147.176 45.7893 147.878 45.5677C149.946 44.866 151.977 44.9029 153.934 45.8632C155.669 46.6757 155.743 47.5621 154.118 48.5593C151.312 50.2951 148.469 51.9571 145.773 53.8776C146.586 53.8407 147.176 53.3606 147.804 52.9543C149.872 51.6247 152.014 50.4429 154.081 49.1133C157.072 47.1927 158.291 47.4143 160.58 50.2213C160.654 50.4798 160.654 50.7383 160.543 50.9968C156.999 53.2498 153.306 55.2811 149.983 57.8664C153.564 55.6504 157.479 53.9146 160.765 51.2184C161.023 51.1076 161.282 51.1446 161.54 51.2923C163.017 55.9459 161.91 59.0113 157.626 61.7443C154.34 63.8495 151.054 65.9916 147.878 68.2815C147.25 68.6139 146.77 69.1679 145.995 69.1309C141.453 72.0117 136.653 74.5601 133.699 79.3614C128.603 75.2988 123.471 71.2361 118.375 67.2104C120.11 65.1422 121.846 63.0739 123.618 61.0057Z" fill="#FD9993"/>
<path d="M47.6641 44.0156C52.4642 44.0156 57.3013 44.0156 62.1015 44.0156C63.1354 56.1296 64.1693 68.2437 65.2032 80.3577C65.7201 86.3039 66.1632 92.2501 66.7171 98.1594C66.8648 99.5628 66.3847 99.7844 65.1293 99.7844C61.9538 99.7106 58.7414 99.6736 55.529 99.7475C54.4212 99.7844 54.0889 99.452 53.9412 98.344C53.055 90.5142 52.095 82.7214 51.1719 74.9285C50.0272 64.6242 48.8456 54.3199 47.6641 44.0156Z" fill="black"/>
<path d="M94.484 121.166C94.3363 122.052 94.1517 122.901 94.004 123.788C94.1887 124.194 94.004 124.526 93.8194 124.859C93.5609 125.339 93.1917 125.634 92.6747 125.782C92.4532 125.782 92.2316 125.819 92.0101 125.782C84.0712 125.782 76.1693 125.782 68.2304 125.782C67.5658 125.782 66.8642 126.041 66.2734 125.561C67.492 120.39 68.8212 115.219 69.929 110.049C70.2982 108.424 70.8152 107.611 72.6614 107.833C74.1753 108.017 75.7262 108.091 77.2032 108.424C80.231 109.088 83.222 110.012 86.2498 110.677C91.6408 111.858 94.0409 115.182 94.484 121.166Z" fill="#FD9993"/>
<path d="M65.5454 37.7378C69.6464 36.7904 74.9633 36.2605 77.7333 27.9506C78.5322 27.3311 80.0204 32.4481 80.8194 31.8286C80.8194 35.5088 80.8193 39.1891 80.8726 42.8693C80.8726 43.7074 80.8617 45.2337 79.2106 45.1244C75.9617 44.9058 72.6705 43.8895 69.4216 43.8531C68.5695 43.8531 63.1518 44.3268 62.4061 43.8531C61.2877 41.8855 64.4802 39.7054 65.5454 37.7378Z" fill="#FDFDFD"/>
<path d="M62.243 43.7935C62.1322 43.3134 61.9845 42.8333 61.9476 42.3531C61.5045 38.3274 61.6891 38.1058 65.788 37.7734C66.6003 39.694 66.5265 41.6514 65.8249 43.6088C64.6802 44.1998 63.4616 44.0151 62.243 43.7935Z" fill="#FAFAFB"/>
<path d="M65.4225 18.3834C65.2748 19.0852 64.9424 19.6022 64.2037 19.5653C63.5389 19.5283 63.0588 19.0852 63.0957 18.3834C63.1327 17.7186 63.539 17.2385 64.2776 17.2754C64.9793 17.3124 65.3486 17.7556 65.4225 18.3834Z" fill="#1B100F"/>
<path d="M77.3093 17.5356C77.8263 18.2004 77.8632 18.9022 77.3463 19.567C76.4601 19.7147 75.5 19.8255 75.5 18.5328C75.5 17.351 76.3862 17.314 77.3093 17.5356Z" fill="#0D0A0A"/>
<path d="M292.126 61.0071C292.68 65.9562 293.652 90.0365 294.206 94.9855C294.981 102.261 295.757 109.537 296.532 116.813C296.606 117.404 296.569 118.032 296.569 118.66C295.904 119.287 295.092 119.177 294.316 119.177C286.599 119.177 278.882 119.214 271.164 119.177C268.69 119.177 268.395 118.881 268.395 116.444C268.358 112.085 268.358 107.727 268.395 103.369C268.395 102.483 268.247 101.486 269.318 100.969C273.491 100.489 276.518 97.0168 276.592 92.6587C276.629 89.0393 276.666 85.4199 276.592 81.8004C276.555 80.5078 276.592 14.6562 276.592 14.6562C281.319 14.6932 287.363 61.0071 292.126 61.0071Z" fill="#FEFEFE"/>
<path d="M257.8 120.798C253.074 119.579 248.421 119.395 243.953 121.832C242.07 122.866 240.667 124.491 238.931 125.71C234.98 125.71 231.066 125.71 227.152 125.71C227.041 124.972 227.669 124.861 227.928 124.455C229.294 122.312 228.038 119.801 225.491 119.653C224.087 119.579 222.647 119.616 221.244 119.653C220.358 119.69 220.062 119.321 220.062 118.471C220.099 113.116 220.099 107.761 220.062 102.406C220.062 100.891 220.986 101.113 221.909 101.113C232.248 101.113 242.587 101.113 252.889 101.113C254.551 101.113 256.212 101.187 257.874 101.224C258.502 101.852 258.391 102.701 258.391 103.477C258.391 108.499 258.391 113.522 258.391 118.508C258.317 119.321 258.428 120.133 257.8 120.798Z" fill="#FEFEFE"/>
<path d="M180.735 46.2714C180.587 45.6435 180.735 45.1264 181.215 44.6094C181.584 45.0526 181.473 45.4588 181.362 45.902C181.141 46.0498 180.956 46.1606 180.735 46.2714Z" fill="#8C8C8C"/>
<path d="M312.887 24.0754C312.185 24.0015 311.742 23.6322 311.742 22.9304C311.742 22.2287 312.185 21.7855 312.924 21.8225C313.551 21.8594 313.957 22.2287 313.994 22.8566C314.031 23.5583 313.625 24.0015 312.887 24.0754Z" fill="#0C0707"/>
</svg>
