<svg width="240" height="121" viewBox="0 0 240 121" fill="none" xmlns="http://www.w3.org/2000/svg">
<g clip-path="url(#clip0_8592_47469)">
<mask id="mask0_8592_47469" style="mask-type:luminance" maskUnits="userSpaceOnUse" x="1" y="0" width="238" height="120">
<path d="M1.57812 0.671875H238.416V119.097H1.57812V0.671875Z" fill="white"/>
</mask>
<g mask="url(#mask0_8592_47469)">
<path d="M1.57812 0.671875H238.428V119.097H1.57812V0.671875Z" fill="white"/>
<path d="M1.57812 0.671875H238.428V119.097H1.57812V0.671875Z" fill="white"/>
</g>
<mask id="mask1_8592_47469" style="mask-type:luminance" maskUnits="userSpaceOnUse" x="1" y="36" width="51" height="48">
<path d="M1.57812 36.0625H51.2031V83.425H1.57812V36.0625Z" fill="white"/>
</mask>
<g mask="url(#mask1_8592_47469)">
<path d="M50.5317 63.9412C50.1317 67.5036 49.0567 70.8537 47.3067 73.9662C43.0442 81.0536 34.5317 84.4037 26.5192 84.2037C20.9192 84.0662 14.6317 82.4662 9.83169 79.5162C5.71919 76.9786 4.16919 72.9286 3.11919 68.4161C2.23169 64.6161 1.73169 60.6662 2.3817 56.7911C3.03169 52.8911 4.96919 49.4161 7.11919 46.1661C9.1942 43.0286 11.7317 40.1411 15.2442 38.6161C19.3942 36.8036 23.7192 36.0537 28.2317 36.3911C32.2067 36.6537 35.8942 37.8161 39.3067 39.8786C42.7692 42.1911 45.4942 45.1787 47.4692 48.8537C48.5567 50.5787 49.4442 52.4036 50.1192 54.3286C50.9817 57.2786 50.9442 60.9162 50.5317 63.9412Z" fill="#63B1FC"/>
</g>
<path d="M45.2281 58.4812C45.2281 59.4813 45.1281 60.4688 44.9281 61.4563C44.7406 62.4438 44.4406 63.3937 44.0656 64.3188C43.6781 65.2438 43.2031 66.1187 42.6531 66.9563C42.0906 67.7937 41.4656 68.5563 40.7531 69.2688C40.0406 69.9812 39.2781 70.6063 38.4406 71.1688C37.6031 71.7312 36.7281 72.1938 35.8031 72.5813C34.8781 72.9563 33.9281 73.2563 32.9406 73.4438C31.9531 73.6438 30.9656 73.7437 29.9656 73.7437C28.9656 73.7437 27.9656 73.6438 26.9906 73.4438C26.0031 73.2563 25.0531 72.9563 24.1281 72.5813C23.2031 72.1938 22.3156 71.7312 21.4781 71.1688C20.6531 70.6063 19.8781 69.9812 19.1656 69.2688C18.4656 68.5563 17.8281 67.7937 17.2781 66.9563C16.7156 66.1187 16.2531 65.2438 15.8656 64.3188C15.4781 63.3937 15.1906 62.4438 14.9906 61.4563C14.8031 60.4688 14.7031 59.4813 14.7031 58.4812C14.7031 57.4812 14.8031 56.4812 14.9906 55.5063C15.1906 54.5187 15.4781 53.5687 15.8656 52.6438C16.2531 51.7187 16.7156 50.8312 17.2781 50.0062C17.8281 49.1687 18.4656 48.3937 19.1656 47.6937C19.8781 46.9812 20.6531 46.3438 21.4781 45.7937C22.3156 45.2312 23.2031 44.7688 24.1281 44.3813C25.0531 43.9937 26.0031 43.7063 26.9906 43.5062C27.9656 43.3187 28.9656 43.2188 29.9656 43.2188C30.9656 43.2188 31.9531 43.3187 32.9406 43.5062C33.9281 43.7063 34.8781 43.9937 35.8031 44.3813C36.7281 44.7688 37.6031 45.2312 38.4406 45.7937C39.2781 46.3438 40.0406 46.9812 40.7531 47.6937C41.4656 48.3937 42.0906 49.1687 42.6531 50.0062C43.2031 50.8312 43.6781 51.7187 44.0656 52.6438C44.4406 53.5687 44.7406 54.5187 44.9281 55.5063C45.1281 56.4812 45.2281 57.4812 45.2281 58.4812Z" fill="white"/>
<path d="M38.0844 56.2359C38.0844 57.0359 37.9344 57.7984 37.6344 58.5359C37.3219 59.2734 36.8844 59.9234 36.3219 60.4859C35.7594 61.0609 35.1094 61.4859 34.3719 61.7984C33.6344 62.0984 32.8594 62.2609 32.0719 62.2609C31.2719 62.2609 30.4969 62.0984 29.7594 61.7984C29.0219 61.4859 28.3719 61.0609 27.8094 60.4859C27.2469 59.9234 26.8094 59.2734 26.4969 58.5359C26.1969 57.7984 26.0469 57.0359 26.0469 56.2359C26.0469 55.4359 26.1969 54.6609 26.4969 53.9234C26.8094 53.1859 27.2469 52.5359 27.8094 51.9734C28.3719 51.4109 29.0219 50.9734 29.7594 50.6609C30.4969 50.3609 31.2719 50.2109 32.0719 50.2109C32.8594 50.2109 33.6344 50.3609 34.3719 50.6609C35.1094 50.9734 35.7594 51.4109 36.3219 51.9734C36.8844 52.5359 37.3219 53.1859 37.6344 53.9234C37.9344 54.6609 38.0844 55.4359 38.0844 56.2359Z" fill="black"/>
<path d="M16.4768 49.1461C17.2143 49.3961 17.8893 49.7086 18.5268 50.0836C19.1518 50.4586 19.6893 50.8586 20.1143 51.2961C20.5518 51.7336 20.8393 52.1711 21.0143 52.6086C21.1768 53.0336 21.1893 53.4336 21.0643 53.7961C20.9393 54.1586 20.6893 54.4586 20.2893 54.6961C19.8893 54.9336 19.3893 55.0961 18.7768 55.1711C18.1768 55.2461 17.5018 55.2336 16.7768 55.1461C16.0518 55.0461 15.3143 54.8711 14.5893 54.6211C13.8518 54.3711 13.1643 54.0586 12.5393 53.6836C11.9018 53.3086 11.3768 52.8961 10.9393 52.4711C10.5143 52.0336 10.2143 51.5961 10.0518 51.1586C9.87677 50.7336 9.86426 50.3336 9.98926 49.9711C10.1143 49.6086 10.3768 49.3086 10.7768 49.0711C11.1643 48.8336 11.6643 48.6711 12.2768 48.5961C12.8893 48.5211 13.5518 48.5336 14.2768 48.6211C15.0018 48.7211 15.7393 48.8961 16.4768 49.1461Z" fill="#63B1FC"/>
<mask id="mask2_8592_47469" style="mask-type:luminance" maskUnits="userSpaceOnUse" x="220" y="39" width="14" height="17">
<path d="M220.797 39.0703H233.597V55.0703H220.797V39.0703Z" fill="white"/>
</mask>
<g mask="url(#mask2_8592_47469)">
<mask id="mask3_8592_47469" style="mask-type:luminance" maskUnits="userSpaceOnUse" x="223" y="39" width="8" height="16">
<path d="M230.747 39.1328V54.3953H223.109V46.7703C223.109 42.5578 226.522 39.1328 230.747 39.1328Z" fill="white"/>
</mask>
<g mask="url(#mask3_8592_47469)">
<path d="M230.747 39.1328H223.109V54.3953H230.747V39.1328Z" fill="url(#paint0_linear_8592_47469)"/>
</g>
</g>
<mask id="mask4_8592_47469" style="mask-type:luminance" maskUnits="userSpaceOnUse" x="220" y="39" width="19" height="10">
<path d="M220.797 39.0703H238.409V48.6703H220.797V39.0703Z" fill="white"/>
</mask>
<g mask="url(#mask4_8592_47469)">
<mask id="mask5_8592_47469" style="mask-type:luminance" maskUnits="userSpaceOnUse" x="223" y="39" width="16" height="8">
<path d="M223.133 46.7703C223.133 42.5578 226.545 39.1328 230.758 39.1328H238.395V46.7703H223.133Z" fill="white"/>
</mask>
<g mask="url(#mask5_8592_47469)">
<path d="M238.395 39.1328H223.133V46.7703H238.395V39.1328Z" fill="url(#paint1_linear_8592_47469)"/>
</g>
</g>
<mask id="mask6_8592_47469" style="mask-type:luminance" maskUnits="userSpaceOnUse" x="220" y="31" width="14" height="18">
<path d="M220.797 31.5H233.597V48.675H220.797V31.5Z" fill="white"/>
</mask>
<g mask="url(#mask6_8592_47469)">
<mask id="mask7_8592_47469" style="mask-type:luminance" maskUnits="userSpaceOnUse" x="223" y="31" width="8" height="16">
<path d="M223.148 46.7781V31.5156H230.773V39.1406C230.773 43.3656 227.361 46.7781 223.148 46.7781Z" fill="white"/>
</mask>
<g mask="url(#mask7_8592_47469)">
<path d="M223.148 46.7781H230.773V31.5156H223.148V46.7781Z" fill="url(#paint2_linear_8592_47469)"/>
</g>
</g>
<mask id="mask8_8592_47469" style="mask-type:luminance" maskUnits="userSpaceOnUse" x="215" y="39" width="19" height="10">
<path d="M215.484 39.0703H233.597V48.6703H215.484V39.0703Z" fill="white"/>
</mask>
<g mask="url(#mask8_8592_47469)">
<mask id="mask9_8592_47469" style="mask-type:luminance" maskUnits="userSpaceOnUse" x="215" y="39" width="16" height="8">
<path d="M230.747 39.1328C230.747 43.3578 227.334 46.7703 223.122 46.7703H215.484V39.1328H230.747Z" fill="white"/>
</mask>
<g mask="url(#mask9_8592_47469)">
<path d="M215.484 46.7703H230.747V39.1328H215.484V46.7703Z" fill="url(#paint3_linear_8592_47469)"/>
</g>
</g>
<path d="M53.875 72.0828V48.7828H61.925V52.1328H62.025C62.0875 52.0328 62.1875 51.9078 62.325 51.7328C62.45 51.5328 62.7375 51.2203 63.175 50.7828C63.6375 50.3203 64.125 49.9078 64.625 49.5328C65.15 49.1703 65.825 48.8578 66.625 48.5828C67.45 48.2828 68.3 48.1328 69.175 48.1328C70.0375 48.1328 70.8875 48.2578 71.725 48.4828C72.5875 48.7203 73.225 48.9578 73.625 49.1828L74.225 49.5828L70.875 56.3828C69.875 55.5203 68.4875 55.0828 66.725 55.0828C65.725 55.0828 64.875 55.3078 64.175 55.7328C63.5 56.1703 63.025 56.6828 62.725 57.2828C62.425 57.8828 62.2 58.4078 62.075 58.8328C61.975 59.2703 61.925 59.6078 61.925 59.8328V72.0828H53.875Z" fill="#212529"/>
<path d="M98.2109 51.7313C100.373 54.1062 101.461 57.0188 101.461 60.4813C101.461 63.9188 100.373 66.8312 98.2109 69.2313C96.0359 71.6063 93.2734 72.7812 89.9109 72.7812C86.8109 72.7812 84.2609 71.6688 82.2609 69.4313H82.1609V72.0812H74.2109V33.0312H82.2609V51.0312C84.2609 49.1062 86.8109 48.1313 89.9109 48.1313C93.2734 48.1313 96.0359 49.3313 98.2109 51.7313ZM91.4609 64.4312C92.4609 63.4062 92.9609 62.0813 92.9609 60.4813C92.9609 58.8563 92.4234 57.5312 91.3609 56.5312C90.3234 55.5062 89.0359 54.9813 87.5109 54.9813C85.9734 54.9813 84.6859 55.5062 83.6609 56.5312C82.6234 57.5312 82.1109 58.8563 82.1109 60.4813C82.1109 62.0563 82.6109 63.3563 83.6109 64.3813C84.6109 65.4188 85.9109 65.9313 87.5109 65.9313C89.1359 65.9313 90.4609 65.4313 91.4609 64.4312Z" fill="#212529"/>
<path d="M113.105 48.1328C114.43 48.1328 115.755 48.2828 117.055 48.5828C118.355 48.8828 119.317 49.1828 119.955 49.4828L120.905 49.9328L118.255 55.1828C116.455 54.2203 114.73 53.7328 113.105 53.7328C112.205 53.7328 111.555 53.8328 111.155 54.0328C110.78 54.2328 110.605 54.6078 110.605 55.1328C110.605 55.2703 110.617 55.4078 110.655 55.5328C110.68 55.6328 110.73 55.7578 110.805 55.8828C110.905 55.9828 110.98 56.0703 111.055 56.1328C111.155 56.2078 111.28 56.2828 111.455 56.3828C111.655 56.4828 111.805 56.5578 111.905 56.5828C112.005 56.6203 112.167 56.6828 112.405 56.7828C112.667 56.8828 112.855 56.9578 112.955 56.9828C113.08 57.0203 113.28 57.0828 113.555 57.1828C113.855 57.2828 114.08 57.3578 114.255 57.3828C115.18 57.6578 116.005 57.9578 116.705 58.2828C117.405 58.6203 118.13 59.0703 118.905 59.6328C119.667 60.2078 120.255 60.9328 120.655 61.8328C121.08 62.7078 121.305 63.7078 121.305 64.8328C121.305 70.1328 117.63 72.7828 110.305 72.7828C108.63 72.7828 107.055 72.5328 105.555 72.0328C104.055 71.5078 102.967 70.9703 102.305 70.4328L101.305 69.6328L104.555 64.1328C104.817 64.3328 105.13 64.5828 105.505 64.8828C105.905 65.1828 106.617 65.5828 107.655 66.0828C108.68 66.5828 109.58 66.8328 110.355 66.8328C112.017 66.8328 112.855 66.2703 112.855 65.1328C112.855 64.6328 112.63 64.2328 112.205 63.9328C111.767 63.6328 111.03 63.3203 110.005 62.9828C109.005 62.6203 108.217 62.2828 107.655 61.9828C106.18 61.2203 105.03 60.3703 104.205 59.4328C103.367 58.4703 102.955 57.1828 102.955 55.5828C102.955 53.2578 103.855 51.4328 105.655 50.1328C107.48 48.8078 109.967 48.1328 113.105 48.1328Z" fill="#212529"/>
<path d="M137.372 72.0813H131.922L119.422 48.7812H128.672L134.372 61.3813L139.922 48.7812H145.472L151.072 61.3813L156.722 48.7812H165.972L153.522 72.0813H148.072L142.722 60.0312L137.372 72.0813Z" fill="#212529"/>
<path d="M167.117 69.2328C164.942 66.8328 163.867 63.9203 163.867 60.4828C163.867 57.0203 164.942 54.1078 167.117 51.7328C169.317 49.3328 172.08 48.1328 175.417 48.1328C178.517 48.1328 181.067 49.1078 183.067 51.0328V48.7828H191.117V72.0828H183.167V69.4328H183.067C181.067 71.6703 178.517 72.7828 175.417 72.7828C172.08 72.7828 169.317 71.6078 167.117 69.2328ZM173.967 56.5328C172.93 57.5328 172.417 58.8578 172.417 60.4828C172.417 62.0828 172.917 63.4078 173.917 64.4328C174.917 65.4328 176.23 65.9328 177.867 65.9328C179.43 65.9328 180.717 65.4203 181.717 64.3828C182.742 63.3578 183.267 62.0578 183.267 60.4828C183.267 58.8578 182.73 57.5328 181.667 56.5328C180.63 55.5078 179.367 54.9828 177.867 54.9828C176.292 54.9828 174.992 55.5078 173.967 56.5328Z" fill="#212529"/>
<path d="M211.956 48.7812H221.206L202.906 83.8812H193.656L201.656 68.4312L190.656 48.7812H199.906L206.406 60.7312L211.956 48.7812Z" fill="#212529"/>
<path d="M74.975 85.5953H74.525C74.3875 85.5953 74.2875 85.5703 74.225 85.4953C74.15 85.4328 74.0875 85.3203 74.025 85.1453L71.475 78.5453H70.725C70.65 78.5453 70.625 78.4953 70.625 78.3953V77.8453C70.625 77.7453 70.65 77.6953 70.725 77.6953H73.225C73.325 77.6953 73.375 77.7453 73.375 77.8453V78.3953C73.375 78.4953 73.325 78.5453 73.225 78.5453H72.475L74.725 84.4453H74.775L77.025 78.5453H76.275C76.175 78.5453 76.125 78.4953 76.125 78.3953V77.8453C76.125 77.7453 76.175 77.6953 76.275 77.6953H78.725C78.825 77.6953 78.875 77.7453 78.875 77.8453V78.3953C78.875 78.4953 78.825 78.5453 78.725 78.5453H78.025L75.475 85.1453C75.4 85.3203 75.3375 85.4328 75.275 85.4953C75.2 85.5703 75.1 85.5953 74.975 85.5953Z" fill="black"/>
<path d="M83.9531 85.5938H81.8531C81.7531 85.5938 81.7031 85.5438 81.7031 85.4438V84.9938C81.7031 84.8938 81.7531 84.8438 81.8531 84.8438H82.4531V80.8938H81.8531C81.7531 80.8938 81.7031 80.8688 81.7031 80.7938V80.2938C81.7031 80.2313 81.7531 80.1938 81.8531 80.1938H83.2531C83.3531 80.1938 83.4031 80.2313 83.4031 80.2938V84.8438H83.9531C84.0531 84.8438 84.1031 84.8938 84.1031 84.9938V85.4438C84.1031 85.5438 84.0531 85.5938 83.9531 85.5938ZM83.3031 78.5438C83.4281 78.6813 83.5031 78.8313 83.5031 78.9938C83.5031 79.1688 83.4281 79.3187 83.3031 79.4438C83.2031 79.5438 83.0656 79.5938 82.9031 79.5938C82.7281 79.5938 82.5781 79.5438 82.4531 79.4438C82.3531 79.3187 82.3031 79.1688 82.3031 78.9938C82.3031 78.8313 82.3531 78.6813 82.4531 78.5438C82.5781 78.4187 82.7281 78.3438 82.9031 78.3438C83.0656 78.3438 83.2031 78.4187 83.3031 78.5438Z" fill="black"/>
<path d="M89.2672 85.6938C88.7672 85.6938 88.3672 85.6063 88.0672 85.4438C87.7922 85.2438 87.6297 85.0688 87.5672 84.8938H87.5172C87.5422 85.2313 87.5672 85.4188 87.5672 85.4438C87.5672 85.5438 87.5172 85.5938 87.4172 85.5938H87.0172C86.9172 85.5938 86.8672 85.5438 86.8672 85.4438V83.7938C86.8672 83.6938 86.9172 83.6438 87.0172 83.6438H87.4672C87.5672 83.6438 87.6172 83.6938 87.6172 83.7938V84.0438C87.6797 84.2438 87.8297 84.4438 88.0672 84.6438C88.3297 84.8438 88.6797 84.9438 89.1172 84.9438C89.9422 84.9438 90.3672 84.6688 90.3672 84.0938C90.3672 83.8938 90.2422 83.7438 90.0172 83.6438C89.7797 83.5187 89.4922 83.4187 89.1672 83.3438C88.8297 83.2438 88.4922 83.1438 88.1672 83.0438C87.8672 82.9438 87.5922 82.7813 87.3672 82.5438C87.1297 82.3187 87.0172 82.0187 87.0172 81.6438C87.0172 81.1813 87.1797 80.8187 87.5172 80.5438C87.8797 80.2438 88.3297 80.0938 88.8672 80.0938C89.5922 80.0938 90.1172 80.3187 90.4172 80.7438H90.4672C90.4297 80.4813 90.4172 80.3438 90.4172 80.3438C90.4172 80.2438 90.4672 80.1938 90.5672 80.1938H90.9172C91.0172 80.1938 91.0672 80.2438 91.0672 80.3438V81.8438C91.0672 81.9438 91.0172 81.9938 90.9172 81.9938H90.5172C90.4172 81.9938 90.3672 81.9438 90.3672 81.8438V81.6938C90.3672 81.4938 90.2422 81.3187 90.0172 81.1438C89.7797 80.9438 89.4797 80.8438 89.1172 80.8438C88.7422 80.8438 88.4422 80.9313 88.2172 81.0938C88.0172 81.2313 87.9172 81.4313 87.9172 81.6938C87.9172 81.9313 88.0297 82.1187 88.2672 82.2438C88.4922 82.3813 88.7797 82.4813 89.1172 82.5438C89.4422 82.6187 89.7797 82.6938 90.1172 82.7938C90.4422 82.8938 90.7297 83.0688 90.9672 83.2938C91.1922 83.4938 91.3172 83.7938 91.3172 84.1938C91.3172 84.5938 91.1422 84.9438 90.8172 85.2438C90.4797 85.5438 89.9672 85.6938 89.2672 85.6938Z" fill="black"/>
<path d="M96.3125 85.5938H94.2125C94.1125 85.5938 94.0625 85.5438 94.0625 85.4438V84.9938C94.0625 84.8938 94.1125 84.8438 94.2125 84.8438H94.8125V80.8938H94.2125C94.1125 80.8938 94.0625 80.8688 94.0625 80.7938V80.2938C94.0625 80.2313 94.1125 80.1938 94.2125 80.1938H95.6125C95.7125 80.1938 95.7625 80.2313 95.7625 80.2938V84.8438H96.3125C96.4125 84.8438 96.4625 84.8938 96.4625 84.9938V85.4438C96.4625 85.5438 96.4125 85.5938 96.3125 85.5938ZM95.6625 78.5438C95.7875 78.6813 95.8625 78.8313 95.8625 78.9938C95.8625 79.1688 95.7875 79.3187 95.6625 79.4438C95.5625 79.5438 95.425 79.5938 95.2625 79.5938C95.0875 79.5938 94.9375 79.5438 94.8125 79.4438C94.7125 79.3187 94.6625 79.1688 94.6625 78.9938C94.6625 78.8313 94.7125 78.6813 94.8125 78.5438C94.9375 78.4187 95.0875 78.3438 95.2625 78.3438C95.425 78.3438 95.5625 78.4187 95.6625 78.5438Z" fill="black"/>
<path d="M103.88 84.9438C103.38 85.4438 102.73 85.6938 101.93 85.6938C101.13 85.6938 100.455 85.4438 99.9297 84.9438C99.4297 84.4187 99.1797 83.7313 99.1797 82.8938C99.1797 82.0313 99.4422 81.3438 99.9797 80.8438C100.505 80.3438 101.155 80.0938 101.93 80.0938C102.73 80.0938 103.38 80.3438 103.88 80.8438C104.405 81.3438 104.68 82.0313 104.68 82.8938C104.68 83.7313 104.405 84.4187 103.88 84.9438ZM100.13 82.8938C100.13 83.4938 100.292 83.9813 100.63 84.3438C100.992 84.7187 101.43 84.8938 101.93 84.8938C102.455 84.8938 102.892 84.7187 103.23 84.3438C103.592 83.9813 103.78 83.4938 103.78 82.8938C103.78 82.2938 103.592 81.8187 103.23 81.4438C102.855 81.0813 102.43 80.8938 101.93 80.8938C101.43 80.8938 100.992 81.0813 100.63 81.4438C100.292 81.8187 100.13 82.2938 100.13 82.8938Z" fill="black"/>
<path d="M113.248 85.5938H112.248C111.911 85.5938 111.748 85.4437 111.748 85.1438V82.2438C111.748 81.8187 111.648 81.4813 111.448 81.2437C111.248 81.0187 110.948 80.8938 110.548 80.8938C109.973 80.8938 109.523 81.1313 109.198 81.5938C109.161 81.6313 109.123 81.7187 109.098 81.8438V84.8438H109.648C109.748 84.8438 109.798 84.8938 109.798 84.9938V85.4437C109.798 85.5438 109.748 85.5938 109.648 85.5938H107.548C107.448 85.5938 107.398 85.5438 107.398 85.4437V84.9938C107.398 84.8938 107.448 84.8438 107.548 84.8438H108.148V80.8938H107.548C107.448 80.8938 107.398 80.8688 107.398 80.7937V80.2938C107.398 80.2313 107.448 80.1938 107.548 80.1938H108.848C108.948 80.1938 108.998 80.2313 108.998 80.2938L108.948 81.0437H108.998C109.361 80.4187 109.948 80.0938 110.748 80.0938C111.348 80.0938 111.811 80.2813 112.148 80.6438C112.473 80.9813 112.648 81.4313 112.648 81.9937V84.8438H113.248C113.348 84.8438 113.398 84.8938 113.398 84.9938V85.4437C113.398 85.5438 113.348 85.5938 113.248 85.5938Z" fill="black"/>
<path d="M126.309 85.5953H123.759C123.659 85.5953 123.609 85.5453 123.609 85.4453V84.8953C123.609 84.7953 123.659 84.7453 123.759 84.7453H124.609V78.5453H122.509V79.6953C122.509 79.7953 122.459 79.8453 122.359 79.8453H121.759C121.659 79.8453 121.609 79.7953 121.609 79.6953V77.8453C121.609 77.7453 121.659 77.6953 121.759 77.6953H128.359C128.459 77.6953 128.509 77.7453 128.509 77.8453V79.6953C128.509 79.7953 128.459 79.8453 128.359 79.8453H127.759C127.659 79.8453 127.609 79.7953 127.609 79.6953V78.5453H125.559V84.7453H126.309C126.409 84.7453 126.459 84.7953 126.459 84.8953V85.4453C126.459 85.5453 126.409 85.5953 126.309 85.5953Z" fill="black"/>
<path d="M137.202 85.5953H136.202C135.864 85.5953 135.702 85.4453 135.702 85.1453V82.2453C135.702 81.8203 135.602 81.4828 135.402 81.2453C135.202 81.0203 134.902 80.8953 134.502 80.8953C134.202 80.8953 133.964 80.9453 133.802 81.0453C133.627 81.1453 133.514 81.2328 133.452 81.2953C133.377 81.3703 133.314 81.4328 133.252 81.4953C133.152 81.5953 133.077 81.7203 133.052 81.8453V84.8453H133.602C133.702 84.8453 133.752 84.8953 133.752 84.9953V85.4453C133.752 85.5453 133.702 85.5953 133.602 85.5953H131.502C131.402 85.5953 131.352 85.5453 131.352 85.4453V84.9953C131.352 84.8953 131.402 84.8453 131.502 84.8453H132.102V78.4453H131.502C131.402 78.4453 131.352 78.3953 131.352 78.2953V77.8453C131.352 77.7453 131.402 77.6953 131.502 77.6953H132.902C133.002 77.6953 133.052 77.7453 133.052 77.8453V80.2953C133.052 80.5328 133.027 80.7453 133.002 80.9453C133.364 80.3828 133.927 80.0953 134.702 80.0953C135.302 80.0953 135.764 80.2828 136.102 80.6453C136.427 80.9828 136.602 81.4328 136.602 81.9953V84.8453H137.202C137.302 84.8453 137.352 84.8953 137.352 84.9953V85.4453C137.352 85.5453 137.302 85.5953 137.202 85.5953Z" fill="black"/>
<path d="M144.978 82.9938H141.028C141.053 83.5938 141.241 84.0688 141.578 84.3938C141.941 84.7313 142.341 84.8938 142.778 84.8938C143.241 84.8938 143.628 84.8187 143.928 84.6438C144.253 84.4438 144.491 84.2438 144.628 84.0438C144.653 83.9813 144.728 83.9813 144.828 84.0438L145.078 84.2938C145.141 84.3688 145.178 84.4187 145.178 84.4438C145.178 84.4813 145.153 84.5313 145.128 84.5938C145.091 84.6313 145.028 84.6938 144.928 84.7938C144.828 84.8938 144.678 85.0313 144.478 85.1938C144.278 85.3313 144.028 85.4438 143.728 85.5438C143.453 85.6438 143.141 85.6938 142.778 85.6938C142.003 85.6938 141.353 85.4438 140.828 84.9438C140.328 84.4187 140.078 83.7313 140.078 82.8938C140.078 82.0313 140.328 81.3438 140.828 80.8438C141.353 80.3438 141.991 80.0938 142.728 80.0938C143.491 80.0938 144.078 80.3438 144.478 80.8438C144.903 81.3187 145.128 81.9438 145.128 82.7438C145.128 82.7813 145.128 82.8187 145.128 82.8438C145.128 82.9438 145.078 82.9938 144.978 82.9938ZM144.228 82.3438C144.191 81.8813 144.041 81.5187 143.778 81.2438C143.541 80.9813 143.191 80.8438 142.728 80.8438C142.291 80.8438 141.903 80.9813 141.578 81.2438C141.278 81.4813 141.103 81.8438 141.078 82.3438H144.228Z" fill="black"/>
<path d="M150.141 85.5906H148.041C147.941 85.5906 147.891 85.5406 147.891 85.4406V84.9906C147.891 84.8906 147.941 84.8406 148.041 84.8406H148.641V80.8906H148.041C147.941 80.8906 147.891 80.8656 147.891 80.7906V80.2906C147.891 80.2281 147.941 80.1906 148.041 80.1906H149.341C149.441 80.1906 149.491 80.2281 149.491 80.2906V81.6906C149.516 81.5656 149.603 81.3906 149.741 81.1906C149.866 80.9906 150.016 80.8281 150.191 80.6906C150.353 80.5656 150.566 80.4406 150.841 80.3406C151.141 80.2156 151.491 80.1406 151.891 80.1406C151.953 80.1406 151.991 80.1906 151.991 80.2906V80.8906C151.991 80.9906 151.953 81.0406 151.891 81.0406H151.641C151.003 81.0406 150.503 81.2406 150.141 81.6406C149.766 82.0406 149.591 82.4906 149.591 82.9906V84.8406H150.141C150.241 84.8406 150.291 84.8906 150.291 84.9906V85.4406C150.291 85.5406 150.241 85.5906 150.141 85.5906Z" fill="black"/>
<path d="M159.822 85.5938H158.872C158.572 85.5938 158.422 85.4438 158.422 85.1438V84.5938H158.372C157.834 85.3313 157.122 85.6938 156.222 85.6938C155.722 85.6938 155.284 85.5688 154.922 85.2938C154.584 84.9938 154.422 84.6187 154.422 84.1438C154.422 83.5438 154.684 83.1187 155.222 82.8438C155.747 82.5438 156.472 82.3938 157.372 82.3938H158.322V82.2938C158.322 81.3688 157.834 80.8938 156.872 80.8938C156.434 80.8938 156.122 80.9438 155.922 81.0438C155.722 81.1187 155.572 81.1813 155.472 81.2438C155.397 81.2813 155.347 81.3187 155.322 81.3438C155.184 81.4438 155.097 81.4688 155.072 81.3938L154.772 80.9938C154.697 80.9313 154.697 80.8688 154.772 80.7938C154.897 80.6313 155.147 80.4813 155.522 80.3438C155.922 80.1813 156.384 80.0938 156.922 80.0938C158.447 80.0938 159.222 80.8313 159.222 82.2938V84.8438H159.822C159.922 84.8438 159.972 84.8938 159.972 84.9938V85.4438C159.972 85.5438 159.922 85.5938 159.822 85.5938ZM158.322 83.0438H157.422C157.022 83.0438 156.672 83.0813 156.372 83.1438C156.097 83.1813 155.872 83.2813 155.672 83.4438C155.472 83.5813 155.372 83.7813 155.372 84.0438C155.372 84.2813 155.472 84.4813 155.672 84.6438C155.897 84.8187 156.184 84.8938 156.522 84.8938C157.222 84.8938 157.822 84.5813 158.322 83.9438V83.0438Z" fill="black"/>
<path d="M165.045 88.0938H162.845C162.745 88.0938 162.695 88.0438 162.695 87.9437V87.4437C162.695 87.3688 162.745 87.3438 162.845 87.3438H163.495V80.8938H162.895C162.795 80.8938 162.745 80.8688 162.745 80.7937V80.2938C162.745 80.2313 162.795 80.1938 162.895 80.1938H164.145C164.245 80.1938 164.295 80.2313 164.295 80.2938V81.1938C164.42 80.8938 164.645 80.6438 164.945 80.4437C165.27 80.2187 165.67 80.0938 166.145 80.0938C166.87 80.0938 167.458 80.3438 167.895 80.8438C168.358 81.3438 168.595 82.0187 168.595 82.8438C168.595 83.6813 168.358 84.3688 167.895 84.8938C167.458 85.4313 166.87 85.6937 166.145 85.6937C165.67 85.6937 165.295 85.5938 164.995 85.3938C164.695 85.1688 164.47 84.8938 164.345 84.5938H164.295C164.32 84.8313 164.345 84.9938 164.345 85.0938V87.3438H165.045C165.145 87.3438 165.195 87.3688 165.195 87.4437V87.9437C165.195 88.0438 165.145 88.0938 165.045 88.0938ZM164.345 82.8937C164.345 83.5313 164.508 84.0313 164.845 84.3938C165.17 84.7313 165.57 84.8938 166.045 84.8938C166.508 84.8938 166.895 84.7187 167.195 84.3438C167.52 83.9813 167.695 83.4938 167.695 82.8937C167.695 82.2938 167.52 81.8187 167.195 81.4438C166.895 81.0813 166.508 80.8938 166.045 80.8938C165.57 80.8938 165.17 81.0813 164.845 81.4438C164.508 81.7813 164.345 82.2688 164.345 82.8937Z" fill="black"/>
<path d="M173.786 85.4953C173.686 85.4953 173.598 85.3953 173.536 85.1953L171.836 80.8953H171.236C171.136 80.8953 171.086 80.8703 171.086 80.7953V80.2953C171.086 80.2328 171.136 80.1953 171.236 80.1953H173.236C173.336 80.1953 173.386 80.2328 173.386 80.2953V80.7953C173.386 80.8703 173.336 80.8953 173.236 80.8953H172.786L174.186 84.6453H174.236L175.536 80.8953H175.036C174.936 80.8953 174.886 80.8703 174.886 80.7953V80.2953C174.886 80.2328 174.936 80.1953 175.036 80.1953H177.086C177.186 80.1953 177.236 80.2328 177.236 80.2953V80.7953C177.236 80.8703 177.186 80.8953 177.086 80.8953H176.486L174.536 86.2953C174.261 86.9578 173.998 87.4203 173.736 87.6953C173.498 87.9953 173.148 88.1453 172.686 88.1453C172.248 88.1453 171.861 88.0078 171.536 87.7453C171.461 87.6703 171.448 87.6078 171.486 87.5453L171.786 87.1953C171.848 87.1203 171.911 87.1203 171.986 87.1953C172.148 87.3203 172.348 87.3953 172.586 87.3953C172.811 87.3953 173.011 87.3078 173.186 87.1453C173.348 86.9703 173.498 86.6953 173.636 86.2953L173.936 85.4953H173.786Z" fill="black"/>
</g>
<defs>
<linearGradient id="paint0_linear_8592_47469" x1="226.926" y1="39.1369" x2="226.926" y2="54.401" gradientUnits="userSpaceOnUse">
<stop stop-color="#5080FD"/>
<stop offset="0.25" stop-color="#5080FD"/>
<stop offset="0.3125" stop-color="#5080FD"/>
<stop offset="0.34375" stop-color="#5080FD"/>
<stop offset="0.351562" stop-color="#5081FD"/>
<stop offset="0.359375" stop-color="#5181FD"/>
<stop offset="0.367188" stop-color="#5182FD"/>
<stop offset="0.375" stop-color="#5182FD"/>
<stop offset="0.382813" stop-color="#5183FD"/>
<stop offset="0.390625" stop-color="#5184FD"/>
<stop offset="0.398438" stop-color="#5284FD"/>
<stop offset="0.40625" stop-color="#5285FD"/>
<stop offset="0.414063" stop-color="#5285FD"/>
<stop offset="0.421875" stop-color="#5286FD"/>
<stop offset="0.429688" stop-color="#5286FD"/>
<stop offset="0.4375" stop-color="#5387FD"/>
<stop offset="0.445312" stop-color="#5387FD"/>
<stop offset="0.453125" stop-color="#5388FD"/>
<stop offset="0.460938" stop-color="#5389FD"/>
<stop offset="0.46875" stop-color="#5489FD"/>
<stop offset="0.476562" stop-color="#548AFD"/>
<stop offset="0.484375" stop-color="#548AFD"/>
<stop offset="0.492188" stop-color="#548BFD"/>
<stop offset="0.5" stop-color="#548BFD"/>
<stop offset="0.507813" stop-color="#558CFD"/>
<stop offset="0.515625" stop-color="#558CFD"/>
<stop offset="0.523438" stop-color="#558DFD"/>
<stop offset="0.53125" stop-color="#558EFD"/>
<stop offset="0.539063" stop-color="#558EFD"/>
<stop offset="0.546875" stop-color="#568FFD"/>
<stop offset="0.554688" stop-color="#568FFD"/>
<stop offset="0.5625" stop-color="#5690FD"/>
<stop offset="0.570313" stop-color="#5690FD"/>
<stop offset="0.578125" stop-color="#5791FD"/>
<stop offset="0.585938" stop-color="#5791FD"/>
<stop offset="0.59375" stop-color="#5792FD"/>
<stop offset="0.601562" stop-color="#5792FD"/>
<stop offset="0.609375" stop-color="#5793FD"/>
<stop offset="0.617188" stop-color="#5894FD"/>
<stop offset="0.625" stop-color="#5894FD"/>
<stop offset="0.632812" stop-color="#5895FD"/>
<stop offset="0.640625" stop-color="#5895FD"/>
<stop offset="0.648438" stop-color="#5896FD"/>
<stop offset="0.65625" stop-color="#5996FC"/>
<stop offset="0.664062" stop-color="#5997FC"/>
<stop offset="0.671875" stop-color="#5997FC"/>
<stop offset="0.679688" stop-color="#5998FC"/>
<stop offset="0.6875" stop-color="#5A99FC"/>
<stop offset="0.695312" stop-color="#5A99FC"/>
<stop offset="0.703125" stop-color="#5A9AFC"/>
<stop offset="0.710938" stop-color="#5A9AFC"/>
<stop offset="0.71875" stop-color="#5A9BFC"/>
<stop offset="0.726563" stop-color="#5B9BFC"/>
<stop offset="0.734375" stop-color="#5B9CFC"/>
<stop offset="0.742188" stop-color="#5B9CFC"/>
<stop offset="0.75" stop-color="#5B9DFC"/>
<stop offset="0.757813" stop-color="#5B9EFC"/>
<stop offset="0.765625" stop-color="#5C9EFC"/>
<stop offset="0.773438" stop-color="#5C9FFC"/>
<stop offset="0.78125" stop-color="#5C9FFC"/>
<stop offset="0.789062" stop-color="#5CA0FC"/>
<stop offset="0.796875" stop-color="#5DA0FC"/>
<stop offset="0.804688" stop-color="#5DA1FC"/>
<stop offset="0.8125" stop-color="#5DA1FC"/>
<stop offset="0.820312" stop-color="#5DA2FC"/>
<stop offset="0.828125" stop-color="#5DA3FC"/>
<stop offset="0.835938" stop-color="#5EA3FC"/>
<stop offset="0.84375" stop-color="#5EA4FC"/>
<stop offset="0.851562" stop-color="#5EA4FC"/>
<stop offset="0.859375" stop-color="#5EA5FC"/>
<stop offset="0.867188" stop-color="#5EA5FC"/>
<stop offset="0.875" stop-color="#5FA6FC"/>
<stop offset="0.882812" stop-color="#5FA6FC"/>
<stop offset="0.890625" stop-color="#5FA7FC"/>
<stop offset="0.898438" stop-color="#5FA8FC"/>
<stop offset="0.90625" stop-color="#60A8FC"/>
<stop offset="0.914063" stop-color="#60A9FC"/>
<stop offset="0.921875" stop-color="#60A9FC"/>
<stop offset="0.929688" stop-color="#60AAFC"/>
<stop offset="0.9375" stop-color="#60AAFC"/>
<stop offset="0.945313" stop-color="#61ABFC"/>
<stop offset="0.953125" stop-color="#61ABFC"/>
<stop offset="0.960938" stop-color="#61ACFC"/>
<stop offset="0.96875" stop-color="#61ADFC"/>
<stop offset="0.976562" stop-color="#61ADFC"/>
<stop offset="0.984375" stop-color="#62AEFC"/>
<stop offset="0.992188" stop-color="#62AEFC"/>
<stop offset="1" stop-color="#62AFFC"/>
</linearGradient>
<linearGradient id="paint1_linear_8592_47469" x1="223.13" y1="42.9531" x2="238.393" y2="42.9531" gradientUnits="userSpaceOnUse">
<stop stop-color="#5183FD"/>
<stop offset="0.015625" stop-color="#5184FD"/>
<stop offset="0.03125" stop-color="#5284FD"/>
<stop offset="0.046875" stop-color="#5285FD"/>
<stop offset="0.0625" stop-color="#5286FD"/>
<stop offset="0.078125" stop-color="#5387FD"/>
<stop offset="0.09375" stop-color="#5387FD"/>
<stop offset="0.109375" stop-color="#5388FD"/>
<stop offset="0.125" stop-color="#5389FD"/>
<stop offset="0.140625" stop-color="#548AFD"/>
<stop offset="0.15625" stop-color="#548AFD"/>
<stop offset="0.171875" stop-color="#548BFD"/>
<stop offset="0.1875" stop-color="#558CFD"/>
<stop offset="0.203125" stop-color="#558DFD"/>
<stop offset="0.21875" stop-color="#558DFD"/>
<stop offset="0.234375" stop-color="#568EFD"/>
<stop offset="0.25" stop-color="#568FFD"/>
<stop offset="0.265625" stop-color="#5690FD"/>
<stop offset="0.28125" stop-color="#5690FD"/>
<stop offset="0.296875" stop-color="#5791FD"/>
<stop offset="0.3125" stop-color="#5792FD"/>
<stop offset="0.328125" stop-color="#5793FD"/>
<stop offset="0.34375" stop-color="#5893FD"/>
<stop offset="0.359375" stop-color="#5894FD"/>
<stop offset="0.375" stop-color="#5895FD"/>
<stop offset="0.390625" stop-color="#5896FD"/>
<stop offset="0.40625" stop-color="#5996FC"/>
<stop offset="0.421875" stop-color="#5997FC"/>
<stop offset="0.4375" stop-color="#5998FC"/>
<stop offset="0.453125" stop-color="#5A99FC"/>
<stop offset="0.46875" stop-color="#5A99FC"/>
<stop offset="0.484375" stop-color="#5A9AFC"/>
<stop offset="0.5" stop-color="#5A9BFC"/>
<stop offset="0.515625" stop-color="#5B9CFC"/>
<stop offset="0.53125" stop-color="#5B9CFC"/>
<stop offset="0.546875" stop-color="#5B9DFC"/>
<stop offset="0.5625" stop-color="#5C9EFC"/>
<stop offset="0.578125" stop-color="#5C9FFC"/>
<stop offset="0.59375" stop-color="#5CA0FC"/>
<stop offset="0.609375" stop-color="#5DA0FC"/>
<stop offset="0.625" stop-color="#5DA1FC"/>
<stop offset="0.640625" stop-color="#5DA2FC"/>
<stop offset="0.65625" stop-color="#5DA3FC"/>
<stop offset="0.671875" stop-color="#5EA3FC"/>
<stop offset="0.6875" stop-color="#5EA4FC"/>
<stop offset="0.703125" stop-color="#5EA5FC"/>
<stop offset="0.71875" stop-color="#5FA6FC"/>
<stop offset="0.734375" stop-color="#5FA6FC"/>
<stop offset="0.75" stop-color="#5FA7FC"/>
<stop offset="0.765625" stop-color="#5FA8FC"/>
<stop offset="0.78125" stop-color="#60A9FC"/>
<stop offset="0.796875" stop-color="#60A9FC"/>
<stop offset="0.8125" stop-color="#60AAFC"/>
<stop offset="0.828125" stop-color="#61ABFC"/>
<stop offset="0.84375" stop-color="#61ACFC"/>
<stop offset="0.859375" stop-color="#61ACFC"/>
<stop offset="0.875" stop-color="#61ADFC"/>
<stop offset="0.890625" stop-color="#62AEFC"/>
<stop offset="0.90625" stop-color="#62AFFC"/>
<stop offset="0.921875" stop-color="#62AFFC"/>
<stop offset="0.9375" stop-color="#63B0FC"/>
<stop offset="1" stop-color="#63B1FC"/>
</linearGradient>
<linearGradient id="paint2_linear_8592_47469" x1="226.959" y1="46.7771" x2="226.959" y2="31.5129" gradientUnits="userSpaceOnUse">
<stop stop-color="#5080FD"/>
<stop offset="0.25" stop-color="#5080FD"/>
<stop offset="0.3125" stop-color="#5080FD"/>
<stop offset="0.34375" stop-color="#5080FD"/>
<stop offset="0.351562" stop-color="#5081FD"/>
<stop offset="0.359375" stop-color="#5181FD"/>
<stop offset="0.367188" stop-color="#5182FD"/>
<stop offset="0.375" stop-color="#5182FD"/>
<stop offset="0.382813" stop-color="#5183FD"/>
<stop offset="0.390625" stop-color="#5184FD"/>
<stop offset="0.398438" stop-color="#5284FD"/>
<stop offset="0.40625" stop-color="#5285FD"/>
<stop offset="0.414063" stop-color="#5285FD"/>
<stop offset="0.421875" stop-color="#5286FD"/>
<stop offset="0.429688" stop-color="#5286FD"/>
<stop offset="0.4375" stop-color="#5387FD"/>
<stop offset="0.445313" stop-color="#5387FD"/>
<stop offset="0.453125" stop-color="#5388FD"/>
<stop offset="0.460938" stop-color="#5389FD"/>
<stop offset="0.46875" stop-color="#5489FD"/>
<stop offset="0.476563" stop-color="#548AFD"/>
<stop offset="0.484375" stop-color="#548AFD"/>
<stop offset="0.492188" stop-color="#548BFD"/>
<stop offset="0.5" stop-color="#548BFD"/>
<stop offset="0.507813" stop-color="#558CFD"/>
<stop offset="0.515625" stop-color="#558CFD"/>
<stop offset="0.523438" stop-color="#558DFD"/>
<stop offset="0.53125" stop-color="#558EFD"/>
<stop offset="0.539062" stop-color="#558EFD"/>
<stop offset="0.546875" stop-color="#568FFD"/>
<stop offset="0.554688" stop-color="#568FFD"/>
<stop offset="0.5625" stop-color="#5690FD"/>
<stop offset="0.570312" stop-color="#5690FD"/>
<stop offset="0.578125" stop-color="#5791FD"/>
<stop offset="0.585938" stop-color="#5791FD"/>
<stop offset="0.59375" stop-color="#5792FD"/>
<stop offset="0.601562" stop-color="#5792FD"/>
<stop offset="0.609375" stop-color="#5793FD"/>
<stop offset="0.617187" stop-color="#5894FD"/>
<stop offset="0.625" stop-color="#5894FD"/>
<stop offset="0.632813" stop-color="#5895FD"/>
<stop offset="0.640625" stop-color="#5895FD"/>
<stop offset="0.648438" stop-color="#5896FD"/>
<stop offset="0.65625" stop-color="#5996FC"/>
<stop offset="0.664063" stop-color="#5997FC"/>
<stop offset="0.671875" stop-color="#5997FC"/>
<stop offset="0.679688" stop-color="#5998FC"/>
<stop offset="0.6875" stop-color="#5A99FC"/>
<stop offset="0.695313" stop-color="#5A99FC"/>
<stop offset="0.703125" stop-color="#5A9AFC"/>
<stop offset="0.710938" stop-color="#5A9AFC"/>
<stop offset="0.71875" stop-color="#5A9BFC"/>
<stop offset="0.726563" stop-color="#5B9BFC"/>
<stop offset="0.734375" stop-color="#5B9CFC"/>
<stop offset="0.742188" stop-color="#5B9CFC"/>
<stop offset="0.75" stop-color="#5B9DFC"/>
<stop offset="0.757813" stop-color="#5B9EFC"/>
<stop offset="0.765625" stop-color="#5C9EFC"/>
<stop offset="0.773438" stop-color="#5C9FFC"/>
<stop offset="0.78125" stop-color="#5C9FFC"/>
<stop offset="0.789062" stop-color="#5CA0FC"/>
<stop offset="0.796875" stop-color="#5DA0FC"/>
<stop offset="0.804688" stop-color="#5DA1FC"/>
<stop offset="0.8125" stop-color="#5DA1FC"/>
<stop offset="0.820313" stop-color="#5DA2FC"/>
<stop offset="0.828125" stop-color="#5DA3FC"/>
<stop offset="0.835938" stop-color="#5EA3FC"/>
<stop offset="0.84375" stop-color="#5EA4FC"/>
<stop offset="0.851563" stop-color="#5EA4FC"/>
<stop offset="0.859375" stop-color="#5EA5FC"/>
<stop offset="0.867188" stop-color="#5EA5FC"/>
<stop offset="0.875" stop-color="#5FA6FC"/>
<stop offset="0.882813" stop-color="#5FA6FC"/>
<stop offset="0.890625" stop-color="#5FA7FC"/>
<stop offset="0.898438" stop-color="#5FA8FC"/>
<stop offset="0.90625" stop-color="#60A8FC"/>
<stop offset="0.914063" stop-color="#60A9FC"/>
<stop offset="0.921875" stop-color="#60A9FC"/>
<stop offset="0.929688" stop-color="#60AAFC"/>
<stop offset="0.9375" stop-color="#60AAFC"/>
<stop offset="0.945313" stop-color="#61ABFC"/>
<stop offset="0.953125" stop-color="#61ABFC"/>
<stop offset="0.960938" stop-color="#61ACFC"/>
<stop offset="0.96875" stop-color="#61ADFC"/>
<stop offset="0.976562" stop-color="#61ADFC"/>
<stop offset="0.984375" stop-color="#62AEFC"/>
<stop offset="0.992188" stop-color="#62AEFC"/>
<stop offset="1" stop-color="#62AFFC"/>
</linearGradient>
<linearGradient id="paint3_linear_8592_47469" x1="230.753" y1="42.953" x2="215.489" y2="42.953" gradientUnits="userSpaceOnUse">
<stop stop-color="#5183FD"/>
<stop offset="0.015625" stop-color="#5184FD"/>
<stop offset="0.03125" stop-color="#5284FD"/>
<stop offset="0.046875" stop-color="#5285FD"/>
<stop offset="0.0625" stop-color="#5286FD"/>
<stop offset="0.078125" stop-color="#5387FD"/>
<stop offset="0.09375" stop-color="#5387FD"/>
<stop offset="0.109375" stop-color="#5388FD"/>
<stop offset="0.125" stop-color="#5389FD"/>
<stop offset="0.140625" stop-color="#548AFD"/>
<stop offset="0.15625" stop-color="#548AFD"/>
<stop offset="0.171875" stop-color="#548BFD"/>
<stop offset="0.1875" stop-color="#558CFD"/>
<stop offset="0.203125" stop-color="#558DFD"/>
<stop offset="0.21875" stop-color="#558DFD"/>
<stop offset="0.234375" stop-color="#568EFD"/>
<stop offset="0.25" stop-color="#568FFD"/>
<stop offset="0.265625" stop-color="#5690FD"/>
<stop offset="0.28125" stop-color="#5690FD"/>
<stop offset="0.296875" stop-color="#5791FD"/>
<stop offset="0.3125" stop-color="#5792FD"/>
<stop offset="0.328125" stop-color="#5793FD"/>
<stop offset="0.34375" stop-color="#5893FD"/>
<stop offset="0.359375" stop-color="#5894FD"/>
<stop offset="0.375" stop-color="#5895FD"/>
<stop offset="0.390625" stop-color="#5896FD"/>
<stop offset="0.40625" stop-color="#5996FC"/>
<stop offset="0.421875" stop-color="#5997FC"/>
<stop offset="0.4375" stop-color="#5998FC"/>
<stop offset="0.453125" stop-color="#5A99FC"/>
<stop offset="0.46875" stop-color="#5A99FC"/>
<stop offset="0.484375" stop-color="#5A9AFC"/>
<stop offset="0.5" stop-color="#5A9BFC"/>
<stop offset="0.515625" stop-color="#5B9CFC"/>
<stop offset="0.53125" stop-color="#5B9CFC"/>
<stop offset="0.546875" stop-color="#5B9DFC"/>
<stop offset="0.5625" stop-color="#5C9EFC"/>
<stop offset="0.578125" stop-color="#5C9FFC"/>
<stop offset="0.59375" stop-color="#5CA0FC"/>
<stop offset="0.609375" stop-color="#5DA0FC"/>
<stop offset="0.625" stop-color="#5DA1FC"/>
<stop offset="0.640625" stop-color="#5DA2FC"/>
<stop offset="0.65625" stop-color="#5DA3FC"/>
<stop offset="0.671875" stop-color="#5EA3FC"/>
<stop offset="0.6875" stop-color="#5EA4FC"/>
<stop offset="0.703125" stop-color="#5EA5FC"/>
<stop offset="0.71875" stop-color="#5FA6FC"/>
<stop offset="0.734375" stop-color="#5FA6FC"/>
<stop offset="0.75" stop-color="#5FA7FC"/>
<stop offset="0.765625" stop-color="#5FA8FC"/>
<stop offset="0.78125" stop-color="#60A9FC"/>
<stop offset="0.796875" stop-color="#60A9FC"/>
<stop offset="0.8125" stop-color="#60AAFC"/>
<stop offset="0.828125" stop-color="#61ABFC"/>
<stop offset="0.84375" stop-color="#61ACFC"/>
<stop offset="0.859375" stop-color="#61ACFC"/>
<stop offset="0.875" stop-color="#61ADFC"/>
<stop offset="0.890625" stop-color="#62AEFC"/>
<stop offset="0.90625" stop-color="#62AFFC"/>
<stop offset="0.921875" stop-color="#62AFFC"/>
<stop offset="0.9375" stop-color="#63B0FC"/>
<stop offset="1" stop-color="#63B1FC"/>
</linearGradient>
<clipPath id="clip0_8592_47469">
<rect width="240" height="120" fill="white" transform="translate(0 0.671875)"/>
</clipPath>
</defs>
</svg>
