<svg width="118" height="64" viewBox="0 0 118 64" fill="none" xmlns="http://www.w3.org/2000/svg">
<path d="M47.2185 19.7851C46.8238 19.7851 46.4132 19.6891 45.9865 19.4971C45.5598 19.3158 45.1972 19.0065 44.8985 18.5691C44.6105 18.1318 44.4665 17.5505 44.4665 16.8251C44.4665 16.0571 44.5305 15.2625 44.6585 14.4411C44.7972 13.6091 44.9732 12.7931 45.1865 11.9931C45.4105 11.1825 45.6505 10.4198 45.9065 9.70512C46.1732 8.99046 46.4345 8.35579 46.6905 7.80112C46.9572 7.24646 47.2025 6.81446 47.4265 6.50512C47.6612 6.18512 47.8478 6.02512 47.9865 6.02512C48.2745 6.02512 48.5305 6.13179 48.7545 6.34512C48.9892 6.55846 49.1065 6.88379 49.1065 7.32112C49.1065 7.42779 49.0425 7.68912 48.9145 8.10512C48.7972 8.51046 48.6425 9.01712 48.4505 9.62512C48.2692 10.2331 48.0665 10.8945 47.8425 11.6091C47.6292 12.3131 47.4265 13.0278 47.2345 13.7531C47.0532 14.4785 46.8985 15.1611 46.7705 15.8011C46.6532 16.4411 46.5945 16.9905 46.5945 17.4491C46.5945 17.5771 46.6692 17.6411 46.8185 17.6411C47.0318 17.6411 47.3465 17.5878 47.7625 17.4811C48.1892 17.3745 48.6532 17.2411 49.1545 17.0811C49.6665 16.9105 50.1572 16.7451 50.6265 16.5851C51.0958 16.4251 51.4958 16.2918 51.8265 16.1851C52.1572 16.0785 52.3438 16.0251 52.3865 16.0251C52.6532 16.0251 52.8665 16.0998 53.0265 16.2491C53.1865 16.3985 53.2665 16.6118 53.2665 16.8891C53.2665 17.0811 53.1385 17.3051 52.8825 17.5611C52.6265 17.8065 52.2852 18.0625 51.8585 18.3291C51.4318 18.5851 50.9518 18.8198 50.4185 19.0331C49.8958 19.2571 49.3572 19.4385 48.8025 19.5771C48.2478 19.7158 47.7198 19.7851 47.2185 19.7851ZM57.7291 23.3531C57.1318 23.3531 56.5878 23.3158 56.0971 23.2411C55.6065 23.1771 55.1265 23.0705 54.6571 22.9211C54.1878 22.7718 53.6811 22.5745 53.1371 22.3291C52.9131 22.2225 52.7265 22.1105 52.5771 21.9931C52.4278 21.8758 52.3531 21.6998 52.3531 21.4651C52.3531 21.1238 52.4598 20.8625 52.6731 20.6811C52.8758 20.5105 53.1585 20.4251 53.5211 20.4251C53.7131 20.4251 53.9585 20.4891 54.2571 20.6171C54.5558 20.7558 54.8971 20.9105 55.2811 21.0811C55.6758 21.2625 56.1131 21.4171 56.5931 21.5451C57.0731 21.6838 57.5905 21.7531 58.1451 21.7531C58.7105 21.7531 59.2385 21.5185 59.7291 21.0491C60.2198 20.5798 60.6145 19.9185 60.9131 19.0651C61.2225 18.2225 61.3771 17.2251 61.3771 16.0731C61.3771 15.8065 61.3718 15.5185 61.3611 15.2091C61.3505 14.8891 61.3398 14.5531 61.3291 14.2011C60.9451 14.9265 60.5291 15.6038 60.0811 16.2331C59.6331 16.8625 59.1691 17.3745 58.6891 17.7691C58.2198 18.1531 57.7451 18.3451 57.2651 18.3451C56.6785 18.3451 56.2518 18.2065 55.9851 17.9291C55.7291 17.6411 55.6011 17.1878 55.6011 16.5691C55.6011 16.0465 55.6385 15.4758 55.7131 14.8571C55.7985 14.2278 55.9105 13.5931 56.0491 12.9531C56.1878 12.3131 56.3478 11.7051 56.5291 11.1291C56.7211 10.5425 56.9238 10.0358 57.1371 9.60912C57.2971 9.29979 57.5425 9.14512 57.8731 9.14512C58.0865 9.14512 58.2998 9.24646 58.5131 9.44912C58.7371 9.65179 58.8491 9.92379 58.8491 10.2651C58.8491 10.4571 58.8011 10.7345 58.7051 11.0971C58.6091 11.4598 58.4918 11.8705 58.3531 12.3291C58.2251 12.7771 58.0918 13.2518 57.9531 13.7531C57.8145 14.2438 57.6971 14.7291 57.6011 15.2091C57.5051 15.6785 57.4571 16.1051 57.4571 16.4891C57.4571 16.5318 57.4891 16.5531 57.5531 16.5531C57.6811 16.5531 57.8518 16.4465 58.0651 16.2331C58.2891 16.0091 58.5345 15.7211 58.8011 15.3691C59.0785 15.0065 59.3558 14.6118 59.6331 14.1851C59.9211 13.7478 60.1985 13.3158 60.4651 12.8891C60.7318 12.4625 60.9718 12.0731 61.1851 11.7211C61.1531 11.5505 61.1318 11.4011 61.1211 11.2731C61.1211 11.1345 61.1211 11.0171 61.1211 10.9211C61.1211 10.4838 61.1958 10.1211 61.3451 9.83312C61.5051 9.54512 61.8145 9.40112 62.2731 9.40112C62.5718 9.40112 62.8011 9.51312 62.9611 9.73712C63.1211 9.95046 63.2011 10.2545 63.2011 10.6491C63.2011 10.8198 63.1745 11.0171 63.1211 11.2411C63.0678 11.4545 62.9611 11.7958 62.8011 12.2651L62.9771 11.7691C63.0731 12.7291 63.1531 13.5825 63.2171 14.3291C63.2918 15.0758 63.3291 15.8171 63.3291 16.5531C63.3291 17.9398 63.0945 19.1398 62.6251 20.1531C62.1665 21.1771 61.5158 21.9665 60.6731 22.5211C59.8411 23.0758 58.8598 23.3531 57.7291 23.3531ZM67.9486 19.4491C67.3086 19.4491 66.866 19.3211 66.6206 19.0651C66.386 18.8198 66.2686 18.4785 66.2686 18.0411C66.2686 16.1851 66.6153 14.2491 67.3086 12.2331C68.0126 10.2065 68.9993 8.17446 70.2686 6.13712C70.482 5.78512 70.658 5.57712 70.7966 5.51312C70.9353 5.44912 71.09 5.41712 71.2606 5.41712C71.506 5.41712 71.7193 5.50246 71.9006 5.67312C72.0926 5.84379 72.1886 6.06779 72.1886 6.34512C72.1886 6.43046 72.098 6.66512 71.9166 7.04912C71.7353 7.43312 71.4953 7.92379 71.1966 8.52112C70.9086 9.11846 70.594 9.79579 70.2526 10.5531C69.9113 11.2998 69.5753 12.0891 69.2446 12.9211C68.9246 13.7531 68.6473 14.5905 68.4126 15.4331C68.7753 14.9745 69.186 14.5051 69.6446 14.0251C70.114 13.5345 70.5993 13.0865 71.1006 12.6811C71.602 12.2651 72.0873 11.9345 72.5566 11.6891C73.026 11.4331 73.4473 11.3051 73.8206 11.3051C74.1726 11.3051 74.498 11.3905 74.7966 11.5611C75.106 11.7318 75.3566 11.9985 75.5486 12.3611C75.7406 12.7238 75.8366 13.1931 75.8366 13.7691C75.8366 14.3985 75.6553 15.0438 75.2926 15.7051C74.9406 16.3665 74.4233 16.9798 73.7406 17.5451C73.0686 18.1105 72.242 18.5691 71.2606 18.9211C70.29 19.2731 69.186 19.4491 67.9486 19.4491ZM68.6206 17.6251C69.442 17.5611 70.1833 17.3851 70.8446 17.0971C71.5166 16.8091 72.0926 16.4518 72.5726 16.0251C73.0526 15.5985 73.4206 15.1505 73.6766 14.6811C73.9326 14.2011 74.0606 13.7478 74.0606 13.3211C74.0606 13.2251 74.034 13.1771 73.9806 13.1771C73.7566 13.1771 73.474 13.2785 73.1326 13.4811C72.7913 13.6731 72.418 13.9345 72.0126 14.2651C71.6073 14.5958 71.1966 14.9585 70.7806 15.3531C70.3646 15.7478 69.97 16.1425 69.5966 16.5371C69.2233 16.9318 68.898 17.2945 68.6206 17.6251ZM77.7918 19.6571C77.5251 19.6571 77.2958 19.5611 77.1038 19.3691C76.9224 19.1771 76.8318 18.8998 76.8318 18.5371C76.8318 18.3771 76.8531 18.1158 76.8958 17.7531C76.9491 17.3798 77.0131 16.9531 77.0878 16.4731C77.1731 15.9931 77.2531 15.4918 77.3278 14.9691C77.4131 14.4465 77.4824 13.9505 77.5358 13.4811C77.5998 13.0118 77.6424 12.6118 77.6638 12.2811C77.6851 11.8758 77.7918 11.5878 77.9838 11.4171C78.1758 11.2358 78.4051 11.1451 78.6718 11.1451C78.8851 11.1451 79.0771 11.1985 79.2478 11.3051C79.4291 11.4011 79.5411 11.6091 79.5838 11.9291C79.6371 12.2385 79.6424 12.6865 79.5998 13.2731C80.0691 12.4198 80.5438 11.6571 81.0238 10.9851C81.5144 10.3131 82.0264 9.77979 82.5598 9.38512C83.4451 8.71312 84.2451 8.37712 84.9598 8.37712C85.3651 8.37712 85.6318 8.46779 85.7598 8.64912C85.8878 8.83046 85.9518 9.01712 85.9518 9.20912C85.9518 9.33712 85.9198 9.45446 85.8558 9.56112C85.8024 9.66779 85.6851 9.77979 85.5038 9.89712C85.3224 10.0145 85.0451 10.1691 84.6718 10.3611C84.1704 10.6171 83.6744 10.9531 83.1838 11.3691C82.7038 11.7851 82.2238 12.3185 81.7438 12.9691C81.2638 13.6198 80.7784 14.4198 80.2878 15.3691C79.7971 16.3185 79.2904 17.4491 78.7678 18.7611C78.6718 19.1238 78.5331 19.3638 78.3518 19.4811C78.1811 19.5985 77.9944 19.6571 77.7918 19.6571ZM85.5729 19.5611C85.2315 19.5611 84.9222 19.4651 84.6449 19.2731C84.3675 19.0918 84.1489 18.8518 83.9889 18.5531C83.8289 18.2438 83.7489 17.9131 83.7489 17.5611C83.7489 16.8998 83.8929 16.2545 84.1809 15.6251C84.4795 14.9958 84.8689 14.3985 85.3489 13.8331C85.8289 13.2678 86.3515 12.7505 86.9169 12.2811C87.4929 11.8011 88.0635 11.3905 88.6289 11.0491C89.2049 10.7078 89.7275 10.4411 90.1969 10.2491C90.6769 10.0571 91.0502 9.96112 91.3169 9.96112C91.6262 9.96112 91.8769 10.0305 92.0689 10.1691C92.2715 10.2971 92.3729 10.4998 92.3729 10.7771C92.3729 10.8625 92.3515 10.9318 92.3089 10.9851C92.4475 11.0171 92.5595 11.0971 92.6449 11.2251C92.7302 11.3531 92.7729 11.5451 92.7729 11.8011C92.7729 11.9078 92.7462 12.1851 92.6929 12.6331C92.6395 13.0811 92.5809 13.6251 92.5169 14.2651C92.4635 14.9051 92.4369 15.5718 92.4369 16.2651C92.4369 16.3718 92.4529 16.4678 92.4849 16.5531C92.5169 16.6278 92.5862 16.6651 92.6929 16.6651C93.1195 16.6651 93.5515 16.5798 93.9889 16.4091C94.4369 16.2278 94.8689 16.0091 95.2849 15.7531C95.7115 15.4865 96.0955 15.2251 96.4369 14.9691C96.7889 14.7025 97.0822 14.4838 97.3169 14.3131C97.5622 14.1318 97.7222 14.0411 97.7969 14.0411C98.1595 14.0411 98.3409 14.2225 98.3409 14.5851C98.3409 14.6811 98.2235 14.8838 97.9889 15.1931C97.7649 15.4918 97.4555 15.8385 97.0609 16.2331C96.6662 16.6171 96.2235 17.0011 95.7329 17.3851C95.2529 17.7585 94.7515 18.0678 94.2289 18.3131C93.7169 18.5585 93.2209 18.6811 92.7409 18.6811C92.1542 18.6811 91.7062 18.5425 91.3969 18.2651C91.0982 17.9878 90.8849 17.6145 90.7569 17.1451C90.6395 16.6651 90.5755 16.1265 90.5649 15.5291C90.0209 16.3078 89.4555 17.0011 88.8689 17.6091C88.2929 18.2065 87.7222 18.6811 87.1569 19.0331C86.5915 19.3851 86.0635 19.5611 85.5729 19.5611ZM91.2369 11.5451C90.1915 12.0465 89.2529 12.6225 88.4209 13.2731C87.5889 13.9131 86.9275 14.5851 86.4369 15.2891C85.9569 15.9931 85.7169 16.6705 85.7169 17.3211C85.7169 17.5025 85.8022 17.5931 85.9729 17.5931C86.1755 17.5931 86.4422 17.4758 86.7729 17.2411C87.1142 17.0065 87.4822 16.6971 87.8769 16.3131C88.2715 15.9185 88.6662 15.4811 89.0609 15.0011C89.4555 14.5105 89.8235 14.0091 90.1649 13.4971C90.5062 12.9851 90.7782 12.4945 90.9809 12.0251C91.0555 11.8545 91.1409 11.6945 91.2369 11.5451ZM108.666 10.8891C108.666 11.0171 108.623 11.1291 108.538 11.2251C108.453 11.3211 108.346 11.3958 108.218 11.4491C108.037 11.5238 107.722 11.6198 107.274 11.7371C106.826 11.8545 106.282 11.9878 105.642 12.1371C105.013 12.2865 104.335 12.4411 103.61 12.6011C102.885 12.7505 102.159 12.8945 101.434 13.0331C101.157 14.0571 100.874 15.1131 100.586 16.2011C100.298 17.2785 100.01 18.3398 99.7219 19.3851C99.6152 19.7585 99.4872 20.0411 99.3379 20.2331C99.1885 20.4358 98.9325 20.5371 98.5699 20.5371C98.1752 20.5371 97.9085 20.4091 97.7699 20.1531C97.6419 19.9078 97.6259 19.5718 97.7219 19.1451C97.9992 17.9825 98.2552 16.8998 98.4899 15.8971C98.7352 14.8945 98.9325 14.0838 99.0819 13.4651C98.4419 13.5718 97.8819 13.6571 97.4019 13.7211C96.9219 13.7745 96.5805 13.7958 96.3779 13.7851C96.1539 13.7638 95.9672 13.6731 95.8179 13.5131C95.6685 13.3531 95.5992 13.1558 95.6099 12.9211C95.6312 12.7078 95.7272 12.5265 95.8979 12.3771C96.0685 12.2171 96.2712 12.1211 96.5059 12.0891C96.8365 12.0571 97.2632 12.0091 97.7859 11.9451C98.3085 11.8811 98.8845 11.8065 99.5139 11.7211C99.6525 11.1771 99.8125 10.6171 99.9939 10.0411C100.175 9.45446 100.362 8.89446 100.554 8.36112C100.757 7.81712 100.949 7.34246 101.13 6.93712C101.311 6.53179 101.477 6.23846 101.626 6.05712C101.743 5.91846 101.887 5.81179 102.058 5.73712C102.239 5.66246 102.415 5.62512 102.586 5.62512C102.81 5.62512 102.991 5.70512 103.13 5.86512C103.269 6.02512 103.338 6.21179 103.338 6.42512C103.338 6.51046 103.333 6.60112 103.322 6.69712C103.311 6.78246 103.29 6.86779 103.258 6.95312C103.055 7.48646 102.837 8.13179 102.602 8.88912C102.378 9.64646 102.143 10.4785 101.898 11.3851C102.698 11.2678 103.482 11.1505 104.25 11.0331C105.029 10.9051 105.733 10.7878 106.362 10.6811C107.002 10.5638 107.514 10.4625 107.898 10.3771C108.111 10.3025 108.293 10.3185 108.442 10.4251C108.591 10.5211 108.666 10.6758 108.666 10.8891ZM109.167 19.4971C108.505 19.4971 107.972 19.2678 107.567 18.8091C107.161 18.3398 106.959 17.5878 106.959 16.5531C106.959 15.8918 107.033 15.2305 107.183 14.5691C107.343 13.8971 107.561 13.2625 107.839 12.6651C108.127 12.0571 108.457 11.5185 108.831 11.0491C109.215 10.5798 109.636 10.2118 110.095 9.94512C110.553 9.66779 111.028 9.52912 111.519 9.52912C112.351 9.52912 113.001 9.75312 113.471 10.2011C113.94 10.6491 114.175 11.2198 114.175 11.9131C114.175 12.4465 114.025 12.9318 113.727 13.3691C113.439 13.7958 113.044 14.1798 112.543 14.5211C112.041 14.8625 111.481 15.1718 110.863 15.4491C110.244 15.7265 109.609 15.9771 108.959 16.2011C108.905 16.5851 108.879 16.9265 108.879 17.2251C108.879 17.4065 108.98 17.4971 109.183 17.4971C109.663 17.4971 110.175 17.4225 110.719 17.2731C111.273 17.1131 111.833 16.9105 112.399 16.6651C112.964 16.4091 113.508 16.1478 114.031 15.8811C114.553 15.6038 115.028 15.3425 115.455 15.0971C115.892 14.8411 116.249 14.6385 116.527 14.4891C116.815 14.3291 117.001 14.2491 117.087 14.2491C117.321 14.2491 117.492 14.3185 117.599 14.4571C117.705 14.5958 117.759 14.7451 117.759 14.9051C117.759 14.9798 117.615 15.1451 117.327 15.4011C117.049 15.6571 116.665 15.9611 116.175 16.3131C115.695 16.6545 115.151 17.0118 114.543 17.3851C113.945 17.7478 113.321 18.0945 112.671 18.4251C112.031 18.7451 111.407 19.0011 110.799 19.1931C110.201 19.3958 109.657 19.4971 109.167 19.4971ZM109.231 14.7771C109.668 14.5211 110.1 14.2545 110.527 13.9771C110.964 13.6891 111.327 13.3691 111.615 13.0171C111.903 12.6545 112.047 12.2331 112.047 11.7531C112.047 11.6145 112.009 11.5238 111.935 11.4811C111.86 11.4278 111.753 11.4011 111.615 11.4011C111.241 11.4011 110.9 11.5665 110.591 11.8971C110.292 12.2278 110.025 12.6545 109.791 13.1771C109.567 13.6891 109.38 14.2225 109.231 14.7771Z" fill="#475467"/>
<path d="M1.17531 41.3967C1.98561 42.2413 2.91084 43.0037 3.58834 43.9433C9.62045 52.3089 18.2967 56.5144 27.959 58.7877C31.2946 59.5724 35.0833 59.4971 38.4675 58.8261C48.1404 56.9083 57.0048 52.9451 64.6459 46.619C66.8483 44.7955 68.7058 42.5588 70.3108 39.9414C69.4274 40.2728 68.5309 40.5735 67.6632 40.9414C65.1076 42.0255 62.6024 43.2428 59.9969 44.1875C58.8593 44.6 57.52 44.5933 56.284 44.5343C55.8255 44.5124 55.1282 43.8477 55.0396 43.3818C54.9574 42.9499 55.4399 42.0644 55.8478 41.9385C62.5696 39.8644 68.3407 35.9406 74.4249 32.6215C76.5577 31.4579 77.905 31.7805 78.8064 33.8503C81.0965 39.1086 82.1082 44.6588 81.9909 50.3974C81.987 50.5879 81.6879 50.7723 81.235 51.2975C76.5556 49.548 78.0121 44.5559 75.7066 40.5348C75.1267 41.4964 74.7854 42.2634 74.2699 42.8875C64.2955 54.9654 51.1661 61.3578 35.9059 63.744C33.582 64.1075 31.0854 63.9637 28.7512 63.5693C20.0711 62.1022 12.3323 58.4838 5.94092 52.4276C3.88193 50.4766 2.40539 47.8717 0.875016 45.4334C0.280743 44.4866 0.27428 43.1736 0 42.0275C0.391795 41.8172 0.78351 41.6069 1.17531 41.3967Z" fill="url(#paint0_linear_8594_1602)"/>
<defs>
<linearGradient id="paint0_linear_8594_1602" x1="82" y1="47.9531" x2="0" y2="47.9531" gradientUnits="userSpaceOnUse">
<stop stop-color="#9BADFF"/>
<stop offset="1" stop-color="#5B9CFC" stop-opacity="0"/>
</linearGradient>
</defs>
</svg>
