<svg width="213" height="86" viewBox="0 0 213 86" fill="none" xmlns="http://www.w3.org/2000/svg">
<path d="M74.704 56.1771C74.3947 56.1771 74.16 56.0811 74 55.8891C73.8507 55.6971 73.776 55.4358 73.776 55.1051C73.776 54.8385 73.7867 54.6091 73.808 54.4171C73.8293 54.2251 73.872 54.0225 73.936 53.8091C74 53.5851 74.08 53.3131 74.176 52.9931C74.2827 52.6625 74.416 52.2411 74.576 51.7291C74.672 51.4305 74.7893 51.0411 74.928 50.5611C75.0773 50.0705 75.2267 49.5371 75.376 48.9611C75.5253 48.3745 75.648 47.7878 75.744 47.2011C75.8507 46.6038 75.904 46.0545 75.904 45.5531C75.904 45.2118 75.8293 44.8971 75.68 44.6091C74.688 45.5905 73.7493 46.8705 72.864 48.4491C71.9893 50.0278 71.2107 51.8625 70.528 53.9531C70.3253 54.4758 70.0907 54.8278 69.824 55.0091C69.5573 55.1798 69.3013 55.2651 69.056 55.2651C68.9813 55.2651 68.8693 55.2225 68.72 55.1371C68.5707 55.0411 68.432 54.8705 68.304 54.6251C68.176 54.3798 68.112 54.0331 68.112 53.5851C68.112 53.4785 68.1387 53.3451 68.192 53.1851C68.2453 53.0145 68.3253 52.8331 68.432 52.6411C68.528 52.0865 68.5973 51.4945 68.64 50.8651C68.6933 50.2251 68.7253 49.5905 68.736 48.9611C68.7573 48.3211 68.768 47.7238 68.768 47.1691C68.768 46.7425 68.736 46.3691 68.672 46.0491C68.1493 46.7105 67.6533 47.5105 67.184 48.4491C66.7147 49.3878 66.288 50.3851 65.904 51.4411C65.5307 52.4971 65.2213 53.5318 64.976 54.5451C64.912 54.7905 64.8373 55.0198 64.752 55.2331C64.6667 55.4358 64.5387 55.6011 64.368 55.7291C64.208 55.8465 63.9733 55.9051 63.664 55.9051C63.3227 55.9051 63.0667 55.7665 62.896 55.4891C62.7253 55.2118 62.64 54.8438 62.64 54.3851C62.64 54.0331 62.7147 53.5798 62.864 53.0251C63.0133 52.4598 63.216 51.8465 63.472 51.1851C63.728 50.5131 64.0213 49.8305 64.352 49.1371C64.6933 48.4331 65.0507 47.7558 65.424 47.1051C65.7973 46.4545 66.176 45.8731 66.56 45.3611C66.9547 44.8385 67.328 44.4278 67.68 44.1291C68.0427 43.8198 68.3733 43.6651 68.672 43.6651C68.6827 43.6651 68.6987 43.6651 68.72 43.6651C68.9547 43.6651 69.168 43.6865 69.36 43.7291C69.5627 43.7611 69.7387 43.8731 69.888 44.0651C70.048 44.2465 70.1867 44.5505 70.304 44.9771C70.4213 45.4038 70.5227 46.0065 70.608 46.7851C70.6293 46.9771 70.6453 47.2065 70.656 47.4731C70.6667 47.7291 70.672 47.9958 70.672 48.2731C71.024 47.4838 71.408 46.7425 71.824 46.0491C72.2507 45.3558 72.688 44.7425 73.136 44.2091C73.5947 43.6758 74.048 43.2598 74.496 42.9611C74.944 42.6625 75.36 42.5131 75.744 42.5131C76.192 42.5131 76.608 42.6251 76.992 42.8491C77.376 43.0625 77.6853 43.4251 77.92 43.9371C78.1547 44.4491 78.272 45.1478 78.272 46.0331C78.272 46.9718 78.1867 47.8838 78.016 48.7691C77.8453 49.6438 77.632 50.4705 77.376 51.2491C77.12 52.0278 76.864 52.7425 76.608 53.3931C76.352 54.0331 76.1387 54.5878 75.968 55.0571C75.8293 55.3878 75.6693 55.6598 75.488 55.8731C75.3067 56.0758 75.0453 56.1771 74.704 56.1771ZM81.5072 56.5611C81.1659 56.5611 80.8566 56.4651 80.5792 56.2731C80.3019 56.0918 80.0832 55.8518 79.9232 55.5531C79.7632 55.2438 79.6832 54.9131 79.6832 54.5611C79.6832 53.8998 79.8272 53.2545 80.1152 52.6251C80.4139 51.9958 80.8032 51.3985 81.2832 50.8331C81.7632 50.2678 82.2859 49.7505 82.8512 49.2811C83.4272 48.8011 83.9979 48.3905 84.5633 48.0491C85.1392 47.7078 85.6619 47.4411 86.1312 47.2491C86.6113 47.0571 86.9846 46.9611 87.2513 46.9611C87.5606 46.9611 87.8113 47.0305 88.0033 47.1691C88.2059 47.2971 88.3073 47.4998 88.3073 47.7771C88.3073 47.8625 88.2859 47.9318 88.2432 47.9851C88.3819 48.0171 88.4939 48.0971 88.5793 48.2251C88.6646 48.3531 88.7072 48.5451 88.7072 48.8011C88.7072 48.9078 88.6806 49.1851 88.6272 49.6331C88.5739 50.0811 88.5152 50.6251 88.4513 51.2651C88.3979 51.9051 88.3713 52.5718 88.3713 53.2651C88.3713 53.3718 88.3873 53.4678 88.4193 53.5531C88.4513 53.6278 88.5206 53.6651 88.6272 53.6651C89.0539 53.6651 89.4859 53.5798 89.9233 53.4091C90.3713 53.2278 90.8032 53.0091 91.2192 52.7531C91.6459 52.4865 92.0299 52.2251 92.3713 51.9691C92.7233 51.7025 93.0166 51.4838 93.2513 51.3131C93.4966 51.1318 93.6566 51.0411 93.7313 51.0411C94.0939 51.0411 94.2753 51.2225 94.2753 51.5851C94.2753 51.6811 94.1579 51.8838 93.9233 52.1931C93.6993 52.4918 93.3899 52.8385 92.9953 53.2331C92.6006 53.6171 92.1579 54.0011 91.6673 54.3851C91.1873 54.7585 90.6859 55.0678 90.1632 55.3131C89.6513 55.5585 89.1553 55.6811 88.6753 55.6811C88.0886 55.6811 87.6406 55.5425 87.3313 55.2651C87.0326 54.9878 86.8192 54.6145 86.6912 54.1451C86.5739 53.6651 86.5099 53.1265 86.4992 52.5291C85.9552 53.3078 85.3899 54.0011 84.8032 54.6091C84.2272 55.2065 83.6566 55.6811 83.0912 56.0331C82.5259 56.3851 81.9979 56.5611 81.5072 56.5611ZM87.1713 48.5451C86.1259 49.0465 85.1872 49.6225 84.3552 50.2731C83.5232 50.9131 82.8619 51.5851 82.3712 52.2891C81.8912 52.9931 81.6512 53.6705 81.6512 54.3211C81.6512 54.5025 81.7366 54.5931 81.9072 54.5931C82.1099 54.5931 82.3766 54.4758 82.7072 54.2411C83.0486 54.0065 83.4166 53.6971 83.8112 53.3131C84.2059 52.9185 84.6006 52.4811 84.9952 52.0011C85.3899 51.5105 85.7579 51.0091 86.0992 50.4971C86.4406 49.9851 86.7126 49.4945 86.9152 49.0251C86.9899 48.8545 87.0753 48.6945 87.1713 48.5451ZM94.5334 55.9531C94.2774 55.9531 94.0214 55.8678 93.7654 55.6971C93.52 55.5158 93.3174 55.2598 93.1574 54.9291C92.9974 54.5878 92.9174 54.1771 92.9174 53.6971C92.9174 53.0571 93.0027 52.3745 93.1734 51.6491C93.3547 50.9238 93.5734 50.1985 93.8294 49.4731C94.0854 48.7478 94.336 48.0651 94.5814 47.4251C94.6987 47.1158 94.8427 46.9078 95.0134 46.8011C95.184 46.6838 95.408 46.6251 95.6854 46.6251C96.3147 46.6251 96.6294 46.9398 96.6294 47.5691C96.6294 47.6758 96.5814 47.8838 96.4854 48.1931C96.3894 48.4918 96.2614 48.8598 96.1014 49.2971C95.952 49.7345 95.792 50.2091 95.6214 50.7211C95.4614 51.2225 95.312 51.7345 95.1734 52.2571C95.0454 52.7691 94.944 53.2545 94.8694 53.7131C95.1147 53.3398 95.3867 52.8758 95.6854 52.3211C95.9947 51.7558 96.32 51.1638 96.6614 50.5451C97.0134 49.9265 97.3654 49.3505 97.7174 48.8171C98.0694 48.2731 98.416 47.8305 98.7574 47.4891C99.0987 47.1478 99.424 46.9771 99.7334 46.9771C100 46.9771 100.251 47.0305 100.485 47.1371C100.731 47.2331 100.944 47.4251 101.125 47.7131C101.307 47.9905 101.445 48.3905 101.541 48.9131C101.648 49.4358 101.701 50.1238 101.701 50.9771C101.701 51.4038 101.739 51.8198 101.813 52.2251C101.899 52.6198 102.037 52.9505 102.229 53.2171C102.421 53.4731 102.693 53.6011 103.045 53.6011C103.653 53.6011 104.197 53.4891 104.677 53.2651C105.157 53.0411 105.579 52.7798 105.941 52.4811C106.304 52.1825 106.608 51.9211 106.853 51.6971C107.003 51.5478 107.131 51.4305 107.237 51.3451C107.355 51.2598 107.451 51.2171 107.525 51.2171C107.749 51.2171 107.909 51.2758 108.005 51.3931C108.112 51.5105 108.165 51.6705 108.165 51.8731C108.165 51.9798 108.075 52.1771 107.893 52.4651C107.712 52.7531 107.456 53.0838 107.125 53.4571C106.805 53.8198 106.437 54.1718 106.021 54.5131C105.605 54.8545 105.157 55.1371 104.677 55.3611C104.197 55.5851 103.707 55.6971 103.205 55.6971C102.363 55.6971 101.664 55.5478 101.109 55.2491C100.565 54.9398 100.16 54.4278 99.8934 53.7131C99.6267 52.9878 99.4934 52.0011 99.4934 50.7531C99.4934 50.7211 99.4934 50.6678 99.4934 50.5931C99.4934 50.2625 99.488 49.9691 99.4774 49.7131C99.4774 49.4571 99.4614 49.2491 99.4294 49.0891C99.248 49.4198 99.0294 49.8145 98.7734 50.2731C98.528 50.7318 98.2614 51.2225 97.9734 51.7451C97.6854 52.2571 97.3867 52.7638 97.0774 53.2651C96.768 53.7558 96.4587 54.2038 96.1494 54.6091C95.8507 55.0145 95.5627 55.3398 95.2854 55.5851C95.008 55.8305 94.7574 55.9531 94.5334 55.9531ZM112.876 56.6731C112.631 56.6731 112.407 56.5718 112.204 56.3691C112.012 56.1771 111.916 55.8518 111.916 55.3931C111.916 55.0518 111.943 54.5771 111.996 53.9691C112.06 53.3505 112.177 52.5558 112.348 51.5851C111.975 52.3531 111.585 53.0358 111.18 53.6331C110.775 54.2305 110.375 54.6998 109.98 55.0411C109.596 55.3718 109.228 55.5371 108.876 55.5371C108.311 55.5371 107.863 55.3665 107.532 55.0251C107.201 54.6731 107.036 54.0171 107.036 53.0571C107.036 52.5985 107.073 52.0811 107.148 51.5051C107.233 50.9291 107.34 50.3531 107.468 49.7771C107.596 49.2011 107.724 48.6891 107.852 48.2411C107.991 47.7825 108.113 47.4411 108.22 47.2171C108.305 47.0251 108.412 46.8758 108.54 46.7691C108.679 46.6625 108.855 46.6091 109.068 46.6091C109.409 46.6091 109.671 46.7211 109.852 46.9451C110.033 47.1691 110.124 47.3985 110.124 47.6331C110.124 47.8145 110.081 48.0758 109.996 48.4171C109.921 48.7585 109.825 49.1371 109.708 49.5531C109.601 49.9691 109.489 50.3958 109.372 50.8331C109.255 51.2705 109.153 51.6811 109.068 52.0651C108.993 52.4491 108.956 52.7745 108.956 53.0411C108.956 53.3718 109.084 53.5371 109.34 53.5371C109.489 53.5371 109.681 53.3931 109.916 53.1051C110.161 52.8171 110.417 52.4331 110.684 51.9531C110.961 51.4625 111.239 50.9291 111.516 50.3531C111.804 49.7665 112.065 49.1745 112.3 48.5771C112.545 47.9691 112.753 47.4091 112.924 46.8971C113.031 46.5771 113.175 46.3531 113.356 46.2251C113.537 46.0971 113.745 46.0331 113.98 46.0331C114.343 46.0331 114.62 46.1345 114.812 46.3371C115.015 46.5398 115.116 46.8278 115.116 47.2011C115.116 47.3718 115.089 47.6598 115.036 48.0651C114.983 48.4705 114.913 48.9451 114.828 49.4891C114.753 50.0331 114.663 50.6091 114.556 51.2171C114.449 51.8251 114.343 52.4225 114.236 53.0091C114.14 53.5958 114.044 54.1345 113.948 54.6251C113.852 55.1051 113.772 55.4891 113.708 55.7771C113.601 56.2038 113.473 56.4598 113.324 56.5451C113.175 56.6305 113.025 56.6731 112.876 56.6731ZM118.488 56.5611C118.147 56.5611 117.838 56.4651 117.56 56.2731C117.283 56.0918 117.064 55.8518 116.904 55.5531C116.744 55.2438 116.664 54.9131 116.664 54.5611C116.664 53.8998 116.808 53.2545 117.096 52.6251C117.395 51.9958 117.784 51.3985 118.264 50.8331C118.744 50.2678 119.267 49.7505 119.832 49.2811C120.408 48.8011 120.979 48.3905 121.544 48.0491C122.12 47.7078 122.643 47.4411 123.112 47.2491C123.592 47.0571 123.966 46.9611 124.232 46.9611C124.542 46.9611 124.792 47.0305 124.984 47.1691C125.187 47.2971 125.288 47.4998 125.288 47.7771C125.288 47.8625 125.267 47.9318 125.224 47.9851C125.363 48.0171 125.475 48.0971 125.56 48.2251C125.646 48.3531 125.688 48.5451 125.688 48.8011C125.688 48.9078 125.662 49.1851 125.608 49.6331C125.555 50.0811 125.496 50.6251 125.432 51.2651C125.379 51.9051 125.352 52.5718 125.352 53.2651C125.352 53.3718 125.368 53.4678 125.4 53.5531C125.432 53.6278 125.502 53.6651 125.608 53.6651C126.035 53.6651 126.467 53.5798 126.904 53.4091C127.352 53.2278 127.784 53.0091 128.2 52.7531C128.627 52.4865 129.011 52.2251 129.352 51.9691C129.704 51.7025 129.998 51.4838 130.232 51.3131C130.478 51.1318 130.638 51.0411 130.712 51.0411C131.075 51.0411 131.256 51.2225 131.256 51.5851C131.256 51.6811 131.139 51.8838 130.904 52.1931C130.68 52.4918 130.371 52.8385 129.976 53.2331C129.582 53.6171 129.139 54.0011 128.648 54.3851C128.168 54.7585 127.667 55.0678 127.144 55.3131C126.632 55.5585 126.136 55.6811 125.656 55.6811C125.07 55.6811 124.622 55.5425 124.312 55.2651C124.014 54.9878 123.8 54.6145 123.672 54.1451C123.555 53.6651 123.491 53.1265 123.48 52.5291C122.936 53.3078 122.371 54.0011 121.784 54.6091C121.208 55.2065 120.638 55.6811 120.072 56.0331C119.507 56.3851 118.979 56.5611 118.488 56.5611ZM124.152 48.5451C123.107 49.0465 122.168 49.6225 121.336 50.2731C120.504 50.9131 119.843 51.5851 119.352 52.2891C118.872 52.9931 118.632 53.6705 118.632 54.3211C118.632 54.5025 118.718 54.5931 118.888 54.5931C119.091 54.5931 119.358 54.4758 119.688 54.2411C120.03 54.0065 120.398 53.6971 120.792 53.3131C121.187 52.9185 121.582 52.4811 121.976 52.0011C122.371 51.5105 122.739 51.0091 123.08 50.4971C123.422 49.9851 123.694 49.4945 123.896 49.0251C123.971 48.8545 124.056 48.6945 124.152 48.5451ZM133.345 56.7531C132.385 56.7531 131.627 56.4598 131.073 55.8731C130.529 55.2758 130.257 54.4278 130.257 53.3291C130.257 52.7318 130.337 52.0331 130.497 51.2331C130.657 50.4225 130.865 49.5691 131.121 48.6731C131.387 47.7665 131.67 46.8705 131.969 45.9851C132.278 45.0998 132.582 44.2785 132.881 43.5211C133.179 42.7638 133.441 42.1291 133.665 41.6171C133.857 41.2225 134.129 41.0251 134.481 41.0251C134.705 41.0251 134.886 41.0945 135.025 41.2331C135.174 41.3718 135.249 41.5958 135.249 41.9051C135.249 42.0545 135.174 42.3798 135.025 42.8811C134.875 43.3825 134.678 44.0011 134.433 44.7371C134.198 45.4625 133.942 46.2465 133.665 47.0891C133.398 47.9318 133.142 48.7798 132.897 49.6331C132.662 50.4865 132.47 51.2918 132.321 52.0491C132.171 52.7958 132.097 53.4305 132.097 53.9531C132.097 54.1665 132.155 54.3371 132.273 54.4651C132.401 54.5931 132.566 54.6571 132.769 54.6571C133.206 54.6571 133.654 54.5771 134.113 54.4171C134.582 54.2571 135.041 54.0545 135.489 53.8091C135.947 53.5638 136.379 53.3025 136.785 53.0251C137.19 52.7478 137.553 52.4865 137.873 52.2411C138.203 51.9851 138.47 51.7825 138.673 51.6331C138.939 51.4305 139.121 51.3291 139.217 51.3291C139.579 51.3291 139.761 51.5051 139.761 51.8571C139.761 51.9425 139.654 52.1185 139.441 52.3851C139.259 52.6198 139.003 52.9185 138.673 53.2811C138.342 53.6438 137.958 54.0278 137.521 54.4331C137.094 54.8278 136.635 55.2011 136.145 55.5531C135.665 55.9051 135.185 56.1931 134.705 56.4171C134.225 56.6411 133.771 56.7531 133.345 56.7531ZM67.856 80.3371C67.0453 80.3371 66.3253 80.1291 65.696 79.7131C65.0667 79.2971 64.5707 78.7211 64.208 77.9851C63.856 77.2385 63.68 76.3851 63.68 75.4251C63.68 74.7105 63.824 74.0171 64.112 73.3451C64.4 72.6625 64.72 72.0651 65.072 71.5531C65.0293 71.3931 65.008 71.1958 65.008 70.9611C65.008 70.6731 65.1253 70.3425 65.36 69.9691C65.5947 69.5958 65.92 69.2331 66.336 68.8811C66.7627 68.5291 67.2587 68.2358 67.824 68.0011C68.4 67.7665 69.024 67.6491 69.696 67.6491C70.7413 67.6491 71.6213 67.8625 72.336 68.2891C73.0507 68.7158 73.5893 69.2758 73.952 69.9691C74.3253 70.6625 74.512 71.4145 74.512 72.2251C74.512 73.3985 74.32 74.4811 73.936 75.4731C73.552 76.4651 73.04 77.3238 72.4 78.0491C71.76 78.7745 71.0453 79.3398 70.256 79.7451C69.4667 80.1398 68.6667 80.3371 67.856 80.3371ZM68.048 70.3051C68.0587 70.3371 68.064 70.3691 68.064 70.4011C68.064 70.5078 68.0427 70.6251 68 70.7531C67.9573 70.8705 67.872 70.9878 67.744 71.1051C67.5307 71.3185 67.3173 71.6171 67.104 72.0011C66.8907 72.3745 66.6933 72.7905 66.512 73.2491C66.3413 73.7078 66.2027 74.1771 66.096 74.6571C65.9893 75.1371 65.936 75.5958 65.936 76.0331C65.936 76.6305 66.0747 77.1265 66.352 77.5211C66.64 77.9158 67.088 78.1131 67.696 78.1131C68.208 78.1131 68.6933 77.9958 69.152 77.7611C69.6107 77.5158 70.032 77.1905 70.416 76.7851C70.8 76.3691 71.1307 75.9105 71.408 75.4091C71.6853 74.8971 71.8987 74.3798 72.048 73.8571C72.208 73.3238 72.288 72.8171 72.288 72.3371C72.288 71.8891 72.192 71.4731 72 71.0891C71.8187 70.7051 71.552 70.3958 71.2 70.1611C70.848 69.9158 70.4107 69.7931 69.888 69.7931C69.504 69.7931 69.1573 69.8411 68.848 69.9371C68.5493 70.0331 68.2827 70.1558 68.048 70.3051ZM78.6205 80.4491C77.9805 80.4491 77.5378 80.3211 77.2925 80.0651C77.0578 79.8198 76.9405 79.4785 76.9405 79.0411C76.9405 77.1851 77.2872 75.2491 77.9805 73.2331C78.6845 71.2065 79.6712 69.1745 80.9405 67.1371C81.1538 66.7851 81.3298 66.5771 81.4685 66.5131C81.6072 66.4491 81.7618 66.4171 81.9325 66.4171C82.1778 66.4171 82.3912 66.5025 82.5725 66.6731C82.7645 66.8438 82.8605 67.0678 82.8605 67.3451C82.8605 67.4305 82.7698 67.6651 82.5885 68.0491C82.4072 68.4331 82.1672 68.9238 81.8685 69.5211C81.5805 70.1185 81.2658 70.7958 80.9245 71.5531C80.5832 72.2998 80.2472 73.0891 79.9165 73.9211C79.5965 74.7531 79.3192 75.5905 79.0845 76.4331C79.4472 75.9745 79.8578 75.5051 80.3165 75.0251C80.7858 74.5345 81.2712 74.0865 81.7725 73.6811C82.2738 73.2651 82.7592 72.9345 83.2285 72.6891C83.6978 72.4331 84.1192 72.3051 84.4925 72.3051C84.8445 72.3051 85.1698 72.3905 85.4685 72.5611C85.7778 72.7318 86.0285 72.9985 86.2205 73.3611C86.4125 73.7238 86.5085 74.1931 86.5085 74.7691C86.5085 75.3985 86.3272 76.0438 85.9645 76.7051C85.6125 77.3665 85.0952 77.9798 84.4125 78.5451C83.7405 79.1105 82.9138 79.5691 81.9325 79.9211C80.9618 80.2731 79.8578 80.4491 78.6205 80.4491ZM79.2925 78.6251C80.1138 78.5611 80.8552 78.3851 81.5165 78.0971C82.1885 77.8091 82.7645 77.4518 83.2445 77.0251C83.7245 76.5985 84.0925 76.1505 84.3485 75.6811C84.6045 75.2011 84.7325 74.7478 84.7325 74.3211C84.7325 74.2251 84.7058 74.1771 84.6525 74.1771C84.4285 74.1771 84.1458 74.2785 83.8045 74.4811C83.4632 74.6731 83.0898 74.9345 82.6845 75.2651C82.2792 75.5958 81.8685 75.9585 81.4525 76.3531C81.0365 76.7478 80.6418 77.1425 80.2685 77.5371C79.8952 77.9318 79.5698 78.2945 79.2925 78.6251ZM89.7012 80.7691C89.2426 80.7691 88.9172 80.7051 88.7252 80.5771C88.5439 80.4491 88.4532 80.2625 88.4532 80.0171C88.4532 79.8038 88.5279 79.6225 88.6772 79.4731C88.8266 79.3131 89.1572 79.1531 89.6692 78.9931C90.2666 78.8118 90.8319 78.6038 91.3652 78.3691C91.9092 78.1238 92.3519 77.8571 92.6932 77.5691C93.0452 77.2811 93.2212 76.9771 93.2212 76.6571C93.2212 76.4438 93.1466 76.2891 92.9972 76.1931C92.8586 76.0971 92.6932 76.0491 92.5012 76.0491C92.3412 76.0491 92.1066 76.0758 91.7972 76.1291C91.4986 76.1718 91.1679 76.2305 90.8052 76.3051C90.4426 76.3691 90.0906 76.4278 89.7492 76.4811C89.4186 76.5238 89.1359 76.5451 88.9012 76.5451C88.3466 76.5451 87.9359 76.4225 87.6692 76.1771C87.4026 75.9211 87.2692 75.5958 87.2692 75.2011C87.2692 74.9878 87.3812 74.6945 87.6052 74.3211C87.8292 73.9478 88.1279 73.5371 88.5012 73.0891C88.8746 72.6411 89.2906 72.1931 89.7492 71.7451C90.2079 71.2971 90.6719 70.8865 91.1412 70.5131C91.6212 70.1291 92.0746 69.8251 92.5012 69.6011C92.9279 69.3665 93.2906 69.2491 93.5892 69.2491C93.9306 69.2491 94.2026 69.3558 94.4052 69.5691C94.6186 69.7825 94.7252 70.0705 94.7252 70.4331C94.7252 70.6038 94.7092 70.7905 94.6772 70.9931C94.6452 71.1851 94.5652 71.3611 94.4372 71.5211C94.3092 71.6705 94.1119 71.7771 93.8452 71.8411C93.5786 71.9051 93.2159 71.8945 92.7572 71.8091C92.3946 72.0758 92.0159 72.3691 91.6212 72.6891C91.2372 72.9985 90.8746 73.3238 90.5332 73.6651C90.1919 73.9958 89.9092 74.3211 89.6852 74.6411C90.0799 74.5131 90.5279 74.4118 91.0292 74.3371C91.5306 74.2518 92.0372 74.2091 92.5492 74.2091C93.1679 74.2091 93.6692 74.3211 94.0532 74.5451C94.4479 74.7585 94.7359 75.0465 94.9172 75.4091C95.1092 75.7718 95.2052 76.1718 95.2052 76.6091C95.2052 77.0998 95.0452 77.5905 94.7252 78.0811C94.4052 78.5718 93.9786 79.0198 93.4452 79.4251C92.9119 79.8305 92.3199 80.1558 91.6692 80.4011C91.0186 80.6465 90.3626 80.7691 89.7012 80.7691ZM99.5385 80.4971C98.8772 80.4971 98.3438 80.2678 97.9385 79.8091C97.5332 79.3398 97.3305 78.5878 97.3305 77.5531C97.3305 76.8918 97.4052 76.2305 97.5545 75.5691C97.7145 74.8971 97.9332 74.2625 98.2105 73.6651C98.4985 73.0571 98.8292 72.5185 99.2025 72.0491C99.5865 71.5798 100.008 71.2118 100.467 70.9451C100.925 70.6678 101.4 70.5291 101.891 70.5291C102.723 70.5291 103.373 70.7531 103.843 71.2011C104.312 71.6491 104.547 72.2198 104.547 72.9131C104.547 73.4465 104.397 73.9318 104.099 74.3691C103.811 74.7958 103.416 75.1798 102.915 75.5211C102.413 75.8625 101.853 76.1718 101.235 76.4491C100.616 76.7265 99.9812 76.9771 99.3305 77.2011C99.2772 77.5851 99.2505 77.9265 99.2505 78.2251C99.2505 78.4065 99.3518 78.4971 99.5545 78.4971C100.035 78.4971 100.547 78.4225 101.091 78.2731C101.645 78.1131 102.205 77.9105 102.771 77.6651C103.336 77.4091 103.88 77.1478 104.403 76.8811C104.925 76.6038 105.4 76.3425 105.827 76.0971C106.264 75.8411 106.621 75.6385 106.899 75.4891C107.187 75.3291 107.373 75.2491 107.459 75.2491C107.693 75.2491 107.864 75.3185 107.971 75.4571C108.077 75.5958 108.131 75.7451 108.131 75.9051C108.131 75.9798 107.987 76.1451 107.699 76.4011C107.421 76.6571 107.037 76.9611 106.547 77.3131C106.067 77.6545 105.523 78.0118 104.915 78.3851C104.317 78.7478 103.693 79.0945 103.043 79.4251C102.403 79.7451 101.779 80.0011 101.171 80.1931C100.573 80.3958 100.029 80.4971 99.5385 80.4971ZM99.6025 75.7771C100.04 75.5211 100.472 75.2545 100.899 74.9771C101.336 74.6891 101.699 74.3691 101.987 74.0171C102.275 73.6545 102.419 73.2331 102.419 72.7531C102.419 72.6145 102.381 72.5238 102.307 72.4811C102.232 72.4278 102.125 72.4011 101.987 72.4011C101.613 72.4011 101.272 72.5665 100.963 72.8971C100.664 73.2278 100.397 73.6545 100.163 74.1771C99.9385 74.6891 99.7518 75.2225 99.6025 75.7771ZM107.889 80.6571C107.622 80.6571 107.393 80.5611 107.201 80.3691C107.019 80.1771 106.929 79.8998 106.929 79.5371C106.929 79.3771 106.95 79.1158 106.993 78.7531C107.046 78.3798 107.11 77.9531 107.185 77.4731C107.27 76.9931 107.35 76.4918 107.425 75.9691C107.51 75.4465 107.579 74.9505 107.633 74.4811C107.697 74.0118 107.739 73.6118 107.761 73.2811C107.782 72.8758 107.889 72.5878 108.081 72.4171C108.273 72.2358 108.502 72.1451 108.769 72.1451C108.982 72.1451 109.174 72.1985 109.345 72.3051C109.526 72.4011 109.638 72.6091 109.681 72.9291C109.734 73.2385 109.739 73.6865 109.697 74.2731C110.166 73.4198 110.641 72.6571 111.121 71.9851C111.611 71.3131 112.123 70.7798 112.657 70.3851C113.542 69.7131 114.342 69.3771 115.057 69.3771C115.462 69.3771 115.729 69.4678 115.857 69.6491C115.985 69.8305 116.049 70.0171 116.049 70.2091C116.049 70.3371 116.017 70.4545 115.953 70.5611C115.899 70.6678 115.782 70.7798 115.601 70.8971C115.419 71.0145 115.142 71.1691 114.769 71.3611C114.267 71.6171 113.771 71.9531 113.281 72.3691C112.801 72.7851 112.321 73.3185 111.841 73.9691C111.361 74.6198 110.875 75.4198 110.385 76.3691C109.894 77.3185 109.387 78.4491 108.865 79.7611C108.769 80.1238 108.63 80.3638 108.449 80.4811C108.278 80.5985 108.091 80.6571 107.889 80.6571ZM117.491 79.9371C117.213 79.9371 116.968 79.8038 116.755 79.5371C116.552 79.2705 116.397 78.8598 116.291 78.3051C116.205 77.8358 116.131 77.3025 116.067 76.7051C116.003 76.1078 115.944 75.5211 115.891 74.9451C115.848 74.3585 115.816 73.8465 115.795 73.4091C115.773 72.9718 115.763 72.6731 115.763 72.5131C115.763 71.9371 115.864 71.4625 116.067 71.0891C116.269 70.7051 116.659 70.5131 117.235 70.5131C117.48 70.5131 117.667 70.6198 117.795 70.8331C117.923 71.0358 117.987 71.3185 117.987 71.6811C117.987 71.9051 117.987 72.1878 117.987 72.5291C117.997 72.8598 118.008 73.2331 118.019 73.6491C118.029 74.1078 118.04 74.6038 118.051 75.1371C118.072 75.6598 118.083 76.1825 118.083 76.7051C118.456 76.1185 118.856 75.4945 119.283 74.8331C119.709 74.1611 120.125 73.5105 120.531 72.8811C120.947 72.2518 121.32 71.6971 121.651 71.2171C121.981 70.7265 122.232 70.3798 122.403 70.1771C122.552 69.9958 122.733 69.8411 122.947 69.7131C123.16 69.5745 123.384 69.5051 123.619 69.5051C123.875 69.5051 124.088 69.6065 124.259 69.8091C124.429 70.0118 124.515 70.2465 124.515 70.5131C124.515 70.7158 124.472 70.9078 124.387 71.0891C124.312 71.2705 124.216 71.4411 124.099 71.6011C123.779 72.0491 123.4 72.5718 122.963 73.1691C122.536 73.7665 122.088 74.3958 121.619 75.0571C121.149 75.7078 120.691 76.3371 120.243 76.9451C119.805 77.5531 119.416 78.0918 119.075 78.5611C118.797 78.9558 118.573 79.2545 118.403 79.4571C118.232 79.6491 118.077 79.7771 117.939 79.8411C117.811 79.9051 117.661 79.9371 117.491 79.9371ZM125.617 80.5611C125.275 80.5611 124.966 80.4651 124.689 80.2731C124.411 80.0918 124.193 79.8518 124.033 79.5531C123.873 79.2438 123.793 78.9131 123.793 78.5611C123.793 77.8998 123.937 77.2545 124.225 76.6251C124.523 75.9958 124.913 75.3985 125.393 74.8331C125.873 74.2678 126.395 73.7505 126.961 73.2811C127.537 72.8011 128.107 72.3905 128.673 72.0491C129.249 71.7078 129.771 71.4411 130.241 71.2491C130.721 71.0571 131.094 70.9611 131.361 70.9611C131.67 70.9611 131.921 71.0305 132.113 71.1691C132.315 71.2971 132.417 71.4998 132.417 71.7771C132.417 71.8625 132.395 71.9318 132.353 71.9851C132.491 72.0171 132.603 72.0971 132.689 72.2251C132.774 72.3531 132.817 72.5451 132.817 72.8011C132.817 72.9078 132.79 73.1851 132.737 73.6331C132.683 74.0811 132.625 74.6251 132.561 75.2651C132.507 75.9051 132.481 76.5718 132.481 77.2651C132.481 77.3718 132.497 77.4678 132.529 77.5531C132.561 77.6278 132.63 77.6651 132.737 77.6651C133.163 77.6651 133.595 77.5798 134.033 77.4091C134.481 77.2278 134.913 77.0091 135.329 76.7531C135.755 76.4865 136.139 76.2251 136.481 75.9691C136.833 75.7025 137.126 75.4838 137.361 75.3131C137.606 75.1318 137.766 75.0411 137.841 75.0411C138.203 75.0411 138.385 75.2225 138.385 75.5851C138.385 75.6811 138.267 75.8838 138.033 76.1931C137.809 76.4918 137.499 76.8385 137.105 77.2331C136.71 77.6171 136.267 78.0011 135.777 78.3851C135.297 78.7585 134.795 79.0678 134.273 79.3131C133.761 79.5585 133.265 79.6811 132.785 79.6811C132.198 79.6811 131.75 79.5425 131.441 79.2651C131.142 78.9878 130.929 78.6145 130.801 78.1451C130.683 77.6651 130.619 77.1265 130.609 76.5291C130.065 77.3078 129.499 78.0011 128.913 78.6091C128.337 79.2065 127.766 79.6811 127.201 80.0331C126.635 80.3851 126.107 80.5611 125.617 80.5611ZM131.281 72.5451C130.235 73.0465 129.297 73.6225 128.465 74.2731C127.633 74.9131 126.971 75.5851 126.481 76.2891C126.001 76.9931 125.761 77.6705 125.761 78.3211C125.761 78.5025 125.846 78.5931 126.017 78.5931C126.219 78.5931 126.486 78.4758 126.817 78.2411C127.158 78.0065 127.526 77.6971 127.921 77.3131C128.315 76.9185 128.71 76.4811 129.105 76.0011C129.499 75.5105 129.867 75.0091 130.209 74.4971C130.55 73.9851 130.822 73.4945 131.025 73.0251C131.099 72.8545 131.185 72.6945 131.281 72.5451ZM148.71 71.8891C148.71 72.0171 148.667 72.1291 148.582 72.2251C148.496 72.3211 148.39 72.3958 148.262 72.4491C148.08 72.5238 147.766 72.6198 147.318 72.7371C146.87 72.8545 146.326 72.9878 145.686 73.1371C145.056 73.2865 144.379 73.4411 143.654 73.6011C142.928 73.7505 142.203 73.8945 141.478 74.0331C141.2 75.0571 140.918 76.1131 140.63 77.2011C140.342 78.2785 140.054 79.3398 139.766 80.3851C139.659 80.7585 139.531 81.0411 139.382 81.2331C139.232 81.4358 138.976 81.5371 138.614 81.5371C138.219 81.5371 137.952 81.4091 137.814 81.1531C137.686 80.9078 137.67 80.5718 137.766 80.1451C138.043 78.9825 138.299 77.8998 138.534 76.8971C138.779 75.8945 138.976 75.0838 139.126 74.4651C138.486 74.5718 137.926 74.6571 137.446 74.7211C136.966 74.7745 136.624 74.7958 136.422 74.7851C136.198 74.7638 136.011 74.6731 135.862 74.5131C135.712 74.3531 135.643 74.1558 135.654 73.9211C135.675 73.7078 135.771 73.5265 135.942 73.3771C136.112 73.2171 136.315 73.1211 136.55 73.0891C136.88 73.0571 137.307 73.0091 137.83 72.9451C138.352 72.8811 138.928 72.8065 139.558 72.7211C139.696 72.1771 139.856 71.6171 140.038 71.0411C140.219 70.4545 140.406 69.8945 140.598 69.3611C140.8 68.8171 140.992 68.3425 141.174 67.9371C141.355 67.5318 141.52 67.2385 141.67 67.0571C141.787 66.9185 141.931 66.8118 142.102 66.7371C142.283 66.6625 142.459 66.6251 142.63 66.6251C142.854 66.6251 143.035 66.7051 143.174 66.8651C143.312 67.0251 143.382 67.2118 143.382 67.4251C143.382 67.5105 143.376 67.6011 143.366 67.6971C143.355 67.7825 143.334 67.8678 143.302 67.9531C143.099 68.4865 142.88 69.1318 142.646 69.8891C142.422 70.6465 142.187 71.4785 141.942 72.3851C142.742 72.2678 143.526 72.1505 144.294 72.0331C145.072 71.9051 145.776 71.7878 146.406 71.6811C147.046 71.5638 147.558 71.4625 147.942 71.3771C148.155 71.3025 148.336 71.3185 148.486 71.4251C148.635 71.5211 148.71 71.6758 148.71 71.8891ZM146.932 80.1931C146.633 80.1931 146.367 80.0918 146.132 79.8891C145.908 79.6865 145.796 79.3558 145.796 78.8971C145.796 78.6518 145.828 78.3051 145.892 77.8571C145.967 77.4091 146.063 76.9238 146.18 76.4011C146.297 75.8678 146.425 75.3398 146.564 74.8171C146.713 74.2945 146.857 73.8305 146.996 73.4251C147.135 73.0091 147.257 72.6998 147.364 72.4971C147.503 72.2518 147.631 72.1025 147.748 72.0491C147.876 71.9851 147.999 71.9531 148.116 71.9531C148.329 71.9531 148.527 72.0171 148.708 72.1451C148.9 72.2731 148.996 72.5558 148.996 72.9931C148.996 73.1638 148.964 73.4411 148.9 73.8251C148.836 74.1985 148.756 74.6358 148.66 75.1371C148.564 75.6385 148.457 76.1558 148.34 76.6891C148.233 77.2225 148.127 77.7291 148.02 78.2091C147.924 78.6785 147.844 79.0731 147.78 79.3931C147.727 79.6598 147.615 79.8571 147.444 79.9851C147.284 80.1238 147.113 80.1931 146.932 80.1931ZM148.772 70.3691C148.42 70.3691 148.095 70.2678 147.796 70.0651C147.497 69.8518 147.348 69.5265 147.348 69.0891C147.348 68.7265 147.439 68.4331 147.62 68.2091C147.801 67.9851 148.015 67.8251 148.26 67.7291C148.516 67.6225 148.74 67.5691 148.932 67.5691C149.124 67.5691 149.337 67.6118 149.572 67.6971C149.807 67.7718 150.009 67.9158 150.18 68.1291C150.361 68.3318 150.452 68.6251 150.452 69.0091C150.452 69.2651 150.361 69.4998 150.18 69.7131C149.999 69.9158 149.775 70.0758 149.508 70.1931C149.252 70.3105 149.007 70.3691 148.772 70.3691ZM153.948 80.4811C153.191 80.4811 152.583 80.2145 152.124 79.6811C151.665 79.1371 151.436 78.4118 151.436 77.5051C151.436 77.2171 151.473 76.9238 151.548 76.6251C151.633 76.3265 151.735 76.0491 151.852 75.7931C151.788 75.6971 151.735 75.5745 151.692 75.4251C151.66 75.2651 151.644 75.0785 151.644 74.8651C151.644 74.1718 151.767 73.5371 152.012 72.9611C152.257 72.3745 152.588 71.8678 153.004 71.4411C153.42 71.0145 153.879 70.6838 154.38 70.4491C154.881 70.2145 155.388 70.0971 155.9 70.0971C156.775 70.0971 157.489 70.3905 158.044 70.9771C158.609 71.5638 158.892 72.4758 158.892 73.7131C158.892 74.3318 158.796 74.9611 158.604 75.6011C158.412 76.2411 158.151 76.8545 157.82 77.4411C157.5 78.0171 157.127 78.5345 156.7 78.9931C156.284 79.4518 155.836 79.8145 155.356 80.0811C154.887 80.3478 154.417 80.4811 153.948 80.4811ZM153.692 75.0731C153.745 75.1905 153.772 75.3291 153.772 75.4891C153.772 75.6491 153.74 75.8145 153.676 75.9851C153.612 76.1558 153.548 76.3851 153.484 76.6731C153.42 76.9505 153.388 77.3505 153.388 77.8731C153.388 78.0118 153.404 78.1291 153.436 78.2251C153.479 78.3105 153.569 78.3531 153.708 78.3531C154.071 78.3531 154.412 78.2358 154.732 78.0011C155.063 77.7665 155.356 77.4571 155.612 77.0731C155.879 76.6891 156.103 76.2625 156.284 75.7931C156.476 75.3131 156.62 74.8278 156.716 74.3371C156.823 73.8358 156.876 73.3718 156.876 72.9451C156.876 72.6678 156.823 72.4758 156.716 72.3691C156.609 72.2625 156.423 72.2091 156.156 72.2091C155.793 72.2091 155.42 72.3265 155.036 72.5611C154.663 72.7851 154.348 73.0945 154.092 73.4891C153.836 73.8731 153.708 74.3105 153.708 74.8011C153.708 74.8971 153.703 74.9878 153.692 75.0731ZM162.421 79.9531C162.165 79.9531 161.909 79.8678 161.653 79.6971C161.408 79.5158 161.205 79.2598 161.045 78.9291C160.885 78.5878 160.805 78.1771 160.805 77.6971C160.805 77.0571 160.89 76.3745 161.061 75.6491C161.242 74.9238 161.461 74.1985 161.717 73.4731C161.973 72.7478 162.224 72.0651 162.469 71.4251C162.586 71.1158 162.73 70.9078 162.901 70.8011C163.072 70.6838 163.296 70.6251 163.573 70.6251C164.202 70.6251 164.517 70.9398 164.517 71.5691C164.517 71.6758 164.469 71.8838 164.373 72.1931C164.277 72.4918 164.149 72.8598 163.989 73.2971C163.84 73.7345 163.68 74.2091 163.509 74.7211C163.349 75.2225 163.2 75.7345 163.061 76.2571C162.933 76.7691 162.832 77.2545 162.757 77.7131C163.002 77.3398 163.274 76.8758 163.573 76.3211C163.882 75.7558 164.208 75.1638 164.549 74.5451C164.901 73.9265 165.253 73.3505 165.605 72.8171C165.957 72.2731 166.304 71.8305 166.645 71.4891C166.986 71.1478 167.312 70.9771 167.621 70.9771C167.888 70.9771 168.138 71.0305 168.373 71.1371C168.618 71.2331 168.832 71.4251 169.013 71.7131C169.194 71.9905 169.333 72.3905 169.429 72.9131C169.536 73.4358 169.589 74.1238 169.589 74.9771C169.589 75.4038 169.626 75.8198 169.701 76.2251C169.786 76.6198 169.925 76.9505 170.117 77.2171C170.309 77.4731 170.581 77.6011 170.933 77.6011C171.541 77.6011 172.085 77.4891 172.565 77.2651C173.045 77.0411 173.466 76.7798 173.829 76.4811C174.192 76.1825 174.496 75.9211 174.741 75.6971C174.89 75.5478 175.018 75.4305 175.125 75.3451C175.242 75.2598 175.338 75.2171 175.413 75.2171C175.637 75.2171 175.797 75.2758 175.893 75.3931C176 75.5105 176.053 75.6705 176.053 75.8731C176.053 75.9798 175.962 76.1771 175.781 76.4651C175.6 76.7531 175.344 77.0838 175.013 77.4571C174.693 77.8198 174.325 78.1718 173.909 78.5131C173.493 78.8545 173.045 79.1371 172.565 79.3611C172.085 79.5851 171.594 79.6971 171.093 79.6971C170.25 79.6971 169.552 79.5478 168.997 79.2491C168.453 78.9398 168.048 78.4278 167.781 77.7131C167.514 76.9878 167.381 76.0011 167.381 74.7531C167.381 74.7211 167.381 74.6678 167.381 74.5931C167.381 74.2625 167.376 73.9691 167.365 73.7131C167.365 73.4571 167.349 73.2491 167.317 73.0891C167.136 73.4198 166.917 73.8145 166.661 74.2731C166.416 74.7318 166.149 75.2225 165.861 75.7451C165.573 76.2571 165.274 76.7638 164.965 77.2651C164.656 77.7558 164.346 78.2038 164.037 78.6091C163.738 79.0145 163.45 79.3398 163.173 79.5851C162.896 79.8305 162.645 79.9531 162.421 79.9531ZM176.379 80.7691C175.921 80.7691 175.595 80.7051 175.403 80.5771C175.222 80.4491 175.131 80.2625 175.131 80.0171C175.131 79.8038 175.206 79.6225 175.355 79.4731C175.505 79.3131 175.835 79.1531 176.347 78.9931C176.945 78.8118 177.51 78.6038 178.043 78.3691C178.587 78.1238 179.03 77.8571 179.371 77.5691C179.723 77.2811 179.899 76.9771 179.899 76.6571C179.899 76.4438 179.825 76.2891 179.675 76.1931C179.537 76.0971 179.371 76.0491 179.179 76.0491C179.019 76.0491 178.785 76.0758 178.475 76.1291C178.177 76.1718 177.846 76.2305 177.483 76.3051C177.121 76.3691 176.769 76.4278 176.427 76.4811C176.097 76.5238 175.814 76.5451 175.579 76.5451C175.025 76.5451 174.614 76.4225 174.347 76.1771C174.081 75.9211 173.947 75.5958 173.947 75.2011C173.947 74.9878 174.059 74.6945 174.283 74.3211C174.507 73.9478 174.806 73.5371 175.179 73.0891C175.553 72.6411 175.969 72.1931 176.427 71.7451C176.886 71.2971 177.35 70.8865 177.819 70.5131C178.299 70.1291 178.753 69.8251 179.179 69.6011C179.606 69.3665 179.969 69.2491 180.267 69.2491C180.609 69.2491 180.881 69.3558 181.083 69.5691C181.297 69.7825 181.403 70.0705 181.403 70.4331C181.403 70.6038 181.387 70.7905 181.355 70.9931C181.323 71.1851 181.243 71.3611 181.115 71.5211C180.987 71.6705 180.79 71.7771 180.523 71.8411C180.257 71.9051 179.894 71.8945 179.435 71.8091C179.073 72.0758 178.694 72.3691 178.299 72.6891C177.915 72.9985 177.553 73.3238 177.211 73.6651C176.87 73.9958 176.587 74.3211 176.363 74.6411C176.758 74.5131 177.206 74.4118 177.707 74.3371C178.209 74.2518 178.715 74.2091 179.227 74.2091C179.846 74.2091 180.347 74.3211 180.731 74.5451C181.126 74.7585 181.414 75.0465 181.595 75.4091C181.787 75.7718 181.883 76.1718 181.883 76.6091C181.883 77.0998 181.723 77.5905 181.403 78.0811C181.083 78.5718 180.657 79.0198 180.123 79.4251C179.59 79.8305 178.998 80.1558 178.347 80.4011C177.697 80.6465 177.041 80.7691 176.379 80.7691Z" fill="#475467"/>
<path d="M1.17104 23.5096C1.9784 22.665 2.90026 21.9025 3.5753 20.963C9.5855 12.5974 18.2302 8.39187 27.8574 6.11855C31.1809 5.33382 34.9559 5.40919 38.3278 6.08015C47.9655 7.99798 56.7977 11.9611 64.4111 18.2873C66.6054 20.1107 68.4562 22.3475 70.0554 24.9648C69.1752 24.6334 68.282 24.3328 67.4174 23.9648C64.8711 22.8807 62.375 21.6635 59.7789 20.7187C58.6455 20.3062 57.311 20.313 56.0795 20.3719C55.6227 20.3938 54.9279 21.0585 54.8396 21.5244C54.7578 21.9564 55.2385 22.8418 55.645 22.9677C62.3424 25.0418 68.0925 28.9657 74.1545 32.2848C76.2796 33.4483 77.622 33.1258 78.5201 31.056C80.8019 25.7976 81.8099 20.2475 81.693 14.5089C81.6892 14.3184 81.3912 14.134 80.9399 13.6088C76.2775 15.3583 77.7287 20.3503 75.4316 24.3714C74.8538 23.4098 74.5137 22.6429 74.0001 22.0187C64.0619 9.94084 50.9802 3.54844 35.7755 1.16221C33.46 0.798782 30.9725 0.942535 28.6468 1.33698C19.9982 2.80407 12.2875 6.42247 5.91934 12.4787C3.86783 14.4296 2.39665 17.0346 0.871838 19.4728C0.279723 20.4197 0.273284 21.7326 0 22.8787C0.390372 23.089 0.780664 23.2993 1.17104 23.5096Z" fill="url(#paint0_linear_8594_1619)"/>
<defs>
<linearGradient id="paint0_linear_8594_1619" x1="81.7021" y1="16.9531" x2="0" y2="16.9531" gradientUnits="userSpaceOnUse">
<stop stop-color="#9BADFF"/>
<stop offset="1" stop-color="#5B9CFC" stop-opacity="0"/>
</linearGradient>
</defs>
</svg>
