<svg width="196" height="67" viewBox="0 0 196 67" fill="none" xmlns="http://www.w3.org/2000/svg">
<path d="M12.744 37.4971C12.392 37.4971 12.0507 37.4545 11.72 37.3691C11.3893 37.2945 11.0907 37.1131 10.824 36.8251C10.5573 36.5371 10.3387 36.0891 10.168 35.4811C9.99733 34.8625 9.896 34.0251 9.864 32.9691C9.416 33.7478 8.92 34.4465 8.376 35.0651C7.84267 35.6838 7.304 36.1745 6.76 36.5371C6.22667 36.8891 5.72533 37.0651 5.256 37.0651C4.78667 37.0651 4.36 36.9478 3.976 36.7131C3.60267 36.4785 3.304 36.0838 3.08 35.5291C2.86667 34.9745 2.76 34.2225 2.76 33.2731C2.76 32.5371 2.824 31.7905 2.952 31.0331C3.08 30.2651 3.24533 29.5345 3.448 28.8411C3.65067 28.1371 3.86933 27.5078 4.104 26.9531C4.33867 26.3985 4.568 25.9611 4.792 25.6411C5.02667 25.3211 5.22933 25.1611 5.4 25.1611C5.80533 25.1611 6.104 25.2678 6.296 25.4811C6.488 25.6838 6.584 25.9451 6.584 26.2651C6.584 26.4038 6.52533 26.6758 6.408 27.0811C6.29067 27.4758 6.14667 27.9558 5.976 28.5211C5.80533 29.0758 5.62933 29.6731 5.448 30.3131C5.27733 30.9425 5.13333 31.5665 5.016 32.1851C4.89867 32.8038 4.84 33.3691 4.84 33.8811C4.84 34.0945 4.856 34.2758 4.888 34.4251C4.93067 34.5638 5.00533 34.6331 5.112 34.6331C5.67733 34.6331 6.2 34.4198 6.68 33.9931C7.17067 33.5558 7.61867 32.9798 8.024 32.2651C8.44 31.5398 8.808 30.7451 9.128 29.8811C9.45867 29.0065 9.752 28.1318 10.008 27.2571C9.98667 27.0651 9.97067 26.8785 9.96 26.6971C9.96 26.5158 9.96 26.3185 9.96 26.1051C9.96 25.8705 10.0507 25.6198 10.232 25.3531C10.4133 25.0865 10.632 24.8625 10.888 24.6811C11.1547 24.4891 11.4053 24.3931 11.64 24.3931C11.9067 24.3931 12.1253 24.4785 12.296 24.6491C12.4773 24.8198 12.568 25.1185 12.568 25.5451C12.568 25.8971 12.552 26.1905 12.52 26.4251C12.4987 26.6491 12.4613 26.8625 12.408 27.0651C12.3653 27.2678 12.3173 27.4971 12.264 27.7531C12.2213 27.9985 12.1733 28.3185 12.12 28.7131C12.0773 29.1078 12.04 29.6145 12.008 30.2331C11.9867 30.8518 11.976 31.6305 11.976 32.5691C11.976 32.6331 11.976 32.6971 11.976 32.7611C11.976 32.8145 11.976 32.8731 11.976 32.9371C11.9653 33.2358 11.9707 33.5398 11.992 33.8491C12.0133 34.1585 12.0933 34.4145 12.232 34.6171C12.3707 34.8198 12.616 34.9211 12.968 34.9211C13.352 34.9211 13.7147 34.6758 14.056 34.1851C14.3973 33.6945 14.7013 33.0118 14.968 32.1371C15.2347 31.2518 15.464 30.2171 15.656 29.0331C15.848 27.8385 15.992 26.5478 16.088 25.1611C16.12 24.6918 16.2 24.3398 16.328 24.1051C16.4667 23.8705 16.6213 23.7158 16.792 23.6411C16.9627 23.5558 17.112 23.5131 17.24 23.5131C17.368 23.5131 17.5227 23.5345 17.704 23.5771C17.8853 23.6198 18.0453 23.7425 18.184 23.9451C18.3227 24.1478 18.392 24.4891 18.392 24.9691C18.392 26.8038 18.2587 28.4145 17.992 29.8011C17.7253 31.1878 17.3787 32.3718 16.952 33.3531C16.5253 34.3345 16.056 35.1291 15.544 35.7371C15.0427 36.3451 14.5467 36.7878 14.056 37.0651C13.5653 37.3531 13.128 37.4971 12.744 37.4971ZM21.3394 38.2011C20.8487 38.2011 20.4967 38.0625 20.2834 37.7851C20.07 37.5078 19.9634 37.1025 19.9634 36.5691C19.9634 36.0785 20.054 35.4385 20.2354 34.6491C20.4274 33.8491 20.678 32.9585 20.9874 31.9771C21.3074 30.9851 21.6647 29.9665 22.0594 28.9211C22.454 27.8651 22.8647 26.8305 23.2914 25.8171C23.718 24.7931 24.134 23.8545 24.5394 23.0011C24.7314 22.6278 24.934 22.3718 25.1474 22.2331C25.3607 22.0945 25.5954 22.0251 25.8514 22.0251C26.0967 22.0251 26.3047 22.0945 26.4754 22.2331C26.646 22.3611 26.7314 22.5691 26.7314 22.8571C26.7314 22.9211 26.646 23.1665 26.4754 23.5931C26.3047 24.0091 26.0807 24.5531 25.8034 25.2251C25.526 25.8865 25.222 26.6331 24.8914 27.4651C24.5607 28.2865 24.23 29.1451 23.8994 30.0411C23.5687 30.9265 23.27 31.8011 23.0034 32.6651C22.7367 33.5291 22.5234 34.3291 22.3634 35.0651C22.7367 34.5638 23.1367 34.0091 23.5634 33.4011C24.0007 32.7825 24.4434 32.1691 24.8914 31.5611C25.35 30.9425 25.798 30.3771 26.2354 29.8651C26.6834 29.3531 27.0994 28.9425 27.4834 28.6331C27.8674 28.3238 28.2034 28.1691 28.4914 28.1691C29.0247 28.1691 29.4514 28.3185 29.7714 28.6171C30.102 28.9051 30.2674 29.4065 30.2674 30.1211C30.2674 30.4518 30.2034 30.8518 30.0754 31.3211C29.9474 31.7798 29.7927 32.2651 29.6114 32.7771C29.4407 33.2785 29.2914 33.7638 29.1634 34.2331C29.0354 34.7025 28.9714 35.1131 28.9714 35.4651C28.9714 35.6571 29.062 35.7531 29.2434 35.7531C29.766 35.7531 30.294 35.6411 30.8274 35.4171C31.3714 35.1931 31.8887 34.9158 32.3794 34.5851C32.8807 34.2438 33.334 33.9078 33.7394 33.5771C34.1554 33.2358 34.4914 32.9531 34.7474 32.7291C34.9287 32.5585 35.094 32.4465 35.2434 32.3931C35.3927 32.3291 35.5314 32.2971 35.6594 32.2971C36.0967 32.2971 36.3154 32.5158 36.3154 32.9531C36.3154 33.0385 36.2994 33.1451 36.2674 33.2731C36.2354 33.3905 36.134 33.5398 35.9634 33.7211C35.7927 33.9025 35.5367 34.1585 35.1954 34.4891C34.854 34.8198 34.454 35.1718 33.9954 35.5451C33.5474 35.9185 33.0567 36.2758 32.5234 36.6171C32.0007 36.9478 31.462 37.2198 30.9074 37.4331C30.3527 37.6465 29.814 37.7531 29.2914 37.7531C28.502 37.7531 27.894 37.5291 27.4674 37.0811C27.0407 36.6438 26.8274 36.0465 26.8274 35.2891C26.8274 34.7665 26.934 34.1105 27.1474 33.3211C27.3607 32.5211 27.6007 31.7051 27.8674 30.8731C27.494 31.2358 27.1047 31.6678 26.6994 32.1691C26.294 32.6598 25.8834 33.1825 25.4674 33.7371C25.0514 34.2811 24.6407 34.8198 24.2354 35.3531C23.8407 35.8758 23.462 36.3558 23.0994 36.7931C22.7367 37.2198 22.406 37.5611 22.1074 37.8171C21.8087 38.0731 21.5527 38.2011 21.3394 38.2011ZM35.9541 37.5611C35.6128 37.5611 35.3035 37.4651 35.0261 37.2731C34.7488 37.0918 34.5301 36.8518 34.3701 36.5531C34.2101 36.2438 34.1301 35.9131 34.1301 35.5611C34.1301 34.8998 34.2741 34.2545 34.5621 33.6251C34.8608 32.9958 35.2501 32.3985 35.7301 31.8331C36.2101 31.2678 36.7328 30.7505 37.2981 30.2811C37.8741 29.8011 38.4448 29.3905 39.0101 29.0491C39.5861 28.7078 40.1088 28.4411 40.5781 28.2491C41.0581 28.0571 41.4315 27.9611 41.6981 27.9611C42.0075 27.9611 42.2581 28.0305 42.4501 28.1691C42.6528 28.2971 42.7541 28.4998 42.7541 28.7771C42.7541 28.8625 42.7328 28.9318 42.6901 28.9851C42.8288 29.0171 42.9408 29.0971 43.0261 29.2251C43.1115 29.3531 43.1541 29.5451 43.1541 29.8011C43.1541 29.9078 43.1275 30.1851 43.0741 30.6331C43.0208 31.0811 42.9621 31.6251 42.8981 32.2651C42.8448 32.9051 42.8181 33.5718 42.8181 34.2651C42.8181 34.3718 42.8341 34.4678 42.8661 34.5531C42.8981 34.6278 42.9675 34.6651 43.0741 34.6651C43.5008 34.6651 43.9328 34.5798 44.3701 34.4091C44.8181 34.2278 45.2501 34.0091 45.6661 33.7531C46.0928 33.4865 46.4768 33.2251 46.8181 32.9691C47.1701 32.7025 47.4635 32.4838 47.6981 32.3131C47.9435 32.1318 48.1035 32.0411 48.1781 32.0411C48.5408 32.0411 48.7221 32.2225 48.7221 32.5851C48.7221 32.6811 48.6048 32.8838 48.3701 33.1931C48.1461 33.4918 47.8368 33.8385 47.4421 34.2331C47.0475 34.6171 46.6048 35.0011 46.1141 35.3851C45.6341 35.7585 45.1328 36.0678 44.6101 36.3131C44.0981 36.5585 43.6021 36.6811 43.1221 36.6811C42.5355 36.6811 42.0875 36.5425 41.7781 36.2651C41.4795 35.9878 41.2661 35.6145 41.1381 35.1451C41.0208 34.6651 40.9568 34.1265 40.9461 33.5291C40.4021 34.3078 39.8368 35.0011 39.2501 35.6091C38.6741 36.2065 38.1035 36.6811 37.5381 37.0331C36.9728 37.3851 36.4448 37.5611 35.9541 37.5611ZM41.6181 29.5451C40.5728 30.0465 39.6341 30.6225 38.8021 31.2731C37.9701 31.9131 37.3088 32.5851 36.8181 33.2891C36.3381 33.9931 36.0981 34.6705 36.0981 35.3211C36.0981 35.5025 36.1835 35.5931 36.3541 35.5931C36.5568 35.5931 36.8235 35.4758 37.1541 35.2411C37.4955 35.0065 37.8635 34.6971 38.2581 34.3131C38.6528 33.9185 39.0475 33.4811 39.4421 33.0011C39.8368 32.5105 40.2048 32.0091 40.5461 31.4971C40.8875 30.9851 41.1595 30.4945 41.3621 30.0251C41.4368 29.8545 41.5221 29.6945 41.6181 29.5451ZM59.0471 28.8891C59.0471 29.0171 59.0045 29.1291 58.9191 29.2251C58.8338 29.3211 58.7271 29.3958 58.5991 29.4491C58.4178 29.5238 58.1031 29.6198 57.6551 29.7371C57.2071 29.8545 56.6631 29.9878 56.0231 30.1371C55.3938 30.2865 54.7165 30.4411 53.9911 30.6011C53.2658 30.7505 52.5405 30.8945 51.8151 31.0331C51.5378 32.0571 51.2551 33.1131 50.9671 34.2011C50.6791 35.2785 50.3911 36.3398 50.1031 37.3851C49.9965 37.7585 49.8685 38.0411 49.7191 38.2331C49.5698 38.4358 49.3138 38.5371 48.9511 38.5371C48.5565 38.5371 48.2898 38.4091 48.1511 38.1531C48.0231 37.9078 48.0071 37.5718 48.1031 37.1451C48.3805 35.9825 48.6365 34.8998 48.8711 33.8971C49.1165 32.8945 49.3138 32.0838 49.4631 31.4651C48.8231 31.5718 48.2631 31.6571 47.7831 31.7211C47.3031 31.7745 46.9618 31.7958 46.7591 31.7851C46.5351 31.7638 46.3485 31.6731 46.1991 31.5131C46.0498 31.3531 45.9805 31.1558 45.9911 30.9211C46.0125 30.7078 46.1085 30.5265 46.2791 30.3771C46.4498 30.2171 46.6525 30.1211 46.8871 30.0891C47.2178 30.0571 47.6445 30.0091 48.1671 29.9451C48.6898 29.8811 49.2658 29.8065 49.8951 29.7211C50.0338 29.1771 50.1938 28.6171 50.3751 28.0411C50.5565 27.4545 50.7431 26.8945 50.9351 26.3611C51.1378 25.8171 51.3298 25.3425 51.5111 24.9371C51.6925 24.5318 51.8578 24.2385 52.0071 24.0571C52.1245 23.9185 52.2685 23.8118 52.4391 23.7371C52.6205 23.6625 52.7965 23.6251 52.9671 23.6251C53.1911 23.6251 53.3725 23.7051 53.5111 23.8651C53.6498 24.0251 53.7191 24.2118 53.7191 24.4251C53.7191 24.5105 53.7138 24.6011 53.7031 24.6971C53.6925 24.7825 53.6711 24.8678 53.6391 24.9531C53.4365 25.4865 53.2178 26.1318 52.9831 26.8891C52.7591 27.6465 52.5245 28.4785 52.2791 29.3851C53.0791 29.2678 53.8631 29.1505 54.6311 29.0331C55.4098 28.9051 56.1138 28.7878 56.7431 28.6811C57.3831 28.5638 57.8951 28.4625 58.2791 28.3771C58.4925 28.3025 58.6738 28.3185 58.8231 28.4251C58.9725 28.5211 59.0471 28.6758 59.0471 28.8891ZM59.0481 37.7691C58.5895 37.7691 58.2641 37.7051 58.0721 37.5771C57.8908 37.4491 57.8001 37.2625 57.8001 37.0171C57.8001 36.8038 57.8748 36.6225 58.0241 36.4731C58.1735 36.3131 58.5041 36.1531 59.0161 35.9931C59.6135 35.8118 60.1788 35.6038 60.7121 35.3691C61.2561 35.1238 61.6988 34.8571 62.0401 34.5691C62.3921 34.2811 62.5681 33.9771 62.5681 33.6571C62.5681 33.4438 62.4935 33.2891 62.3441 33.1931C62.2055 33.0971 62.0401 33.0491 61.8481 33.0491C61.6881 33.0491 61.4535 33.0758 61.1441 33.1291C60.8455 33.1718 60.5148 33.2305 60.1521 33.3051C59.7895 33.3691 59.4375 33.4278 59.0961 33.4811C58.7655 33.5238 58.4828 33.5451 58.2481 33.5451C57.6935 33.5451 57.2828 33.4225 57.0161 33.1771C56.7495 32.9211 56.6161 32.5958 56.6161 32.2011C56.6161 31.9878 56.7281 31.6945 56.9521 31.3211C57.1761 30.9478 57.4748 30.5371 57.8481 30.0891C58.2215 29.6411 58.6375 29.1931 59.0961 28.7451C59.5548 28.2971 60.0188 27.8865 60.4881 27.5131C60.9681 27.1291 61.4215 26.8251 61.8481 26.6011C62.2748 26.3665 62.6375 26.2491 62.9361 26.2491C63.2775 26.2491 63.5495 26.3558 63.7521 26.5691C63.9655 26.7825 64.0721 27.0705 64.0721 27.4331C64.0721 27.6038 64.0561 27.7905 64.0241 27.9931C63.9921 28.1851 63.9121 28.3611 63.7841 28.5211C63.6561 28.6705 63.4588 28.7771 63.1921 28.8411C62.9255 28.9051 62.5628 28.8945 62.1041 28.8091C61.7415 29.0758 61.3628 29.3691 60.9681 29.6891C60.5841 29.9985 60.2215 30.3238 59.8801 30.6651C59.5388 30.9958 59.2561 31.3211 59.0321 31.6411C59.4268 31.5131 59.8748 31.4118 60.3761 31.3371C60.8775 31.2518 61.3841 31.2091 61.8961 31.2091C62.5148 31.2091 63.0161 31.3211 63.4001 31.5451C63.7948 31.7585 64.0828 32.0465 64.2641 32.4091C64.4561 32.7718 64.5521 33.1718 64.5521 33.6091C64.5521 34.0998 64.3921 34.5905 64.0721 35.0811C63.7521 35.5718 63.3255 36.0198 62.7921 36.4251C62.2588 36.8305 61.6668 37.1558 61.0161 37.4011C60.3655 37.6465 59.7095 37.7691 59.0481 37.7691ZM67.6073 37.5611C67.2659 37.5611 66.9566 37.4651 66.6793 37.2731C66.4019 37.0918 66.1833 36.8518 66.0233 36.5531C65.8633 36.2438 65.7833 35.9131 65.7833 35.5611C65.7833 34.8998 65.9273 34.2545 66.2153 33.6251C66.5139 32.9958 66.9033 32.3985 67.3832 31.8331C67.8633 31.2678 68.3859 30.7505 68.9513 30.2811C69.5273 29.8011 70.0979 29.3905 70.6633 29.0491C71.2393 28.7078 71.7619 28.4411 72.2313 28.2491C72.7113 28.0571 73.0846 27.9611 73.3513 27.9611C73.6606 27.9611 73.9113 28.0305 74.1033 28.1691C74.3059 28.2971 74.4073 28.4998 74.4073 28.7771C74.4073 28.8625 74.3859 28.9318 74.3433 28.9851C74.4819 29.0171 74.5939 29.0971 74.6793 29.2251C74.7646 29.3531 74.8073 29.5451 74.8073 29.8011C74.8073 29.9078 74.7806 30.1851 74.7273 30.6331C74.6739 31.0811 74.6153 31.6251 74.5513 32.2651C74.4979 32.9051 74.4713 33.5718 74.4713 34.2651C74.4713 34.3718 74.4873 34.4678 74.5193 34.5531C74.5513 34.6278 74.6206 34.6651 74.7273 34.6651C75.1539 34.6651 75.5859 34.5798 76.0233 34.4091C76.4713 34.2278 76.9033 34.0091 77.3193 33.7531C77.7459 33.4865 78.1299 33.2251 78.4713 32.9691C78.8233 32.7025 79.1166 32.4838 79.3513 32.3131C79.5966 32.1318 79.7566 32.0411 79.8313 32.0411C80.1939 32.0411 80.3753 32.2225 80.3753 32.5851C80.3753 32.6811 80.2579 32.8838 80.0233 33.1931C79.7993 33.4918 79.4899 33.8385 79.0953 34.2331C78.7006 34.6171 78.2579 35.0011 77.7673 35.3851C77.2873 35.7585 76.7859 36.0678 76.2633 36.3131C75.7513 36.5585 75.2553 36.6811 74.7753 36.6811C74.1886 36.6811 73.7406 36.5425 73.4313 36.2651C73.1326 35.9878 72.9193 35.6145 72.7913 35.1451C72.6739 34.6651 72.6099 34.1265 72.5993 33.5291C72.0553 34.3078 71.4899 35.0011 70.9033 35.6091C70.3273 36.2065 69.7566 36.6811 69.1913 37.0331C68.6259 37.3851 68.0979 37.5611 67.6073 37.5611ZM73.2713 29.5451C72.2259 30.0465 71.2873 30.6225 70.4553 31.2731C69.6233 31.9131 68.9619 32.5851 68.4713 33.2891C67.9913 33.9931 67.7513 34.6705 67.7513 35.3211C67.7513 35.5025 67.8366 35.5931 68.0073 35.5931C68.2099 35.5931 68.4766 35.4758 68.8073 35.2411C69.1486 35.0065 69.5166 34.6971 69.9113 34.3131C70.3059 33.9185 70.7006 33.4811 71.0953 33.0011C71.4899 32.5105 71.8579 32.0091 72.1993 31.4971C72.5406 30.9851 72.8126 30.4945 73.0153 30.0251C73.0899 29.8545 73.1753 29.6945 73.2713 29.5451ZM79.5454 42.0891C79.2467 42.0891 79.012 41.9825 78.8414 41.7691C78.6814 41.5665 78.6014 41.2518 78.6014 40.8251C78.6014 40.2385 78.6547 39.5398 78.7614 38.7291C78.868 37.9185 79.012 37.0598 79.1934 36.1531C79.3747 35.2465 79.572 34.3558 79.7854 33.4811C80.0414 32.4785 80.292 31.5665 80.5374 30.7451C80.7934 29.9238 81.0494 29.2678 81.3054 28.7771C81.572 28.2758 81.8387 28.0251 82.1054 28.0251C82.3507 28.0251 82.564 28.1158 82.7454 28.2971C82.9374 28.4678 83.0334 28.7238 83.0334 29.0651C83.0334 29.3105 82.9694 29.6625 82.8414 30.1211C82.7134 30.5691 82.5534 31.1291 82.3614 31.8011C82.724 31.2038 83.0974 30.6171 83.4814 30.0411C83.876 29.4651 84.276 28.9425 84.6814 28.4731C85.0867 28.0038 85.4814 27.6305 85.8654 27.3531C86.2494 27.0758 86.612 26.9371 86.9534 26.9371C87.3587 26.9371 87.716 27.0545 88.0254 27.2891C88.3454 27.5238 88.596 27.8438 88.7774 28.2491C88.9587 28.6545 89.0494 29.1131 89.0494 29.6251C89.0494 30.5745 88.8787 31.4971 88.5374 32.3931C88.196 33.2785 87.7214 34.0731 87.1134 34.7771C86.516 35.4811 85.8174 36.0411 85.0174 36.4571C84.2174 36.8625 83.3534 37.0651 82.4254 37.0651C82.1587 37.0651 81.9134 37.0385 81.6894 36.9851C81.476 36.9425 81.2787 36.8891 81.0974 36.8251C80.9694 37.5078 80.8467 38.2065 80.7294 38.9211C80.6227 39.6465 80.5107 40.4091 80.3934 41.2091C80.2654 41.7958 79.9827 42.0891 79.5454 42.0891ZM87.1134 28.8251C86.8787 28.8251 86.58 28.9851 86.2174 29.3051C85.8654 29.6251 85.4814 30.0465 85.0654 30.5691C84.6494 31.0811 84.228 31.6411 83.8014 32.2491C83.3854 32.8465 82.9854 33.4331 82.6014 34.0091C82.228 34.5851 81.908 35.0865 81.6414 35.5131C82.452 35.4278 83.1667 35.2145 83.7854 34.8731C84.404 34.5211 84.932 34.0945 85.3694 33.5931C85.8067 33.0918 86.1587 32.5638 86.4254 32.0091C86.7027 31.4438 86.9054 30.8945 87.0334 30.3611C87.1614 29.8278 87.2254 29.3638 87.2254 28.9691C87.2254 28.8731 87.188 28.8251 87.1134 28.8251ZM91.0235 42.0891C90.7248 42.0891 90.4902 41.9825 90.3195 41.7691C90.1595 41.5665 90.0795 41.2518 90.0795 40.8251C90.0795 40.2385 90.1328 39.5398 90.2395 38.7291C90.3462 37.9185 90.4902 37.0598 90.6715 36.1531C90.8528 35.2465 91.0502 34.3558 91.2635 33.4811C91.5195 32.4785 91.7702 31.5665 92.0155 30.7451C92.2715 29.9238 92.5275 29.2678 92.7835 28.7771C93.0502 28.2758 93.3168 28.0251 93.5835 28.0251C93.8288 28.0251 94.0422 28.1158 94.2235 28.2971C94.4155 28.4678 94.5115 28.7238 94.5115 29.0651C94.5115 29.3105 94.4475 29.6625 94.3195 30.1211C94.1915 30.5691 94.0315 31.1291 93.8395 31.8011C94.2022 31.2038 94.5755 30.6171 94.9595 30.0411C95.3542 29.4651 95.7542 28.9425 96.1595 28.4731C96.5648 28.0038 96.9595 27.6305 97.3435 27.3531C97.7275 27.0758 98.0902 26.9371 98.4315 26.9371C98.8368 26.9371 99.1942 27.0545 99.5035 27.2891C99.8235 27.5238 100.074 27.8438 100.256 28.2491C100.437 28.6545 100.528 29.1131 100.528 29.6251C100.528 30.5745 100.357 31.4971 100.016 32.3931C99.6742 33.2785 99.1995 34.0731 98.5915 34.7771C97.9942 35.4811 97.2955 36.0411 96.4955 36.4571C95.6955 36.8625 94.8315 37.0651 93.9035 37.0651C93.6368 37.0651 93.3915 37.0385 93.1675 36.9851C92.9542 36.9425 92.7568 36.8891 92.5755 36.8251C92.4475 37.5078 92.3248 38.2065 92.2075 38.9211C92.1008 39.6465 91.9888 40.4091 91.8715 41.2091C91.7435 41.7958 91.4608 42.0891 91.0235 42.0891ZM98.5915 28.8251C98.3568 28.8251 98.0582 28.9851 97.6955 29.3051C97.3435 29.6251 96.9595 30.0465 96.5435 30.5691C96.1275 31.0811 95.7062 31.6411 95.2795 32.2491C94.8635 32.8465 94.4635 33.4331 94.0795 34.0091C93.7062 34.5851 93.3862 35.0865 93.1195 35.5131C93.9302 35.4278 94.6448 35.2145 95.2635 34.8731C95.8822 34.5211 96.4102 34.0945 96.8475 33.5931C97.2848 33.0918 97.6368 32.5638 97.9035 32.0091C98.1808 31.4438 98.3835 30.8945 98.5115 30.3611C98.6395 29.8278 98.7035 29.3638 98.7035 28.9691C98.7035 28.8731 98.6662 28.8251 98.5915 28.8251ZM1.384 63.7691C1.14933 63.7691 0.968 63.6625 0.84 63.4491C0.712 63.2465 0.648 63.0171 0.648 62.7611C0.648 62.6011 0.733333 62.2971 0.904 61.8491C1.07467 61.4118 1.304 60.8731 1.592 60.2331C1.89067 59.5825 2.232 58.8731 2.616 58.1051C3 57.3265 3.41067 56.5211 3.848 55.6891C4.28533 54.8465 4.72267 54.0091 5.16 53.1771C5.608 52.3451 6.04 51.5558 6.456 50.8091C6.872 50.0625 7.256 49.3958 7.608 48.8091C7.74667 48.5958 7.912 48.4091 8.104 48.2491C8.30667 48.0891 8.53067 48.0091 8.776 48.0091C9.02133 48.0091 9.21867 48.1105 9.368 48.3131C9.528 48.5051 9.608 48.7345 9.608 49.0011C9.608 49.0971 9.50667 49.3638 9.304 49.8011C9.10133 50.2278 8.824 50.7878 8.472 51.4811C8.12 52.1638 7.70933 52.9478 7.24 53.8331C6.78133 54.7185 6.28533 55.6678 5.752 56.6811C5.22933 57.6838 4.69067 58.7131 4.136 59.7691C3.592 60.8251 3.05867 61.8758 2.536 62.9211C2.42933 63.1558 2.27467 63.3531 2.072 63.5131C1.86933 63.6838 1.64 63.7691 1.384 63.7691ZM12.0482 61.0811C11.7709 61.0811 11.5682 60.9478 11.4402 60.6811C11.3122 60.4145 11.2482 59.9398 11.2482 59.2571C11.2482 58.2971 11.3069 57.2838 11.4242 56.2171C11.5522 55.1398 11.7176 53.9771 11.9202 52.7291C12.1016 51.7371 12.5336 50.9745 13.2162 50.4411C13.9096 49.9078 14.8376 49.4705 16.0002 49.1291C16.7256 48.9158 17.4776 48.7185 18.2563 48.5371C19.0349 48.3558 19.7656 48.2118 20.4482 48.1051C21.1416 47.9878 21.7123 47.9291 22.1603 47.9291C22.5016 47.9291 22.7682 47.9825 22.9602 48.0891C23.1522 48.1958 23.2856 48.3291 23.3603 48.4891C23.4456 48.6385 23.4883 48.7771 23.4883 48.9051C23.4883 49.1078 23.4403 49.2891 23.3443 49.4491C23.2483 49.6091 23.0403 49.7318 22.7203 49.8171C22.5816 49.8598 22.2882 49.9345 21.8403 50.0411C21.4029 50.1371 20.8642 50.2545 20.2242 50.3931C19.5949 50.5318 18.9283 50.6811 18.2242 50.8411C17.5203 50.9905 16.8376 51.1451 16.1762 51.3051C15.5256 51.4971 15.0456 51.7318 14.7362 52.0091C14.4376 52.2758 14.2402 52.6651 14.1442 53.1771C14.1229 53.2838 14.1016 53.4331 14.0802 53.6251C14.5176 53.4865 14.9869 53.3745 15.4882 53.2891C15.9896 53.2038 16.4536 53.1398 16.8802 53.0971C17.3069 53.0545 17.6216 53.0331 17.8243 53.0331C18.0376 53.0331 18.2616 53.0705 18.4963 53.1451C18.7416 53.2091 18.9496 53.3105 19.1202 53.4491C19.3016 53.5771 19.3923 53.7425 19.3923 53.9451C19.3923 54.1371 19.3176 54.3131 19.1683 54.4731C19.0189 54.6225 18.7149 54.7665 18.2563 54.9051C18.1603 54.9371 17.9416 54.9798 17.6003 55.0331C17.2696 55.0865 16.8749 55.1558 16.4162 55.2411C15.9682 55.3158 15.5096 55.4011 15.0402 55.4971C14.5816 55.5931 14.1762 55.6945 13.8242 55.8011C13.7496 56.3771 13.6802 56.9531 13.6163 57.5291C13.5522 58.1051 13.4989 58.6065 13.4562 59.0331C13.4136 59.4491 13.3816 59.7105 13.3602 59.8171C13.2962 60.2118 13.1416 60.5211 12.8962 60.7451C12.6509 60.9691 12.3682 61.0811 12.0482 61.0811ZM24.7262 61.4811C23.9689 61.4811 23.3609 61.2145 22.9022 60.6811C22.4436 60.1371 22.2142 59.4118 22.2142 58.5051C22.2142 58.2171 22.2516 57.9238 22.3262 57.6251C22.4116 57.3265 22.5129 57.0491 22.6302 56.7931C22.5662 56.6971 22.5129 56.5745 22.4702 56.4251C22.4382 56.2651 22.4222 56.0785 22.4222 55.8651C22.4222 55.1718 22.5449 54.5371 22.7902 53.9611C23.0356 53.3745 23.3662 52.8678 23.7822 52.4411C24.1982 52.0145 24.6569 51.6838 25.1582 51.4491C25.6596 51.2145 26.1662 51.0971 26.6782 51.0971C27.5529 51.0971 28.2676 51.3905 28.8222 51.9771C29.3876 52.5638 29.6702 53.4758 29.6702 54.7131C29.6702 55.3318 29.5742 55.9611 29.3822 56.6011C29.1902 57.2411 28.9289 57.8545 28.5982 58.4411C28.2782 59.0171 27.9049 59.5345 27.4782 59.9931C27.0622 60.4518 26.6142 60.8145 26.1342 61.0811C25.6649 61.3478 25.1956 61.4811 24.7262 61.4811ZM24.4702 56.0731C24.5236 56.1905 24.5502 56.3291 24.5502 56.4891C24.5502 56.6491 24.5182 56.8145 24.4542 56.9851C24.3902 57.1558 24.3262 57.3851 24.2622 57.6731C24.1982 57.9505 24.1662 58.3505 24.1662 58.8731C24.1662 59.0118 24.1822 59.1291 24.2142 59.2251C24.2569 59.3105 24.3476 59.3531 24.4862 59.3531C24.8489 59.3531 25.1902 59.2358 25.5102 59.0011C25.8409 58.7665 26.1342 58.4571 26.3902 58.0731C26.6569 57.6891 26.8809 57.2625 27.0622 56.7931C27.2542 56.3131 27.3982 55.8278 27.4942 55.3371C27.6009 54.8358 27.6542 54.3718 27.6542 53.9451C27.6542 53.6678 27.6009 53.4758 27.4942 53.3691C27.3876 53.2625 27.2009 53.2091 26.9342 53.2091C26.5716 53.2091 26.1982 53.3265 25.8142 53.5611C25.4409 53.7851 25.1262 54.0945 24.8702 54.4891C24.6142 54.8731 24.4862 55.3105 24.4862 55.8011C24.4862 55.8971 24.4809 55.9878 24.4702 56.0731ZM35.0446 61.7531C34.0846 61.7531 33.3273 61.4598 32.7726 60.8731C32.2286 60.2758 31.9566 59.4278 31.9566 58.3291C31.9566 57.7318 32.0366 57.0331 32.1966 56.2331C32.3566 55.4225 32.5646 54.5691 32.8206 53.6731C33.0873 52.7665 33.37 51.8705 33.6686 50.9851C33.978 50.0998 34.282 49.2785 34.5806 48.5211C34.8793 47.7638 35.1406 47.1291 35.3646 46.6171C35.5566 46.2225 35.8286 46.0251 36.1806 46.0251C36.4046 46.0251 36.586 46.0945 36.7246 46.2331C36.874 46.3718 36.9486 46.5958 36.9486 46.9051C36.9486 47.0545 36.874 47.3798 36.7246 47.8811C36.5753 48.3825 36.378 49.0011 36.1326 49.7371C35.898 50.4625 35.642 51.2465 35.3646 52.0891C35.098 52.9318 34.842 53.7798 34.5966 54.6331C34.362 55.4865 34.17 56.2918 34.0206 57.0491C33.8713 57.7958 33.7966 58.4305 33.7966 58.9531C33.7966 59.1665 33.8553 59.3371 33.9726 59.4651C34.1006 59.5931 34.266 59.6571 34.4686 59.6571C34.906 59.6571 35.354 59.5771 35.8126 59.4171C36.282 59.2571 36.7406 59.0545 37.1886 58.8091C37.6473 58.5638 38.0793 58.3025 38.4846 58.0251C38.89 57.7478 39.2526 57.4865 39.5726 57.2411C39.9033 56.9851 40.17 56.7825 40.3726 56.6331C40.6393 56.4305 40.8206 56.3291 40.9166 56.3291C41.2793 56.3291 41.4606 56.5051 41.4606 56.8571C41.4606 56.9425 41.354 57.1185 41.1406 57.3851C40.9593 57.6198 40.7033 57.9185 40.3726 58.2811C40.042 58.6438 39.658 59.0278 39.2206 59.4331C38.794 59.8278 38.3353 60.2011 37.8446 60.5531C37.3646 60.9051 36.8846 61.1931 36.4046 61.4171C35.9246 61.6411 35.4713 61.7531 35.0446 61.7531ZM43.7884 61.7531C42.8284 61.7531 42.071 61.4598 41.5164 60.8731C40.9724 60.2758 40.7004 59.4278 40.7004 58.3291C40.7004 57.7318 40.7804 57.0331 40.9404 56.2331C41.1004 55.4225 41.3084 54.5691 41.5644 53.6731C41.831 52.7665 42.1137 51.8705 42.4124 50.9851C42.7217 50.0998 43.0257 49.2785 43.3244 48.5211C43.623 47.7638 43.8844 47.1291 44.1084 46.6171C44.3004 46.2225 44.5724 46.0251 44.9244 46.0251C45.1484 46.0251 45.3297 46.0945 45.4684 46.2331C45.6177 46.3718 45.6924 46.5958 45.6924 46.9051C45.6924 47.0545 45.6177 47.3798 45.4684 47.8811C45.319 48.3825 45.1217 49.0011 44.8764 49.7371C44.6417 50.4625 44.3857 51.2465 44.1084 52.0891C43.8417 52.9318 43.5857 53.7798 43.3404 54.6331C43.1057 55.4865 42.9137 56.2918 42.7644 57.0491C42.615 57.7958 42.5404 58.4305 42.5404 58.9531C42.5404 59.1665 42.599 59.3371 42.7164 59.4651C42.8444 59.5931 43.0097 59.6571 43.2124 59.6571C43.6497 59.6571 44.0977 59.5771 44.5564 59.4171C45.0257 59.2571 45.4844 59.0545 45.9324 58.8091C46.391 58.5638 46.823 58.3025 47.2284 58.0251C47.6337 57.7478 47.9964 57.4865 48.3164 57.2411C48.647 56.9851 48.9137 56.7825 49.1164 56.6331C49.383 56.4305 49.5644 56.3291 49.6604 56.3291C50.023 56.3291 50.2044 56.5051 50.2044 56.8571C50.2044 56.9425 50.0977 57.1185 49.8844 57.3851C49.703 57.6198 49.447 57.9185 49.1164 58.2811C48.7857 58.6438 48.4017 59.0278 47.9644 59.4331C47.5377 59.8278 47.079 60.2011 46.5884 60.5531C46.1084 60.9051 45.6284 61.1931 45.1484 61.4171C44.6684 61.6411 44.215 61.7531 43.7884 61.7531ZM51.7544 61.4811C50.997 61.4811 50.389 61.2145 49.9304 60.6811C49.4717 60.1371 49.2424 59.4118 49.2424 58.5051C49.2424 58.2171 49.2797 57.9238 49.3544 57.6251C49.4397 57.3265 49.541 57.0491 49.6584 56.7931C49.5944 56.6971 49.541 56.5745 49.4984 56.4251C49.4664 56.2651 49.4504 56.0785 49.4504 55.8651C49.4504 55.1718 49.573 54.5371 49.8184 53.9611C50.0637 53.3745 50.3944 52.8678 50.8104 52.4411C51.2264 52.0145 51.685 51.6838 52.1864 51.4491C52.6877 51.2145 53.1944 51.0971 53.7064 51.0971C54.581 51.0971 55.2957 51.3905 55.8504 51.9771C56.4157 52.5638 56.6984 53.4758 56.6984 54.7131C56.6984 55.3318 56.6024 55.9611 56.4104 56.6011C56.2184 57.2411 55.957 57.8545 55.6264 58.4411C55.3064 59.0171 54.933 59.5345 54.5064 59.9931C54.0904 60.4518 53.6424 60.8145 53.1624 61.0811C52.693 61.3478 52.2237 61.4811 51.7544 61.4811ZM51.4984 56.0731C51.5517 56.1905 51.5784 56.3291 51.5784 56.4891C51.5784 56.6491 51.5464 56.8145 51.4824 56.9851C51.4184 57.1558 51.3544 57.3851 51.2904 57.6731C51.2264 57.9505 51.1944 58.3505 51.1944 58.8731C51.1944 59.0118 51.2104 59.1291 51.2424 59.2251C51.285 59.3105 51.3757 59.3531 51.5144 59.3531C51.877 59.3531 52.2184 59.2358 52.5384 59.0011C52.869 58.7665 53.1624 58.4571 53.4184 58.0731C53.685 57.6891 53.909 57.2625 54.0904 56.7931C54.2824 56.3131 54.4264 55.8278 54.5224 55.3371C54.629 54.8358 54.6824 54.3718 54.6824 53.9451C54.6824 53.6678 54.629 53.4758 54.5224 53.3691C54.4157 53.2625 54.229 53.2091 53.9624 53.2091C53.5997 53.2091 53.2264 53.3265 52.8424 53.5611C52.469 53.7851 52.1544 54.0945 51.8984 54.4891C51.6424 54.8731 51.5144 55.3105 51.5144 55.8011C51.5144 55.8971 51.509 55.9878 51.4984 56.0731ZM60.805 61.6571C60.581 61.6571 60.3677 61.6091 60.165 61.5131C59.9623 61.4171 59.781 61.2305 59.621 60.9531C59.461 60.6865 59.333 60.2918 59.237 59.7691C59.141 59.2358 59.093 58.5318 59.093 57.6571C59.093 56.8358 59.1357 56.0518 59.221 55.3051C59.3063 54.5478 59.429 53.8758 59.589 53.2891C59.749 52.6918 59.941 52.2225 60.165 51.8811C60.389 51.5291 60.6397 51.3531 60.917 51.3531C61.1623 51.3531 61.365 51.4705 61.525 51.7051C61.685 51.9398 61.765 52.2758 61.765 52.7131C61.765 53.0545 61.7223 53.5025 61.637 54.0571C61.5623 54.6118 61.4717 55.2091 61.365 55.8491C61.2583 56.4785 61.1623 57.0918 61.077 57.6891C61.0023 58.2758 60.965 58.7771 60.965 59.1931C60.965 59.2678 60.9757 59.3425 60.997 59.4171C61.0183 59.4811 61.0503 59.5131 61.093 59.5131C61.157 59.5131 61.2637 59.3585 61.413 59.0491C61.5623 58.7398 61.7437 58.3345 61.957 57.8331C62.181 57.3211 62.421 56.7665 62.677 56.1691C62.9437 55.5718 63.221 54.9851 63.509 54.4091C63.8077 53.8225 64.1063 53.2998 64.405 52.8411C64.661 52.4465 64.965 52.1425 65.317 51.9291C65.669 51.7158 65.9943 51.6091 66.293 51.6091C66.5597 51.6091 66.821 51.6785 67.077 51.8171C67.3437 51.9558 67.5623 52.1638 67.733 52.4411C67.9037 52.7185 67.989 53.0651 67.989 53.4811C67.989 53.6411 67.9677 53.9078 67.925 54.2811C67.893 54.6438 67.8503 55.0598 67.797 55.5291C67.7437 55.9878 67.6903 56.4518 67.637 56.9211C67.5837 57.3798 67.5357 57.7905 67.493 58.1531C67.461 58.5158 67.445 58.7718 67.445 58.9211C67.445 58.9425 67.445 58.9691 67.445 59.0011C67.445 59.1185 67.4503 59.2358 67.461 59.3531C67.4717 59.4598 67.5037 59.5131 67.557 59.5131C67.6743 59.5131 67.8237 59.3798 68.005 59.1131C68.197 58.8358 68.4103 58.4678 68.645 58.0091C68.8903 57.5505 69.1463 57.0385 69.413 56.4731C69.6797 55.9078 69.9517 55.3265 70.229 54.7291C70.517 54.1211 70.7997 53.5451 71.077 53.0011C71.2903 52.5425 71.4717 52.2545 71.621 52.1371C71.7703 52.0091 71.9143 51.9451 72.053 51.9451C72.245 51.9451 72.4477 52.0411 72.661 52.2331C72.8743 52.4251 72.981 52.7238 72.981 53.1291C72.981 53.2678 72.9757 53.4065 72.965 53.5451C72.9543 53.6838 72.917 53.8278 72.853 53.9771C72.4263 55.0545 71.9837 56.0518 71.525 56.9691C71.077 57.8758 70.629 58.6651 70.181 59.3371C69.733 60.0091 69.301 60.5318 68.885 60.9051C68.469 61.2785 68.0797 61.4651 67.717 61.4651C66.9703 61.4651 66.3943 61.2678 65.989 60.8731C65.5943 60.4678 65.397 59.9238 65.397 59.2411C65.397 58.9851 65.413 58.6598 65.445 58.2651C65.477 57.8598 65.5143 57.4225 65.557 56.9531C65.6103 56.4731 65.6637 55.9985 65.717 55.5291C65.7703 55.0598 65.8237 54.6278 65.877 54.2331C65.8983 54.0838 65.8717 53.9878 65.797 53.9451C65.733 53.9025 65.6743 53.9505 65.621 54.0891C65.4823 54.4518 65.333 54.8465 65.173 55.2731C65.013 55.6998 64.8637 56.0731 64.725 56.3931C64.501 56.9265 64.2397 57.4971 63.941 58.1051C63.653 58.7131 63.3383 59.2891 62.997 59.8331C62.6557 60.3665 62.2983 60.8038 61.925 61.1451C61.5517 61.4865 61.1783 61.6571 60.805 61.6571ZM89.0321 61.6731C88.7868 61.6731 88.5628 61.5718 88.3601 61.3691C88.1681 61.1771 88.0721 60.8518 88.0721 60.3931C88.0721 60.0518 88.0988 59.5771 88.1521 58.9691C88.2161 58.3505 88.3335 57.5558 88.5041 56.5851C88.1308 57.3531 87.7415 58.0358 87.3361 58.6331C86.9308 59.2305 86.5308 59.6998 86.1361 60.0411C85.7521 60.3718 85.3841 60.5371 85.0321 60.5371C84.4668 60.5371 84.0188 60.3665 83.6881 60.0251C83.3575 59.6731 83.1921 59.0171 83.1921 58.0571C83.1921 57.5985 83.2295 57.0811 83.3041 56.5051C83.3895 55.9291 83.4961 55.3531 83.6241 54.7771C83.7521 54.2011 83.8801 53.6891 84.0081 53.2411C84.1468 52.7825 84.2695 52.4411 84.3761 52.2171C84.4615 52.0251 84.5681 51.8758 84.6961 51.7691C84.8348 51.6625 85.0108 51.6091 85.2241 51.6091C85.5655 51.6091 85.8268 51.7211 86.0081 51.9451C86.1895 52.1691 86.2801 52.3985 86.2801 52.6331C86.2801 52.8145 86.2375 53.0758 86.1521 53.4171C86.0775 53.7585 85.9815 54.1371 85.8641 54.5531C85.7575 54.9691 85.6455 55.3958 85.5281 55.8331C85.4108 56.2705 85.3095 56.6811 85.2241 57.0651C85.1495 57.4491 85.1121 57.7745 85.1121 58.0411C85.1121 58.3718 85.2401 58.5371 85.4961 58.5371C85.6455 58.5371 85.8375 58.3931 86.0721 58.1051C86.3175 57.8171 86.5735 57.4331 86.8401 56.9531C87.1175 56.4625 87.3948 55.9291 87.6721 55.3531C87.9601 54.7665 88.2215 54.1745 88.4561 53.5771C88.7015 52.9691 88.9095 52.4091 89.0801 51.8971C89.1868 51.5771 89.3308 51.3531 89.5121 51.2251C89.6935 51.0971 89.9015 51.0331 90.1361 51.0331C90.4988 51.0331 90.7761 51.1345 90.9681 51.3371C91.1708 51.5398 91.2721 51.8278 91.2721 52.2011C91.2721 52.3718 91.2455 52.6598 91.1921 53.0651C91.1388 53.4705 91.0695 53.9451 90.9841 54.4891C90.9095 55.0331 90.8188 55.6091 90.7121 56.2171C90.6055 56.8251 90.4988 57.4225 90.3921 58.0091C90.2961 58.5958 90.2001 59.1345 90.1041 59.6251C90.0081 60.1051 89.9281 60.4891 89.8641 60.7771C89.7575 61.2038 89.6295 61.4598 89.4801 61.5451C89.3308 61.6305 89.1815 61.6731 89.0321 61.6731ZM93.6047 66.0891C93.3061 66.0891 93.0714 65.9825 92.9007 65.7691C92.7407 65.5665 92.6607 65.2518 92.6607 64.8251C92.6607 64.2385 92.7141 63.5398 92.8207 62.7291C92.9274 61.9185 93.0714 61.0598 93.2527 60.1531C93.4341 59.2465 93.6314 58.3558 93.8447 57.4811C94.1007 56.4785 94.3514 55.5665 94.5967 54.7451C94.8527 53.9238 95.1087 53.2678 95.3647 52.7771C95.6314 52.2758 95.8981 52.0251 96.1647 52.0251C96.4101 52.0251 96.6234 52.1158 96.8047 52.2971C96.9967 52.4678 97.0927 52.7238 97.0927 53.0651C97.0927 53.3105 97.0287 53.6625 96.9007 54.1211C96.7727 54.5691 96.6127 55.1291 96.4207 55.8011C96.7834 55.2038 97.1567 54.6171 97.5407 54.0411C97.9354 53.4651 98.3354 52.9425 98.7407 52.4731C99.1461 52.0038 99.5407 51.6305 99.9247 51.3531C100.309 51.0758 100.671 50.9371 101.013 50.9371C101.418 50.9371 101.775 51.0545 102.085 51.2891C102.405 51.5238 102.655 51.8438 102.837 52.2491C103.018 52.6545 103.109 53.1131 103.109 53.6251C103.109 54.5745 102.938 55.4971 102.597 56.3931C102.255 57.2785 101.781 58.0731 101.173 58.7771C100.575 59.4811 99.8767 60.0411 99.0767 60.4571C98.2767 60.8625 97.4127 61.0651 96.4847 61.0651C96.2181 61.0651 95.9727 61.0385 95.7487 60.9851C95.5354 60.9425 95.3381 60.8891 95.1567 60.8251C95.0287 61.5078 94.9061 62.2065 94.7887 62.9211C94.6821 63.6465 94.5701 64.4091 94.4527 65.2091C94.3247 65.7958 94.0421 66.0891 93.6047 66.0891ZM101.173 52.8251C100.938 52.8251 100.639 52.9851 100.277 53.3051C99.9247 53.6251 99.5407 54.0465 99.1247 54.5691C98.7087 55.0811 98.2874 55.6411 97.8607 56.2491C97.4447 56.8465 97.0447 57.4331 96.6607 58.0091C96.2874 58.5851 95.9674 59.0865 95.7007 59.5131C96.5114 59.4278 97.2261 59.2145 97.8447 58.8731C98.4634 58.5211 98.9914 58.0945 99.4287 57.5931C99.8661 57.0918 100.218 56.5638 100.485 56.0091C100.762 55.4438 100.965 54.8945 101.093 54.3611C101.221 53.8278 101.285 53.3638 101.285 52.9691C101.285 52.8731 101.247 52.8251 101.173 52.8251ZM116.237 61.4011C115.639 61.4011 115.122 61.2625 114.685 60.9851C114.247 60.7185 113.911 60.3718 113.677 59.9451C113.442 59.5078 113.325 59.0598 113.325 58.6011C113.325 57.8331 113.442 57.1238 113.677 56.4731C113.911 55.8118 114.221 55.2145 114.605 54.6811C114.989 54.1371 115.405 53.6571 115.853 53.2411C116.311 52.8251 116.754 52.4785 117.181 52.2011C117.618 51.9131 118.007 51.6998 118.349 51.5611C118.69 51.4118 118.941 51.3371 119.101 51.3371C119.389 51.3371 119.591 51.4011 119.709 51.5291C119.837 51.6465 119.901 51.8438 119.901 52.1211C119.901 52.2811 119.783 52.4731 119.549 52.6971C119.325 52.9211 119.026 53.1771 118.653 53.4651C118.29 53.7531 117.906 54.0785 117.501 54.4411C117.095 54.8038 116.706 55.2091 116.333 55.6571C115.97 56.1051 115.671 56.5958 115.437 57.1291C115.213 57.6625 115.101 58.2438 115.101 58.8731C115.101 59.1078 115.143 59.2891 115.229 59.4171C115.325 59.5451 115.479 59.6091 115.693 59.6091C116.301 59.6091 116.951 59.5025 117.645 59.2891C118.349 59.0651 119.047 58.7878 119.741 58.4571C120.445 58.1158 121.106 57.7638 121.725 57.4011C122.354 57.0385 122.893 56.7131 123.341 56.4251C123.522 56.2971 123.677 56.1958 123.805 56.1211C123.933 56.0465 124.023 56.0091 124.077 56.0091C124.397 56.0091 124.557 56.1745 124.557 56.5051C124.557 56.6758 124.429 56.9051 124.173 57.1931C123.874 57.5665 123.469 57.9505 122.957 58.3451C122.455 58.7398 121.895 59.1185 121.277 59.4811C120.669 59.8438 120.045 60.1691 119.405 60.4571C118.775 60.7451 118.183 60.9745 117.629 61.1451C117.074 61.3158 116.61 61.4011 116.237 61.4011ZM124.376 61.5611C124.035 61.5611 123.725 61.4651 123.448 61.2731C123.171 61.0918 122.952 60.8518 122.792 60.5531C122.632 60.2438 122.552 59.9131 122.552 59.5611C122.552 58.8998 122.696 58.2545 122.984 57.6251C123.283 56.9958 123.672 56.3985 124.152 55.8331C124.632 55.2678 125.155 54.7505 125.72 54.2811C126.296 53.8011 126.867 53.3905 127.432 53.0491C128.008 52.7078 128.531 52.4411 129 52.2491C129.48 52.0571 129.853 51.9611 130.12 51.9611C130.429 51.9611 130.68 52.0305 130.872 52.1691C131.075 52.2971 131.176 52.4998 131.176 52.7771C131.176 52.8625 131.155 52.9318 131.112 52.9851C131.251 53.0171 131.363 53.0971 131.448 53.2251C131.533 53.3531 131.576 53.5451 131.576 53.8011C131.576 53.9078 131.549 54.1851 131.496 54.6331C131.443 55.0811 131.384 55.6251 131.32 56.2651C131.267 56.9051 131.24 57.5718 131.24 58.2651C131.24 58.3718 131.256 58.4678 131.288 58.5531C131.32 58.6278 131.389 58.6651 131.496 58.6651C131.923 58.6651 132.355 58.5798 132.792 58.4091C133.24 58.2278 133.672 58.0091 134.088 57.7531C134.515 57.4865 134.899 57.2251 135.24 56.9691C135.592 56.7025 135.885 56.4838 136.12 56.3131C136.365 56.1318 136.525 56.0411 136.6 56.0411C136.963 56.0411 137.144 56.2225 137.144 56.5851C137.144 56.6811 137.027 56.8838 136.792 57.1931C136.568 57.4918 136.259 57.8385 135.864 58.2331C135.469 58.6171 135.027 59.0011 134.536 59.3851C134.056 59.7585 133.555 60.0678 133.032 60.3131C132.52 60.5585 132.024 60.6811 131.544 60.6811C130.957 60.6811 130.509 60.5425 130.2 60.2651C129.901 59.9878 129.688 59.6145 129.56 59.1451C129.443 58.6651 129.379 58.1265 129.368 57.5291C128.824 58.3078 128.259 59.0011 127.672 59.6091C127.096 60.2065 126.525 60.6811 125.96 61.0331C125.395 61.3851 124.867 61.5611 124.376 61.5611ZM130.04 53.5451C128.995 54.0465 128.056 54.6225 127.224 55.2731C126.392 55.9131 125.731 56.5851 125.24 57.2891C124.76 57.9931 124.52 58.6705 124.52 59.3211C124.52 59.5025 124.605 59.5931 124.776 59.5931C124.979 59.5931 125.245 59.4758 125.576 59.2411C125.917 59.0065 126.285 58.6971 126.68 58.3131C127.075 57.9185 127.469 57.4811 127.864 57.0011C128.259 56.5105 128.627 56.0091 128.968 55.4971C129.309 54.9851 129.581 54.4945 129.784 54.0251C129.859 53.8545 129.944 53.6945 130.04 53.5451ZM139.232 61.7531C138.272 61.7531 137.515 61.4598 136.96 60.8731C136.416 60.2758 136.144 59.4278 136.144 58.3291C136.144 57.7318 136.224 57.0331 136.384 56.2331C136.544 55.4225 136.752 54.5691 137.008 53.6731C137.275 52.7665 137.557 51.8705 137.856 50.9851C138.165 50.0998 138.469 49.2785 138.768 48.5211C139.067 47.7638 139.328 47.1291 139.552 46.6171C139.744 46.2225 140.016 46.0251 140.368 46.0251C140.592 46.0251 140.773 46.0945 140.912 46.2331C141.061 46.3718 141.136 46.5958 141.136 46.9051C141.136 47.0545 141.061 47.3798 140.912 47.8811C140.763 48.3825 140.565 49.0011 140.32 49.7371C140.085 50.4625 139.829 51.2465 139.552 52.0891C139.285 52.9318 139.029 53.7798 138.784 54.6331C138.549 55.4865 138.357 56.2918 138.208 57.0491C138.059 57.7958 137.984 58.4305 137.984 58.9531C137.984 59.1665 138.043 59.3371 138.16 59.4651C138.288 59.5931 138.453 59.6571 138.656 59.6571C139.093 59.6571 139.541 59.5771 140 59.4171C140.469 59.2571 140.928 59.0545 141.376 58.8091C141.835 58.5638 142.267 58.3025 142.672 58.0251C143.077 57.7478 143.44 57.4865 143.76 57.2411C144.091 56.9851 144.357 56.7825 144.56 56.6331C144.827 56.4305 145.008 56.3291 145.104 56.3291C145.467 56.3291 145.648 56.5051 145.648 56.8571C145.648 56.9425 145.541 57.1185 145.328 57.3851C145.147 57.6198 144.891 57.9185 144.56 58.2811C144.229 58.6438 143.845 59.0278 143.408 59.4331C142.981 59.8278 142.523 60.2011 142.032 60.5531C141.552 60.9051 141.072 61.1931 140.592 61.4171C140.112 61.6411 139.659 61.7531 139.232 61.7531ZM147.976 61.7531C147.016 61.7531 146.259 61.4598 145.704 60.8731C145.16 60.2758 144.888 59.4278 144.888 58.3291C144.888 57.7318 144.968 57.0331 145.128 56.2331C145.288 55.4225 145.496 54.5691 145.752 53.6731C146.019 52.7665 146.301 51.8705 146.6 50.9851C146.909 50.0998 147.213 49.2785 147.512 48.5211C147.811 47.7638 148.072 47.1291 148.296 46.6171C148.488 46.2225 148.76 46.0251 149.112 46.0251C149.336 46.0251 149.517 46.0945 149.656 46.2331C149.805 46.3718 149.88 46.5958 149.88 46.9051C149.88 47.0545 149.805 47.3798 149.656 47.8811C149.507 48.3825 149.309 49.0011 149.064 49.7371C148.829 50.4625 148.573 51.2465 148.296 52.0891C148.029 52.9318 147.773 53.7798 147.528 54.6331C147.293 55.4865 147.101 56.2918 146.952 57.0491C146.803 57.7958 146.728 58.4305 146.728 58.9531C146.728 59.1665 146.787 59.3371 146.904 59.4651C147.032 59.5931 147.197 59.6571 147.4 59.6571C147.837 59.6571 148.285 59.5771 148.744 59.4171C149.213 59.2571 149.672 59.0545 150.12 58.8091C150.579 58.5638 151.011 58.3025 151.416 58.0251C151.821 57.7478 152.184 57.4865 152.504 57.2411C152.835 56.9851 153.101 56.7825 153.304 56.6331C153.571 56.4305 153.752 56.3291 153.848 56.3291C154.211 56.3291 154.392 56.5051 154.392 56.8571C154.392 56.9425 154.285 57.1185 154.072 57.3851C153.891 57.6198 153.635 57.9185 153.304 58.2811C152.973 58.6438 152.589 59.0278 152.152 59.4331C151.725 59.8278 151.267 60.2011 150.776 60.5531C150.296 60.9051 149.816 61.1931 149.336 61.4171C148.856 61.6411 148.403 61.7531 147.976 61.7531ZM154.979 61.7691C154.521 61.7691 154.195 61.7051 154.003 61.5771C153.822 61.4491 153.731 61.2625 153.731 61.0171C153.731 60.8038 153.806 60.6225 153.955 60.4731C154.105 60.3131 154.435 60.1531 154.947 59.9931C155.545 59.8118 156.11 59.6038 156.643 59.3691C157.187 59.1238 157.63 58.8571 157.971 58.5691C158.323 58.2811 158.499 57.9771 158.499 57.6571C158.499 57.4438 158.425 57.2891 158.275 57.1931C158.137 57.0971 157.971 57.0491 157.779 57.0491C157.619 57.0491 157.385 57.0758 157.075 57.1291C156.777 57.1718 156.446 57.2305 156.083 57.3051C155.721 57.3691 155.369 57.4278 155.027 57.4811C154.697 57.5238 154.414 57.5451 154.179 57.5451C153.625 57.5451 153.214 57.4225 152.947 57.1771C152.681 56.9211 152.547 56.5958 152.547 56.2011C152.547 55.9878 152.659 55.6945 152.883 55.3211C153.107 54.9478 153.406 54.5371 153.779 54.0891C154.153 53.6411 154.569 53.1931 155.027 52.7451C155.486 52.2971 155.95 51.8865 156.419 51.5131C156.899 51.1291 157.353 50.8251 157.779 50.6011C158.206 50.3665 158.569 50.2491 158.867 50.2491C159.209 50.2491 159.481 50.3558 159.683 50.5691C159.897 50.7825 160.003 51.0705 160.003 51.4331C160.003 51.6038 159.987 51.7905 159.955 51.9931C159.923 52.1851 159.843 52.3611 159.715 52.5211C159.587 52.6705 159.39 52.7771 159.123 52.8411C158.857 52.9051 158.494 52.8945 158.035 52.8091C157.673 53.0758 157.294 53.3691 156.899 53.6891C156.515 53.9985 156.153 54.3238 155.811 54.6651C155.47 54.9958 155.187 55.3211 154.963 55.6411C155.358 55.5131 155.806 55.4118 156.307 55.3371C156.809 55.2518 157.315 55.2091 157.827 55.2091C158.446 55.2091 158.947 55.3211 159.331 55.5451C159.726 55.7585 160.014 56.0465 160.195 56.4091C160.387 56.7718 160.483 57.1718 160.483 57.6091C160.483 58.0998 160.323 58.5905 160.003 59.0811C159.683 59.5718 159.257 60.0198 158.723 60.4251C158.19 60.8305 157.598 61.1558 156.947 61.4011C156.297 61.6465 155.641 61.7691 154.979 61.7691Z" fill="#475467"/>
<path d="M148.862 21.2972C151.035 19.6908 155.808 18.686 157.208 16.4929C159.573 12.7892 153.115 14.2963 151.558 14.8627C145.65 17.0105 140.228 20.6778 134.536 23.2993C131.542 24.6779 130.396 27.3073 134.283 28.5539C137.801 29.6824 141.886 30.0273 145.524 30.7797C147.15 31.1158 152.2 33.6131 152.77 31.1978C153.53 27.9794 147.515 28.2359 146.988 26.2354C151.233 25.3729 156.375 26.1732 160.721 25.9526C162.221 25.8763 172 26.3032 170.185 23.3791C168.963 21.4122 161.29 22.2219 159.236 22.2207C154.899 22.2181 150.594 22.6883 146.281 23.1372C147.134 22.5068 147.973 21.8759 148.862 21.2972C148.52 21.5199 150.77 19.8872 148.862 21.2972Z" fill="url(#paint0_linear_8594_1610)"/>
<defs>
<linearGradient id="paint0_linear_8594_1610" x1="136.643" y1="34.1744" x2="165.138" y2="15.6253" gradientUnits="userSpaceOnUse">
<stop stop-color="#9BADFF"/>
<stop offset="1" stop-color="#5B9CFC" stop-opacity="0"/>
</linearGradient>
</defs>
</svg>
