<svg width="154" height="43" viewBox="0 0 154 43" fill="none" xmlns="http://www.w3.org/2000/svg">
<path d="M106.862 21.2972C109.035 19.6908 113.808 18.686 115.208 16.4929C117.573 12.7892 111.115 14.2963 109.558 14.8627C103.65 17.0105 98.2285 20.6778 92.5358 23.2993C89.5419 24.6779 88.396 27.3073 92.2829 28.5539C95.8011 29.6824 99.8855 30.0273 103.524 30.7797C105.15 31.1158 110.2 33.6131 110.77 31.1978C111.53 27.9794 105.515 28.2359 104.988 26.2354C109.233 25.3729 114.375 26.1732 118.721 25.9526C120.221 25.8763 130 26.3032 128.185 23.3791C126.963 21.4122 119.29 22.2219 117.236 22.2207C112.899 22.2181 108.594 22.6883 104.281 23.1372C105.134 22.5068 105.973 21.8759 106.862 21.2972C106.52 21.5199 108.77 19.8872 106.862 21.2972Z" fill="url(#paint0_linear_8594_1608)"/>
<defs>
<linearGradient id="paint0_linear_8594_1608" x1="94.6431" y1="34.1744" x2="123.138" y2="15.6253" gradientUnits="userSpaceOnUse">
<stop stop-color="#9BADFF"/>
<stop offset="1" stop-color="#5B9CFC" stop-opacity="0"/>
</linearGradient>
</defs>
</svg>
