<svg width="166" height="99" viewBox="0 0 166 99" fill="none" xmlns="http://www.w3.org/2000/svg">
<path d="M3.392 69.3051C2.93333 69.3051 2.51733 69.1878 2.144 68.9531C1.78133 68.7291 1.49333 68.4518 1.28 68.1211C1.06667 67.7798 0.96 67.4438 0.96 67.1131C0.96 66.8891 1.088 66.5851 1.344 66.2011C1.61067 65.8171 1.968 65.3851 2.416 64.9051C2.864 64.4145 3.37067 63.8971 3.936 63.3531C4.50133 62.7985 5.088 62.2331 5.696 61.6571C6.37867 61.0065 7.056 60.3878 7.728 59.8011C8.4 59.2038 9.00267 58.6811 9.536 58.2331C8.75733 58.3505 7.99467 58.4731 7.248 58.6011C6.512 58.7291 5.872 58.8358 5.328 58.9211C4.79467 58.9958 4.44267 59.0331 4.272 59.0331C3.94133 59.0331 3.68 58.9478 3.488 58.7771C3.296 58.6065 3.2 58.3611 3.2 58.0411C3.2 57.8385 3.34933 57.6571 3.648 57.4971C3.95733 57.3371 4.35733 57.1931 4.848 57.0651C5.34933 56.9265 5.89333 56.8091 6.48 56.7131C7.07733 56.6065 7.67467 56.5211 8.272 56.4571C8.86933 56.3825 9.41867 56.3291 9.92 56.2971C10.4213 56.2651 10.8213 56.2491 11.12 56.2491C11.6107 56.2491 11.9893 56.3611 12.256 56.5851C12.5333 56.7985 12.672 57.1025 12.672 57.4971C12.672 57.6145 12.5173 57.8438 12.208 58.1851C11.8987 58.5265 11.4827 58.9531 10.96 59.4651C10.4373 59.9665 9.85067 60.5211 9.2 61.1291C8.54933 61.7371 7.888 62.3665 7.216 63.0171C6.61867 63.5931 6.032 64.1478 5.456 64.6811C4.88 65.2145 4.37333 65.6998 3.936 66.1371C3.50933 66.5638 3.20533 66.9105 3.024 67.1771C3.23733 67.1665 3.54667 67.1291 3.952 67.0651C4.368 67.0011 4.83733 66.9265 5.36 66.8411C5.89333 66.7451 6.432 66.6491 6.976 66.5531C7.52 66.4571 8.03733 66.3665 8.528 66.2811C9.01867 66.1958 9.43467 66.1265 9.776 66.0731C10.1173 66.0198 10.3413 65.9931 10.448 65.9931C10.7467 65.9931 10.9867 66.0678 11.168 66.2171C11.3493 66.3558 11.44 66.5638 11.44 66.8411C11.44 67.0225 11.3013 67.2145 11.024 67.4171C10.7467 67.6091 10.3733 67.7958 9.904 67.9771C9.43467 68.1585 8.912 68.3291 8.336 68.4891C7.76 68.6491 7.168 68.7931 6.56 68.9211C5.96267 69.0385 5.38667 69.1291 4.832 69.1931C4.27733 69.2678 3.79733 69.3051 3.392 69.3051ZM16.2481 69.4811C15.4908 69.4811 14.8828 69.2145 14.4241 68.6811C13.9655 68.1371 13.7361 67.4118 13.7361 66.5051C13.7361 66.2171 13.7735 65.9238 13.8481 65.6251C13.9335 65.3265 14.0348 65.0491 14.1521 64.7931C14.0881 64.6971 14.0348 64.5745 13.9921 64.4251C13.9601 64.2651 13.9441 64.0785 13.9441 63.8651C13.9441 63.1718 14.0668 62.5371 14.3121 61.9611C14.5575 61.3745 14.8881 60.8678 15.3041 60.4411C15.7201 60.0145 16.1788 59.6838 16.6801 59.4491C17.1815 59.2145 17.6881 59.0971 18.2001 59.0971C19.0748 59.0971 19.7895 59.3905 20.3441 59.9771C20.9095 60.5638 21.1921 61.4758 21.1921 62.7131C21.1921 63.3318 21.0961 63.9611 20.9041 64.6011C20.7121 65.2411 20.4508 65.8545 20.1201 66.4411C19.8001 67.0171 19.4268 67.5345 19.0001 67.9931C18.5841 68.4518 18.1361 68.8145 17.6561 69.0811C17.1868 69.3478 16.7175 69.4811 16.2481 69.4811ZM15.9921 64.0731C16.0455 64.1905 16.0721 64.3291 16.0721 64.4891C16.0721 64.6491 16.0401 64.8145 15.9761 64.9851C15.9121 65.1558 15.8481 65.3851 15.7841 65.6731C15.7201 65.9505 15.6881 66.3505 15.6881 66.8731C15.6881 67.0118 15.7041 67.1291 15.7361 67.2251C15.7788 67.3105 15.8695 67.3531 16.0081 67.3531C16.3708 67.3531 16.7121 67.2358 17.0321 67.0011C17.3628 66.7665 17.6561 66.4571 17.9121 66.0731C18.1788 65.6891 18.4028 65.2625 18.5841 64.7931C18.7761 64.3131 18.9201 63.8278 19.0161 63.3371C19.1228 62.8358 19.1761 62.3718 19.1761 61.9451C19.1761 61.6678 19.1228 61.4758 19.0161 61.3691C18.9095 61.2625 18.7228 61.2091 18.4561 61.2091C18.0935 61.2091 17.7201 61.3265 17.3361 61.5611C16.9628 61.7851 16.6481 62.0945 16.3921 62.4891C16.1361 62.8731 16.0081 63.3105 16.0081 63.8011C16.0081 63.8971 16.0028 63.9878 15.9921 64.0731ZM24.0987 70.2011C23.6081 70.2011 23.2561 70.0625 23.0427 69.7851C22.8294 69.5078 22.7227 69.1025 22.7227 68.5691C22.7227 68.0785 22.8134 67.4385 22.9947 66.6491C23.1867 65.8491 23.4374 64.9585 23.7467 63.9771C24.0667 62.9851 24.4241 61.9665 24.8187 60.9211C25.2134 59.8651 25.6241 58.8305 26.0507 57.8171C26.4774 56.7931 26.8934 55.8545 27.2987 55.0011C27.4907 54.6278 27.6934 54.3718 27.9067 54.2331C28.1201 54.0945 28.3547 54.0251 28.6107 54.0251C28.8561 54.0251 29.0641 54.0945 29.2347 54.2331C29.4054 54.3611 29.4907 54.5691 29.4907 54.8571C29.4907 54.9211 29.4054 55.1665 29.2347 55.5931C29.0641 56.0091 28.8401 56.5531 28.5627 57.2251C28.2854 57.8865 27.9814 58.6331 27.6507 59.4651C27.3201 60.2865 26.9894 61.1451 26.6587 62.0411C26.3281 62.9265 26.0294 63.8011 25.7627 64.6651C25.4961 65.5291 25.2827 66.3291 25.1227 67.0651C25.4961 66.5638 25.8961 66.0091 26.3227 65.4011C26.7601 64.7825 27.2027 64.1691 27.6507 63.5611C28.1094 62.9425 28.5574 62.3771 28.9947 61.8651C29.4427 61.3531 29.8587 60.9425 30.2427 60.6331C30.6267 60.3238 30.9627 60.1691 31.2507 60.1691C31.7841 60.1691 32.2107 60.3185 32.5307 60.6171C32.8614 60.9051 33.0267 61.4065 33.0267 62.1211C33.0267 62.4518 32.9627 62.8518 32.8348 63.3211C32.7067 63.7798 32.5521 64.2651 32.3707 64.7771C32.2001 65.2785 32.0507 65.7638 31.9227 66.2331C31.7947 66.7025 31.7308 67.1131 31.7308 67.4651C31.7308 67.6571 31.8214 67.7531 32.0027 67.7531C32.5254 67.7531 33.0534 67.6411 33.5868 67.4171C34.1308 67.1931 34.6481 66.9158 35.1388 66.5851C35.6401 66.2438 36.0934 65.9078 36.4987 65.5771C36.9148 65.2358 37.2508 64.9531 37.5068 64.7291C37.6881 64.5585 37.8534 64.4465 38.0028 64.3931C38.1521 64.3291 38.2907 64.2971 38.4188 64.2971C38.8561 64.2971 39.0748 64.5158 39.0748 64.9531C39.0748 65.0385 39.0588 65.1451 39.0268 65.2731C38.9948 65.3905 38.8934 65.5398 38.7227 65.7211C38.5521 65.9025 38.2961 66.1585 37.9548 66.4891C37.6134 66.8198 37.2134 67.1718 36.7548 67.5451C36.3068 67.9185 35.8161 68.2758 35.2828 68.6171C34.7601 68.9478 34.2214 69.2198 33.6667 69.4331C33.1121 69.6465 32.5734 69.7531 32.0507 69.7531C31.2614 69.7531 30.6534 69.5291 30.2267 69.0811C29.8001 68.6438 29.5867 68.0465 29.5867 67.2891C29.5867 66.7665 29.6934 66.1105 29.9067 65.3211C30.1201 64.5211 30.3601 63.7051 30.6267 62.8731C30.2534 63.2358 29.8641 63.6678 29.4587 64.1691C29.0534 64.6598 28.6427 65.1825 28.2267 65.7371C27.8107 66.2811 27.4001 66.8198 26.9947 67.3531C26.6001 67.8758 26.2214 68.3558 25.8587 68.7931C25.4961 69.2198 25.1654 69.5611 24.8667 69.8171C24.5681 70.0731 24.3121 70.2011 24.0987 70.2011ZM40.4544 69.4811C39.697 69.4811 39.089 69.2145 38.6304 68.6811C38.1717 68.1371 37.9424 67.4118 37.9424 66.5051C37.9424 66.2171 37.9797 65.9238 38.0544 65.6251C38.1397 65.3265 38.241 65.0491 38.3584 64.7931C38.2944 64.6971 38.241 64.5745 38.1984 64.4251C38.1664 64.2651 38.1504 64.0785 38.1504 63.8651C38.1504 63.1718 38.273 62.5371 38.5184 61.9611C38.7637 61.3745 39.0944 60.8678 39.5104 60.4411C39.9264 60.0145 40.385 59.6838 40.8864 59.4491C41.3877 59.2145 41.8944 59.0971 42.4064 59.0971C43.281 59.0971 43.9957 59.3905 44.5504 59.9771C45.1157 60.5638 45.3984 61.4758 45.3984 62.7131C45.3984 63.3318 45.3024 63.9611 45.1104 64.6011C44.9184 65.2411 44.657 65.8545 44.3264 66.4411C44.0064 67.0171 43.633 67.5345 43.2064 67.9931C42.7904 68.4518 42.3424 68.8145 41.8624 69.0811C41.393 69.3478 40.9237 69.4811 40.4544 69.4811ZM40.1984 64.0731C40.2517 64.1905 40.2784 64.3291 40.2784 64.4891C40.2784 64.6491 40.2464 64.8145 40.1824 64.9851C40.1184 65.1558 40.0544 65.3851 39.9904 65.6731C39.9264 65.9505 39.8944 66.3505 39.8944 66.8731C39.8944 67.0118 39.9104 67.1291 39.9424 67.2251C39.985 67.3105 40.0757 67.3531 40.2144 67.3531C40.577 67.3531 40.9184 67.2358 41.2384 67.0011C41.569 66.7665 41.8624 66.4571 42.1184 66.0731C42.385 65.6891 42.609 65.2625 42.7904 64.7931C42.9824 64.3131 43.1264 63.8278 43.2224 63.3371C43.329 62.8358 43.3824 62.3718 43.3824 61.9451C43.3824 61.6678 43.329 61.4758 43.2224 61.3691C43.1157 61.2625 42.929 61.2091 42.6624 61.2091C42.2997 61.2091 41.9264 61.3265 41.5424 61.5611C41.169 61.7851 40.8544 62.0945 40.5984 62.4891C40.3424 62.8731 40.2144 63.3105 40.2144 63.8011C40.2144 63.8971 40.209 63.9878 40.1984 64.0731ZM58.2348 60.4091C57.7228 60.4091 57.3601 60.3558 57.1468 60.2491C56.9334 60.1425 56.8054 60.0145 56.7628 59.8651C56.7201 59.7158 56.6988 59.5878 56.6988 59.4811C56.6988 59.4705 56.6988 59.4651 56.6988 59.4651C56.6988 59.2305 56.8054 59.0065 57.0188 58.7931C57.2321 58.5691 57.5308 58.4145 57.9148 58.3291C58.2348 58.2651 58.6134 58.2011 59.0508 58.1371C59.4988 58.0625 59.9681 57.9985 60.4588 57.9451C60.9601 57.8811 61.4401 57.8331 61.8988 57.8011C62.3574 57.7691 62.7628 57.7531 63.1148 57.7531C63.5841 57.7531 63.9468 57.8225 64.2028 57.9611C64.4588 58.0891 64.6348 58.2385 64.7308 58.4091C64.8374 58.5798 64.8908 58.7238 64.8908 58.8411C64.8908 58.9478 64.8641 59.0545 64.8108 59.1611C64.7574 59.2678 64.6241 59.3745 64.4108 59.4811C64.2081 59.5878 63.8828 59.6891 63.4348 59.7851C62.9868 59.8811 62.3681 59.9718 61.5788 60.0571C61.5041 60.0678 61.4241 60.0785 61.3388 60.0891C61.2641 60.5478 61.1734 61.0971 61.0668 61.7371C60.9601 62.3665 60.8428 63.0278 60.7148 63.7211C60.5974 64.4038 60.4801 65.0598 60.3628 65.6891C60.2561 66.3078 60.1601 66.8358 60.0748 67.2731C60.5121 67.2305 60.8961 67.1985 61.2268 67.1771C61.5681 67.1558 61.7974 67.1451 61.9148 67.1451C62.2881 67.1451 62.5441 67.2251 62.6828 67.3851C62.8214 67.5345 62.8908 67.7318 62.8908 67.9771C62.8908 68.0731 62.7201 68.2225 62.3788 68.4251C62.0374 68.6278 61.5628 68.8465 60.9548 69.0811C60.3574 69.3158 59.6694 69.5238 58.8908 69.7051C58.3788 69.8225 57.8721 69.9131 57.3708 69.9771C56.8694 70.0411 56.5068 70.0731 56.2828 70.0731C55.8454 70.0731 55.5628 69.9931 55.4348 69.8331C55.3174 69.6731 55.2588 69.4705 55.2588 69.2251C55.2588 69.0118 55.3228 68.7931 55.4508 68.5691C55.5894 68.3451 55.7814 68.1851 56.0268 68.0891C56.2828 67.9931 56.5654 67.9025 56.8748 67.8171C57.1841 67.7318 57.5041 67.6571 57.8348 67.5931C57.8561 67.3158 57.8988 66.9478 57.9628 66.4891C58.0268 66.0305 58.0961 65.5291 58.1708 64.9851C58.2561 64.4305 58.3414 63.8705 58.4268 63.3051C58.5228 62.7291 58.6134 62.1905 58.6988 61.6891C58.7948 61.1771 58.8748 60.7345 58.9388 60.3611C58.6294 60.3931 58.3948 60.4091 58.2348 60.4091ZM67.1959 68.9531C66.9399 68.9531 66.6839 68.8678 66.4279 68.6971C66.1825 68.5158 65.9799 68.2598 65.8199 67.9291C65.6599 67.5878 65.5799 67.1771 65.5799 66.6971C65.5799 66.0571 65.6652 65.3745 65.8359 64.6491C66.0172 63.9238 66.2359 63.1985 66.4919 62.4731C66.7479 61.7478 66.9985 61.0651 67.2439 60.4251C67.3612 60.1158 67.5052 59.9078 67.6759 59.8011C67.8465 59.6838 68.0705 59.6251 68.3479 59.6251C68.9772 59.6251 69.2919 59.9398 69.2919 60.5691C69.2919 60.6758 69.2439 60.8838 69.1479 61.1931C69.0519 61.4918 68.9239 61.8598 68.7639 62.2971C68.6145 62.7345 68.4545 63.2091 68.2839 63.7211C68.1239 64.2225 67.9745 64.7345 67.8359 65.2571C67.7079 65.7691 67.6065 66.2545 67.5319 66.7131C67.7772 66.3398 68.0492 65.8758 68.3479 65.3211C68.6572 64.7558 68.9825 64.1638 69.3239 63.5451C69.6759 62.9265 70.0279 62.3505 70.3799 61.8171C70.7319 61.2731 71.0785 60.8305 71.4199 60.4891C71.7612 60.1478 72.0865 59.9771 72.3959 59.9771C72.6625 59.9771 72.9132 60.0305 73.1479 60.1371C73.3932 60.2331 73.6065 60.4251 73.7879 60.7131C73.9692 60.9905 74.1079 61.3905 74.2039 61.9131C74.3105 62.4358 74.3639 63.1238 74.3639 63.9771C74.3639 64.4038 74.4012 64.8198 74.4759 65.2251C74.5612 65.6198 74.6999 65.9505 74.8919 66.2171C75.0839 66.4731 75.3559 66.6011 75.7079 66.6011C76.3159 66.6011 76.8599 66.4891 77.3399 66.2651C77.8199 66.0411 78.2412 65.7798 78.6039 65.4811C78.9665 65.1825 79.2705 64.9211 79.5159 64.6971C79.6652 64.5478 79.7932 64.4305 79.8999 64.3451C80.0172 64.2598 80.1132 64.2171 80.1879 64.2171C80.4119 64.2171 80.5719 64.2758 80.6679 64.3931C80.7745 64.5105 80.8279 64.6705 80.8279 64.8731C80.8279 64.9798 80.7372 65.1771 80.5559 65.4651C80.3745 65.7531 80.1185 66.0838 79.7879 66.4571C79.4679 66.8198 79.0999 67.1718 78.6839 67.5131C78.2679 67.8545 77.8199 68.1371 77.3399 68.3611C76.8599 68.5851 76.3692 68.6971 75.8679 68.6971C75.0252 68.6971 74.3265 68.5478 73.7719 68.2491C73.2279 67.9398 72.8225 67.4278 72.5559 66.7131C72.2892 65.9878 72.1559 65.0011 72.1559 63.7531C72.1559 63.7211 72.1559 63.6678 72.1559 63.5931C72.1559 63.2625 72.1505 62.9691 72.1399 62.7131C72.1399 62.4571 72.1239 62.2491 72.0919 62.0891C71.9105 62.4198 71.6919 62.8145 71.4359 63.2731C71.1905 63.7318 70.9239 64.2225 70.6359 64.7451C70.3479 65.2571 70.0492 65.7638 69.7399 66.2651C69.4305 66.7558 69.1212 67.2038 68.8119 67.6091C68.5132 68.0145 68.2252 68.3398 67.9479 68.5851C67.6705 68.8305 67.4199 68.9531 67.1959 68.9531ZM81.6344 68.9371C81.357 68.9371 81.1117 68.8038 80.8984 68.5371C80.6957 68.2705 80.541 67.8598 80.4344 67.3051C80.349 66.8358 80.2744 66.3025 80.2104 65.7051C80.1464 65.1078 80.0877 64.5211 80.0344 63.9451C79.9917 63.3585 79.9597 62.8465 79.9384 62.4091C79.917 61.9718 79.9064 61.6731 79.9064 61.5131C79.9064 60.9371 80.0077 60.4625 80.2104 60.0891C80.413 59.7051 80.8024 59.5131 81.3784 59.5131C81.6237 59.5131 81.8104 59.6198 81.9384 59.8331C82.0664 60.0358 82.1304 60.3185 82.1304 60.6811C82.1304 60.9051 82.1304 61.1878 82.1304 61.5291C82.141 61.8598 82.1517 62.2331 82.1624 62.6491C82.173 63.1078 82.1837 63.6038 82.1944 64.1371C82.2157 64.6598 82.2264 65.1825 82.2264 65.7051C82.5997 65.1185 82.9997 64.4945 83.4264 63.8331C83.853 63.1611 84.269 62.5105 84.6744 61.8811C85.0904 61.2518 85.4637 60.6971 85.7944 60.2171C86.125 59.7265 86.3757 59.3798 86.5464 59.1771C86.6957 58.9958 86.877 58.8411 87.0904 58.7131C87.3037 58.5745 87.5277 58.5051 87.7624 58.5051C88.0184 58.5051 88.2317 58.6065 88.4024 58.8091C88.573 59.0118 88.6584 59.2465 88.6584 59.5131C88.6584 59.7158 88.6157 59.9078 88.5304 60.0891C88.4557 60.2705 88.3597 60.4411 88.2424 60.6011C87.9224 61.0491 87.5437 61.5718 87.1064 62.1691C86.6797 62.7665 86.2317 63.3958 85.7624 64.0571C85.293 64.7078 84.8344 65.3371 84.3864 65.9451C83.949 66.5531 83.5597 67.0918 83.2184 67.5611C82.941 67.9558 82.717 68.2545 82.5464 68.4571C82.3757 68.6491 82.221 68.7771 82.0824 68.8411C81.9544 68.9051 81.805 68.9371 81.6344 68.9371ZM91.9075 69.4811C91.1502 69.4811 90.5422 69.2145 90.0835 68.6811C89.6248 68.1371 89.3955 67.4118 89.3955 66.5051C89.3955 66.2171 89.4328 65.9238 89.5075 65.6251C89.5928 65.3265 89.6942 65.0491 89.8115 64.7931C89.7475 64.6971 89.6942 64.5745 89.6515 64.4251C89.6195 64.2651 89.6035 64.0785 89.6035 63.8651C89.6035 63.1718 89.7262 62.5371 89.9715 61.9611C90.2168 61.3745 90.5475 60.8678 90.9635 60.4411C91.3795 60.0145 91.8382 59.6838 92.3395 59.4491C92.8408 59.2145 93.3475 59.0971 93.8595 59.0971C94.7342 59.0971 95.4488 59.3905 96.0035 59.9771C96.5688 60.5638 96.8515 61.4758 96.8515 62.7131C96.8515 63.3318 96.7555 63.9611 96.5635 64.6011C96.3715 65.2411 96.1102 65.8545 95.7795 66.4411C95.4595 67.0171 95.0862 67.5345 94.6595 67.9931C94.2435 68.4518 93.7955 68.8145 93.3155 69.0811C92.8462 69.3478 92.3768 69.4811 91.9075 69.4811ZM91.6515 64.0731C91.7048 64.1905 91.7315 64.3291 91.7315 64.4891C91.7315 64.6491 91.6995 64.8145 91.6355 64.9851C91.5715 65.1558 91.5075 65.3851 91.4435 65.6731C91.3795 65.9505 91.3475 66.3505 91.3475 66.8731C91.3475 67.0118 91.3635 67.1291 91.3955 67.2251C91.4382 67.3105 91.5288 67.3531 91.6675 67.3531C92.0302 67.3531 92.3715 67.2358 92.6915 67.0011C93.0222 66.7665 93.3155 66.4571 93.5715 66.0731C93.8382 65.6891 94.0622 65.2625 94.2435 64.7931C94.4355 64.3131 94.5795 63.8278 94.6755 63.3371C94.7822 62.8358 94.8355 62.3718 94.8355 61.9451C94.8355 61.6678 94.7822 61.4758 94.6755 61.3691C94.5688 61.2625 94.3822 61.2091 94.1155 61.2091C93.7528 61.2091 93.3795 61.3265 92.9955 61.5611C92.6222 61.7851 92.3075 62.0945 92.0515 62.4891C91.7955 62.8731 91.6675 63.3105 91.6675 63.8011C91.6675 63.8971 91.6622 63.9878 91.6515 64.0731ZM99.6602 69.1931C99.3616 69.1931 99.0949 69.0918 98.8602 68.8891C98.6362 68.6865 98.5242 68.3558 98.5242 67.8971C98.5242 67.6518 98.5562 67.3051 98.6202 66.8571C98.6949 66.4091 98.7909 65.9238 98.9082 65.4011C99.0256 64.8678 99.1536 64.3398 99.2922 63.8171C99.4416 63.2945 99.5856 62.8305 99.7242 62.4251C99.8629 62.0091 99.9856 61.6998 100.092 61.4971C100.231 61.2518 100.359 61.1025 100.476 61.0491C100.604 60.9851 100.727 60.9531 100.844 60.9531C101.058 60.9531 101.255 61.0171 101.436 61.1451C101.628 61.2731 101.724 61.5558 101.724 61.9931C101.724 62.1638 101.692 62.4411 101.628 62.8251C101.564 63.1985 101.484 63.6358 101.388 64.1371C101.292 64.6385 101.186 65.1558 101.068 65.6891C100.962 66.2225 100.855 66.7291 100.748 67.2091C100.652 67.6785 100.572 68.0731 100.508 68.3931C100.455 68.6598 100.343 68.8571 100.172 68.9851C100.012 69.1238 99.8416 69.1931 99.6602 69.1931ZM101.5 59.3691C101.148 59.3691 100.823 59.2678 100.524 59.0651C100.226 58.8518 100.076 58.5265 100.076 58.0891C100.076 57.7265 100.167 57.4331 100.348 57.2091C100.53 56.9851 100.743 56.8251 100.988 56.7291C101.244 56.6225 101.468 56.5691 101.66 56.5691C101.852 56.5691 102.066 56.6118 102.3 56.6971C102.535 56.7718 102.738 56.9158 102.908 57.1291C103.09 57.3318 103.18 57.6251 103.18 58.0091C103.18 58.2651 103.09 58.4998 102.908 58.7131C102.727 58.9158 102.503 59.0758 102.236 59.1931C101.98 59.3105 101.735 59.3691 101.5 59.3691ZM106.727 69.4011C106.13 69.4011 105.613 69.2625 105.175 68.9851C104.738 68.7185 104.402 68.3718 104.167 67.9451C103.933 67.5078 103.815 67.0598 103.815 66.6011C103.815 65.8331 103.933 65.1238 104.167 64.4731C104.402 63.8118 104.711 63.2145 105.095 62.6811C105.479 62.1371 105.895 61.6571 106.343 61.2411C106.802 60.8251 107.245 60.4785 107.671 60.2011C108.109 59.9131 108.498 59.6998 108.839 59.5611C109.181 59.4118 109.431 59.3371 109.591 59.3371C109.879 59.3371 110.082 59.4011 110.199 59.5291C110.327 59.6465 110.391 59.8438 110.391 60.1211C110.391 60.2811 110.274 60.4731 110.039 60.6971C109.815 60.9211 109.517 61.1771 109.143 61.4651C108.781 61.7531 108.397 62.0785 107.991 62.4411C107.586 62.8038 107.197 63.2091 106.823 63.6571C106.461 64.1051 106.162 64.5958 105.927 65.1291C105.703 65.6625 105.591 66.2438 105.591 66.8731C105.591 67.1078 105.634 67.2891 105.719 67.4171C105.815 67.5451 105.97 67.6091 106.183 67.6091C106.791 67.6091 107.442 67.5025 108.135 67.2891C108.839 67.0651 109.538 66.7878 110.231 66.4571C110.935 66.1158 111.597 65.7638 112.215 65.4011C112.845 65.0385 113.383 64.7131 113.831 64.4251C114.013 64.2971 114.167 64.1958 114.295 64.1211C114.423 64.0465 114.514 64.0091 114.567 64.0091C114.887 64.0091 115.047 64.1745 115.047 64.5051C115.047 64.6758 114.919 64.9051 114.663 65.1931C114.365 65.5665 113.959 65.9505 113.447 66.3451C112.946 66.7398 112.386 67.1185 111.767 67.4811C111.159 67.8438 110.535 68.1691 109.895 68.4571C109.266 68.7451 108.674 68.9745 108.119 69.1451C107.565 69.3158 107.101 69.4011 106.727 69.4011ZM116.067 69.4971C115.405 69.4971 114.872 69.2678 114.467 68.8091C114.061 68.3398 113.859 67.5878 113.859 66.5531C113.859 65.8918 113.933 65.2305 114.083 64.5691C114.243 63.8971 114.461 63.2625 114.739 62.6651C115.027 62.0571 115.357 61.5185 115.731 61.0491C116.115 60.5798 116.536 60.2118 116.995 59.9451C117.453 59.6678 117.928 59.5291 118.419 59.5291C119.251 59.5291 119.901 59.7531 120.371 60.2011C120.84 60.6491 121.075 61.2198 121.075 61.9131C121.075 62.4465 120.925 62.9318 120.627 63.3691C120.339 63.7958 119.944 64.1798 119.443 64.5211C118.941 64.8625 118.381 65.1718 117.763 65.4491C117.144 65.7265 116.509 65.9771 115.859 66.2011C115.805 66.5851 115.779 66.9265 115.779 67.2251C115.779 67.4065 115.88 67.4971 116.083 67.4971C116.563 67.4971 117.075 67.4225 117.619 67.2731C118.173 67.1131 118.733 66.9105 119.299 66.6651C119.864 66.4091 120.408 66.1478 120.931 65.8811C121.453 65.6038 121.928 65.3425 122.355 65.0971C122.792 64.8411 123.149 64.6385 123.427 64.4891C123.715 64.3291 123.901 64.2491 123.987 64.2491C124.221 64.2491 124.392 64.3185 124.499 64.4571C124.605 64.5958 124.659 64.7451 124.659 64.9051C124.659 64.9798 124.515 65.1451 124.227 65.4011C123.949 65.6571 123.565 65.9611 123.075 66.3131C122.595 66.6545 122.051 67.0118 121.443 67.3851C120.845 67.7478 120.221 68.0945 119.571 68.4251C118.931 68.7451 118.307 69.0011 117.699 69.1931C117.101 69.3958 116.557 69.4971 116.067 69.4971ZM116.131 64.7771C116.568 64.5211 117 64.2545 117.427 63.9771C117.864 63.6891 118.227 63.3691 118.515 63.0171C118.803 62.6545 118.947 62.2331 118.947 61.7531C118.947 61.6145 118.909 61.5238 118.835 61.4811C118.76 61.4278 118.653 61.4011 118.515 61.4011C118.141 61.4011 117.8 61.5665 117.491 61.8971C117.192 62.2278 116.925 62.6545 116.691 63.1771C116.467 63.6891 116.28 64.2225 116.131 64.7771Z" fill="#475467"/>
<path d="M74.7969 20.1627C74.7969 16.0964 77.3254 16.3924 78.5471 19.8739C79.3906 22.2778 79.7676 26.1507 81.3003 28.147C83.4966 25.9744 90.6816 -2.04979 95.1867 1.21781C97.4234 2.84017 93.3786 11.6148 92.7347 13.7059C91.1296 18.9188 90.0027 24.4318 88.0996 29.5173C90.6541 28.5272 92.6802 26.6874 95.1666 25.573C98.0002 24.3029 99.1268 25.6435 97.328 28.407C94.511 32.7347 88.3527 34.853 84.5776 38.3388C80.2494 42.3354 78.3438 38.146 77.2881 34.0645C76.1245 29.5663 74.7969 24.8043 74.7969 20.1627Z" fill="url(#paint0_linear_8594_1625)"/>
<defs>
<linearGradient id="paint0_linear_8594_1625" x1="86.4969" y1="39.9531" x2="86.4969" y2="0.953125" gradientUnits="userSpaceOnUse">
<stop stop-color="#9BADFF"/>
<stop offset="1" stop-color="#5B9CFC" stop-opacity="0"/>
</linearGradient>
</defs>
</svg>
