<svg width="210" height="43" viewBox="0 0 210 43" fill="none" xmlns="http://www.w3.org/2000/svg">
<path d="M85.056 33.0091C84.832 33.0091 84.624 32.9558 84.432 32.8491C84.24 32.7425 84.0853 32.5558 83.968 32.2891C83.8613 32.0225 83.8293 31.6491 83.872 31.1691C83.4987 29.9105 83.1573 28.6571 82.848 27.4091C82.5493 26.1611 82.2667 24.8758 82 23.5531C81.616 24.4278 81.2693 25.3238 80.96 26.2411C80.6507 27.1478 80.3733 28.0065 80.128 28.8171C79.8827 29.6171 79.6587 30.2891 79.456 30.8331C79.296 31.3131 79.136 31.6705 78.976 31.9051C78.816 32.1291 78.656 32.2731 78.496 32.3371C78.3467 32.4118 78.1973 32.4491 78.048 32.4491C77.6853 32.4491 77.408 32.3638 77.216 32.1931C77.024 32.0225 76.928 31.7131 76.928 31.2651C76.928 31.0305 76.992 30.6731 77.12 30.1931C77.248 29.7025 77.4187 29.1425 77.632 28.5131C77.856 27.8731 78.112 27.2065 78.4 26.5131C78.688 25.8091 78.992 25.1265 79.312 24.4651C79.632 23.8038 79.952 23.2065 80.272 22.6731C80.592 22.1291 80.9013 21.6971 81.2 21.3771C81.4987 21.0571 81.7653 20.8971 82 20.8971C82.2027 20.8971 82.3893 20.9185 82.56 20.9611C82.7307 20.9931 82.896 21.0891 83.056 21.2491C83.216 21.3985 83.3813 21.6491 83.552 22.0011C83.6907 22.2678 83.8293 22.6518 83.968 23.1531C84.1067 23.6438 84.24 24.2091 84.368 24.8491C84.496 25.4785 84.624 26.1398 84.752 26.8331C84.8907 27.5265 85.0293 28.2038 85.168 28.8651C85.5733 27.0198 85.8987 25.3985 86.144 24.0011C86.4 22.5931 86.5867 21.4891 86.704 20.6891C86.8213 19.8891 86.8853 19.4678 86.896 19.4251C86.9707 19.1158 87.0507 18.9025 87.136 18.7851C87.2213 18.6571 87.3173 18.5825 87.424 18.5611C87.5307 18.5291 87.6533 18.5131 87.792 18.5131C87.8027 18.5131 87.808 18.5131 87.808 18.5131C88.0853 18.5131 88.3573 18.6251 88.624 18.8491C88.9013 19.0731 89.04 19.3771 89.04 19.7611C89.04 19.8891 89.0133 20.1771 88.96 20.6251C88.9067 21.0625 88.8267 21.6171 88.72 22.2891C88.624 22.9505 88.496 23.6865 88.336 24.4971C88.176 25.2971 87.9893 26.1345 87.776 27.0091C87.5733 27.8731 87.344 28.7318 87.088 29.5851C86.832 30.4385 86.5493 31.2385 86.24 31.9851C86.0693 32.4118 85.8667 32.6891 85.632 32.8171C85.408 32.9451 85.216 33.0091 85.056 33.0091ZM93.4825 32.4811C92.7252 32.4811 92.1172 32.2145 91.6585 31.6811C91.1998 31.1371 90.9705 30.4118 90.9705 29.5051C90.9705 29.2171 91.0078 28.9238 91.0825 28.6251C91.1678 28.3265 91.2692 28.0491 91.3865 27.7931C91.3225 27.6971 91.2692 27.5745 91.2265 27.4251C91.1945 27.2651 91.1785 27.0785 91.1785 26.8651C91.1785 26.1718 91.3012 25.5371 91.5465 24.9611C91.7918 24.3745 92.1225 23.8678 92.5385 23.4411C92.9545 23.0145 93.4132 22.6838 93.9145 22.4491C94.4158 22.2145 94.9225 22.0971 95.4345 22.0971C96.3092 22.0971 97.0238 22.3905 97.5785 22.9771C98.1438 23.5638 98.4265 24.4758 98.4265 25.7131C98.4265 26.3318 98.3305 26.9611 98.1385 27.6011C97.9465 28.2411 97.6852 28.8545 97.3545 29.4411C97.0345 30.0171 96.6612 30.5345 96.2345 30.9931C95.8185 31.4518 95.3705 31.8145 94.8905 32.0811C94.4212 32.3478 93.9518 32.4811 93.4825 32.4811ZM93.2265 27.0731C93.2798 27.1905 93.3065 27.3291 93.3065 27.4891C93.3065 27.6491 93.2745 27.8145 93.2105 27.9851C93.1465 28.1558 93.0825 28.3851 93.0185 28.6731C92.9545 28.9505 92.9225 29.3505 92.9225 29.8731C92.9225 30.0118 92.9385 30.1291 92.9705 30.2251C93.0132 30.3105 93.1038 30.3531 93.2425 30.3531C93.6052 30.3531 93.9465 30.2358 94.2665 30.0011C94.5972 29.7665 94.8905 29.4571 95.1465 29.0731C95.4132 28.6891 95.6372 28.2625 95.8185 27.7931C96.0105 27.3131 96.1545 26.8278 96.2505 26.3371C96.3572 25.8358 96.4105 25.3718 96.4105 24.9451C96.4105 24.6678 96.3572 24.4758 96.2505 24.3691C96.1438 24.2625 95.9572 24.2091 95.6905 24.2091C95.3278 24.2091 94.9545 24.3265 94.5705 24.5611C94.1972 24.7851 93.8825 25.0945 93.6265 25.4891C93.3705 25.8731 93.2425 26.3105 93.2425 26.8011C93.2425 26.8971 93.2372 26.9878 93.2265 27.0731ZM111.96 23.8891C111.96 24.0171 111.917 24.1291 111.832 24.2251C111.746 24.3211 111.64 24.3958 111.512 24.4491C111.33 24.5238 111.016 24.6198 110.568 24.7371C110.12 24.8545 109.576 24.9878 108.936 25.1371C108.306 25.2865 107.629 25.4411 106.904 25.6011C106.178 25.7505 105.453 25.8945 104.728 26.0331C104.45 27.0571 104.168 28.1131 103.88 29.2011C103.592 30.2785 103.304 31.3398 103.016 32.3851C102.909 32.7585 102.781 33.0411 102.632 33.2331C102.482 33.4358 102.226 33.5371 101.864 33.5371C101.469 33.5371 101.202 33.4091 101.064 33.1531C100.936 32.9078 100.92 32.5718 101.016 32.1451C101.293 30.9825 101.549 29.8998 101.784 28.8971C102.029 27.8945 102.226 27.0838 102.376 26.4651C101.736 26.5718 101.176 26.6571 100.696 26.7211C100.216 26.7745 99.8743 26.7958 99.6716 26.7851C99.4476 26.7638 99.261 26.6731 99.1116 26.5131C98.9623 26.3531 98.893 26.1558 98.9036 25.9211C98.925 25.7078 99.021 25.5265 99.1916 25.3771C99.3623 25.2171 99.565 25.1211 99.7996 25.0891C100.13 25.0571 100.557 25.0091 101.08 24.9451C101.602 24.8811 102.178 24.8065 102.808 24.7211C102.946 24.1771 103.106 23.6171 103.288 23.0411C103.469 22.4545 103.656 21.8945 103.848 21.3611C104.05 20.8171 104.242 20.3425 104.424 19.9371C104.605 19.5318 104.77 19.2385 104.92 19.0571C105.037 18.9185 105.181 18.8118 105.352 18.7371C105.533 18.6625 105.709 18.6251 105.88 18.6251C106.104 18.6251 106.285 18.7051 106.424 18.8651C106.562 19.0251 106.632 19.2118 106.632 19.4251C106.632 19.5105 106.626 19.6011 106.616 19.6971C106.605 19.7825 106.584 19.8678 106.552 19.9531C106.349 20.4865 106.13 21.1318 105.896 21.8891C105.672 22.6465 105.437 23.4785 105.192 24.3851C105.992 24.2678 106.776 24.1505 107.544 24.0331C108.322 23.9051 109.026 23.7878 109.656 23.6811C110.296 23.5638 110.808 23.4625 111.192 23.3771C111.405 23.3025 111.586 23.3185 111.736 23.4251C111.885 23.5211 111.96 23.6758 111.96 23.8891ZM118.79 32.3851C118.534 32.3851 118.31 32.3105 118.118 32.1611C117.926 32.0118 117.83 31.6918 117.83 31.2011C117.83 30.9771 117.91 30.6198 118.07 30.1291C118.23 29.6385 118.443 29.0625 118.71 28.4011C118.987 27.7291 119.297 27.0198 119.638 26.2731C119.979 25.5265 120.337 24.7851 120.71 24.0491C121.083 23.3131 121.446 22.6305 121.798 22.0011C122.15 21.3718 122.475 20.8385 122.774 20.4011C123.083 19.9531 123.334 19.6545 123.526 19.5051C123.803 19.3025 124.081 19.2011 124.358 19.2011C124.507 19.2011 124.651 19.2171 124.79 19.2491C124.939 19.2811 125.062 19.3345 125.158 19.4091C125.382 19.5478 125.579 19.8145 125.75 20.2091C125.931 20.5931 126.091 21.0571 126.23 21.6011C126.379 22.1451 126.502 22.7318 126.598 23.3611C126.705 23.9798 126.795 24.5931 126.87 25.2011C127.275 25.1478 127.553 25.1211 127.702 25.1211C128.022 25.1211 128.305 25.1691 128.55 25.2651C128.795 25.3505 128.923 25.5318 128.934 25.8091C128.955 26.0758 128.87 26.2998 128.678 26.4811C128.497 26.6625 128.262 26.7958 127.974 26.8811C127.846 26.9238 127.537 26.9931 127.046 27.0891C127.078 27.6331 127.094 28.0918 127.094 28.4651C127.094 29.4145 127.041 30.1505 126.934 30.6731C126.838 31.1958 126.71 31.5691 126.55 31.7931C126.401 32.0171 126.241 32.1505 126.07 32.1931C125.91 32.2465 125.766 32.2731 125.638 32.2731C125.627 32.2731 125.617 32.2731 125.606 32.2731C125.297 32.2731 125.067 32.1931 124.918 32.0331C124.779 31.8731 124.71 31.6065 124.71 31.2331V30.0971C124.71 29.7451 124.705 29.3505 124.694 28.9131C124.683 28.4758 124.662 28.0118 124.63 27.5211C124.001 27.6278 123.371 27.7345 122.742 27.8411C122.123 27.9371 121.59 28.0225 121.142 28.0971C120.939 28.5771 120.763 29.0091 120.614 29.3931C120.465 29.7665 120.363 30.0598 120.31 30.2731C120.15 30.7958 120.001 31.2065 119.862 31.5051C119.723 31.7931 119.59 31.9958 119.462 32.1131C119.345 32.2411 119.233 32.3158 119.126 32.3371C119.019 32.3691 118.907 32.3851 118.79 32.3851ZM122.022 26.1291C122.47 26.0225 122.902 25.9265 123.318 25.8411C123.734 25.7451 124.129 25.6598 124.502 25.5851C124.449 24.9238 124.385 24.2785 124.31 23.6491C124.235 23.0198 124.15 22.4598 124.054 21.9691C123.777 22.5025 123.451 23.1425 123.078 23.8891C122.715 24.6251 122.363 25.3718 122.022 26.1291ZM133.084 31.9371C132.807 31.9371 132.562 31.8038 132.348 31.5371C132.146 31.2705 131.991 30.8598 131.884 30.3051C131.799 29.8358 131.724 29.3025 131.66 28.7051C131.596 28.1078 131.538 27.5211 131.484 26.9451C131.442 26.3585 131.41 25.8465 131.388 25.4091C131.367 24.9718 131.356 24.6731 131.356 24.5131C131.356 23.9371 131.458 23.4625 131.66 23.0891C131.863 22.7051 132.252 22.5131 132.828 22.5131C133.074 22.5131 133.26 22.6198 133.388 22.8331C133.516 23.0358 133.58 23.3185 133.58 23.6811C133.58 23.9051 133.58 24.1878 133.58 24.5291C133.591 24.8598 133.602 25.2331 133.612 25.6491C133.623 26.1078 133.634 26.6038 133.644 27.1371C133.666 27.6598 133.676 28.1825 133.676 28.7051C134.05 28.1185 134.45 27.4945 134.876 26.8331C135.303 26.1611 135.719 25.5105 136.124 24.8811C136.54 24.2518 136.914 23.6971 137.244 23.2171C137.575 22.7265 137.826 22.3798 137.996 22.1771C138.146 21.9958 138.327 21.8411 138.54 21.7131C138.754 21.5745 138.978 21.5051 139.212 21.5051C139.468 21.5051 139.682 21.6065 139.852 21.8091C140.023 22.0118 140.108 22.2465 140.108 22.5131C140.108 22.7158 140.066 22.9078 139.98 23.0891C139.906 23.2705 139.81 23.4411 139.692 23.6011C139.372 24.0491 138.994 24.5718 138.556 25.1691C138.13 25.7665 137.682 26.3958 137.212 27.0571C136.743 27.7078 136.284 28.3371 135.836 28.9451C135.399 29.5531 135.01 30.0918 134.668 30.5611C134.391 30.9558 134.167 31.2545 133.996 31.4571C133.826 31.6491 133.671 31.7771 133.532 31.8411C133.404 31.9051 133.255 31.9371 133.084 31.9371ZM141.21 32.5611C140.869 32.5611 140.56 32.4651 140.282 32.2731C140.005 32.0918 139.786 31.8518 139.626 31.5531C139.466 31.2438 139.386 30.9131 139.386 30.5611C139.386 29.8998 139.53 29.2545 139.818 28.6251C140.117 27.9958 140.506 27.3985 140.986 26.8331C141.466 26.2678 141.989 25.7505 142.554 25.2811C143.13 24.8011 143.701 24.3905 144.266 24.0491C144.842 23.7078 145.365 23.4411 145.834 23.2491C146.314 23.0571 146.688 22.9611 146.954 22.9611C147.264 22.9611 147.514 23.0305 147.706 23.1691C147.909 23.2971 148.01 23.4998 148.01 23.7771C148.01 23.8625 147.989 23.9318 147.946 23.9851C148.085 24.0171 148.197 24.0971 148.282 24.2251C148.368 24.3531 148.41 24.5451 148.41 24.8011C148.41 24.9078 148.384 25.1851 148.33 25.6331C148.277 26.0811 148.218 26.6251 148.154 27.2651C148.101 27.9051 148.074 28.5718 148.074 29.2651C148.074 29.3718 148.09 29.4678 148.122 29.5531C148.154 29.6278 148.224 29.6651 148.33 29.6651C148.757 29.6651 149.189 29.5798 149.626 29.4091C150.074 29.2278 150.506 29.0091 150.922 28.7531C151.349 28.4865 151.733 28.2251 152.074 27.9691C152.426 27.7025 152.72 27.4838 152.954 27.3131C153.2 27.1318 153.36 27.0411 153.434 27.0411C153.797 27.0411 153.978 27.2225 153.978 27.5851C153.978 27.6811 153.861 27.8838 153.626 28.1931C153.402 28.4918 153.093 28.8385 152.698 29.2331C152.304 29.6171 151.861 30.0011 151.37 30.3851C150.89 30.7585 150.389 31.0678 149.866 31.3131C149.354 31.5585 148.858 31.6811 148.378 31.6811C147.792 31.6811 147.344 31.5425 147.034 31.2651C146.736 30.9878 146.522 30.6145 146.394 30.1451C146.277 29.6651 146.213 29.1265 146.202 28.5291C145.658 29.3078 145.093 30.0011 144.506 30.6091C143.93 31.2065 143.36 31.6811 142.794 32.0331C142.229 32.3851 141.701 32.5611 141.21 32.5611ZM146.874 24.5451C145.829 25.0465 144.89 25.6225 144.058 26.2731C143.226 26.9131 142.565 27.5851 142.074 28.2891C141.594 28.9931 141.354 29.6705 141.354 30.3211C141.354 30.5025 141.44 30.5931 141.61 30.5931C141.813 30.5931 142.08 30.4758 142.41 30.2411C142.752 30.0065 143.12 29.6971 143.514 29.3131C143.909 28.9185 144.304 28.4811 144.698 28.0011C145.093 27.5105 145.461 27.0091 145.802 26.4971C146.144 25.9851 146.416 25.4945 146.618 25.0251C146.693 24.8545 146.778 24.6945 146.874 24.5451ZM153.423 32.1931C153.124 32.1931 152.857 32.0918 152.623 31.8891C152.399 31.6865 152.287 31.3558 152.287 30.8971C152.287 30.6518 152.319 30.3051 152.383 29.8571C152.457 29.4091 152.553 28.9238 152.671 28.4011C152.788 27.8678 152.916 27.3398 153.055 26.8171C153.204 26.2945 153.348 25.8305 153.487 25.4251C153.625 25.0091 153.748 24.6998 153.855 24.4971C153.993 24.2518 154.121 24.1025 154.239 24.0491C154.367 23.9851 154.489 23.9531 154.607 23.9531C154.82 23.9531 155.017 24.0171 155.199 24.1451C155.391 24.2731 155.487 24.5558 155.487 24.9931C155.487 25.1638 155.455 25.4411 155.391 25.8251C155.327 26.1985 155.247 26.6358 155.151 27.1371C155.055 27.6385 154.948 28.1558 154.831 28.6891C154.724 29.2225 154.617 29.7291 154.511 30.2091C154.415 30.6785 154.335 31.0731 154.271 31.3931C154.217 31.6598 154.105 31.8571 153.935 31.9851C153.775 32.1238 153.604 32.1931 153.423 32.1931ZM155.263 22.3691C154.911 22.3691 154.585 22.2678 154.287 22.0651C153.988 21.8518 153.839 21.5265 153.839 21.0891C153.839 20.7265 153.929 20.4331 154.111 20.2091C154.292 19.9851 154.505 19.8251 154.751 19.7291C155.007 19.6225 155.231 19.5691 155.423 19.5691C155.615 19.5691 155.828 19.6118 156.063 19.6971C156.297 19.7718 156.5 19.9158 156.671 20.1291C156.852 20.3318 156.943 20.6251 156.943 21.0091C156.943 21.2651 156.852 21.4998 156.671 21.7131C156.489 21.9158 156.265 22.0758 155.999 22.1931C155.743 22.3105 155.497 22.3691 155.263 22.3691ZM161.138 32.7531C160.178 32.7531 159.421 32.4598 158.866 31.8731C158.322 31.2758 158.05 30.4278 158.05 29.3291C158.05 28.7318 158.13 28.0331 158.29 27.2331C158.45 26.4225 158.658 25.5691 158.914 24.6731C159.181 23.7665 159.464 22.8705 159.762 21.9851C160.072 21.0998 160.376 20.2785 160.674 19.5211C160.973 18.7638 161.234 18.1291 161.458 17.6171C161.65 17.2225 161.922 17.0251 162.274 17.0251C162.498 17.0251 162.68 17.0945 162.818 17.2331C162.968 17.3718 163.042 17.5958 163.042 17.9051C163.042 18.0545 162.968 18.3798 162.818 18.8811C162.669 19.3825 162.472 20.0011 162.226 20.7371C161.992 21.4625 161.736 22.2465 161.458 23.0891C161.192 23.9318 160.936 24.7798 160.69 25.6331C160.456 26.4865 160.264 27.2918 160.114 28.0491C159.965 28.7958 159.89 29.4305 159.89 29.9531C159.89 30.1665 159.949 30.3371 160.066 30.4651C160.194 30.5931 160.36 30.6571 160.562 30.6571C161 30.6571 161.448 30.5771 161.906 30.4171C162.376 30.2571 162.834 30.0545 163.282 29.8091C163.741 29.5638 164.173 29.3025 164.578 29.0251C164.984 28.7478 165.346 28.4865 165.666 28.2411C165.997 27.9851 166.264 27.7825 166.466 27.6331C166.733 27.4305 166.914 27.3291 167.01 27.3291C167.373 27.3291 167.554 27.5051 167.554 27.8571C167.554 27.9425 167.448 28.1185 167.234 28.3851C167.053 28.6198 166.797 28.9185 166.466 29.2811C166.136 29.6438 165.752 30.0278 165.314 30.4331C164.888 30.8278 164.429 31.2011 163.938 31.5531C163.458 31.9051 162.978 32.1931 162.498 32.4171C162.018 32.6411 161.565 32.7531 161.138 32.7531ZM167.52 32.5611C167.178 32.5611 166.869 32.4651 166.592 32.2731C166.314 32.0918 166.096 31.8518 165.936 31.5531C165.776 31.2438 165.696 30.9131 165.696 30.5611C165.696 29.8998 165.84 29.2545 166.128 28.6251C166.426 27.9958 166.816 27.3985 167.296 26.8331C167.776 26.2678 168.298 25.7505 168.864 25.2811C169.44 24.8011 170.01 24.3905 170.576 24.0491C171.152 23.7078 171.674 23.4411 172.144 23.2491C172.624 23.0571 172.997 22.9611 173.264 22.9611C173.573 22.9611 173.824 23.0305 174.016 23.1691C174.218 23.2971 174.32 23.4998 174.32 23.7771C174.32 23.8625 174.298 23.9318 174.256 23.9851C174.394 24.0171 174.506 24.0971 174.592 24.2251C174.677 24.3531 174.72 24.5451 174.72 24.8011C174.72 24.9078 174.693 25.1851 174.64 25.6331C174.586 26.0811 174.528 26.6251 174.464 27.2651C174.41 27.9051 174.384 28.5718 174.384 29.2651C174.384 29.3718 174.4 29.4678 174.432 29.5531C174.464 29.6278 174.533 29.6651 174.64 29.6651C175.066 29.6651 175.498 29.5798 175.936 29.4091C176.384 29.2278 176.816 29.0091 177.232 28.7531C177.658 28.4865 178.042 28.2251 178.384 27.9691C178.736 27.7025 179.029 27.4838 179.264 27.3131C179.509 27.1318 179.669 27.0411 179.744 27.0411C180.106 27.0411 180.288 27.2225 180.288 27.5851C180.288 27.6811 180.17 27.8838 179.936 28.1931C179.712 28.4918 179.402 28.8385 179.008 29.2331C178.613 29.6171 178.17 30.0011 177.68 30.3851C177.2 30.7585 176.698 31.0678 176.176 31.3131C175.664 31.5585 175.168 31.6811 174.688 31.6811C174.101 31.6811 173.653 31.5425 173.344 31.2651C173.045 30.9878 172.832 30.6145 172.704 30.1451C172.586 29.6651 172.522 29.1265 172.512 28.5291C171.968 29.3078 171.402 30.0011 170.816 30.6091C170.24 31.2065 169.669 31.6811 169.104 32.0331C168.538 32.3851 168.01 32.5611 167.52 32.5611ZM173.184 24.5451C172.138 25.0465 171.2 25.6225 170.368 26.2731C169.536 26.9131 168.874 27.5851 168.384 28.2891C167.904 28.9931 167.664 29.6705 167.664 30.3211C167.664 30.5025 167.749 30.5931 167.92 30.5931C168.122 30.5931 168.389 30.4758 168.72 30.2411C169.061 30.0065 169.429 29.6971 169.824 29.3131C170.218 28.9185 170.613 28.4811 171.008 28.0011C171.402 27.5105 171.77 27.0091 172.112 26.4971C172.453 25.9851 172.725 25.4945 172.928 25.0251C173.002 24.8545 173.088 24.6945 173.184 24.5451ZM180.924 32.4491C180.284 32.4491 179.841 32.3211 179.596 32.0651C179.361 31.8198 179.244 31.4785 179.244 31.0411C179.244 29.1851 179.59 27.2491 180.284 25.2331C180.988 23.2065 181.974 21.1745 183.244 19.1371C183.457 18.7851 183.633 18.5771 183.772 18.5131C183.91 18.4491 184.065 18.4171 184.236 18.4171C184.481 18.4171 184.694 18.5025 184.876 18.6731C185.068 18.8438 185.164 19.0678 185.164 19.3451C185.164 19.4305 185.073 19.6651 184.892 20.0491C184.71 20.4331 184.47 20.9238 184.172 21.5211C183.884 22.1185 183.569 22.7958 183.228 23.5531C182.886 24.2998 182.55 25.0891 182.22 25.9211C181.9 26.7531 181.622 27.5905 181.388 28.4331C181.75 27.9745 182.161 27.5051 182.62 27.0251C183.089 26.5345 183.574 26.0865 184.076 25.6811C184.577 25.2651 185.062 24.9345 185.532 24.6891C186.001 24.4331 186.422 24.3051 186.796 24.3051C187.148 24.3051 187.473 24.3905 187.772 24.5611C188.081 24.7318 188.332 24.9985 188.524 25.3611C188.716 25.7238 188.812 26.1931 188.812 26.7691C188.812 27.3985 188.63 28.0438 188.268 28.7051C187.916 29.3665 187.398 29.9798 186.716 30.5451C186.044 31.1105 185.217 31.5691 184.236 31.9211C183.265 32.2731 182.161 32.4491 180.924 32.4491ZM181.596 30.6251C182.417 30.5611 183.158 30.3851 183.82 30.0971C184.492 29.8091 185.068 29.4518 185.548 29.0251C186.028 28.5985 186.396 28.1505 186.652 27.6811C186.908 27.2011 187.036 26.7478 187.036 26.3211C187.036 26.2251 187.009 26.1771 186.956 26.1771C186.732 26.1771 186.449 26.2785 186.108 26.4811C185.766 26.6731 185.393 26.9345 184.988 27.2651C184.582 27.5958 184.172 27.9585 183.756 28.3531C183.34 28.7478 182.945 29.1425 182.572 29.5371C182.198 29.9318 181.873 30.2945 181.596 30.6251ZM193.667 32.7531C192.707 32.7531 191.949 32.4598 191.395 31.8731C190.851 31.2758 190.579 30.4278 190.579 29.3291C190.579 28.7318 190.659 28.0331 190.819 27.2331C190.979 26.4225 191.187 25.5691 191.443 24.6731C191.709 23.7665 191.992 22.8705 192.291 21.9851C192.6 21.0998 192.904 20.2785 193.203 19.5211C193.501 18.7638 193.763 18.1291 193.987 17.6171C194.179 17.2225 194.451 17.0251 194.803 17.0251C195.027 17.0251 195.208 17.0945 195.347 17.2331C195.496 17.3718 195.571 17.5958 195.571 17.9051C195.571 18.0545 195.496 18.3798 195.347 18.8811C195.197 19.3825 195 20.0011 194.755 20.7371C194.52 21.4625 194.264 22.2465 193.987 23.0891C193.72 23.9318 193.464 24.7798 193.219 25.6331C192.984 26.4865 192.792 27.2918 192.643 28.0491C192.493 28.7958 192.419 29.4305 192.419 29.9531C192.419 30.1665 192.477 30.3371 192.595 30.4651C192.723 30.5931 192.888 30.6571 193.091 30.6571C193.528 30.6571 193.976 30.5771 194.435 30.4171C194.904 30.2571 195.363 30.0545 195.811 29.8091C196.269 29.5638 196.701 29.3025 197.107 29.0251C197.512 28.7478 197.875 28.4865 198.195 28.2411C198.525 27.9851 198.792 27.7825 198.995 27.6331C199.261 27.4305 199.443 27.3291 199.539 27.3291C199.901 27.3291 200.083 27.5051 200.083 27.8571C200.083 27.9425 199.976 28.1185 199.763 28.3851C199.581 28.6198 199.325 28.9185 198.995 29.2811C198.664 29.6438 198.28 30.0278 197.843 30.4331C197.416 30.8278 196.957 31.2011 196.467 31.5531C195.987 31.9051 195.507 32.1931 195.027 32.4171C194.547 32.6411 194.093 32.7531 193.667 32.7531ZM201.404 32.4971C200.743 32.4971 200.209 32.2678 199.804 31.8091C199.399 31.3398 199.196 30.5878 199.196 29.5531C199.196 28.8918 199.271 28.2305 199.42 27.5691C199.58 26.8971 199.799 26.2625 200.076 25.6651C200.364 25.0571 200.695 24.5185 201.068 24.0491C201.452 23.5798 201.873 23.2118 202.332 22.9451C202.791 22.6678 203.265 22.5291 203.756 22.5291C204.588 22.5291 205.239 22.7531 205.708 23.2011C206.177 23.6491 206.412 24.2198 206.412 24.9131C206.412 25.4465 206.263 25.9318 205.964 26.3691C205.676 26.7958 205.281 27.1798 204.78 27.5211C204.279 27.8625 203.719 28.1718 203.1 28.4491C202.481 28.7265 201.847 28.9771 201.196 29.2011C201.143 29.5851 201.116 29.9265 201.116 30.2251C201.116 30.4065 201.217 30.4971 201.42 30.4971C201.9 30.4971 202.412 30.4225 202.956 30.2731C203.511 30.1131 204.071 29.9105 204.636 29.6651C205.201 29.4091 205.745 29.1478 206.268 28.8811C206.791 28.6038 207.265 28.3425 207.692 28.0971C208.129 27.8411 208.487 27.6385 208.764 27.4891C209.052 27.3291 209.239 27.2491 209.324 27.2491C209.559 27.2491 209.729 27.3185 209.836 27.4571C209.943 27.5958 209.996 27.7451 209.996 27.9051C209.996 27.9798 209.852 28.1451 209.564 28.4011C209.287 28.6571 208.903 28.9611 208.412 29.3131C207.932 29.6545 207.388 30.0118 206.78 30.3851C206.183 30.7478 205.559 31.0945 204.908 31.4251C204.268 31.7451 203.644 32.0011 203.036 32.1931C202.439 32.3958 201.895 32.4971 201.404 32.4971ZM201.468 27.7771C201.905 27.5211 202.337 27.2545 202.764 26.9771C203.201 26.6891 203.564 26.3691 203.852 26.0171C204.14 25.6545 204.284 25.2331 204.284 24.7531C204.284 24.6145 204.247 24.5238 204.172 24.4811C204.097 24.4278 203.991 24.4011 203.852 24.4011C203.479 24.4011 203.137 24.5665 202.828 24.8971C202.529 25.2278 202.263 25.6545 202.028 26.1771C201.804 26.6891 201.617 27.2225 201.468 27.7771Z" fill="#475467"/>
<path d="M59.8999 25.7753C54.4262 25.7753 48.9171 25.3967 43.4657 25.1042C37.6797 24.7936 31.9077 25.3296 26.1341 25.356C20.0256 25.3841 13.939 25.7669 7.82328 25.7949C6.47196 25.8012 -3.58165 26.2062 1.35234 23.2921C2.85321 22.4057 6.51545 22.2952 8.20895 22.1153C10.41 21.8814 12.6492 21.9614 14.8565 21.7652C20.7658 21.24 26.7347 20.7297 32.683 20.7829C38.7776 20.8373 44.8318 20.739 50.9056 21.1575C52.527 21.2691 62.07 23.5869 62.9152 22.6399C63.0926 22.4412 58.5916 18.4395 58.5065 17.7321C58.1373 14.6652 61.1403 16.2748 62.6751 17.3202C64.8655 18.8121 67.6429 20.9122 69.5401 22.7485C71.2011 24.3561 71.2941 25.3745 69.603 27.1274C67.7695 29.0277 65.4436 30.5144 63.4867 32.2928C62.2835 33.3863 58.8193 38.0319 57.4524 37.9521C52.9355 37.6885 62.9275 27.1725 63.9803 25.9241C62.7725 25.5119 61.1693 25.7753 59.8999 25.7753Z" fill="url(#paint0_linear_8594_1616)"/>
<defs>
<linearGradient id="paint0_linear_8594_1616" x1="70.8293" y1="26.9531" x2="0" y2="26.9531" gradientUnits="userSpaceOnUse">
<stop stop-color="#9BADFF"/>
<stop offset="1" stop-color="#5B9CFC" stop-opacity="0"/>
</linearGradient>
</defs>
</svg>
