<svg width="176" height="43" viewBox="0 0 176 43" fill="none" xmlns="http://www.w3.org/2000/svg">
<path d="M80.544 32.5291C80.1067 32.5291 79.776 32.4598 79.552 32.3211C79.3387 32.1931 79.1947 32.0438 79.12 31.8731C79.056 31.7025 79.024 31.5691 79.024 31.4731C79.024 31.1638 79.1627 30.9078 79.44 30.7051C79.728 30.4918 80.048 30.3851 80.4 30.3851C80.7413 30.3851 81.1627 30.3371 81.664 30.2411C82.176 30.1345 82.7147 29.9851 83.28 29.7931C83.856 29.6011 84.4053 29.3611 84.928 29.0731C85.4613 28.7851 85.9253 28.4545 86.32 28.0811C86.7147 27.7078 86.9867 27.2971 87.136 26.8491C86.9013 26.8065 86.6667 26.7745 86.432 26.7531C86.1973 26.7211 85.9627 26.7051 85.728 26.7051C84.9387 26.7051 84.1227 26.7905 83.28 26.9611C82.4373 27.1318 81.6 27.2971 80.768 27.4571C80.5653 27.4998 80.384 27.4625 80.224 27.3451C80.2027 27.5691 80.1813 27.7771 80.16 27.9691C80.1493 28.1505 80.1387 28.3478 80.128 28.5611C80.1067 29.0838 80.0587 29.4891 79.984 29.7771C79.92 30.0545 79.8453 30.2518 79.76 30.3691C79.6747 30.4865 79.584 30.5558 79.488 30.5771C79.392 30.5985 79.3013 30.6091 79.216 30.6091C79.184 30.6091 79.1627 30.6091 79.152 30.6091C78.96 30.6091 78.7787 30.5611 78.608 30.4651C78.4373 30.3691 78.2987 30.1718 78.192 29.8731C78.0853 29.5638 78.032 29.0998 78.032 28.4811C78.032 26.5185 78.2453 24.8545 78.672 23.4891C79.1093 22.1131 79.7333 21.0678 80.544 20.3531C81.3653 19.6278 82.3467 19.2651 83.488 19.2651C84.384 19.2651 85.0827 19.5105 85.584 20.0011C86.0853 20.4811 86.336 21.1745 86.336 22.0811C86.336 22.5398 86.2453 22.9985 86.064 23.4571C85.8827 23.9158 85.6267 24.3691 85.296 24.8171C85.4987 24.7745 85.696 24.7425 85.888 24.7211C86.08 24.6891 86.2613 24.6731 86.432 24.6731C87.4347 24.6731 88.176 24.8545 88.656 25.2171C89.136 25.5691 89.376 26.0438 89.376 26.6411C89.376 27.2385 89.2053 27.7985 88.864 28.3211C88.5333 28.8438 88.0907 29.3238 87.536 29.7611C86.992 30.1878 86.3893 30.5771 85.728 30.9291C85.0667 31.2705 84.4053 31.5638 83.744 31.8091C83.0827 32.0438 82.4693 32.2198 81.904 32.3371C81.3387 32.4651 80.8853 32.5291 80.544 32.5291ZM80.416 25.6971C80.48 25.6651 80.5493 25.6438 80.624 25.6331C81.584 25.4731 82.32 25.2545 82.832 24.9771C83.344 24.6998 83.696 24.3531 83.888 23.9371C84.08 23.5211 84.176 23.0251 84.176 22.4491C84.176 22.2998 84.1547 22.1398 84.112 21.9691C84.0693 21.7985 83.984 21.6545 83.856 21.5371C83.7387 21.4091 83.5573 21.3451 83.312 21.3451C82.5013 21.3451 81.8667 21.7131 81.408 22.4491C80.96 23.1745 80.6293 24.2571 80.416 25.6971ZM94.1447 36.3531C93.5474 36.3531 93.0034 36.3158 92.5127 36.2411C92.0221 36.1771 91.5421 36.0705 91.0727 35.9211C90.6034 35.7718 90.0967 35.5745 89.5527 35.3291C89.3287 35.2225 89.1421 35.1105 88.9927 34.9931C88.8434 34.8758 88.7687 34.6998 88.7687 34.4651C88.7687 34.1238 88.8754 33.8625 89.0887 33.6811C89.2914 33.5105 89.5741 33.4251 89.9367 33.4251C90.1287 33.4251 90.3741 33.4891 90.6727 33.6171C90.9714 33.7558 91.3127 33.9105 91.6967 34.0811C92.0914 34.2625 92.5287 34.4171 93.0087 34.5451C93.4887 34.6838 94.0061 34.7531 94.5608 34.7531C95.1261 34.7531 95.6541 34.5185 96.1448 34.0491C96.6354 33.5798 97.0301 32.9185 97.3288 32.0651C97.6381 31.2225 97.7927 30.2251 97.7927 29.0731C97.7927 28.8065 97.7874 28.5185 97.7768 28.2091C97.7661 27.8891 97.7554 27.5531 97.7448 27.2011C97.3607 27.9265 96.9447 28.6038 96.4967 29.2331C96.0487 29.8625 95.5847 30.3745 95.1047 30.7691C94.6354 31.1531 94.1607 31.3451 93.6807 31.3451C93.0941 31.3451 92.6674 31.2065 92.4007 30.9291C92.1447 30.6411 92.0167 30.1878 92.0167 29.5691C92.0167 29.0465 92.0541 28.4758 92.1287 27.8571C92.2141 27.2278 92.3261 26.5931 92.4647 25.9531C92.6034 25.3131 92.7634 24.7051 92.9447 24.1291C93.1367 23.5425 93.3394 23.0358 93.5527 22.6091C93.7127 22.2998 93.9581 22.1451 94.2887 22.1451C94.5021 22.1451 94.7154 22.2465 94.9288 22.4491C95.1528 22.6518 95.2648 22.9238 95.2648 23.2651C95.2648 23.4571 95.2167 23.7345 95.1207 24.0971C95.0247 24.4598 94.9074 24.8705 94.7687 25.3291C94.6407 25.7771 94.5074 26.2518 94.3687 26.7531C94.2301 27.2438 94.1127 27.7291 94.0167 28.2091C93.9207 28.6785 93.8727 29.1051 93.8727 29.4891C93.8727 29.5318 93.9047 29.5531 93.9687 29.5531C94.0967 29.5531 94.2674 29.4465 94.4807 29.2331C94.7047 29.0091 94.9501 28.7211 95.2167 28.3691C95.4941 28.0065 95.7714 27.6118 96.0487 27.1851C96.3368 26.7478 96.6141 26.3158 96.8807 25.8891C97.1474 25.4625 97.3874 25.0731 97.6007 24.7211C97.5688 24.5505 97.5474 24.4011 97.5367 24.2731C97.5367 24.1345 97.5367 24.0171 97.5367 23.9211C97.5367 23.4838 97.6114 23.1211 97.7607 22.8331C97.9207 22.5451 98.2301 22.4011 98.6888 22.4011C98.9874 22.4011 99.2168 22.5131 99.3767 22.7371C99.5367 22.9505 99.6167 23.2545 99.6167 23.6491C99.6167 23.8198 99.5901 24.0171 99.5367 24.2411C99.4834 24.4545 99.3767 24.7958 99.2168 25.2651L99.3927 24.7691C99.4887 25.7291 99.5688 26.5825 99.6328 27.3291C99.7074 28.0758 99.7448 28.8171 99.7448 29.5531C99.7448 30.9398 99.5101 32.1398 99.0408 33.1531C98.5821 34.1771 97.9314 34.9665 97.0887 35.5211C96.2567 36.0758 95.2754 36.3531 94.1447 36.3531ZM104.065 31.9531C103.809 31.9531 103.553 31.8678 103.297 31.6971C103.051 31.5158 102.849 31.2598 102.689 30.9291C102.529 30.5878 102.449 30.1771 102.449 29.6971C102.449 29.0571 102.534 28.3745 102.705 27.6491C102.886 26.9238 103.105 26.1985 103.361 25.4731C103.617 24.7478 103.867 24.0651 104.113 23.4251C104.23 23.1158 104.374 22.9078 104.545 22.8011C104.715 22.6838 104.939 22.6251 105.217 22.6251C105.846 22.6251 106.161 22.9398 106.161 23.5691C106.161 23.6758 106.113 23.8838 106.017 24.1931C105.921 24.4918 105.793 24.8598 105.633 25.2971C105.483 25.7345 105.323 26.2091 105.153 26.7211C104.993 27.2225 104.843 27.7345 104.705 28.2571C104.577 28.7691 104.475 29.2545 104.401 29.7131C104.646 29.3398 104.918 28.8758 105.217 28.3211C105.526 27.7558 105.851 27.1638 106.193 26.5451C106.545 25.9265 106.897 25.3505 107.249 24.8171C107.601 24.2731 107.947 23.8305 108.289 23.4891C108.63 23.1478 108.955 22.9771 109.265 22.9771C109.531 22.9771 109.782 23.0305 110.017 23.1371C110.262 23.2331 110.475 23.4251 110.657 23.7131C110.838 23.9905 110.977 24.3905 111.073 24.9131C111.179 25.4358 111.233 26.1238 111.233 26.9771C111.233 27.4038 111.27 27.8198 111.345 28.2251C111.43 28.6198 111.569 28.9505 111.761 29.2171C111.953 29.4731 112.225 29.6011 112.577 29.6011C113.185 29.6011 113.729 29.4891 114.209 29.2651C114.689 29.0411 115.11 28.7798 115.473 28.4811C115.835 28.1825 116.139 27.9211 116.385 27.6971C116.534 27.5478 116.662 27.4305 116.769 27.3451C116.886 27.2598 116.982 27.2171 117.057 27.2171C117.281 27.2171 117.441 27.2758 117.537 27.3931C117.643 27.5105 117.697 27.6705 117.697 27.8731C117.697 27.9798 117.606 28.1771 117.425 28.4651C117.243 28.7531 116.987 29.0838 116.657 29.4571C116.337 29.8198 115.969 30.1718 115.553 30.5131C115.137 30.8545 114.689 31.1371 114.209 31.3611C113.729 31.5851 113.238 31.6971 112.737 31.6971C111.894 31.6971 111.195 31.5478 110.641 31.2491C110.097 30.9398 109.691 30.4278 109.425 29.7131C109.158 28.9878 109.025 28.0011 109.025 26.7531C109.025 26.7211 109.025 26.6678 109.025 26.5931C109.025 26.2625 109.019 25.9691 109.009 25.7131C109.009 25.4571 108.993 25.2491 108.961 25.0891C108.779 25.4198 108.561 25.8145 108.305 26.2731C108.059 26.7318 107.793 27.2225 107.505 27.7451C107.217 28.2571 106.918 28.7638 106.609 29.2651C106.299 29.7558 105.99 30.2038 105.681 30.6091C105.382 31.0145 105.094 31.3398 104.817 31.5851C104.539 31.8305 104.289 31.9531 104.065 31.9531ZM118.423 32.4811C117.666 32.4811 117.058 32.2145 116.599 31.6811C116.14 31.1371 115.911 30.4118 115.911 29.5051C115.911 29.2171 115.948 28.9238 116.023 28.6251C116.108 28.3265 116.21 28.0491 116.327 27.7931C116.263 27.6971 116.21 27.5745 116.167 27.4251C116.135 27.2651 116.119 27.0785 116.119 26.8651C116.119 26.1718 116.242 25.5371 116.487 24.9611C116.732 24.3745 117.063 23.8678 117.479 23.4411C117.895 23.0145 118.354 22.6838 118.855 22.4491C119.356 22.2145 119.863 22.0971 120.375 22.0971C121.25 22.0971 121.964 22.3905 122.519 22.9771C123.084 23.5638 123.367 24.4758 123.367 25.7131C123.367 26.3318 123.271 26.9611 123.079 27.6011C122.887 28.2411 122.626 28.8545 122.295 29.4411C121.975 30.0171 121.602 30.5345 121.175 30.9931C120.759 31.4518 120.311 31.8145 119.831 32.0811C119.362 32.3478 118.892 32.4811 118.423 32.4811ZM118.167 27.0731C118.22 27.1905 118.247 27.3291 118.247 27.4891C118.247 27.6491 118.215 27.8145 118.151 27.9851C118.087 28.1558 118.023 28.3851 117.959 28.6731C117.895 28.9505 117.863 29.3505 117.863 29.8731C117.863 30.0118 117.879 30.1291 117.911 30.2251C117.954 30.3105 118.044 30.3531 118.183 30.3531C118.546 30.3531 118.887 30.2358 119.207 30.0011C119.538 29.7665 119.831 29.4571 120.087 29.0731C120.354 28.6891 120.578 28.2625 120.759 27.7931C120.951 27.3131 121.095 26.8278 121.191 26.3371C121.298 25.8358 121.351 25.3718 121.351 24.9451C121.351 24.6678 121.298 24.4758 121.191 24.3691C121.084 24.2625 120.898 24.2091 120.631 24.2091C120.268 24.2091 119.895 24.3265 119.511 24.5611C119.138 24.7851 118.823 25.0945 118.567 25.4891C118.311 25.8731 118.183 26.3105 118.183 26.8011C118.183 26.8971 118.178 26.9878 118.167 27.0731ZM128.234 32.4011C127.636 32.4011 127.119 32.2625 126.682 31.9851C126.244 31.7185 125.908 31.3718 125.674 30.9451C125.439 30.5078 125.322 30.0598 125.322 29.6011C125.322 28.8331 125.439 28.1238 125.674 27.4731C125.908 26.8118 126.218 26.2145 126.602 25.6811C126.986 25.1371 127.402 24.6571 127.85 24.2411C128.308 23.8251 128.751 23.4785 129.178 23.2011C129.615 22.9131 130.004 22.6998 130.346 22.5611C130.687 22.4118 130.938 22.3371 131.098 22.3371C131.386 22.3371 131.588 22.4011 131.706 22.5291C131.834 22.6465 131.898 22.8438 131.898 23.1211C131.898 23.2811 131.78 23.4731 131.546 23.6971C131.322 23.9211 131.023 24.1771 130.65 24.4651C130.287 24.7531 129.903 25.0785 129.498 25.4411C129.092 25.8038 128.703 26.2091 128.33 26.6571C127.967 27.1051 127.668 27.5958 127.434 28.1291C127.21 28.6625 127.098 29.2438 127.098 29.8731C127.098 30.1078 127.14 30.2891 127.226 30.4171C127.322 30.5451 127.476 30.6091 127.69 30.6091C128.298 30.6091 128.948 30.5025 129.642 30.2891C130.346 30.0651 131.044 29.7878 131.738 29.4571C132.442 29.1158 133.103 28.7638 133.722 28.4011C134.351 28.0385 134.89 27.7131 135.338 27.4251C135.519 27.2971 135.674 27.1958 135.802 27.1211C135.93 27.0465 136.02 27.0091 136.074 27.0091C136.394 27.0091 136.554 27.1745 136.554 27.5051C136.554 27.6758 136.426 27.9051 136.17 28.1931C135.871 28.5665 135.466 28.9505 134.954 29.3451C134.452 29.7398 133.892 30.1185 133.274 30.4811C132.666 30.8438 132.042 31.1691 131.402 31.4571C130.772 31.7451 130.18 31.9745 129.626 32.1451C129.071 32.3158 128.607 32.4011 128.234 32.4011ZM136.917 32.7691C136.458 32.7691 136.133 32.7051 135.941 32.5771C135.76 32.4491 135.669 32.2625 135.669 32.0171C135.669 31.8038 135.744 31.6225 135.893 31.4731C136.042 31.3131 136.373 31.1531 136.885 30.9931C137.482 30.8118 138.048 30.6038 138.581 30.3691C139.125 30.1238 139.568 29.8571 139.909 29.5691C140.261 29.2811 140.437 28.9771 140.437 28.6571C140.437 28.4438 140.362 28.2891 140.213 28.1931C140.074 28.0971 139.909 28.0491 139.717 28.0491C139.557 28.0491 139.322 28.0758 139.013 28.1291C138.714 28.1718 138.384 28.2305 138.021 28.3051C137.658 28.3691 137.306 28.4278 136.965 28.4811C136.634 28.5238 136.352 28.5451 136.117 28.5451C135.562 28.5451 135.152 28.4225 134.885 28.1771C134.618 27.9211 134.485 27.5958 134.485 27.2011C134.485 26.9878 134.597 26.6945 134.821 26.3211C135.045 25.9478 135.344 25.5371 135.717 25.0891C136.09 24.6411 136.506 24.1931 136.965 23.7451C137.424 23.2971 137.888 22.8865 138.357 22.5131C138.837 22.1291 139.29 21.8251 139.717 21.6011C140.144 21.3665 140.506 21.2491 140.805 21.2491C141.146 21.2491 141.418 21.3558 141.621 21.5691C141.834 21.7825 141.941 22.0705 141.941 22.4331C141.941 22.6038 141.925 22.7905 141.893 22.9931C141.861 23.1851 141.781 23.3611 141.653 23.5211C141.525 23.6705 141.328 23.7771 141.061 23.8411C140.794 23.9051 140.432 23.8945 139.973 23.8091C139.61 24.0758 139.232 24.3691 138.837 24.6891C138.453 24.9985 138.09 25.3238 137.749 25.6651C137.408 25.9958 137.125 26.3211 136.901 26.6411C137.296 26.5131 137.744 26.4118 138.245 26.3371C138.746 26.2518 139.253 26.2091 139.765 26.2091C140.384 26.2091 140.885 26.3211 141.269 26.5451C141.664 26.7585 141.952 27.0465 142.133 27.4091C142.325 27.7718 142.421 28.1718 142.421 28.6091C142.421 29.0998 142.261 29.5905 141.941 30.0811C141.621 30.5718 141.194 31.0198 140.661 31.4251C140.128 31.8305 139.536 32.1558 138.885 32.4011C138.234 32.6465 137.578 32.7691 136.917 32.7691Z" fill="#475467"/>
<path d="M59.8999 25.7753C54.4262 25.7753 48.9171 25.3967 43.4657 25.1042C37.6797 24.7936 31.9077 25.3296 26.1341 25.356C20.0256 25.3841 13.939 25.7669 7.82328 25.7949C6.47196 25.8012 -3.58165 26.2062 1.35234 23.2921C2.85321 22.4057 6.51545 22.2952 8.20895 22.1153C10.41 21.8814 12.6492 21.9614 14.8565 21.7652C20.7658 21.24 26.7347 20.7297 32.683 20.7829C38.7776 20.8373 44.8318 20.739 50.9056 21.1575C52.527 21.2691 62.07 23.5869 62.9152 22.6399C63.0926 22.4412 58.5916 18.4395 58.5065 17.7321C58.1373 14.6652 61.1403 16.2748 62.6751 17.3202C64.8655 18.8121 67.6429 20.9122 69.5401 22.7485C71.2011 24.3561 71.2941 25.3745 69.603 27.1274C67.7695 29.0277 65.4436 30.5144 63.4867 32.2928C62.2835 33.3863 58.8193 38.0319 57.4524 37.9521C52.9355 37.6885 62.9275 27.1725 63.9803 25.9241C62.7725 25.5119 61.1693 25.7753 59.8999 25.7753Z" fill="url(#paint0_linear_8594_1613)"/>
<defs>
<linearGradient id="paint0_linear_8594_1613" x1="70.8293" y1="26.9531" x2="0" y2="26.9531" gradientUnits="userSpaceOnUse">
<stop stop-color="#9BADFF"/>
<stop offset="1" stop-color="#5B9CFC" stop-opacity="0"/>
</linearGradient>
</defs>
</svg>
