<svg width="187" height="83" viewBox="0 0 187 83" fill="none" xmlns="http://www.w3.org/2000/svg">
<path d="M42.184 57.8731C41.7893 57.8731 41.496 57.7185 41.304 57.4091C41.112 57.0891 41.016 56.5131 41.016 55.6811C41.016 54.6145 41.112 53.5638 41.304 52.5291C41.5067 51.4945 41.7893 50.5238 42.152 49.6171C42.5253 48.7105 42.9733 47.9158 43.496 47.2331C44.0293 46.5398 44.632 46.0011 45.304 45.6171C45.976 45.2225 46.7067 45.0251 47.496 45.0251C48.6693 45.0251 49.5387 45.3398 50.104 45.9691C50.68 46.5878 50.968 47.4998 50.968 48.7051C50.968 49.3451 50.84 49.9158 50.584 50.4171C50.328 50.9078 49.992 51.2971 49.576 51.5851C49.1707 51.8625 48.7333 52.0011 48.264 52.0011C47.9973 52.0011 47.7147 51.9531 47.416 51.8571C47.992 52.6038 48.568 53.2545 49.144 53.8091C49.7307 54.3638 50.312 54.8758 50.888 55.3451C51.4747 55.8038 52.0613 56.2731 52.648 56.7531C52.9573 56.9985 53.1333 57.2598 53.176 57.5371C53.2187 57.8145 53.144 58.0491 52.952 58.2411C52.7707 58.4438 52.488 58.5451 52.104 58.5451C51.8053 58.5451 51.4267 58.4118 50.968 58.1451C50.5093 57.8891 50.0133 57.5425 49.48 57.1051C48.9467 56.6571 48.4133 56.1611 47.88 55.6171C47.3573 55.0731 46.8773 54.5185 46.44 53.9531C46.0133 53.3878 45.6667 52.8491 45.4 52.3371C45.144 51.8251 45.016 51.3878 45.016 51.0251C45.016 50.6838 45.1067 50.4225 45.288 50.2411C45.4693 50.0491 45.704 49.9531 45.992 49.9531C46.2267 49.9531 46.44 49.9851 46.632 50.0491C46.8347 50.1131 47.048 50.1451 47.272 50.1451C47.5067 50.1451 47.752 50.0811 48.008 49.9531C48.2747 49.8251 48.4987 49.6278 48.68 49.3611C48.8613 49.0838 48.952 48.7318 48.952 48.3051C48.952 47.8358 48.8187 47.5211 48.552 47.3611C48.296 47.2011 47.9493 47.1211 47.512 47.1211C46.904 47.1211 46.3547 47.3345 45.864 47.7611C45.3733 48.1878 44.9467 48.7905 44.584 49.5691C44.2213 50.3478 43.928 51.2651 43.704 52.3211C43.4907 53.3771 43.3467 54.5291 43.272 55.7771C43.2293 56.5878 43.1227 57.1425 42.952 57.4411C42.7813 57.7291 42.5253 57.8731 42.184 57.8731ZM57.5666 58.4971C56.9053 58.4971 56.372 58.2678 55.9666 57.8091C55.5613 57.3398 55.3586 56.5878 55.3586 55.5531C55.3586 54.8918 55.4333 54.2305 55.5826 53.5691C55.7426 52.8971 55.9613 52.2625 56.2386 51.6651C56.5266 51.0571 56.8573 50.5185 57.2306 50.0491C57.6146 49.5798 58.036 49.2118 58.4946 48.9451C58.9533 48.6678 59.428 48.5291 59.9186 48.5291C60.7506 48.5291 61.4013 48.7531 61.8706 49.2011C62.34 49.6491 62.5746 50.2198 62.5746 50.9131C62.5746 51.4465 62.4253 51.9318 62.1266 52.3691C61.8386 52.7958 61.444 53.1798 60.9426 53.5211C60.4413 53.8625 59.8813 54.1718 59.2626 54.4491C58.644 54.7265 58.0093 54.9771 57.3586 55.2011C57.3053 55.5851 57.2786 55.9265 57.2786 56.2251C57.2786 56.4065 57.38 56.4971 57.5826 56.4971C58.0626 56.4971 58.5746 56.4225 59.1186 56.2731C59.6733 56.1131 60.2333 55.9105 60.7986 55.6651C61.364 55.4091 61.908 55.1478 62.4306 54.8811C62.9533 54.6038 63.428 54.3425 63.8546 54.0971C64.292 53.8411 64.6493 53.6385 64.9266 53.4891C65.2146 53.3291 65.4013 53.2491 65.4866 53.2491C65.7213 53.2491 65.892 53.3185 65.9986 53.4571C66.1053 53.5958 66.1586 53.7451 66.1586 53.9051C66.1586 53.9798 66.0146 54.1451 65.7266 54.4011C65.4493 54.6571 65.0653 54.9611 64.5746 55.3131C64.0946 55.6545 63.5506 56.0118 62.9426 56.3851C62.3453 56.7478 61.7213 57.0945 61.0706 57.4251C60.4306 57.7451 59.8066 58.0011 59.1986 58.1931C58.6013 58.3958 58.0573 58.4971 57.5666 58.4971ZM57.6306 53.7771C58.068 53.5211 58.5 53.2545 58.9266 52.9771C59.364 52.6891 59.7266 52.3691 60.0146 52.0171C60.3026 51.6545 60.4466 51.2331 60.4466 50.7531C60.4466 50.6145 60.4093 50.5238 60.3346 50.4811C60.26 50.4278 60.1533 50.4011 60.0146 50.4011C59.6413 50.4011 59.3 50.5665 58.9906 50.8971C58.692 51.2278 58.4253 51.6545 58.1906 52.1771C57.9666 52.6891 57.78 53.2225 57.6306 53.7771ZM72.0522 49.3931C72.6389 47.9958 73.1562 46.5558 73.6042 45.0731C73.6896 44.7745 73.8122 44.5451 73.9722 44.3851C74.1429 44.2251 74.3776 44.1451 74.6762 44.1451C74.9216 44.1451 75.1082 44.2198 75.2362 44.3691C75.3642 44.5078 75.4282 44.6998 75.4282 44.9451C75.4282 45.1478 75.3429 45.5105 75.1722 46.0331C75.0016 46.5451 74.7936 47.1958 74.5483 47.9851C74.3029 48.7745 74.0576 49.6865 73.8123 50.7211C73.5669 51.7558 73.3589 52.8918 73.1882 54.1291C73.0176 55.3665 72.9323 56.6891 72.9323 58.0971C72.9323 58.4811 72.8576 58.7958 72.7083 59.0411C72.5696 59.2971 72.3242 59.4251 71.9722 59.4251C71.5882 59.4251 71.3056 59.2918 71.1242 59.0251C70.9536 58.7585 70.8682 58.4171 70.8682 58.0011C70.8682 57.1798 70.8949 56.4971 70.9482 55.9531C71.0122 55.3985 71.0762 54.9238 71.1402 54.5291C70.6176 55.4251 70.0629 56.1985 69.4762 56.8491C68.9002 57.4891 68.3456 57.9798 67.8122 58.3211C67.2789 58.6731 66.8202 58.8491 66.4362 58.8491C65.8069 58.8491 65.2949 58.6731 64.9002 58.3211C64.5056 57.9691 64.3082 57.4358 64.3082 56.7211C64.3082 56.1665 64.4416 55.5958 64.7082 55.0091C64.9749 54.4118 65.3269 53.8251 65.7642 53.2491C66.2016 52.6731 66.6816 52.1345 67.2042 51.6331C67.7376 51.1211 68.2709 50.6731 68.8042 50.2891C69.3376 49.8945 69.8336 49.5851 70.2922 49.3611C70.7509 49.1371 71.1242 49.0251 71.4122 49.0251C71.7322 49.0251 71.9456 49.1478 72.0522 49.3931ZM71.6842 50.2571C71.6202 50.2998 71.5509 50.3425 71.4762 50.3851C71.4122 50.4171 71.3482 50.4545 71.2842 50.4971C70.8789 50.7531 70.4469 51.0625 69.9882 51.4251C69.5296 51.7771 69.0762 52.1718 68.6282 52.6091C68.1802 53.0358 67.7696 53.4838 67.3962 53.9531C67.0336 54.4118 66.7402 54.8705 66.5162 55.3291C66.3029 55.7771 66.1962 56.2091 66.1962 56.6251C66.1962 56.6998 66.2282 56.7531 66.2922 56.7851C66.3562 56.8171 66.4149 56.8331 66.4682 56.8331C66.8416 56.8331 67.2416 56.6678 67.6682 56.3371C68.1056 56.0065 68.5482 55.5478 68.9962 54.9611C69.4549 54.3638 69.9082 53.6651 70.3562 52.8651C70.8149 52.0651 71.2576 51.1958 71.6842 50.2571ZM88.0971 58.5291C87.6598 58.5291 87.3291 58.4598 87.1051 58.3211C86.8918 58.1931 86.7478 58.0438 86.6731 57.8731C86.6091 57.7025 86.5771 57.5691 86.5771 57.4731C86.5771 57.1638 86.7158 56.9078 86.9931 56.7051C87.2811 56.4918 87.6011 56.3851 87.9531 56.3851C88.2945 56.3851 88.7158 56.3371 89.2171 56.2411C89.7291 56.1345 90.2678 55.9851 90.8331 55.7931C91.4091 55.6011 91.9585 55.3611 92.4811 55.0731C93.0145 54.7851 93.4785 54.4545 93.8731 54.0811C94.2678 53.7078 94.5398 53.2971 94.6891 52.8491C94.4545 52.8065 94.2198 52.7745 93.9851 52.7531C93.7505 52.7211 93.5158 52.7051 93.2811 52.7051C92.4918 52.7051 91.6758 52.7905 90.8331 52.9611C89.9905 53.1318 89.1531 53.2971 88.3211 53.4571C88.1185 53.4998 87.9371 53.4625 87.7771 53.3451C87.7558 53.5691 87.7345 53.7771 87.7131 53.9691C87.7025 54.1505 87.6918 54.3478 87.6811 54.5611C87.6598 55.0838 87.6118 55.4891 87.5371 55.7771C87.4731 56.0545 87.3985 56.2518 87.3131 56.3691C87.2278 56.4865 87.1371 56.5558 87.0411 56.5771C86.9451 56.5985 86.8545 56.6091 86.7691 56.6091C86.7371 56.6091 86.7158 56.6091 86.7051 56.6091C86.5131 56.6091 86.3318 56.5611 86.1611 56.4651C85.9905 56.3691 85.8518 56.1718 85.7451 55.8731C85.6385 55.5638 85.5851 55.0998 85.5851 54.4811C85.5851 52.5185 85.7985 50.8545 86.2251 49.4891C86.6625 48.1131 87.2865 47.0678 88.0971 46.3531C88.9185 45.6278 89.8998 45.2651 91.0411 45.2651C91.9371 45.2651 92.6358 45.5105 93.1371 46.0011C93.6385 46.4811 93.8891 47.1745 93.8891 48.0811C93.8891 48.5398 93.7985 48.9985 93.6171 49.4571C93.4358 49.9158 93.1798 50.3691 92.8491 50.8171C93.0518 50.7745 93.2491 50.7425 93.4411 50.7211C93.6331 50.6891 93.8145 50.6731 93.9851 50.6731C94.9878 50.6731 95.7291 50.8545 96.2091 51.2171C96.6891 51.5691 96.9291 52.0438 96.9291 52.6411C96.9291 53.2385 96.7585 53.7985 96.4171 54.3211C96.0865 54.8438 95.6438 55.3238 95.0891 55.7611C94.5451 56.1878 93.9425 56.5771 93.2811 56.9291C92.6198 57.2705 91.9585 57.5638 91.2971 57.8091C90.6358 58.0438 90.0225 58.2198 89.4571 58.3371C88.8918 58.4651 88.4385 58.5291 88.0971 58.5291ZM87.9691 51.6971C88.0331 51.6651 88.1025 51.6438 88.1771 51.6331C89.1371 51.4731 89.8731 51.2545 90.3851 50.9771C90.8971 50.6998 91.2491 50.3531 91.4411 49.9371C91.6331 49.5211 91.7291 49.0251 91.7291 48.4491C91.7291 48.2998 91.7078 48.1398 91.6651 47.9691C91.6225 47.7985 91.5371 47.6545 91.4091 47.5371C91.2918 47.4091 91.1105 47.3451 90.8651 47.3451C90.0545 47.3451 89.4198 47.7131 88.9611 48.4491C88.5131 49.1745 88.1825 50.2571 87.9691 51.6971ZM102.626 58.7531C101.666 58.7531 100.909 58.4598 100.354 57.8731C99.8099 57.2758 99.5379 56.4278 99.5379 55.3291C99.5379 54.7318 99.6179 54.0331 99.7779 53.2331C99.9379 52.4225 100.146 51.5691 100.402 50.6731C100.669 49.7665 100.951 48.8705 101.25 47.9851C101.559 47.0998 101.863 46.2785 102.162 45.5211C102.461 44.7638 102.722 44.1291 102.946 43.6171C103.138 43.2225 103.41 43.0251 103.762 43.0251C103.986 43.0251 104.167 43.0945 104.306 43.2331C104.455 43.3718 104.53 43.5958 104.53 43.9051C104.53 44.0545 104.455 44.3798 104.306 44.8811C104.157 45.3825 103.959 46.0011 103.714 46.7371C103.479 47.4625 103.223 48.2465 102.946 49.0891C102.679 49.9318 102.423 50.7798 102.178 51.6331C101.943 52.4865 101.751 53.2918 101.602 54.0491C101.453 54.7958 101.378 55.4305 101.378 55.9531C101.378 56.1665 101.437 56.3371 101.554 56.4651C101.682 56.5931 101.847 56.6571 102.05 56.6571C102.487 56.6571 102.935 56.5771 103.394 56.4171C103.863 56.2571 104.322 56.0545 104.77 55.8091C105.229 55.5638 105.661 55.3025 106.066 55.0251C106.471 54.7478 106.834 54.4865 107.154 54.2411C107.485 53.9851 107.751 53.7825 107.954 53.6331C108.221 53.4305 108.402 53.3291 108.498 53.3291C108.861 53.3291 109.042 53.5051 109.042 53.8571C109.042 53.9425 108.935 54.1185 108.722 54.3851C108.541 54.6198 108.285 54.9185 107.954 55.2811C107.623 55.6438 107.239 56.0278 106.802 56.4331C106.375 56.8278 105.917 57.2011 105.426 57.5531C104.946 57.9051 104.466 58.1931 103.986 58.4171C103.506 58.6411 103.053 58.7531 102.626 58.7531ZM114.013 58.6731C113.768 58.6731 113.544 58.5718 113.341 58.3691C113.149 58.1771 113.053 57.8518 113.053 57.3931C113.053 57.0518 113.08 56.5771 113.133 55.9691C113.197 55.3505 113.315 54.5558 113.485 53.5851C113.112 54.3531 112.723 55.0358 112.317 55.6331C111.912 56.2305 111.512 56.6998 111.117 57.0411C110.733 57.3718 110.365 57.5371 110.013 57.5371C109.448 57.5371 109 57.3665 108.669 57.0251C108.339 56.6731 108.173 56.0171 108.173 55.0571C108.173 54.5985 108.211 54.0811 108.285 53.5051C108.371 52.9291 108.477 52.3531 108.605 51.7771C108.733 51.2011 108.861 50.6891 108.989 50.2411C109.128 49.7825 109.251 49.4411 109.357 49.2171C109.443 49.0251 109.549 48.8758 109.677 48.7691C109.816 48.6625 109.992 48.6091 110.205 48.6091C110.547 48.6091 110.808 48.7211 110.989 48.9451C111.171 49.1691 111.261 49.3985 111.261 49.6331C111.261 49.8145 111.219 50.0758 111.133 50.4171C111.059 50.7585 110.963 51.1371 110.845 51.5531C110.739 51.9691 110.627 52.3958 110.509 52.8331C110.392 53.2705 110.291 53.6811 110.205 54.0651C110.131 54.4491 110.093 54.7745 110.093 55.0411C110.093 55.3718 110.221 55.5371 110.477 55.5371C110.627 55.5371 110.819 55.3931 111.053 55.1051C111.299 54.8171 111.555 54.4331 111.821 53.9531C112.099 53.4625 112.376 52.9291 112.653 52.3531C112.941 51.7665 113.203 51.1745 113.437 50.5771C113.683 49.9691 113.891 49.4091 114.061 48.8971C114.168 48.5771 114.312 48.3531 114.493 48.2251C114.675 48.0971 114.883 48.0331 115.117 48.0331C115.48 48.0331 115.757 48.1345 115.949 48.3371C116.152 48.5398 116.253 48.8278 116.253 49.2011C116.253 49.3718 116.227 49.6598 116.173 50.0651C116.12 50.4705 116.051 50.9451 115.965 51.4891C115.891 52.0331 115.8 52.6091 115.693 53.2171C115.587 53.8251 115.48 54.4225 115.373 55.0091C115.277 55.5958 115.181 56.1345 115.085 56.6251C114.989 57.1051 114.909 57.4891 114.845 57.7771C114.739 58.2038 114.611 58.4598 114.461 58.5451C114.312 58.6305 114.163 58.6731 114.013 58.6731ZM120.748 58.4971C120.087 58.4971 119.553 58.2678 119.148 57.8091C118.743 57.3398 118.54 56.5878 118.54 55.5531C118.54 54.8918 118.615 54.2305 118.764 53.5691C118.924 52.8971 119.143 52.2625 119.42 51.6651C119.708 51.0571 120.039 50.5185 120.412 50.0491C120.796 49.5798 121.217 49.2118 121.676 48.9451C122.135 48.6678 122.609 48.5291 123.1 48.5291C123.932 48.5291 124.583 48.7531 125.052 49.2011C125.521 49.6491 125.756 50.2198 125.756 50.9131C125.756 51.4465 125.607 51.9318 125.308 52.3691C125.02 52.7958 124.625 53.1798 124.124 53.5211C123.623 53.8625 123.063 54.1718 122.444 54.4491C121.825 54.7265 121.191 54.9771 120.54 55.2011C120.487 55.5851 120.46 55.9265 120.46 56.2251C120.46 56.4065 120.561 56.4971 120.764 56.4971C121.244 56.4971 121.756 56.4225 122.3 56.2731C122.855 56.1131 123.415 55.9105 123.98 55.6651C124.545 55.4091 125.089 55.1478 125.612 54.8811C126.135 54.6038 126.609 54.3425 127.036 54.0971C127.473 53.8411 127.831 53.6385 128.108 53.4891C128.396 53.3291 128.583 53.2491 128.668 53.2491C128.903 53.2491 129.073 53.3185 129.18 53.4571C129.287 53.5958 129.34 53.7451 129.34 53.9051C129.34 53.9798 129.196 54.1451 128.908 54.4011C128.631 54.6571 128.247 54.9611 127.756 55.3131C127.276 55.6545 126.732 56.0118 126.124 56.3851C125.527 56.7478 124.903 57.0945 124.252 57.4251C123.612 57.7451 122.988 58.0011 122.38 58.1931C121.783 58.3958 121.239 58.4971 120.748 58.4971ZM120.812 53.7771C121.249 53.5211 121.681 53.2545 122.108 52.9771C122.545 52.6891 122.908 52.3691 123.196 52.0171C123.484 51.6545 123.628 51.2331 123.628 50.7531C123.628 50.6145 123.591 50.5238 123.516 50.4811C123.441 50.4278 123.335 50.4011 123.196 50.4011C122.823 50.4011 122.481 50.5665 122.172 50.8971C121.873 51.2278 121.607 51.6545 121.372 52.1771C121.148 52.6891 120.961 53.2225 120.812 53.7771ZM136.889 59.7451C136.622 59.7451 136.393 59.6651 136.201 59.5051C136.009 59.3558 135.923 59.0465 135.945 58.5771C135.966 58.0545 136.003 57.5105 136.057 56.9451C136.11 56.3798 136.169 55.8518 136.233 55.3611C136.371 54.2838 136.403 53.4518 136.329 52.8651C136.265 52.2678 136.099 51.8411 135.833 51.5851C135.577 51.3291 135.23 51.1585 134.793 51.0731C134.579 51.0305 134.409 50.9505 134.281 50.8331C134.153 50.7051 134.089 50.5398 134.089 50.3371C134.089 50.0705 134.195 49.8945 134.409 49.8091C134.611 49.7238 134.873 49.6811 135.193 49.6811C135.438 49.6811 135.753 49.6971 136.137 49.7291C136.531 49.7505 136.953 49.7665 137.401 49.7771C137.774 48.5505 138.195 47.5371 138.665 46.7371C139.134 45.9371 139.646 45.3078 140.201 44.8491C140.755 44.3798 141.342 44.0545 141.961 43.8731C142.579 43.6811 143.219 43.5851 143.881 43.5851C144.702 43.5851 145.113 43.8785 145.113 44.4651C145.113 44.7531 144.974 44.9718 144.697 45.1211C144.419 45.2705 143.998 45.3931 143.433 45.4891C142.761 45.6065 142.169 45.8251 141.657 46.1451C141.155 46.4651 140.713 46.9185 140.329 47.5051C139.955 48.0918 139.625 48.8491 139.337 49.7771C140.819 49.7451 142.035 49.6651 142.985 49.5371C143.934 49.4091 144.665 49.2865 145.177 49.1691C145.699 49.0411 146.062 48.9771 146.265 48.9771C146.553 48.9771 146.729 49.0465 146.793 49.1851C146.867 49.3238 146.905 49.4731 146.905 49.6331C146.905 49.8145 146.734 50.0011 146.393 50.1931C146.169 50.3211 145.811 50.4651 145.321 50.6251C144.83 50.7745 144.254 50.9238 143.593 51.0731C142.931 51.2118 142.233 51.3291 141.497 51.4251C140.771 51.5105 140.062 51.5531 139.369 51.5531C139.198 51.5531 139.043 51.5531 138.905 51.5531C138.787 52.1718 138.67 52.8278 138.553 53.5211C138.446 54.2038 138.35 54.8705 138.265 55.5211C138.179 56.1718 138.105 56.7638 138.041 57.2971C137.987 57.8305 137.955 58.2571 137.945 58.5771C137.934 58.9718 137.833 59.2651 137.641 59.4571C137.449 59.6491 137.198 59.7451 136.889 59.7451ZM145.045 57.1931C144.746 57.1931 144.479 57.0918 144.245 56.8891C144.021 56.6865 143.909 56.3558 143.909 55.8971C143.909 55.6518 143.941 55.3051 144.005 54.8571C144.079 54.4091 144.175 53.9238 144.293 53.4011C144.41 52.8678 144.538 52.3398 144.677 51.8171C144.826 51.2945 144.97 50.8305 145.109 50.4251C145.247 50.0091 145.37 49.6998 145.477 49.4971C145.615 49.2518 145.743 49.1025 145.861 49.0491C145.989 48.9851 146.111 48.9531 146.229 48.9531C146.442 48.9531 146.639 49.0171 146.821 49.1451C147.013 49.2731 147.109 49.5558 147.109 49.9931C147.109 50.1638 147.077 50.4411 147.013 50.8251C146.949 51.1985 146.869 51.6358 146.773 52.1371C146.677 52.6385 146.57 53.1558 146.453 53.6891C146.346 54.2225 146.239 54.7291 146.133 55.2091C146.037 55.6785 145.957 56.0731 145.893 56.3931C145.839 56.6598 145.727 56.8571 145.557 56.9851C145.397 57.1238 145.226 57.1931 145.045 57.1931ZM146.885 47.3691C146.533 47.3691 146.207 47.2678 145.909 47.0651C145.61 46.8518 145.461 46.5265 145.461 46.0891C145.461 45.7265 145.551 45.4331 145.733 45.2091C145.914 44.9851 146.127 44.8251 146.373 44.7291C146.629 44.6225 146.853 44.5691 147.045 44.5691C147.237 44.5691 147.45 44.6118 147.685 44.6971C147.919 44.7718 148.122 44.9158 148.293 45.1291C148.474 45.3318 148.565 45.6251 148.565 46.0091C148.565 46.2651 148.474 46.4998 148.293 46.7131C148.111 46.9158 147.887 47.0758 147.621 47.1931C147.365 47.3105 147.119 47.3691 146.885 47.3691ZM152.76 58.7531C151.8 58.7531 151.043 58.4598 150.488 57.8731C149.944 57.2758 149.672 56.4278 149.672 55.3291C149.672 54.7318 149.752 54.0331 149.912 53.2331C150.072 52.4225 150.28 51.5691 150.536 50.6731C150.803 49.7665 151.086 48.8705 151.384 47.9851C151.694 47.0998 151.998 46.2785 152.296 45.5211C152.595 44.7638 152.856 44.1291 153.08 43.6171C153.272 43.2225 153.544 43.0251 153.896 43.0251C154.12 43.0251 154.302 43.0945 154.44 43.2331C154.59 43.3718 154.664 43.5958 154.664 43.9051C154.664 44.0545 154.59 44.3798 154.44 44.8811C154.291 45.3825 154.094 46.0011 153.848 46.7371C153.614 47.4625 153.358 48.2465 153.08 49.0891C152.814 49.9318 152.558 50.7798 152.312 51.6331C152.078 52.4865 151.886 53.2918 151.736 54.0491C151.587 54.7958 151.512 55.4305 151.512 55.9531C151.512 56.1665 151.571 56.3371 151.688 56.4651C151.816 56.5931 151.982 56.6571 152.184 56.6571C152.622 56.6571 153.07 56.5771 153.528 56.4171C153.998 56.2571 154.456 56.0545 154.904 55.8091C155.363 55.5638 155.795 55.3025 156.2 55.0251C156.606 54.7478 156.968 54.4865 157.288 54.2411C157.619 53.9851 157.886 53.7825 158.088 53.6331C158.355 53.4305 158.536 53.3291 158.632 53.3291C158.995 53.3291 159.176 53.5051 159.176 53.8571C159.176 53.9425 159.07 54.1185 158.856 54.3851C158.675 54.6198 158.419 54.9185 158.088 55.2811C157.758 55.6438 157.374 56.0278 156.936 56.4331C156.51 56.8278 156.051 57.2011 155.56 57.5531C155.08 57.9051 154.6 58.1931 154.12 58.4171C153.64 58.6411 153.187 58.7531 152.76 58.7531ZM169.741 49.8891C169.741 50.0171 169.698 50.1291 169.613 50.2251C169.528 50.3211 169.421 50.3958 169.293 50.4491C169.112 50.5238 168.797 50.6198 168.349 50.7371C167.901 50.8545 167.357 50.9878 166.717 51.1371C166.088 51.2865 165.41 51.4411 164.685 51.6011C163.96 51.7505 163.234 51.8945 162.509 52.0331C162.232 53.0571 161.949 54.1131 161.661 55.2011C161.373 56.2785 161.085 57.3398 160.797 58.3851C160.69 58.7585 160.562 59.0411 160.413 59.2331C160.264 59.4358 160.008 59.5371 159.645 59.5371C159.25 59.5371 158.984 59.4091 158.845 59.1531C158.717 58.9078 158.701 58.5718 158.797 58.1451C159.074 56.9825 159.33 55.8998 159.565 54.8971C159.81 53.8945 160.008 53.0838 160.157 52.4651C159.517 52.5718 158.957 52.6571 158.477 52.7211C157.997 52.7745 157.656 52.7958 157.453 52.7851C157.229 52.7638 157.042 52.6731 156.893 52.5131C156.744 52.3531 156.674 52.1558 156.685 51.9211C156.706 51.7078 156.802 51.5265 156.973 51.3771C157.144 51.2171 157.346 51.1211 157.581 51.0891C157.912 51.0571 158.338 51.0091 158.861 50.9451C159.384 50.8811 159.96 50.8065 160.589 50.7211C160.728 50.1771 160.888 49.6171 161.069 49.0411C161.25 48.4545 161.437 47.8945 161.629 47.3611C161.832 46.8171 162.024 46.3425 162.205 45.9371C162.386 45.5318 162.552 45.2385 162.701 45.0571C162.818 44.9185 162.962 44.8118 163.133 44.7371C163.314 44.6625 163.49 44.6251 163.661 44.6251C163.885 44.6251 164.066 44.7051 164.205 44.8651C164.344 45.0251 164.413 45.2118 164.413 45.4251C164.413 45.5105 164.408 45.6011 164.397 45.6971C164.386 45.7825 164.365 45.8678 164.333 45.9531C164.13 46.4865 163.912 47.1318 163.677 47.8891C163.453 48.6465 163.218 49.4785 162.973 50.3851C163.773 50.2678 164.557 50.1505 165.325 50.0331C166.104 49.9051 166.808 49.7878 167.437 49.6811C168.077 49.5638 168.589 49.4625 168.973 49.3771C169.186 49.3025 169.368 49.3185 169.517 49.4251C169.666 49.5211 169.741 49.6758 169.741 49.8891ZM170.242 58.4971C169.58 58.4971 169.047 58.2678 168.642 57.8091C168.236 57.3398 168.034 56.5878 168.034 55.5531C168.034 54.8918 168.108 54.2305 168.258 53.5691C168.418 52.8971 168.636 52.2625 168.914 51.6651C169.202 51.0571 169.532 50.5185 169.906 50.0491C170.29 49.5798 170.711 49.2118 171.17 48.9451C171.628 48.6678 172.103 48.5291 172.594 48.5291C173.426 48.5291 174.076 48.7531 174.546 49.2011C175.015 49.6491 175.25 50.2198 175.25 50.9131C175.25 51.4465 175.1 51.9318 174.802 52.3691C174.514 52.7958 174.119 53.1798 173.618 53.5211C173.116 53.8625 172.556 54.1718 171.938 54.4491C171.319 54.7265 170.684 54.9771 170.034 55.2011C169.98 55.5851 169.954 55.9265 169.954 56.2251C169.954 56.4065 170.055 56.4971 170.258 56.4971C170.738 56.4971 171.25 56.4225 171.794 56.2731C172.348 56.1131 172.908 55.9105 173.474 55.6651C174.039 55.4091 174.583 55.1478 175.106 54.8811C175.628 54.6038 176.103 54.3425 176.53 54.0971C176.967 53.8411 177.324 53.6385 177.602 53.4891C177.89 53.3291 178.076 53.2491 178.162 53.2491C178.396 53.2491 178.567 53.3185 178.674 53.4571C178.78 53.5958 178.834 53.7451 178.834 53.9051C178.834 53.9798 178.69 54.1451 178.402 54.4011C178.124 54.6571 177.74 54.9611 177.25 55.3131C176.77 55.6545 176.226 56.0118 175.618 56.3851C175.02 56.7478 174.396 57.0945 173.746 57.4251C173.106 57.7451 172.482 58.0011 171.874 58.1931C171.276 58.3958 170.732 58.4971 170.242 58.4971ZM170.306 53.7771C170.743 53.5211 171.175 53.2545 171.602 52.9771C172.039 52.6891 172.402 52.3691 172.69 52.0171C172.978 51.6545 173.122 51.2331 173.122 50.7531C173.122 50.6145 173.084 50.5238 173.01 50.4811C172.935 50.4278 172.828 50.4011 172.69 50.4011C172.316 50.4011 171.975 50.5665 171.666 50.8971C171.367 51.2278 171.1 51.6545 170.866 52.1771C170.642 52.6891 170.455 53.2225 170.306 53.7771ZM178.592 58.6571C178.325 58.6571 178.096 58.5611 177.904 58.3691C177.722 58.1771 177.632 57.8998 177.632 57.5371C177.632 57.3771 177.653 57.1158 177.696 56.7531C177.749 56.3798 177.813 55.9531 177.888 55.4731C177.973 54.9931 178.053 54.4918 178.128 53.9691C178.213 53.4465 178.282 52.9505 178.336 52.4811C178.4 52.0118 178.442 51.6118 178.464 51.2811C178.485 50.8758 178.592 50.5878 178.784 50.4171C178.976 50.2358 179.205 50.1451 179.472 50.1451C179.685 50.1451 179.877 50.1985 180.048 50.3051C180.229 50.4011 180.341 50.6091 180.384 50.9291C180.437 51.2385 180.442 51.6865 180.4 52.2731C180.869 51.4198 181.344 50.6571 181.824 49.9851C182.314 49.3131 182.826 48.7798 183.36 48.3851C184.245 47.7131 185.045 47.3771 185.76 47.3771C186.165 47.3771 186.432 47.4678 186.56 47.6491C186.688 47.8305 186.752 48.0171 186.752 48.2091C186.752 48.3371 186.72 48.4545 186.656 48.5611C186.602 48.6678 186.485 48.7798 186.304 48.8971C186.122 49.0145 185.845 49.1691 185.472 49.3611C184.97 49.6171 184.474 49.9531 183.984 50.3691C183.504 50.7851 183.024 51.3185 182.544 51.9691C182.064 52.6198 181.578 53.4198 181.088 54.3691C180.597 55.3185 180.09 56.4491 179.568 57.7611C179.472 58.1238 179.333 58.3638 179.152 58.4811C178.981 58.5985 178.794 58.6571 178.592 58.6571ZM47.736 77.8891C47.1173 77.8891 46.5093 77.8145 45.912 77.6651C45.3253 77.5158 44.7707 77.3238 44.248 77.0891C44.0133 78.0491 43.8107 79.0998 43.64 80.2411C43.5973 80.5611 43.5333 80.8545 43.448 81.1211C43.3627 81.3771 43.2293 81.5851 43.048 81.7451C42.8667 81.9051 42.6 81.9851 42.248 81.9851C41.9173 81.9851 41.6987 81.8571 41.592 81.6011C41.4853 81.3451 41.432 81.0305 41.432 80.6571C41.432 80.5398 41.4747 80.2358 41.56 79.7451C41.6453 79.2545 41.752 78.6625 41.88 77.9691C42.008 77.2651 42.1413 76.5398 42.28 75.7931C41.8427 75.3558 41.624 74.9558 41.624 74.5931C41.624 74.4118 41.6773 74.2411 41.784 74.0811C41.9013 73.9105 42.1253 73.8251 42.456 73.8251C42.4987 73.8251 42.5573 73.8411 42.632 73.8731C42.7387 73.2758 42.8293 72.7425 42.904 72.2731C42.9893 71.7931 43.0373 71.4465 43.048 71.2331C43.0693 70.8278 43.1333 70.5291 43.24 70.3371C43.3467 70.1345 43.48 70.0011 43.64 69.9371C43.8107 69.8625 43.9813 69.8251 44.152 69.8251C44.376 69.8251 44.5467 69.8731 44.664 69.9691C44.7813 70.0651 44.84 70.2785 44.84 70.6091C44.84 70.9291 44.8347 71.2225 44.824 71.4891C45.3467 70.5931 45.8907 69.9638 46.456 69.6011C47.0213 69.2278 47.64 69.0411 48.312 69.0411C48.9733 69.0411 49.5493 69.2225 50.04 69.5851C50.5307 69.9478 50.9093 70.4705 51.176 71.1531C51.4533 71.8251 51.592 72.6358 51.592 73.5851C51.592 75.0358 51.256 76.1185 50.584 76.8331C49.9227 77.5371 48.9733 77.8891 47.736 77.8891ZM44.792 75.2011C45.1867 75.4145 45.608 75.6011 46.056 75.7611C46.504 75.9105 46.9627 75.9851 47.432 75.9851C48.1893 75.9851 48.744 75.7878 49.096 75.3931C49.4587 74.9985 49.64 74.3478 49.64 73.4411C49.64 71.8305 49.1547 71.0251 48.184 71.0251C47.5653 71.0251 46.9627 71.3718 46.376 72.0651C45.8 72.7585 45.272 73.8038 44.792 75.2011ZM56.4374 82.9291C56.128 82.9291 55.8827 82.8438 55.7014 82.6731C55.5307 82.5131 55.4454 82.2838 55.4454 81.9851C55.4454 81.7078 55.52 81.4731 55.6694 81.2811C55.8187 81.0785 56.1067 80.8865 56.5334 80.7051C56.5654 80.6945 56.5974 80.6838 56.6294 80.6731C56.3627 80.6198 56.176 80.4705 56.0694 80.2251C55.9734 79.9798 55.9254 79.6971 55.9254 79.3771C55.9254 79.1958 55.9574 78.9025 56.0214 78.4971C56.0854 78.0918 56.1654 77.6278 56.2614 77.1051C56.3574 76.5825 56.4587 76.0651 56.5654 75.5531C56.672 75.0305 56.7627 74.5718 56.8374 74.1771C57.04 73.2705 57.3014 72.4705 57.6214 71.7771C57.9414 71.0838 58.3734 70.5451 58.9174 70.1611C59.4614 69.7665 60.16 69.5691 61.0134 69.5691C61.664 69.5691 62.304 69.7078 62.9334 69.9851C63.5734 70.2518 64.1547 70.6305 64.6774 71.1211C65.2 71.6118 65.616 72.1878 65.9254 72.8491C66.2454 73.5105 66.4054 74.2358 66.4054 75.0251C66.4054 75.9211 66.0534 76.8225 65.3494 77.7291C64.6454 78.6358 63.6587 79.5051 62.3894 80.3371C61.1307 81.1585 59.6587 81.8998 57.9734 82.5611C57.696 82.6678 57.4454 82.7531 57.2214 82.8171C57.008 82.8918 56.7467 82.9291 56.4374 82.9291ZM57.8134 80.2091C59.36 79.5905 60.608 78.9985 61.5574 78.4331C62.5067 77.8678 63.1947 77.2705 63.6214 76.6411C64.0587 76.0118 64.2774 75.2971 64.2774 74.4971C64.2774 74.0491 64.128 73.6225 63.8294 73.2171C63.5307 72.8118 63.1467 72.4865 62.6774 72.2411C62.208 71.9851 61.712 71.8571 61.1894 71.8571C60.624 71.8571 60.1707 72.0865 59.8294 72.5451C59.488 72.9931 59.216 73.7611 59.0134 74.8491C58.9174 75.2865 58.816 75.7611 58.7094 76.2731C58.6134 76.7745 58.5174 77.2598 58.4214 77.7291C58.336 78.1878 58.2614 78.5718 58.1974 78.8811C58.144 79.1905 58.112 79.3718 58.1014 79.4251C58.048 79.7451 57.952 80.0065 57.8134 80.2091ZM72.1826 82.0811C71.9053 82.0811 71.7026 81.9478 71.5746 81.6811C71.4466 81.4145 71.3826 80.9398 71.3826 80.2571C71.3826 79.2971 71.4413 78.2838 71.5586 77.2171C71.6866 76.1398 71.852 74.9771 72.0546 73.7291C72.236 72.7371 72.668 71.9745 73.3506 71.4411C74.044 70.9078 74.972 70.4705 76.1346 70.1291C76.86 69.9158 77.612 69.7185 78.3906 69.5371C79.1693 69.3558 79.9 69.2118 80.5826 69.1051C81.276 68.9878 81.8466 68.9291 82.2946 68.9291C82.636 68.9291 82.9026 68.9825 83.0946 69.0891C83.2866 69.1958 83.42 69.3291 83.4946 69.4891C83.58 69.6385 83.6226 69.7771 83.6226 69.9051C83.6226 70.1078 83.5746 70.2891 83.4786 70.4491C83.3826 70.6091 83.1746 70.7318 82.8546 70.8171C82.716 70.8598 82.4226 70.9345 81.9746 71.0411C81.5373 71.1371 80.9986 71.2545 80.3586 71.3931C79.7293 71.5318 79.0626 71.6811 78.3586 71.8411C77.6546 71.9905 76.972 72.1451 76.3106 72.3051C75.66 72.4971 75.18 72.7318 74.8706 73.0091C74.572 73.2758 74.3746 73.6651 74.2786 74.1771C74.2573 74.2838 74.236 74.4331 74.2146 74.6251C74.652 74.4865 75.1213 74.3745 75.6226 74.2891C76.124 74.2038 76.588 74.1398 77.0146 74.0971C77.4413 74.0545 77.756 74.0331 77.9586 74.0331C78.172 74.0331 78.396 74.0705 78.6306 74.1451C78.876 74.2091 79.084 74.3105 79.2546 74.4491C79.436 74.5771 79.5266 74.7425 79.5266 74.9451C79.5266 75.1371 79.452 75.3131 79.3026 75.4731C79.1533 75.6225 78.8493 75.7665 78.3906 75.9051C78.2946 75.9371 78.076 75.9798 77.7346 76.0331C77.404 76.0865 77.0093 76.1558 76.5506 76.2411C76.1026 76.3158 75.644 76.4011 75.1746 76.4971C74.716 76.5931 74.3106 76.6945 73.9586 76.8011C73.884 77.3771 73.8146 77.9531 73.7506 78.5291C73.6866 79.1051 73.6333 79.6065 73.5906 80.0331C73.548 80.4491 73.516 80.7105 73.4946 80.8171C73.4306 81.2118 73.276 81.5211 73.0306 81.7451C72.7853 81.9691 72.5026 82.0811 72.1826 82.0811ZM84.07 82.7691C83.6113 82.7691 83.286 82.7051 83.094 82.5771C82.9127 82.4491 82.822 82.2625 82.822 82.0171C82.822 81.8038 82.8967 81.6225 83.046 81.4731C83.1953 81.3131 83.526 81.1531 84.038 80.9931C84.6353 80.8118 85.2007 80.6038 85.734 80.3691C86.278 80.1238 86.7207 79.8571 87.062 79.5691C87.414 79.2811 87.59 78.9771 87.59 78.6571C87.59 78.4438 87.5153 78.2891 87.366 78.1931C87.2273 78.0971 87.062 78.0491 86.87 78.0491C86.71 78.0491 86.4753 78.0758 86.166 78.1291C85.8673 78.1718 85.5367 78.2305 85.174 78.3051C84.8113 78.3691 84.4593 78.4278 84.118 78.4811C83.7873 78.5238 83.5047 78.5451 83.27 78.5451C82.7153 78.5451 82.3047 78.4225 82.038 78.1771C81.7713 77.9211 81.638 77.5958 81.638 77.2011C81.638 76.9878 81.75 76.6945 81.974 76.3211C82.198 75.9478 82.4967 75.5371 82.87 75.0891C83.2433 74.6411 83.6593 74.1931 84.118 73.7451C84.5767 73.2971 85.0407 72.8865 85.51 72.5131C85.99 72.1291 86.4433 71.8251 86.87 71.6011C87.2967 71.3665 87.6593 71.2491 87.958 71.2491C88.2993 71.2491 88.5713 71.3558 88.774 71.5691C88.9873 71.7825 89.094 72.0705 89.094 72.4331C89.094 72.6038 89.078 72.7905 89.046 72.9931C89.014 73.1851 88.934 73.3611 88.806 73.5211C88.678 73.6705 88.4807 73.7771 88.214 73.8411C87.9473 73.9051 87.5847 73.8945 87.126 73.8091C86.7633 74.0758 86.3847 74.3691 85.99 74.6891C85.606 74.9985 85.2433 75.3238 84.902 75.6651C84.5607 75.9958 84.278 76.3211 84.054 76.6411C84.4487 76.5131 84.8967 76.4118 85.398 76.3371C85.8993 76.2518 86.406 76.2091 86.918 76.2091C87.5367 76.2091 88.038 76.3211 88.422 76.5451C88.8167 76.7585 89.1047 77.0465 89.286 77.4091C89.478 77.7718 89.574 78.1718 89.574 78.6091C89.574 79.0998 89.414 79.5905 89.094 80.0811C88.774 80.5718 88.3473 81.0198 87.814 81.4251C87.2807 81.8305 86.6887 82.1558 86.038 82.4011C85.3873 82.6465 84.7313 82.7691 84.07 82.7691Z" fill="#475467"/>
<path d="M21.4679 23.5096C22.2753 22.665 23.1971 21.9025 23.8722 20.963C29.8824 12.5974 38.5271 8.39187 48.1543 6.11855C51.4778 5.33382 55.2528 5.40919 58.6247 6.08015C68.2624 7.99798 77.0946 11.9611 84.7079 18.2873C86.9023 20.1107 88.7531 22.3475 90.3523 24.9648C89.4721 24.6334 88.5788 24.3328 87.7143 23.9648C85.168 22.8807 82.6718 21.6635 80.0758 20.7187C78.9424 20.3062 77.6079 20.313 76.3764 20.3719C75.9196 20.3938 75.2248 21.0585 75.1365 21.5244C75.0547 21.9564 75.5354 22.8418 75.9418 22.9677C82.6392 25.0418 88.3894 28.9657 94.4514 32.2848C96.5765 33.4483 97.9189 33.1258 98.817 31.056C101.099 25.7976 102.107 20.2475 101.99 14.5089C101.986 14.3184 101.688 14.134 101.237 13.6088C96.5743 15.3583 98.0256 20.3503 95.7284 24.3714C95.1507 23.4098 94.8106 22.6429 94.297 22.0187C84.3588 9.94084 71.2771 3.54844 56.0724 1.16221C53.7568 0.798782 51.2693 0.942535 48.9437 1.33698C40.295 2.80407 32.5844 6.42247 26.2162 12.4787C24.1647 14.4296 22.6935 17.0346 21.1687 19.4728C20.5766 20.4197 20.5702 21.7326 20.2969 22.8787C20.6872 23.089 21.0775 23.2993 21.4679 23.5096Z" fill="url(#paint0_linear_8594_1628)"/>
<defs>
<linearGradient id="paint0_linear_8594_1628" x1="101.999" y1="16.9531" x2="20.2969" y2="16.9531" gradientUnits="userSpaceOnUse">
<stop stop-color="#9BADFF"/>
<stop offset="1" stop-color="#5B9CFC" stop-opacity="0"/>
</linearGradient>
</defs>
</svg>
