<svg width="169" height="83" viewBox="0 0 169 83" fill="none" xmlns="http://www.w3.org/2000/svg">
<path d="M12.704 58.1771C12.3947 58.1771 12.16 58.0811 12 57.8891C11.8507 57.6971 11.776 57.4358 11.776 57.1051C11.776 56.8385 11.7867 56.6091 11.808 56.4171C11.8293 56.2251 11.872 56.0225 11.936 55.8091C12 55.5851 12.08 55.3131 12.176 54.9931C12.2827 54.6625 12.416 54.2411 12.576 53.7291C12.672 53.4305 12.7893 53.0411 12.928 52.5611C13.0773 52.0705 13.2267 51.5371 13.376 50.9611C13.5253 50.3745 13.648 49.7878 13.744 49.2011C13.8507 48.6038 13.904 48.0545 13.904 47.5531C13.904 47.2118 13.8293 46.8971 13.68 46.6091C12.688 47.5905 11.7493 48.8705 10.864 50.4491C9.98933 52.0278 9.21067 53.8625 8.528 55.9531C8.32533 56.4758 8.09067 56.8278 7.824 57.0091C7.55733 57.1798 7.30133 57.2651 7.056 57.2651C6.98133 57.2651 6.86933 57.2225 6.72 57.1371C6.57067 57.0411 6.432 56.8705 6.304 56.6251C6.176 56.3798 6.112 56.0331 6.112 55.5851C6.112 55.4785 6.13867 55.3451 6.192 55.1851C6.24533 55.0145 6.32533 54.8331 6.432 54.6411C6.528 54.0865 6.59733 53.4945 6.64 52.8651C6.69333 52.2251 6.72533 51.5905 6.736 50.9611C6.75733 50.3211 6.768 49.7238 6.768 49.1691C6.768 48.7425 6.736 48.3691 6.672 48.0491C6.14933 48.7105 5.65333 49.5105 5.184 50.4491C4.71467 51.3878 4.288 52.3851 3.904 53.4411C3.53067 54.4971 3.22133 55.5318 2.976 56.5451C2.912 56.7905 2.83733 57.0198 2.752 57.2331C2.66667 57.4358 2.53867 57.6011 2.368 57.7291C2.208 57.8465 1.97333 57.9051 1.664 57.9051C1.32267 57.9051 1.06667 57.7665 0.896 57.4891C0.725333 57.2118 0.64 56.8438 0.64 56.3851C0.64 56.0331 0.714667 55.5798 0.864 55.0251C1.01333 54.4598 1.216 53.8465 1.472 53.1851C1.728 52.5131 2.02133 51.8305 2.352 51.1371C2.69333 50.4331 3.05067 49.7558 3.424 49.1051C3.79733 48.4545 4.176 47.8731 4.56 47.3611C4.95467 46.8385 5.328 46.4278 5.68 46.1291C6.04267 45.8198 6.37333 45.6651 6.672 45.6651C6.68267 45.6651 6.69867 45.6651 6.72 45.6651C6.95467 45.6651 7.168 45.6865 7.36 45.7291C7.56267 45.7611 7.73867 45.8731 7.888 46.0651C8.048 46.2465 8.18667 46.5505 8.304 46.9771C8.42133 47.4038 8.52267 48.0065 8.608 48.7851C8.62933 48.9771 8.64533 49.2065 8.656 49.4731C8.66667 49.7291 8.672 49.9958 8.672 50.2731C9.024 49.4838 9.408 48.7425 9.824 48.0491C10.2507 47.3558 10.688 46.7425 11.136 46.2091C11.5947 45.6758 12.048 45.2598 12.496 44.9611C12.944 44.6625 13.36 44.5131 13.744 44.5131C14.192 44.5131 14.608 44.6251 14.992 44.8491C15.376 45.0625 15.6853 45.4251 15.92 45.9371C16.1547 46.4491 16.272 47.1478 16.272 48.0331C16.272 48.9718 16.1867 49.8838 16.016 50.7691C15.8453 51.6438 15.632 52.4705 15.376 53.2491C15.12 54.0278 14.864 54.7425 14.608 55.3931C14.352 56.0331 14.1387 56.5878 13.968 57.0571C13.8293 57.3878 13.6693 57.6598 13.488 57.8731C13.3067 58.0758 13.0453 58.1771 12.704 58.1771ZM19.5072 58.5611C19.1659 58.5611 18.8566 58.4651 18.5792 58.2731C18.3019 58.0918 18.0832 57.8518 17.9232 57.5531C17.7632 57.2438 17.6832 56.9131 17.6832 56.5611C17.6832 55.8998 17.8272 55.2545 18.1152 54.6251C18.4139 53.9958 18.8032 53.3985 19.2832 52.8331C19.7632 52.2678 20.2859 51.7505 20.8512 51.2811C21.4272 50.8011 21.9979 50.3905 22.5633 50.0491C23.1392 49.7078 23.6619 49.4411 24.1312 49.2491C24.6113 49.0571 24.9846 48.9611 25.2513 48.9611C25.5606 48.9611 25.8113 49.0305 26.0033 49.1691C26.2059 49.2971 26.3073 49.4998 26.3073 49.7771C26.3073 49.8625 26.2859 49.9318 26.2432 49.9851C26.3819 50.0171 26.4939 50.0971 26.5793 50.2251C26.6646 50.3531 26.7072 50.5451 26.7072 50.8011C26.7072 50.9078 26.6806 51.1851 26.6272 51.6331C26.5739 52.0811 26.5152 52.6251 26.4513 53.2651C26.3979 53.9051 26.3713 54.5718 26.3713 55.2651C26.3713 55.3718 26.3873 55.4678 26.4193 55.5531C26.4513 55.6278 26.5206 55.6651 26.6272 55.6651C27.0539 55.6651 27.4859 55.5798 27.9233 55.4091C28.3713 55.2278 28.8032 55.0091 29.2192 54.7531C29.6459 54.4865 30.0299 54.2251 30.3713 53.9691C30.7233 53.7025 31.0166 53.4838 31.2513 53.3131C31.4966 53.1318 31.6566 53.0411 31.7313 53.0411C32.0939 53.0411 32.2753 53.2225 32.2753 53.5851C32.2753 53.6811 32.1579 53.8838 31.9233 54.1931C31.6993 54.4918 31.3899 54.8385 30.9953 55.2331C30.6006 55.6171 30.1579 56.0011 29.6673 56.3851C29.1873 56.7585 28.6859 57.0678 28.1632 57.3131C27.6513 57.5585 27.1553 57.6811 26.6753 57.6811C26.0886 57.6811 25.6406 57.5425 25.3313 57.2651C25.0326 56.9878 24.8192 56.6145 24.6912 56.1451C24.5739 55.6651 24.5099 55.1265 24.4992 54.5291C23.9552 55.3078 23.3899 56.0011 22.8032 56.6091C22.2272 57.2065 21.6566 57.6811 21.0912 58.0331C20.5259 58.3851 19.9979 58.5611 19.5072 58.5611ZM25.1713 50.5451C24.1259 51.0465 23.1872 51.6225 22.3552 52.2731C21.5232 52.9131 20.8619 53.5851 20.3712 54.2891C19.8912 54.9931 19.6512 55.6705 19.6512 56.3211C19.6512 56.5025 19.7366 56.5931 19.9072 56.5931C20.1099 56.5931 20.3766 56.4758 20.7072 56.2411C21.0486 56.0065 21.4166 55.6971 21.8112 55.3131C22.2059 54.9185 22.6006 54.4811 22.9952 54.0011C23.3899 53.5105 23.7579 53.0091 24.0992 52.4971C24.4406 51.9851 24.7126 51.4945 24.9152 51.0251C24.9899 50.8545 25.0753 50.6945 25.1713 50.5451ZM32.5334 57.9531C32.2774 57.9531 32.0214 57.8678 31.7654 57.6971C31.52 57.5158 31.3174 57.2598 31.1574 56.9291C30.9974 56.5878 30.9174 56.1771 30.9174 55.6971C30.9174 55.0571 31.0027 54.3745 31.1734 53.6491C31.3547 52.9238 31.5734 52.1985 31.8294 51.4731C32.0854 50.7478 32.336 50.0651 32.5814 49.4251C32.6987 49.1158 32.8427 48.9078 33.0134 48.8011C33.184 48.6838 33.408 48.6251 33.6854 48.6251C34.3147 48.6251 34.6294 48.9398 34.6294 49.5691C34.6294 49.6758 34.5814 49.8838 34.4854 50.1931C34.3894 50.4918 34.2614 50.8598 34.1014 51.2971C33.952 51.7345 33.792 52.2091 33.6214 52.7211C33.4614 53.2225 33.312 53.7345 33.1734 54.2571C33.0454 54.7691 32.944 55.2545 32.8694 55.7131C33.1147 55.3398 33.3867 54.8758 33.6854 54.3211C33.9947 53.7558 34.32 53.1638 34.6614 52.5451C35.0134 51.9265 35.3654 51.3505 35.7174 50.8171C36.0694 50.2731 36.416 49.8305 36.7574 49.4891C37.0987 49.1478 37.424 48.9771 37.7334 48.9771C38 48.9771 38.2507 49.0305 38.4854 49.1371C38.7307 49.2331 38.944 49.4251 39.1254 49.7131C39.3067 49.9905 39.4454 50.3905 39.5414 50.9131C39.648 51.4358 39.7014 52.1238 39.7014 52.9771C39.7014 53.4038 39.7387 53.8198 39.8134 54.2251C39.8987 54.6198 40.0374 54.9505 40.2294 55.2171C40.4214 55.4731 40.6934 55.6011 41.0454 55.6011C41.6534 55.6011 42.1974 55.4891 42.6774 55.2651C43.1574 55.0411 43.5787 54.7798 43.9414 54.4811C44.304 54.1825 44.608 53.9211 44.8534 53.6971C45.0027 53.5478 45.1307 53.4305 45.2374 53.3451C45.3547 53.2598 45.4507 53.2171 45.5254 53.2171C45.7494 53.2171 45.9094 53.2758 46.0054 53.3931C46.112 53.5105 46.1654 53.6705 46.1654 53.8731C46.1654 53.9798 46.0747 54.1771 45.8934 54.4651C45.712 54.7531 45.456 55.0838 45.1254 55.4571C44.8054 55.8198 44.4374 56.1718 44.0214 56.5131C43.6054 56.8545 43.1574 57.1371 42.6774 57.3611C42.1974 57.5851 41.7067 57.6971 41.2054 57.6971C40.3627 57.6971 39.664 57.5478 39.1094 57.2491C38.5654 56.9398 38.16 56.4278 37.8934 55.7131C37.6267 54.9878 37.4934 54.0011 37.4934 52.7531C37.4934 52.7211 37.4934 52.6678 37.4934 52.5931C37.4934 52.2625 37.488 51.9691 37.4774 51.7131C37.4774 51.4571 37.4614 51.2491 37.4294 51.0891C37.248 51.4198 37.0294 51.8145 36.7734 52.2731C36.528 52.7318 36.2614 53.2225 35.9734 53.7451C35.6854 54.2571 35.3867 54.7638 35.0774 55.2651C34.768 55.7558 34.4587 56.2038 34.1494 56.6091C33.8507 57.0145 33.5627 57.3398 33.2854 57.5851C33.008 57.8305 32.7574 57.9531 32.5334 57.9531ZM50.8759 58.6731C50.6305 58.6731 50.4065 58.5718 50.2039 58.3691C50.0119 58.1771 49.9159 57.8518 49.9159 57.3931C49.9159 57.0518 49.9425 56.5771 49.9959 55.9691C50.0599 55.3505 50.1772 54.5558 50.3479 53.5851C49.9745 54.3531 49.5852 55.0358 49.1799 55.6331C48.7745 56.2305 48.3745 56.6998 47.9799 57.0411C47.5959 57.3718 47.2279 57.5371 46.8759 57.5371C46.3105 57.5371 45.8625 57.3665 45.5319 57.0251C45.2012 56.6731 45.0359 56.0171 45.0359 55.0571C45.0359 54.5985 45.0732 54.0811 45.1479 53.5051C45.2332 52.9291 45.3399 52.3531 45.4679 51.7771C45.5959 51.2011 45.7239 50.6891 45.8519 50.2411C45.9905 49.7825 46.1132 49.4411 46.2199 49.2171C46.3052 49.0251 46.4119 48.8758 46.5399 48.7691C46.6785 48.6625 46.8545 48.6091 47.0679 48.6091C47.4092 48.6091 47.6705 48.7211 47.8519 48.9451C48.0332 49.1691 48.1239 49.3985 48.1239 49.6331C48.1239 49.8145 48.0812 50.0758 47.9959 50.4171C47.9212 50.7585 47.8252 51.1371 47.7079 51.5531C47.6012 51.9691 47.4892 52.3958 47.3719 52.8331C47.2545 53.2705 47.1532 53.6811 47.0679 54.0651C46.9932 54.4491 46.9559 54.7745 46.9559 55.0411C46.9559 55.3718 47.0839 55.5371 47.3399 55.5371C47.4892 55.5371 47.6812 55.3931 47.9159 55.1051C48.1612 54.8171 48.4172 54.4331 48.6839 53.9531C48.9612 53.4625 49.2385 52.9291 49.5159 52.3531C49.8039 51.7665 50.0652 51.1745 50.2999 50.5771C50.5452 49.9691 50.7532 49.4091 50.9239 48.8971C51.0305 48.5771 51.1745 48.3531 51.3559 48.2251C51.5372 48.0971 51.7452 48.0331 51.9799 48.0331C52.3425 48.0331 52.6199 48.1345 52.8119 48.3371C53.0145 48.5398 53.1159 48.8278 53.1159 49.2011C53.1159 49.3718 53.0892 49.6598 53.0359 50.0651C52.9825 50.4705 52.9132 50.9451 52.8279 51.4891C52.7532 52.0331 52.6625 52.6091 52.5559 53.2171C52.4492 53.8251 52.3425 54.4225 52.2359 55.0091C52.1399 55.5958 52.0439 56.1345 51.9479 56.6251C51.8519 57.1051 51.7719 57.4891 51.7079 57.7771C51.6012 58.2038 51.4732 58.4598 51.3239 58.5451C51.1745 58.6305 51.0252 58.6731 50.8759 58.6731ZM56.4885 58.5611C56.1472 58.5611 55.8378 58.4651 55.5605 58.2731C55.2832 58.0918 55.0645 57.8518 54.9045 57.5531C54.7445 57.2438 54.6645 56.9131 54.6645 56.5611C54.6645 55.8998 54.8085 55.2545 55.0965 54.6251C55.3952 53.9958 55.7845 53.3985 56.2645 52.8331C56.7445 52.2678 57.2672 51.7505 57.8325 51.2811C58.4085 50.8011 58.9792 50.3905 59.5445 50.0491C60.1205 49.7078 60.6432 49.4411 61.1125 49.2491C61.5925 49.0571 61.9658 48.9611 62.2325 48.9611C62.5418 48.9611 62.7925 49.0305 62.9845 49.1691C63.1872 49.2971 63.2885 49.4998 63.2885 49.7771C63.2885 49.8625 63.2672 49.9318 63.2245 49.9851C63.3632 50.0171 63.4752 50.0971 63.5605 50.2251C63.6458 50.3531 63.6885 50.5451 63.6885 50.8011C63.6885 50.9078 63.6618 51.1851 63.6085 51.6331C63.5552 52.0811 63.4965 52.6251 63.4325 53.2651C63.3792 53.9051 63.3525 54.5718 63.3525 55.2651C63.3525 55.3718 63.3685 55.4678 63.4005 55.5531C63.4325 55.6278 63.5018 55.6651 63.6085 55.6651C64.0352 55.6651 64.4672 55.5798 64.9045 55.4091C65.3525 55.2278 65.7845 55.0091 66.2005 54.7531C66.6272 54.4865 67.0112 54.2251 67.3525 53.9691C67.7045 53.7025 67.9978 53.4838 68.2325 53.3131C68.4778 53.1318 68.6378 53.0411 68.7125 53.0411C69.0752 53.0411 69.2565 53.2225 69.2565 53.5851C69.2565 53.6811 69.1392 53.8838 68.9045 54.1931C68.6805 54.4918 68.3712 54.8385 67.9765 55.2331C67.5818 55.6171 67.1392 56.0011 66.6485 56.3851C66.1685 56.7585 65.6672 57.0678 65.1445 57.3131C64.6325 57.5585 64.1365 57.6811 63.6565 57.6811C63.0698 57.6811 62.6218 57.5425 62.3125 57.2651C62.0138 56.9878 61.8005 56.6145 61.6725 56.1451C61.5552 55.6651 61.4912 55.1265 61.4805 54.5291C60.9365 55.3078 60.3712 56.0011 59.7845 56.6091C59.2085 57.2065 58.6378 57.6811 58.0725 58.0331C57.5072 58.3851 56.9792 58.5611 56.4885 58.5611ZM62.1525 50.5451C61.1072 51.0465 60.1685 51.6225 59.3365 52.2731C58.5045 52.9131 57.8432 53.5851 57.3525 54.2891C56.8725 54.9931 56.6325 55.6705 56.6325 56.3211C56.6325 56.5025 56.7178 56.5931 56.8885 56.5931C57.0912 56.5931 57.3578 56.4758 57.6885 56.2411C58.0298 56.0065 58.3978 55.6971 58.7925 55.3131C59.1872 54.9185 59.5818 54.4811 59.9765 54.0011C60.3712 53.5105 60.7392 53.0091 61.0805 52.4971C61.4218 51.9851 61.6938 51.4945 61.8965 51.0251C61.9712 50.8545 62.0565 50.6945 62.1525 50.5451ZM71.3446 58.7531C70.3846 58.7531 69.6273 58.4598 69.0726 57.8731C68.5286 57.2758 68.2566 56.4278 68.2566 55.3291C68.2566 54.7318 68.3366 54.0331 68.4966 53.2331C68.6566 52.4225 68.8646 51.5691 69.1206 50.6731C69.3873 49.7665 69.67 48.8705 69.9686 47.9851C70.278 47.0998 70.582 46.2785 70.8806 45.5211C71.1793 44.7638 71.4406 44.1291 71.6646 43.6171C71.8566 43.2225 72.1286 43.0251 72.4806 43.0251C72.7046 43.0251 72.886 43.0945 73.0246 43.2331C73.174 43.3718 73.2486 43.5958 73.2486 43.9051C73.2486 44.0545 73.174 44.3798 73.0246 44.8811C72.8753 45.3825 72.678 46.0011 72.4326 46.7371C72.198 47.4625 71.942 48.2465 71.6646 49.0891C71.398 49.9318 71.142 50.7798 70.8966 51.6331C70.662 52.4865 70.47 53.2918 70.3206 54.0491C70.1713 54.7958 70.0966 55.4305 70.0966 55.9531C70.0966 56.1665 70.1553 56.3371 70.2726 56.4651C70.4006 56.5931 70.566 56.6571 70.7686 56.6571C71.206 56.6571 71.654 56.5771 72.1126 56.4171C72.582 56.2571 73.0406 56.0545 73.4886 55.8091C73.9473 55.5638 74.3793 55.3025 74.7846 55.0251C75.19 54.7478 75.5526 54.4865 75.8726 54.2411C76.2033 53.9851 76.47 53.7825 76.6726 53.6331C76.9393 53.4305 77.1206 53.3291 77.2166 53.3291C77.5793 53.3291 77.7606 53.5051 77.7606 53.8571C77.7606 53.9425 77.654 54.1185 77.4406 54.3851C77.2593 54.6198 77.0033 54.9185 76.6726 55.2811C76.342 55.6438 75.958 56.0278 75.5206 56.4331C75.094 56.8278 74.6353 57.2011 74.1446 57.5531C73.6646 57.9051 73.1846 58.1931 72.7046 58.4171C72.2246 58.6411 71.7713 58.7531 71.3446 58.7531ZM91.9456 55.0891C92.2763 55.0891 92.511 55.1798 92.6496 55.3611C92.7883 55.5318 92.8576 55.7131 92.8576 55.9051C92.8576 56.1718 92.7243 56.4545 92.4576 56.7531C92.191 57.0518 91.8443 57.3291 91.4176 57.5851C91.0016 57.8305 90.5536 58.0331 90.0736 58.1931C89.5936 58.3531 89.135 58.4331 88.6976 58.4331C88.047 58.4331 87.423 58.2571 86.8256 57.9051C86.239 57.5425 85.759 57.0358 85.3856 56.3851C85.023 55.7345 84.8416 54.9611 84.8416 54.0651C84.8416 53.3291 84.9803 52.5985 85.2576 51.8731C85.5456 51.1478 85.9243 50.4491 86.3936 49.7771C86.8736 49.1051 87.3963 48.4811 87.9616 47.9051C88.5376 47.3291 89.1136 46.8278 89.6896 46.4011C90.2763 45.9745 90.815 45.6438 91.3056 45.4091C91.7963 45.1638 92.191 45.0411 92.4896 45.0411C92.863 45.0411 93.1403 45.1371 93.3216 45.3291C93.5136 45.5105 93.6096 45.7665 93.6096 46.0971C93.6096 46.3638 93.5563 46.5718 93.4496 46.7211C93.3536 46.8598 93.199 46.9825 92.9856 47.0891C92.303 47.4411 91.6096 47.8678 90.9056 48.3691C90.2123 48.8705 89.5776 49.4251 89.0016 50.0331C88.4256 50.6305 87.9616 51.2598 87.6096 51.9211C87.2576 52.5825 87.0816 53.2545 87.0816 53.9371C87.0816 54.6838 87.231 55.2491 87.5296 55.6331C87.8283 56.0171 88.2336 56.2091 88.7456 56.2091C89.0016 56.2091 89.279 56.1558 89.5776 56.0491C89.8763 55.9318 90.1696 55.7985 90.4576 55.6491C90.7563 55.4998 91.0336 55.3718 91.2896 55.2651C91.5563 55.1478 91.775 55.0891 91.9456 55.0891ZM96.7019 59.2011C96.2112 59.2011 95.8592 59.0625 95.6459 58.7851C95.4325 58.5078 95.3259 58.1025 95.3259 57.5691C95.3259 57.0785 95.4165 56.4385 95.5979 55.6491C95.7899 54.8491 96.0405 53.9585 96.3499 52.9771C96.6699 51.9851 97.0272 50.9665 97.4219 49.9211C97.8165 48.8651 98.2272 47.8305 98.6539 46.8171C99.0805 45.7931 99.4965 44.8545 99.9019 44.0011C100.094 43.6278 100.297 43.3718 100.51 43.2331C100.723 43.0945 100.958 43.0251 101.214 43.0251C101.459 43.0251 101.667 43.0945 101.838 43.2331C102.009 43.3611 102.094 43.5691 102.094 43.8571C102.094 43.9211 102.009 44.1665 101.838 44.5931C101.667 45.0091 101.443 45.5531 101.166 46.2251C100.889 46.8865 100.585 47.6331 100.254 48.4651C99.9232 49.2865 99.5925 50.1451 99.2619 51.0411C98.9312 51.9265 98.6325 52.8011 98.3659 53.6651C98.0992 54.5291 97.8859 55.3291 97.7259 56.0651C98.0992 55.5638 98.4992 55.0091 98.9259 54.4011C99.3632 53.7825 99.8059 53.1691 100.254 52.5611C100.713 51.9425 101.161 51.3771 101.598 50.8651C102.046 50.3531 102.462 49.9425 102.846 49.6331C103.23 49.3238 103.566 49.1691 103.854 49.1691C104.387 49.1691 104.814 49.3185 105.134 49.6171C105.465 49.9051 105.63 50.4065 105.63 51.1211C105.63 51.4518 105.566 51.8518 105.438 52.3211C105.31 52.7798 105.155 53.2651 104.974 53.7771C104.803 54.2785 104.654 54.7638 104.526 55.2331C104.398 55.7025 104.334 56.1131 104.334 56.4651C104.334 56.6571 104.425 56.7531 104.606 56.7531C105.129 56.7531 105.657 56.6411 106.19 56.4171C106.734 56.1931 107.251 55.9158 107.742 55.5851C108.243 55.2438 108.697 54.9078 109.102 54.5771C109.518 54.2358 109.854 53.9531 110.11 53.7291C110.291 53.5585 110.457 53.4465 110.606 53.3931C110.755 53.3291 110.894 53.2971 111.022 53.2971C111.459 53.2971 111.678 53.5158 111.678 53.9531C111.678 54.0385 111.662 54.1451 111.63 54.2731C111.598 54.3905 111.497 54.5398 111.326 54.7211C111.155 54.9025 110.899 55.1585 110.558 55.4891C110.217 55.8198 109.817 56.1718 109.358 56.5451C108.91 56.9185 108.419 57.2758 107.886 57.6171C107.363 57.9478 106.825 58.2198 106.27 58.4331C105.715 58.6465 105.177 58.7531 104.654 58.7531C103.865 58.7531 103.257 58.5291 102.83 58.0811C102.403 57.6438 102.19 57.0465 102.19 56.2891C102.19 55.7665 102.297 55.1105 102.51 54.3211C102.723 53.5211 102.963 52.7051 103.23 51.8731C102.857 52.2358 102.467 52.6678 102.062 53.1691C101.657 53.6598 101.246 54.1825 100.83 54.7371C100.414 55.2811 100.003 55.8198 99.5979 56.3531C99.2032 56.8758 98.8245 57.3558 98.4619 57.7931C98.0992 58.2198 97.7685 58.5611 97.4699 58.8171C97.1712 59.0731 96.9152 59.2011 96.7019 59.2011ZM111.317 58.5611C110.975 58.5611 110.666 58.4651 110.389 58.2731C110.111 58.0918 109.893 57.8518 109.733 57.5531C109.573 57.2438 109.493 56.9131 109.493 56.5611C109.493 55.8998 109.637 55.2545 109.925 54.6251C110.223 53.9958 110.613 53.3985 111.093 52.8331C111.573 52.2678 112.095 51.7505 112.661 51.2811C113.237 50.8011 113.807 50.3905 114.373 50.0491C114.949 49.7078 115.471 49.4411 115.941 49.2491C116.421 49.0571 116.794 48.9611 117.061 48.9611C117.37 48.9611 117.621 49.0305 117.813 49.1691C118.015 49.2971 118.117 49.4998 118.117 49.7771C118.117 49.8625 118.095 49.9318 118.053 49.9851C118.191 50.0171 118.303 50.0971 118.389 50.2251C118.474 50.3531 118.517 50.5451 118.517 50.8011C118.517 50.9078 118.49 51.1851 118.437 51.6331C118.383 52.0811 118.325 52.6251 118.261 53.2651C118.207 53.9051 118.181 54.5718 118.181 55.2651C118.181 55.3718 118.197 55.4678 118.229 55.5531C118.261 55.6278 118.33 55.6651 118.437 55.6651C118.863 55.6651 119.295 55.5798 119.733 55.4091C120.181 55.2278 120.613 55.0091 121.029 54.7531C121.455 54.4865 121.839 54.2251 122.181 53.9691C122.533 53.7025 122.826 53.4838 123.061 53.3131C123.306 53.1318 123.466 53.0411 123.541 53.0411C123.903 53.0411 124.085 53.2225 124.085 53.5851C124.085 53.6811 123.967 53.8838 123.733 54.1931C123.509 54.4918 123.199 54.8385 122.805 55.2331C122.41 55.6171 121.967 56.0011 121.477 56.3851C120.997 56.7585 120.495 57.0678 119.973 57.3131C119.461 57.5585 118.965 57.6811 118.485 57.6811C117.898 57.6811 117.45 57.5425 117.141 57.2651C116.842 56.9878 116.629 56.6145 116.501 56.1451C116.383 55.6651 116.319 55.1265 116.309 54.5291C115.765 55.3078 115.199 56.0011 114.613 56.6091C114.037 57.2065 113.466 57.6811 112.901 58.0331C112.335 58.3851 111.807 58.5611 111.317 58.5611ZM116.981 50.5451C115.935 51.0465 114.997 51.6225 114.165 52.2731C113.333 52.9131 112.671 53.5851 112.181 54.2891C111.701 54.9931 111.461 55.6705 111.461 56.3211C111.461 56.5025 111.546 56.5931 111.717 56.5931C111.919 56.5931 112.186 56.4758 112.517 56.2411C112.858 56.0065 113.226 55.6971 113.621 55.3131C114.015 54.9185 114.41 54.4811 114.805 54.0011C115.199 53.5105 115.567 53.0091 115.909 52.4971C116.25 51.9851 116.522 51.4945 116.725 51.0251C116.799 50.8545 116.885 50.6945 116.981 50.5451ZM123.679 58.6571C123.413 58.6571 123.183 58.5611 122.991 58.3691C122.81 58.1771 122.719 57.8998 122.719 57.5371C122.719 57.3771 122.741 57.1158 122.783 56.7531C122.837 56.3798 122.901 55.9531 122.975 55.4731C123.061 54.9931 123.141 54.4918 123.215 53.9691C123.301 53.4465 123.37 52.9505 123.423 52.4811C123.487 52.0118 123.53 51.6118 123.551 51.2811C123.573 50.8758 123.679 50.5878 123.871 50.4171C124.063 50.2358 124.293 50.1451 124.559 50.1451C124.773 50.1451 124.965 50.1985 125.135 50.3051C125.317 50.4011 125.429 50.6091 125.471 50.9291C125.525 51.2385 125.53 51.6865 125.487 52.2731C125.957 51.4198 126.431 50.6571 126.911 49.9851C127.402 49.3131 127.914 48.7798 128.447 48.3851C129.333 47.7131 130.133 47.3771 130.847 47.3771C131.253 47.3771 131.519 47.4678 131.647 47.6491C131.775 47.8305 131.839 48.0171 131.839 48.2091C131.839 48.3371 131.807 48.4545 131.743 48.5611C131.69 48.6678 131.573 48.7798 131.391 48.8971C131.21 49.0145 130.933 49.1691 130.559 49.3611C130.058 49.6171 129.562 49.9531 129.071 50.3691C128.591 50.7851 128.111 51.3185 127.631 51.9691C127.151 52.6198 126.666 53.4198 126.175 54.3691C125.685 55.3185 125.178 56.4491 124.655 57.7611C124.559 58.1238 124.421 58.3638 124.239 58.4811C124.069 58.5985 123.882 58.6571 123.679 58.6571ZM142.466 49.8891C142.466 50.0171 142.423 50.1291 142.338 50.2251C142.253 50.3211 142.146 50.3958 142.018 50.4491C141.837 50.5238 141.522 50.6198 141.074 50.7371C140.626 50.8545 140.082 50.9878 139.442 51.1371C138.813 51.2865 138.135 51.4411 137.41 51.6011C136.685 51.7505 135.959 51.8945 135.234 52.0331C134.957 53.0571 134.674 54.1131 134.386 55.2011C134.098 56.2785 133.81 57.3398 133.522 58.3851C133.415 58.7585 133.287 59.0411 133.138 59.2331C132.989 59.4358 132.733 59.5371 132.37 59.5371C131.975 59.5371 131.709 59.4091 131.57 59.1531C131.442 58.9078 131.426 58.5718 131.522 58.1451C131.799 56.9825 132.055 55.8998 132.29 54.8971C132.535 53.8945 132.733 53.0838 132.882 52.4651C132.242 52.5718 131.682 52.6571 131.202 52.7211C130.722 52.7745 130.381 52.7958 130.178 52.7851C129.954 52.7638 129.767 52.6731 129.618 52.5131C129.469 52.3531 129.399 52.1558 129.41 51.9211C129.431 51.7078 129.527 51.5265 129.698 51.3771C129.869 51.2171 130.071 51.1211 130.306 51.0891C130.637 51.0571 131.063 51.0091 131.586 50.9451C132.109 50.8811 132.685 50.8065 133.314 50.7211C133.453 50.1771 133.613 49.6171 133.794 49.0411C133.975 48.4545 134.162 47.8945 134.354 47.3611C134.557 46.8171 134.749 46.3425 134.93 45.9371C135.111 45.5318 135.277 45.2385 135.426 45.0571C135.543 44.9185 135.687 44.8118 135.858 44.7371C136.039 44.6625 136.215 44.6251 136.386 44.6251C136.61 44.6251 136.791 44.7051 136.93 44.8651C137.069 45.0251 137.138 45.2118 137.138 45.4251C137.138 45.5105 137.133 45.6011 137.122 45.6971C137.111 45.7825 137.09 45.8678 137.058 45.9531C136.855 46.4865 136.637 47.1318 136.402 47.8891C136.178 48.6465 135.943 49.4785 135.698 50.3851C136.498 50.2678 137.282 50.1505 138.05 50.0331C138.829 49.9051 139.533 49.7878 140.162 49.6811C140.802 49.5638 141.314 49.4625 141.698 49.3771C141.911 49.3025 142.093 49.3185 142.242 49.4251C142.391 49.5211 142.466 49.6758 142.466 49.8891ZM149.088 58.1931C148.79 58.1931 148.523 58.0918 148.288 57.8891C148.064 57.6865 147.952 57.3558 147.952 56.8971C147.952 56.6518 147.984 56.3051 148.048 55.8571C148.123 55.4091 148.219 54.9238 148.336 54.4011C148.454 53.8678 148.582 53.3398 148.72 52.8171C148.87 52.2945 149.014 51.8305 149.152 51.4251C149.291 51.0091 149.414 50.6998 149.52 50.4971C149.659 50.2518 149.787 50.1025 149.904 50.0491C150.032 49.9851 150.155 49.9531 150.272 49.9531C150.486 49.9531 150.683 50.0171 150.864 50.1451C151.056 50.2731 151.152 50.5558 151.152 50.9931C151.152 51.1638 151.12 51.4411 151.056 51.8251C150.992 52.1985 150.912 52.6358 150.816 53.1371C150.72 53.6385 150.614 54.1558 150.496 54.6891C150.39 55.2225 150.283 55.7291 150.176 56.2091C150.08 56.6785 150 57.0731 149.936 57.3931C149.883 57.6598 149.771 57.8571 149.6 57.9851C149.44 58.1238 149.27 58.1931 149.088 58.1931ZM150.928 48.3691C150.576 48.3691 150.251 48.2678 149.952 48.0651C149.654 47.8518 149.504 47.5265 149.504 47.0891C149.504 46.7265 149.595 46.4331 149.776 46.2091C149.958 45.9851 150.171 45.8251 150.416 45.7291C150.672 45.6225 150.896 45.5691 151.088 45.5691C151.28 45.5691 151.494 45.6118 151.728 45.6971C151.963 45.7718 152.166 45.9158 152.336 46.1291C152.518 46.3318 152.608 46.6251 152.608 47.0091C152.608 47.2651 152.518 47.4998 152.336 47.7131C152.155 47.9158 151.931 48.0758 151.664 48.1931C151.408 48.3105 151.163 48.3691 150.928 48.3691ZM155.052 57.9531C154.796 57.9531 154.54 57.8678 154.284 57.6971C154.039 57.5158 153.836 57.2598 153.676 56.9291C153.516 56.5878 153.436 56.1771 153.436 55.6971C153.436 55.0571 153.521 54.3745 153.692 53.6491C153.873 52.9238 154.092 52.1985 154.348 51.4731C154.604 50.7478 154.855 50.0651 155.1 49.4251C155.217 49.1158 155.361 48.9078 155.532 48.8011C155.703 48.6838 155.927 48.6251 156.204 48.6251C156.833 48.6251 157.148 48.9398 157.148 49.5691C157.148 49.6758 157.1 49.8838 157.004 50.1931C156.908 50.4918 156.78 50.8598 156.62 51.2971C156.471 51.7345 156.311 52.2091 156.14 52.7211C155.98 53.2225 155.831 53.7345 155.692 54.2571C155.564 54.7691 155.463 55.2545 155.388 55.7131C155.633 55.3398 155.905 54.8758 156.204 54.3211C156.513 53.7558 156.839 53.1638 157.18 52.5451C157.532 51.9265 157.884 51.3505 158.236 50.8171C158.588 50.2731 158.935 49.8305 159.276 49.4891C159.617 49.1478 159.943 48.9771 160.252 48.9771C160.519 48.9771 160.769 49.0305 161.004 49.1371C161.249 49.2331 161.463 49.4251 161.644 49.7131C161.825 49.9905 161.964 50.3905 162.06 50.9131C162.167 51.4358 162.22 52.1238 162.22 52.9771C162.22 53.4038 162.257 53.8198 162.332 54.2251C162.417 54.6198 162.556 54.9505 162.748 55.2171C162.94 55.4731 163.212 55.6011 163.564 55.6011C164.172 55.6011 164.716 55.4891 165.196 55.2651C165.676 55.0411 166.097 54.7798 166.46 54.4811C166.823 54.1825 167.127 53.9211 167.372 53.6971C167.521 53.5478 167.649 53.4305 167.756 53.3451C167.873 53.2598 167.969 53.2171 168.044 53.2171C168.268 53.2171 168.428 53.2758 168.524 53.3931C168.631 53.5105 168.684 53.6705 168.684 53.8731C168.684 53.9798 168.593 54.1771 168.412 54.4651C168.231 54.7531 167.975 55.0838 167.644 55.4571C167.324 55.8198 166.956 56.1718 166.54 56.5131C166.124 56.8545 165.676 57.1371 165.196 57.3611C164.716 57.5851 164.225 57.6971 163.724 57.6971C162.881 57.6971 162.183 57.5478 161.628 57.2491C161.084 56.9398 160.679 56.4278 160.412 55.7131C160.145 54.9878 160.012 54.0011 160.012 52.7531C160.012 52.7211 160.012 52.6678 160.012 52.5931C160.012 52.2625 160.007 51.9691 159.996 51.7131C159.996 51.4571 159.98 51.2491 159.948 51.0891C159.767 51.4198 159.548 51.8145 159.292 52.2731C159.047 52.7318 158.78 53.2225 158.492 53.7451C158.204 54.2571 157.905 54.7638 157.596 55.2651C157.287 55.7558 156.977 56.2038 156.668 56.6091C156.369 57.0145 156.081 57.3398 155.804 57.5851C155.527 57.8305 155.276 57.9531 155.052 57.9531ZM4.8 82.0811C4.512 82.0811 4.19733 82.0118 3.856 81.8731C3.52533 81.7238 3.21067 81.4731 2.912 81.1211C2.61333 80.7691 2.368 80.2838 2.176 79.6651C1.984 79.0465 1.888 78.2625 1.888 77.3131C1.888 76.6091 1.97867 75.8945 2.16 75.1691C2.352 74.4331 2.65067 73.7398 3.056 73.0891C3.46133 72.4385 3.984 71.8731 4.624 71.3931C5.27467 70.9131 6.05333 70.5771 6.96 70.3851C7.33333 70.2998 7.76 70.2198 8.24 70.1451C8.73067 70.0598 9.22667 69.9851 9.728 69.9211C10.2293 69.8465 10.704 69.7878 11.152 69.7451C11.6107 69.7025 11.9947 69.6811 12.304 69.6811C12.816 69.6811 13.2 69.7505 13.456 69.8891C13.712 70.0278 13.8827 70.1878 13.968 70.3691C14.0533 70.5398 14.096 70.6945 14.096 70.8331C14.096 71.0038 14.0427 71.1745 13.936 71.3451C13.84 71.5158 13.5733 71.6278 13.136 71.6811C13.04 71.6918 12.8373 71.7185 12.528 71.7611C12.2187 71.7931 11.8453 71.8411 11.408 71.9051C10.9813 71.9691 10.528 72.0385 10.048 72.1131C9.57867 72.1771 9.12 72.2465 8.672 72.3211C8.23467 72.3851 7.856 72.4438 7.536 72.4971C6.832 72.6251 6.26133 72.8385 5.824 73.1371C5.38667 73.4251 5.04533 73.7665 4.8 74.1611C4.56533 74.5558 4.39467 74.9718 4.288 75.4091C4.71467 75.3131 5.15733 75.2171 5.616 75.1211C6.07467 75.0251 6.50667 74.9398 6.912 74.8651C7.328 74.7905 7.68533 74.7318 7.984 74.6891C8.28267 74.6465 8.48533 74.6251 8.592 74.6251C9.008 74.6251 9.25867 74.6785 9.344 74.7851C9.44 74.8918 9.488 75.0571 9.488 75.2811C9.488 75.4838 9.30667 75.7185 8.944 75.9851C8.58133 76.2411 8.00533 76.5025 7.216 76.7691C6.42667 77.0358 5.392 77.2705 4.112 77.4731C4.112 77.4838 4.112 77.4891 4.112 77.4891C4.09067 77.7025 4.07467 77.9478 4.064 78.2251C4.05333 78.4918 4.048 78.7585 4.048 79.0251C4.048 79.2918 4.064 79.5105 4.096 79.6811C4.128 79.8518 4.18667 79.9371 4.272 79.9371C4.50667 79.9371 4.832 79.8891 5.248 79.7931C5.664 79.6971 6.10133 79.5798 6.56 79.4411C7.01867 79.3025 7.44533 79.1691 7.84 79.0411C8.23467 78.9025 8.52267 78.7958 8.704 78.7211C8.97067 78.6145 9.23733 78.5078 9.504 78.4011C9.78133 78.2945 10 78.2411 10.16 78.2411C10.32 78.2411 10.4587 78.3051 10.576 78.4331C10.6933 78.5505 10.7307 78.7318 10.688 78.9771C10.6773 79.0838 10.5653 79.2598 10.352 79.5051C10.1493 79.7398 9.86667 80.0065 9.504 80.3051C9.152 80.5931 8.73067 80.8758 8.24 81.1531C7.76 81.4198 7.22667 81.6438 6.64 81.8251C6.064 81.9958 5.45067 82.0811 4.8 82.0811ZM14.53 81.6331C14.274 81.6331 14.0873 81.5478 13.97 81.3771C13.8527 81.1958 13.8047 80.9718 13.826 80.7051C13.8367 80.5558 13.954 80.3425 14.178 80.0651C14.402 79.7771 14.6953 79.4411 15.058 79.0571C15.4207 78.6625 15.8207 78.2411 16.258 77.7931C16.706 77.3345 17.1647 76.8705 17.634 76.4011C17.0473 75.5371 16.6047 74.8438 16.306 74.3211C16.018 73.7985 15.8633 73.3878 15.842 73.0891C15.8207 72.7585 15.874 72.4918 16.002 72.2891C16.1407 72.0865 16.3593 71.9851 16.658 71.9851C16.8287 71.9851 17.0047 72.0651 17.186 72.2251C17.378 72.3851 17.618 72.6785 17.906 73.1051C18.2047 73.5318 18.5993 74.1345 19.09 74.9131C19.826 74.1771 20.4287 73.5798 20.898 73.1211C21.378 72.6518 21.762 72.2891 22.05 72.0331C22.3487 71.7771 22.578 71.6011 22.738 71.5051C22.9087 71.4091 23.0527 71.3611 23.17 71.3611C23.426 71.3611 23.6073 71.4518 23.714 71.6331C23.8313 71.8038 23.8793 72.0278 23.858 72.3051C23.8367 72.5291 23.7033 72.8011 23.458 73.1211C23.2233 73.4305 22.9193 73.7718 22.546 74.1451C22.1727 74.5078 21.7673 74.8865 21.33 75.2811C20.9033 75.6651 20.4873 76.0438 20.082 76.4171C20.7433 77.3558 21.362 78.1771 21.938 78.8811C22.5247 79.5745 22.9993 80.1505 23.362 80.6091C23.7247 81.0571 23.9113 81.3878 23.922 81.6011C23.9433 81.8251 23.8847 82.0011 23.746 82.1291C23.618 82.2571 23.4313 82.3211 23.186 82.3211C23.0473 82.3211 22.8767 82.2731 22.674 82.1771C22.4713 82.0811 22.1993 81.8838 21.858 81.5851C21.5273 81.2865 21.1007 80.8385 20.578 80.2411C20.066 79.6331 19.426 78.8171 18.658 77.7931C18.2207 78.2411 17.7833 78.6891 17.346 79.1371C16.9193 79.5851 16.514 80.0011 16.13 80.3851C15.7567 80.7585 15.426 81.0625 15.138 81.2971C14.8607 81.5211 14.658 81.6331 14.53 81.6331ZM28.4336 82.4011C27.8363 82.4011 27.319 82.2625 26.8816 81.9851C26.4443 81.7185 26.1083 81.3718 25.8736 80.9451C25.639 80.5078 25.5216 80.0598 25.5216 79.6011C25.5216 78.8331 25.639 78.1238 25.8736 77.4731C26.1083 76.8118 26.4176 76.2145 26.8016 75.6811C27.1856 75.1371 27.6016 74.6571 28.0496 74.2411C28.5083 73.8251 28.951 73.4785 29.3776 73.2011C29.815 72.9131 30.2043 72.6998 30.5456 72.5611C30.887 72.4118 31.1376 72.3371 31.2976 72.3371C31.5856 72.3371 31.7883 72.4011 31.9056 72.5291C32.0336 72.6465 32.0976 72.8438 32.0976 73.1211C32.0976 73.2811 31.9803 73.4731 31.7456 73.6971C31.5216 73.9211 31.223 74.1771 30.8496 74.4651C30.487 74.7531 30.103 75.0785 29.6976 75.4411C29.2923 75.8038 28.903 76.2091 28.5296 76.6571C28.167 77.1051 27.8683 77.5958 27.6336 78.1291C27.4096 78.6625 27.2976 79.2438 27.2976 79.8731C27.2976 80.1078 27.3403 80.2891 27.4256 80.4171C27.5216 80.5451 27.6763 80.6091 27.8896 80.6091C28.4976 80.6091 29.1483 80.5025 29.8416 80.2891C30.5456 80.0651 31.2443 79.7878 31.9376 79.4571C32.6416 79.1158 33.303 78.7638 33.9216 78.4011C34.551 78.0385 35.0896 77.7131 35.5376 77.4251C35.719 77.2971 35.8736 77.1958 36.0016 77.1211C36.1296 77.0465 36.2203 77.0091 36.2736 77.0091C36.5936 77.0091 36.7536 77.1745 36.7536 77.5051C36.7536 77.6758 36.6256 77.9051 36.3696 78.1931C36.071 78.5665 35.6656 78.9505 35.1536 79.3451C34.6523 79.7398 34.0923 80.1185 33.4736 80.4811C32.8656 80.8438 32.2416 81.1691 31.6016 81.4571C30.9723 81.7451 30.3803 81.9745 29.8256 82.1451C29.271 82.3158 28.807 82.4011 28.4336 82.4011ZM37.7729 82.4971C37.1115 82.4971 36.5782 82.2678 36.1729 81.8091C35.7675 81.3398 35.5649 80.5878 35.5649 79.5531C35.5649 78.8918 35.6395 78.2305 35.7889 77.5691C35.9489 76.8971 36.1675 76.2625 36.4449 75.6651C36.7329 75.0571 37.0635 74.5185 37.4369 74.0491C37.8209 73.5798 38.2422 73.2118 38.7009 72.9451C39.1595 72.6678 39.6342 72.5291 40.1249 72.5291C40.9569 72.5291 41.6075 72.7531 42.0769 73.2011C42.5462 73.6491 42.7809 74.2198 42.7809 74.9131C42.7809 75.4465 42.6315 75.9318 42.3329 76.3691C42.0449 76.7958 41.6502 77.1798 41.1489 77.5211C40.6475 77.8625 40.0875 78.1718 39.4689 78.4491C38.8502 78.7265 38.2155 78.9771 37.5649 79.2011C37.5115 79.5851 37.4849 79.9265 37.4849 80.2251C37.4849 80.4065 37.5862 80.4971 37.7889 80.4971C38.2689 80.4971 38.7809 80.4225 39.3249 80.2731C39.8795 80.1131 40.4395 79.9105 41.0049 79.6651C41.5702 79.4091 42.1142 79.1478 42.6369 78.8811C43.1595 78.6038 43.6342 78.3425 44.0609 78.0971C44.4982 77.8411 44.8555 77.6385 45.1329 77.4891C45.4209 77.3291 45.6075 77.2491 45.6929 77.2491C45.9275 77.2491 46.0982 77.3185 46.2049 77.4571C46.3115 77.5958 46.3649 77.7451 46.3649 77.9051C46.3649 77.9798 46.2209 78.1451 45.9329 78.4011C45.6555 78.6571 45.2715 78.9611 44.7809 79.3131C44.3009 79.6545 43.7569 80.0118 43.1489 80.3851C42.5515 80.7478 41.9275 81.0945 41.2769 81.4251C40.6369 81.7451 40.0129 82.0011 39.4049 82.1931C38.8075 82.3958 38.2635 82.4971 37.7729 82.4971ZM37.8369 77.7771C38.2742 77.5211 38.7062 77.2545 39.1329 76.9771C39.5702 76.6891 39.9329 76.3691 40.2209 76.0171C40.5089 75.6545 40.6529 75.2331 40.6529 74.7531C40.6529 74.6145 40.6155 74.5238 40.5409 74.4811C40.4662 74.4278 40.3595 74.4011 40.2209 74.4011C39.8475 74.4011 39.5062 74.5665 39.1969 74.8971C38.8982 75.2278 38.6315 75.6545 38.3969 76.1771C38.1729 76.6891 37.9862 77.2225 37.8369 77.7771ZM48.6946 82.7531C47.7346 82.7531 46.9773 82.4598 46.4226 81.8731C45.8786 81.2758 45.6066 80.4278 45.6066 79.3291C45.6066 78.7318 45.6866 78.0331 45.8466 77.2331C46.0066 76.4225 46.2146 75.5691 46.4706 74.6731C46.7373 73.7665 47.02 72.8705 47.3186 71.9851C47.628 71.0998 47.932 70.2785 48.2306 69.5211C48.5293 68.7638 48.7906 68.1291 49.0146 67.6171C49.2066 67.2225 49.4786 67.0251 49.8306 67.0251C50.0546 67.0251 50.236 67.0945 50.3746 67.2331C50.524 67.3718 50.5986 67.5958 50.5986 67.9051C50.5986 68.0545 50.524 68.3798 50.3746 68.8811C50.2253 69.3825 50.028 70.0011 49.7826 70.7371C49.548 71.4625 49.292 72.2465 49.0146 73.0891C48.748 73.9318 48.492 74.7798 48.2466 75.6331C48.012 76.4865 47.82 77.2918 47.6706 78.0491C47.5213 78.7958 47.4466 79.4305 47.4466 79.9531C47.4466 80.1665 47.5053 80.3371 47.6226 80.4651C47.7506 80.5931 47.916 80.6571 48.1186 80.6571C48.556 80.6571 49.004 80.5771 49.4626 80.4171C49.932 80.2571 50.3906 80.0545 50.8386 79.8091C51.2973 79.5638 51.7293 79.3025 52.1346 79.0251C52.54 78.7478 52.9026 78.4865 53.2226 78.2411C53.5533 77.9851 53.82 77.7825 54.0226 77.6331C54.2893 77.4305 54.4706 77.3291 54.5666 77.3291C54.9293 77.3291 55.1106 77.5051 55.1106 77.8571C55.1106 77.9425 55.004 78.1185 54.7906 78.3851C54.6093 78.6198 54.3533 78.9185 54.0226 79.2811C53.692 79.6438 53.308 80.0278 52.8706 80.4331C52.444 80.8278 51.9853 81.2011 51.4946 81.5531C51.0146 81.9051 50.5346 82.1931 50.0546 82.4171C49.5746 82.6411 49.1213 82.7531 48.6946 82.7531Z" fill="#475467"/>
<path d="M144.532 23.5096C143.725 22.665 142.803 21.9025 142.128 20.963C136.118 12.5974 127.473 8.39187 117.846 6.11855C114.522 5.33382 110.747 5.40919 107.375 6.08015C97.7376 7.99798 88.9054 11.9611 81.2921 18.2873C79.0977 20.1107 77.2469 22.3475 75.6477 24.9648C76.5279 24.6334 77.4212 24.3328 78.2857 23.9648C80.832 22.8807 83.3282 21.6635 85.9242 20.7187C87.0576 20.3062 88.3921 20.313 89.6236 20.3719C90.0804 20.3938 90.7752 21.0585 90.8635 21.5244C90.9453 21.9564 90.4646 22.8418 90.0582 22.9677C83.3608 25.0418 77.6106 28.9657 71.5486 32.2848C69.4235 33.4483 68.0811 33.1258 67.183 31.056C64.9012 25.7976 63.8932 20.2475 64.0101 14.5089C64.0139 14.3184 64.312 14.134 64.7633 13.6088C69.4257 15.3583 67.9744 20.3503 70.2716 24.3714C70.8493 23.4098 71.1894 22.6429 71.703 22.0187C81.6412 9.94084 94.7229 3.54844 109.928 1.16221C112.243 0.798782 114.731 0.942535 117.056 1.33698C125.705 2.80407 133.416 6.42247 139.784 12.4787C141.835 14.4296 143.306 17.0346 144.831 19.4728C145.423 20.4197 145.43 21.7326 145.703 22.8787C145.313 23.089 144.922 23.2993 144.532 23.5096Z" fill="url(#paint0_linear_8594_1622)"/>
<defs>
<linearGradient id="paint0_linear_8594_1622" x1="64.001" y1="16.9531" x2="145.703" y2="16.9531" gradientUnits="userSpaceOnUse">
<stop stop-color="#9BADFF"/>
<stop offset="1" stop-color="#5B9CFC" stop-opacity="0"/>
</linearGradient>
</defs>
</svg>
