<svg width="115" height="64" viewBox="0 0 115 64" fill="none" xmlns="http://www.w3.org/2000/svg">
<path d="M8.736 14.8891C8.11733 14.8891 7.50933 14.8145 6.912 14.6651C6.32533 14.5158 5.77067 14.3238 5.248 14.0891C5.01333 15.0491 4.81067 16.0998 4.64 17.2411C4.59733 17.5611 4.53333 17.8545 4.448 18.1211C4.36267 18.3771 4.22933 18.5851 4.048 18.7451C3.86667 18.9051 3.6 18.9851 3.248 18.9851C2.91733 18.9851 2.69867 18.8571 2.592 18.6011C2.48533 18.3451 2.432 18.0305 2.432 17.6571C2.432 17.5398 2.47467 17.2358 2.56 16.7451C2.64533 16.2545 2.752 15.6625 2.88 14.9691C3.008 14.2651 3.14133 13.5398 3.28 12.7931C2.84267 12.3558 2.624 11.9558 2.624 11.5931C2.624 11.4118 2.67733 11.2411 2.784 11.0811C2.90133 10.9105 3.12533 10.8251 3.456 10.8251C3.49867 10.8251 3.55733 10.8411 3.632 10.8731C3.73867 10.2758 3.82933 9.74246 3.904 9.27312C3.98933 8.79312 4.03733 8.44646 4.048 8.23312C4.06933 7.82779 4.13333 7.52912 4.24 7.33712C4.34667 7.13446 4.48 7.00112 4.64 6.93712C4.81067 6.86246 4.98133 6.82512 5.152 6.82512C5.376 6.82512 5.54667 6.87312 5.664 6.96912C5.78133 7.06512 5.84 7.27846 5.84 7.60912C5.84 7.92912 5.83467 8.22246 5.824 8.48912C6.34667 7.59312 6.89067 6.96379 7.456 6.60112C8.02133 6.22779 8.64 6.04112 9.312 6.04112C9.97333 6.04112 10.5493 6.22246 11.04 6.58512C11.5307 6.94779 11.9093 7.47046 12.176 8.15312C12.4533 8.82512 12.592 9.63579 12.592 10.5851C12.592 12.0358 12.256 13.1185 11.584 13.8331C10.9227 14.5371 9.97333 14.8891 8.736 14.8891ZM5.792 12.2011C6.18667 12.4145 6.608 12.6011 7.056 12.7611C7.504 12.9105 7.96267 12.9851 8.432 12.9851C9.18933 12.9851 9.744 12.7878 10.096 12.3931C10.4587 11.9985 10.64 11.3478 10.64 10.4411C10.64 8.83046 10.1547 8.02512 9.184 8.02512C8.56533 8.02512 7.96267 8.37179 7.376 9.06512C6.8 9.75846 6.272 10.8038 5.792 12.2011ZM15.0324 19.6571C14.7657 19.6571 14.5364 19.5611 14.3444 19.3691C14.163 19.1771 14.0724 18.8998 14.0724 18.5371C14.0724 18.3771 14.0937 18.1158 14.1364 17.7531C14.1897 17.3798 14.2537 16.9531 14.3284 16.4731C14.4137 15.9931 14.4937 15.4918 14.5684 14.9691C14.6537 14.4465 14.723 13.9505 14.7764 13.4811C14.8404 13.0118 14.883 12.6118 14.9044 12.2811C14.9257 11.8758 15.0324 11.5878 15.2244 11.4171C15.4164 11.2358 15.6457 11.1451 15.9124 11.1451C16.1257 11.1451 16.3177 11.1985 16.4884 11.3051C16.6697 11.4011 16.7817 11.6091 16.8244 11.9291C16.8777 12.2385 16.883 12.6865 16.8404 13.2731C17.3097 12.4198 17.7844 11.6571 18.2644 10.9851C18.755 10.3131 19.267 9.77979 19.8004 9.38512C20.6857 8.71312 21.4857 8.37712 22.2004 8.37712C22.6057 8.37712 22.8724 8.46779 23.0004 8.64912C23.1284 8.83046 23.1924 9.01712 23.1924 9.20912C23.1924 9.33712 23.1604 9.45446 23.0964 9.56112C23.043 9.66779 22.9257 9.77979 22.7444 9.89712C22.563 10.0145 22.2857 10.1691 21.9124 10.3611C21.411 10.6171 20.915 10.9531 20.4244 11.3691C19.9444 11.7851 19.4644 12.3185 18.9844 12.9691C18.5044 13.6198 18.019 14.4198 17.5284 15.3691C17.0377 16.3185 16.531 17.4491 16.0084 18.7611C15.9124 19.1238 15.7737 19.3638 15.5924 19.4811C15.4217 19.5985 15.235 19.6571 15.0324 19.6571ZM22.8135 19.5611C22.4722 19.5611 22.1628 19.4651 21.8855 19.2731C21.6082 19.0918 21.3895 18.8518 21.2295 18.5531C21.0695 18.2438 20.9895 17.9131 20.9895 17.5611C20.9895 16.8998 21.1335 16.2545 21.4215 15.6251C21.7202 14.9958 22.1095 14.3985 22.5895 13.8331C23.0695 13.2678 23.5922 12.7505 24.1575 12.2811C24.7335 11.8011 25.3042 11.3905 25.8695 11.0491C26.4455 10.7078 26.9682 10.4411 27.4375 10.2491C27.9175 10.0571 28.2908 9.96112 28.5575 9.96112C28.8668 9.96112 29.1175 10.0305 29.3095 10.1691C29.5122 10.2971 29.6135 10.4998 29.6135 10.7771C29.6135 10.8625 29.5922 10.9318 29.5495 10.9851C29.6882 11.0171 29.8002 11.0971 29.8855 11.2251C29.9708 11.3531 30.0135 11.5451 30.0135 11.8011C30.0135 11.9078 29.9868 12.1851 29.9335 12.6331C29.8802 13.0811 29.8215 13.6251 29.7575 14.2651C29.7042 14.9051 29.6775 15.5718 29.6775 16.2651C29.6775 16.3718 29.6935 16.4678 29.7255 16.5531C29.7575 16.6278 29.8268 16.6651 29.9335 16.6651C30.3602 16.6651 30.7922 16.5798 31.2295 16.4091C31.6775 16.2278 32.1095 16.0091 32.5255 15.7531C32.9522 15.4865 33.3362 15.2251 33.6775 14.9691C34.0295 14.7025 34.3228 14.4838 34.5575 14.3131C34.8028 14.1318 34.9628 14.0411 35.0375 14.0411C35.4002 14.0411 35.5815 14.2225 35.5815 14.5851C35.5815 14.6811 35.4642 14.8838 35.2295 15.1931C35.0055 15.4918 34.6962 15.8385 34.3015 16.2331C33.9068 16.6171 33.4642 17.0011 32.9735 17.3851C32.4935 17.7585 31.9922 18.0678 31.4695 18.3131C30.9575 18.5585 30.4615 18.6811 29.9815 18.6811C29.3948 18.6811 28.9468 18.5425 28.6375 18.2651C28.3388 17.9878 28.1255 17.6145 27.9975 17.1451C27.8802 16.6651 27.8162 16.1265 27.8055 15.5291C27.2615 16.3078 26.6962 17.0011 26.1095 17.6091C25.5335 18.2065 24.9628 18.6811 24.3975 19.0331C23.8322 19.3851 23.3042 19.5611 22.8135 19.5611ZM28.4775 11.5451C27.4322 12.0465 26.4935 12.6225 25.6615 13.2731C24.8295 13.9131 24.1682 14.5851 23.6775 15.2891C23.1975 15.9931 22.9575 16.6705 22.9575 17.3211C22.9575 17.5025 23.0428 17.5931 23.2135 17.5931C23.4162 17.5931 23.6828 17.4758 24.0135 17.2411C24.3548 17.0065 24.7228 16.6971 25.1175 16.3131C25.5122 15.9185 25.9068 15.4811 26.3015 15.0011C26.6962 14.5105 27.0642 14.0091 27.4055 13.4971C27.7468 12.9851 28.0188 12.4945 28.2215 12.0251C28.2962 11.8545 28.3815 11.6945 28.4775 11.5451ZM37.1774 19.4011C36.58 19.4011 36.0627 19.2625 35.6254 18.9851C35.188 18.7185 34.852 18.3718 34.6174 17.9451C34.3827 17.5078 34.2654 17.0598 34.2654 16.6011C34.2654 15.8331 34.3827 15.1238 34.6174 14.4731C34.852 13.8118 35.1614 13.2145 35.5454 12.6811C35.9294 12.1371 36.3454 11.6571 36.7934 11.2411C37.252 10.8251 37.6947 10.4785 38.1214 10.2011C38.5587 9.91312 38.948 9.69979 39.2894 9.56112C39.6307 9.41179 39.8814 9.33712 40.0414 9.33712C40.3294 9.33712 40.532 9.40112 40.6494 9.52912C40.7774 9.64646 40.8414 9.84379 40.8414 10.1211C40.8414 10.2811 40.724 10.4731 40.4894 10.6971C40.2654 10.9211 39.9667 11.1771 39.5934 11.4651C39.2307 11.7531 38.8467 12.0785 38.4414 12.4411C38.036 12.8038 37.6467 13.2091 37.2734 13.6571C36.9107 14.1051 36.612 14.5958 36.3774 15.1291C36.1534 15.6625 36.0414 16.2438 36.0414 16.8731C36.0414 17.1078 36.084 17.2891 36.1694 17.4171C36.2654 17.5451 36.42 17.6091 36.6334 17.6091C37.2414 17.6091 37.892 17.5025 38.5854 17.2891C39.2894 17.0651 39.988 16.7878 40.6814 16.4571C41.3854 16.1158 42.0467 15.7638 42.6654 15.4011C43.2947 15.0385 43.8334 14.7131 44.2814 14.4251C44.4627 14.2971 44.6174 14.1958 44.7454 14.1211C44.8734 14.0465 44.964 14.0091 45.0174 14.0091C45.3374 14.0091 45.4974 14.1745 45.4974 14.5051C45.4974 14.6758 45.3694 14.9051 45.1134 15.1931C44.8147 15.5665 44.4094 15.9505 43.8974 16.3451C43.396 16.7398 42.836 17.1185 42.2174 17.4811C41.6094 17.8438 40.9854 18.1691 40.3454 18.4571C39.716 18.7451 39.124 18.9745 38.5694 19.1451C38.0147 19.3158 37.5507 19.4011 37.1774 19.4011ZM56.0096 10.8891C56.0096 11.0171 55.967 11.1291 55.8816 11.2251C55.7963 11.3211 55.6896 11.3958 55.5616 11.4491C55.3803 11.5238 55.0656 11.6198 54.6176 11.7371C54.1696 11.8545 53.6256 11.9878 52.9856 12.1371C52.3563 12.2865 51.679 12.4411 50.9536 12.6011C50.2283 12.7505 49.503 12.8945 48.7776 13.0331C48.5003 14.0571 48.2176 15.1131 47.9296 16.2011C47.6416 17.2785 47.3536 18.3398 47.0656 19.3851C46.959 19.7585 46.831 20.0411 46.6816 20.2331C46.5323 20.4358 46.2763 20.5371 45.9136 20.5371C45.519 20.5371 45.2523 20.4091 45.1136 20.1531C44.9856 19.9078 44.9696 19.5718 45.0656 19.1451C45.343 17.9825 45.599 16.8998 45.8336 15.8971C46.079 14.8945 46.2763 14.0838 46.4256 13.4651C45.7856 13.5718 45.2256 13.6571 44.7456 13.7211C44.2656 13.7745 43.9243 13.7958 43.7216 13.7851C43.4976 13.7638 43.311 13.6731 43.1616 13.5131C43.0123 13.3531 42.943 13.1558 42.9536 12.9211C42.975 12.7078 43.071 12.5265 43.2416 12.3771C43.4123 12.2171 43.615 12.1211 43.8496 12.0891C44.1803 12.0571 44.607 12.0091 45.1296 11.9451C45.6523 11.8811 46.2283 11.8065 46.8576 11.7211C46.9963 11.1771 47.1563 10.6171 47.3376 10.0411C47.519 9.45446 47.7056 8.89446 47.8976 8.36112C48.1003 7.81712 48.2923 7.34246 48.4736 6.93712C48.655 6.53179 48.8203 6.23846 48.9696 6.05712C49.087 5.91846 49.231 5.81179 49.4016 5.73712C49.583 5.66246 49.759 5.62512 49.9296 5.62512C50.1536 5.62512 50.335 5.70512 50.4736 5.86512C50.6123 6.02512 50.6816 6.21179 50.6816 6.42512C50.6816 6.51046 50.6763 6.60112 50.6656 6.69712C50.655 6.78246 50.6336 6.86779 50.6016 6.95312C50.399 7.48646 50.1803 8.13179 49.9456 8.88912C49.7216 9.64646 49.487 10.4785 49.2416 11.3851C50.0416 11.2678 50.8256 11.1505 51.5936 11.0331C52.3723 10.9051 53.0763 10.7878 53.7056 10.6811C54.3456 10.5638 54.8576 10.4625 55.2416 10.3771C55.455 10.3025 55.6363 10.3185 55.7856 10.4251C55.935 10.5211 56.0096 10.6758 56.0096 10.8891ZM56.4106 19.4811C55.6533 19.4811 55.0453 19.2145 54.5866 18.6811C54.128 18.1371 53.8986 17.4118 53.8986 16.5051C53.8986 16.2171 53.936 15.9238 54.0106 15.6251C54.096 15.3265 54.1973 15.0491 54.3146 14.7931C54.2506 14.6971 54.1973 14.5745 54.1546 14.4251C54.1226 14.2651 54.1066 14.0785 54.1066 13.8651C54.1066 13.1718 54.2293 12.5371 54.4746 11.9611C54.72 11.3745 55.0506 10.8678 55.4666 10.4411C55.8826 10.0145 56.3413 9.68379 56.8426 9.44912C57.344 9.21446 57.8506 9.09712 58.3626 9.09712C59.2373 9.09712 59.952 9.39046 60.5066 9.97712C61.072 10.5638 61.3546 11.4758 61.3546 12.7131C61.3546 13.3318 61.2586 13.9611 61.0666 14.6011C60.8746 15.2411 60.6133 15.8545 60.2826 16.4411C59.9626 17.0171 59.5893 17.5345 59.1626 17.9931C58.7466 18.4518 58.2986 18.8145 57.8186 19.0811C57.3493 19.3478 56.88 19.4811 56.4106 19.4811ZM56.1546 14.0731C56.208 14.1905 56.2346 14.3291 56.2346 14.4891C56.2346 14.6491 56.2026 14.8145 56.1386 14.9851C56.0746 15.1558 56.0106 15.3851 55.9466 15.6731C55.8826 15.9505 55.8506 16.3505 55.8506 16.8731C55.8506 17.0118 55.8666 17.1291 55.8986 17.2251C55.9413 17.3105 56.032 17.3531 56.1706 17.3531C56.5333 17.3531 56.8746 17.2358 57.1946 17.0011C57.5253 16.7665 57.8186 16.4571 58.0746 16.0731C58.3413 15.6891 58.5653 15.2625 58.7466 14.7931C58.9386 14.3131 59.0826 13.8278 59.1786 13.3371C59.2853 12.8358 59.3386 12.3718 59.3386 11.9451C59.3386 11.6678 59.2853 11.4758 59.1786 11.3691C59.072 11.2625 58.8853 11.2091 58.6186 11.2091C58.256 11.2091 57.8826 11.3265 57.4986 11.5611C57.1253 11.7851 56.8106 12.0945 56.5546 12.4891C56.2986 12.8731 56.1706 13.3105 56.1706 13.8011C56.1706 13.8971 56.1653 13.9878 56.1546 14.0731Z" fill="#475467"/>
<path d="M113.825 41.3967C113.014 42.2413 112.089 43.0037 111.412 43.9433C105.38 52.3089 96.7033 56.5144 87.041 58.7877C83.7054 59.5724 79.9167 59.4971 76.5325 58.8261C66.8596 56.9083 57.9952 52.9451 50.3541 46.619C48.1517 44.7955 46.2942 42.5588 44.6892 39.9414C45.5726 40.2728 46.4691 40.5735 47.3368 40.9414C49.8924 42.0255 52.3976 43.2428 55.0031 44.1875C56.1407 44.6 57.48 44.5933 58.716 44.5343C59.1745 44.5124 59.8718 43.8477 59.9604 43.3818C60.0426 42.9499 59.5601 42.0644 59.1522 41.9385C52.4304 39.8644 46.6593 35.9406 40.5751 32.6215C38.4423 31.4579 37.095 31.7805 36.1936 33.8503C33.9035 39.1086 32.8918 44.6588 33.0091 50.3974C33.013 50.5879 33.3121 50.7723 33.765 51.2975C38.4444 49.548 36.9879 44.5559 39.2934 40.5348C39.8733 41.4964 40.2146 42.2634 40.7301 42.8875C50.7045 54.9654 63.8339 61.3578 79.0941 63.744C81.418 64.1075 83.9146 63.9637 86.2488 63.5693C94.9289 62.1022 102.668 58.4838 109.059 52.4276C111.118 50.4766 112.595 47.8717 114.125 45.4334C114.719 44.4866 114.726 43.1736 115 42.0275C114.608 41.8172 114.216 41.6069 113.825 41.3967Z" fill="url(#paint0_linear_8594_1605)"/>
<defs>
<linearGradient id="paint0_linear_8594_1605" x1="33" y1="47.9531" x2="115" y2="47.9531" gradientUnits="userSpaceOnUse">
<stop stop-color="#9BADFF"/>
<stop offset="1" stop-color="#5B9CFC" stop-opacity="0"/>
</linearGradient>
</defs>
</svg>
