<svg width="325" height="223" viewBox="0 0 325 223" fill="none" xmlns="http://www.w3.org/2000/svg">
<path opacity="0.49" d="M69.2699 85.2307C114.572 85.2307 146.122 110.309 146.122 153.993C146.122 197.677 114.572 222.755 74.1237 222.755C24.7768 222.755 0.507812 185.542 0.507812 125.679C0.507812 31.8389 52.2816 -31.2604 138.032 -42.5859V14.0417C97.5837 19.7044 69.2699 52.0631 69.2699 85.2307ZM247.242 85.2307C292.544 85.2307 324.094 110.309 324.094 153.993C324.094 197.677 292.544 222.755 252.096 222.755C202.749 222.755 178.48 185.542 178.48 125.679C178.48 31.8389 230.254 -31.2604 316.004 -42.5859V14.0417C275.556 19.7044 247.242 52.0631 247.242 85.2307Z" fill="url(#paint0_linear_8508_15536)"/>
<defs>
<linearGradient id="paint0_linear_8508_15536" x1="324.094" y1="90.0844" x2="0.507812" y2="90.0844" gradientUnits="userSpaceOnUse">
<stop stop-color="#9BADFF"/>
<stop offset="1" stop-color="#5B9CFC" stop-opacity="0.12"/>
</linearGradient>
</defs>
</svg>
