<svg width="124" height="127" viewBox="0 0 124 127" fill="none" xmlns="http://www.w3.org/2000/svg">
<path d="M30.8251 34.2583C30.2365 38.1837 29.5496 42.1091 28.9609 46.0345C26.6062 47.9972 27.1949 50.4506 27.7836 52.9039C27.8817 53.0021 27.8817 53.1983 27.9798 53.2965C32.1987 57.0256 32.1988 57.0256 27.293 59.8715C25.7232 68.4093 24.8401 76.947 28.8629 85.1903C29.7459 85.9754 29.6478 86.9568 29.7459 87.9381C30.3346 88.5269 29.9421 89.6064 30.8251 89.9989C31.1195 90.5877 31.3157 91.2747 31.61 91.8635C35.1421 100.499 42.5007 104.228 50.7424 106.878C52.9009 107.565 55.1576 107.958 57.3161 108.645C58.0029 108.841 58.7878 108.939 59.4746 109.037C68.6974 110.804 69.0898 108.154 68.3049 120.126C68.2068 121.402 67.8143 122.678 68.7955 123.855C68.8936 124.052 69.0899 124.248 69.188 124.444C70.6597 126.113 72.7201 126.014 74.6824 126.014C83.807 126.113 92.9317 126.113 102.056 126.014C104.019 126.014 105.981 125.818 107.551 124.444C107.747 124.052 107.943 123.659 108.041 123.267C108.139 113.551 108.14 103.738 108.238 94.0225C108.238 90.0971 109.219 87.2512 113.928 85.9754C118.834 84.6015 122.66 80.8724 123.74 75.475C124.917 69.5869 121.974 65.4652 117.46 62.2267C116.283 61.3435 114.909 60.7547 114.811 58.9883C113.143 57.2219 110.887 57.6144 108.826 57.6144C93.5204 57.7125 80.3731 53.0021 70.071 41.2259C63.9879 34.2583 56.7274 28.7627 47.6027 26.1131C39.7536 23.7579 33.6705 26.7019 30.8251 34.2583Z" fill="#FD9993"/>
<path d="M30.8237 34.2311C38.2803 25.2027 43.186 24.2214 53.7823 29.6188C59.2767 32.3666 64.2805 35.8994 68.1069 40.6099C79.39 54.5451 94.3033 59.2555 111.473 58.9611C112.651 58.9611 113.73 58.9611 114.907 58.863C115.79 51.601 115.496 44.2409 115.104 36.9789C114.17 33.1532 113.671 23.6746 100.818 22.497C96.8128 22.13 87.4666 21.1619 83.4611 19.8267C78.588 18.2023 54.8722 1.13426 54.0873 1.13426C41.823 -3.96876 33.0803 10.5806 32.3935 22.5531C31.5104 26.3803 30.235 30.2076 30.8237 34.2311Z" fill="black"/>
<path d="M60.3513 56.4337C60.7438 58.2983 61.6271 59.6722 63.5898 59.574C65.3562 59.4759 66.6319 58.2983 66.5338 56.4337C66.4356 54.6673 65.3561 53.3915 63.3934 53.4897C61.5289 53.5878 60.5476 54.7654 60.3513 56.4337Z" fill="#1B100F"/>
<path d="M21.3309 32.1114C3.53554 33.981 3.53468 39.2036 3.53468 39.2036L70.7673 76.4401C72.3491 76.4401 79.3341 72.8941 82.6289 71.121C88.9564 62.6105 84.4745 42.0661 82.4976 40.3935C80.5206 38.7209 39.1262 30.2419 21.3309 32.1114Z" fill="#D6EBFF"/>
<path d="M73.8411 45.5406L82.4303 40.3906C87.5883 43.8239 87.1425 66.621 82.4244 71.2903C78.3044 75.4103 71.5522 76.4403 68.6912 76.4403C71.4378 76.4403 73.2689 55.8405 73.8411 45.5406Z" fill="#C4E2FF"/>
<path d="M75.3359 51.2865C75.3359 47.3933 72.7522 43.9644 68.9994 42.9687C48.236 37.46 33.0503 35.5981 9.28922 35.7862C4.57444 35.8236 0.803284 39.6931 0.803284 44.4195V66.2597C0.803284 71.9274 6.1621 76.0937 11.8139 75.1516C31.2819 71.9065 45.6919 74.2896 65.2389 77.6201C70.5277 78.5212 75.3359 74.4458 75.3359 69.0776V51.2865Z" fill="url(#paint0_linear_8433_9297)" stroke="#D6EBFF"/>
<path d="M68.7656 51.7026C68.7656 51.3122 68.7163 50.9211 68.6153 50.544C68.1179 48.6861 67.6956 47.4273 67.2628 46.6368C66.5674 45.3666 65.3323 46.6147 65.3323 48.0628V67.5842C65.3323 68.2938 66.9957 69.426 67.3747 70.0259C67.727 70.5836 68.7656 70.8304 68.7656 70.1708V51.7026Z" fill="white"/>
<path d="M55.0283 68.4943C54.5344 68.3661 54.1609 68.2484 53.8813 68.1357C52.9199 67.7483 54.0557 66.889 55.0809 67.0424L63.4589 68.296C63.7702 68.3426 63.5815 68.8414 63.5551 69.1551C63.5263 69.497 63.473 69.9004 63.1346 69.8441L55.0283 68.4943Z" fill="white"/>
<path d="M119.353 60.9015C118.731 62.4046 117.063 63.173 115.492 62.7505C96.4803 57.6386 87.241 64.6232 82.4587 68.5265C80.1926 70.3761 78.8284 68.8188 79.4954 65.9708L82.6558 52.4777C82.7908 51.9013 104.625 54.6546 117.013 56.657C118.987 56.9761 120.118 59.0534 119.353 60.9015Z" fill="#63B1FC"/>
<path d="M85.1 51.6848L82.6657 52.486C83.5176 52.6855 96.9154 53.9951 103.508 54.625L85.1 51.6848Z" fill="#005BB2"/>
<defs>
<linearGradient id="paint0_linear_8433_9297" x1="38.0696" y1="35.2734" x2="38.0696" y2="79.9064" gradientUnits="userSpaceOnUse">
<stop stop-color="#E7EFF6"/>
<stop offset="1" stop-color="#F6FBFF"/>
</linearGradient>
</defs>
</svg>
